<svg xmlns="http://www.w3.org/2000/svg"
  xmlns:xlink="http://www.w3.org/1999/xlink"
  viewBox="0 0 450.96 506.23"
  width="450.96"
  height="506.23"
  class="tutor-icon">
  <title>电机中的物理学</title>
  <path d="M278.88,309.43Q98.75,295.78,74.52,415.68q177,31.35,206.64-102.26-67.07,45-138.83,68.79Q212.38,355.41,278.88,309.43Z"
    transform="translate(-74.52 -46.89)"
    style="fill:#c81414" />
  <path d="M281.28,286.42Q203,123.6,87.08,162.57,148.43,331.53,279,290.4q-72.49-35.59-129-85.84Q208.21,251.83,281.28,286.42Z"
    transform="translate(-74.52 -46.89)"
    style="fill:#c8c814" />
  <path d="M302.4,277Q404.28,127.81,312.56,46.89,196.91,184.5,297.79,277q-5.42-80.58,9.85-154.62Q295.83,196.41,302.4,277Z"
    transform="translate(-74.52 -46.89)"
    style="fill:#14c814" />
  <path d="M321.12,290.57q180.14,13.65,204.36-106.25Q348.48,153,318.84,286.58q67.07-45,138.83-68.79Q387.62,244.6,321.12,290.57Z"
    transform="translate(-74.52 -46.89)"
    style="fill:#14c8c8" />
  <path d="M318.72,313.58Q397,476.41,512.92,437.43,451.57,268.47,321,309.6q72.49,35.59,129,85.84Q391.79,348.18,318.72,313.58Z"
    transform="translate(-74.52 -46.89)"
    style="fill:#1414c8" />
  <path d="M297.6,323Q195.72,472.19,287.44,553.11,403.09,415.5,302.21,323q5.42,80.58-9.85,154.62Q304.18,403.59,297.6,323Z"
    transform="translate(-74.52 -46.89)"
    style="fill:#c814c8" />
</svg>
