<svg xmlns="http://www.w3.org/2000/svg"
  viewBox="0 0 99.21 91.81"
  width="99.21"
  height="91.81"
 class="w-100 h-100" style="verticle-align: middle;">
  <title>单线条文档的徽标</title>
  <path
    d="M98.94,40.85a8,8,0,0,0-4.64-6.22q-.76-.36-1.5-.78a22.29,22.29,0,0,1-11-21.35,7.63,7.63,0,0,0-3.17-6.83A48.78,48.78,0,0,0,70,.7a8.05,8.05,0,0,0-7.85.87c-.45.32-.93.62-1.41.9a22.3,22.3,0,0,1-24-1.11A7.67,7.67,0,0,0,29.2.69a48.78,48.78,0,0,0-8.55,5,8,8,0,0,0-3.14,7.2c0,.55.06,1.1.06,1.66a22.28,22.28,0,0,1-13,20.25,7.57,7.57,0,0,0-4.3,6.06A47.27,47.27,0,0,0,0,45.9,49.47,49.47,0,0,0,.27,51a8,8,0,0,0,4.65,6.22c.5.24,1,.5,1.49.78A22.31,22.31,0,0,1,17.46,79.3a7.65,7.65,0,0,0,3.17,6.83,49.14,49.14,0,0,0,8.55,5A8,8,0,0,0,37,90.23c.46-.31.93-.61,1.42-.89a22.28,22.28,0,0,1,24,1.11,7.67,7.67,0,0,0,7.55.67,49.6,49.6,0,0,0,8.54-5A8,8,0,0,0,81.71,79c0-.55-.07-1.11-.07-1.68A22.27,22.27,0,0,1,94.64,57,7.59,7.59,0,0,0,99,50.93a49.25,49.25,0,0,0,.25-5A46.77,46.77,0,0,0,98.94,40.85ZM68.91,71a.51.51,0,0,1-.7.15l-9.45-6-9.38-6.08C46.24,57.08,43.15,55,40,53L30.71,46.8a1.14,1.14,0,0,1-.31-.31,1,1,0,0,1-.15-.4,2.55,2.55,0,0,0-1.11,1.5,18.81,18.81,0,0,0-.64,2.35c-.35,1.64-.86,3.17-1.16,4.83a19.57,19.57,0,0,1-.66,2.47,7.93,7.93,0,0,1-1.15,2.31,8.87,8.87,0,0,1-4.13,2.88l0-.09a8.65,8.65,0,0,0,3.77-3.07,11.35,11.35,0,0,0,1.39-4.64c.11-.83.19-1.68.35-2.52a20,20,0,0,1,.64-2.45,11.64,11.64,0,0,1,1-2.38,3.58,3.58,0,0,1,.86-1.05,1.87,1.87,0,0,1,.9-.39,1.07,1.07,0,0,1,.46-.83L40,38.85c3.12-2,6.21-4.12,9.35-6.14l9.38-6.07,9.45-6a.5.5,0,0,1,.71.66l-.12.23a48.8,48.8,0,0,1-3.24,5.21C64.42,28.41,63.21,30,62,31.47a98.26,98.26,0,0,1-7.81,8.44l-2.05,2L50,43.73c-1.39,1.27-1.15,1-2.59,2.19,0,0,2.12,1.76,2.58,2.18.7.62,1.42,1.23,2.11,1.87l2.06,2A103.19,103.19,0,0,1,62,60.36c1.23,1.51,2.44,3.06,3.58,4.7a48.7,48.7,0,0,1,3.25,5.2l.12.23A.49.49,0,0,1,68.91,71Z"
    style="fill:#fff" />
</svg>
