<svg xmlns="http://www.w3.org/2000/svg"
  viewBox="0 0 368.5 150.24"
  width="368.5"
  height="150.24"
  class="w-100 h-auto my-3">
  <title>气隙</title>
  <path d="M12.34,20.66c3.74,6.74,8.58,17.84,7.51,31.1C18.45,69.12,8.05,76,5.61,93.76c-1.06,7.74-.93,19.82,6.73,35.82h147.2V20.66H12.34"
    style="fill:#bfbfbf;stroke:#000;stroke-miterlimit:10;stroke-width:1.5px" />
  <path d="M354.17,20.66H209V129.58h145.2c-13-20.74-12.9-34.68-10.46-43.55,4.4-15.91,18-21.55,19.53-37.83C364.29,36.75,358.7,26.88,354.17,20.66Z"
    style="fill:#bfbfbf;stroke:#000;stroke-miterlimit:10;stroke-width:1.5px" />
  <line x1="181.26"
    y1="75.12"
    x2="208.97"
    y2="75.12"
    style="fill:none;stroke:#000;stroke-linecap:square;stroke-miterlimit:10" />
  <line x1="159.54"
    y1="75.12"
    x2="180.67"
    y2="75.12"
    style="fill:none;stroke:#000;stroke-linecap:square;stroke-miterlimit:10" />
  <polygon points="179.94 77.61 184.26 75.12 179.94 72.63 179.94 77.61" />
  <line x1="181.26"
    y1="63.78"
    x2="208.97"
    y2="63.78"
    style="fill:none;stroke:#000;stroke-linecap:square;stroke-miterlimit:10" />
  <line x1="159.54"
    y1="63.78"
    x2="180.67"
    y2="63.78"
    style="fill:none;stroke:#000;stroke-linecap:square;stroke-miterlimit:10" />
  <polygon points="179.94 66.27 184.26 63.78 179.94 61.29 179.94 66.27" />
  <line x1="181.26"
    y1="52.44"
    x2="208.97"
    y2="52.44"
    style="fill:none;stroke:#000;stroke-linecap:square;stroke-miterlimit:10" />
  <line x1="159.54"
    y1="52.44"
    x2="180.67"
    y2="52.44"
    style="fill:none;stroke:#000;stroke-linecap:square;stroke-miterlimit:10" />
  <polygon points="179.94 54.93 184.26 52.44 179.94 49.95 179.94 54.93" />
  <line x1="181.26"
    y1="41.1"
    x2="208.97"
    y2="41.1"
    style="fill:none;stroke:#000;stroke-linecap:square;stroke-miterlimit:10" />
  <line x1="159.54"
    y1="41.1"
    x2="180.67"
    y2="41.1"
    style="fill:none;stroke:#000;stroke-linecap:square;stroke-miterlimit:10" />
  <polygon points="179.94 43.6 184.26 41.1 179.94 38.61 179.94 43.6" />
  <line x1="181.26"
    y1="86.46"
    x2="208.97"
    y2="86.46"
    style="fill:none;stroke:#000;stroke-linecap:square;stroke-miterlimit:10" />
  <line x1="159.54"
    y1="86.46"
    x2="180.67"
    y2="86.46"
    style="fill:none;stroke:#000;stroke-linecap:square;stroke-miterlimit:10" />
  <polygon points="179.94 88.95 184.26 86.46 179.94 83.96 179.94 88.95" />
  <line x1="181.26"
    y1="75.12"
    x2="208.97"
    y2="75.12"
    style="fill:none;stroke:#000;stroke-linecap:square;stroke-miterlimit:10" />
  <line x1="159.54"
    y1="75.12"
    x2="180.67"
    y2="75.12"
    style="fill:none;stroke:#000;stroke-linecap:square;stroke-miterlimit:10" />
  <polygon points="179.94 77.61 184.26 75.12 179.94 72.63 179.94 77.61" />
  <line x1="181.26"
    y1="63.78"
    x2="208.97"
    y2="63.78"
    style="fill:none;stroke:#000;stroke-linecap:square;stroke-miterlimit:10" />
  <line x1="159.54"
    y1="63.78"
    x2="180.67"
    y2="63.78"
    style="fill:none;stroke:#000;stroke-linecap:square;stroke-miterlimit:10" />
  <polygon points="179.94 66.27 184.26 63.78 179.94 61.29 179.94 66.27" />
  <line x1="181.26"
    y1="52.44"
    x2="208.97"
    y2="52.44"
    style="fill:none;stroke:#000;stroke-linecap:square;stroke-miterlimit:10" />
  <line x1="159.54"
    y1="52.44"
    x2="180.67"
    y2="52.44"
    style="fill:none;stroke:#000;stroke-linecap:square;stroke-miterlimit:10" />
  <polygon points="179.94 54.93 184.26 52.44 179.94 49.95 179.94 54.93" />
  <line x1="181.26"
    y1="97.8"
    x2="208.97"
    y2="97.8"
    style="fill:none;stroke:#000;stroke-linecap:square;stroke-miterlimit:10" />
  <line x1="159.54"
    y1="97.8"
    x2="180.67"
    y2="97.8"
    style="fill:none;stroke:#000;stroke-linecap:square;stroke-miterlimit:10" />
  <polygon points="179.94 100.29 184.26 97.8 179.94 95.3 179.94 100.29" />
  <line x1="181.26"
    y1="86.46"
    x2="208.97"
    y2="86.46"
    style="fill:none;stroke:#000;stroke-linecap:square;stroke-miterlimit:10" />
  <line x1="159.54"
    y1="86.46"
    x2="180.67"
    y2="86.46"
    style="fill:none;stroke:#000;stroke-linecap:square;stroke-miterlimit:10" />
  <polygon points="179.94 88.95 184.26 86.46 179.94 83.96 179.94 88.95" />
  <line x1="181.26"
    y1="75.12"
    x2="208.97"
    y2="75.12"
    style="fill:none;stroke:#000;stroke-linecap:square;stroke-miterlimit:10" />
  <line x1="159.54"
    y1="75.12"
    x2="180.67"
    y2="75.12"
    style="fill:none;stroke:#000;stroke-linecap:square;stroke-miterlimit:10" />
  <polygon points="179.94 77.61 184.26 75.12 179.94 72.63 179.94 77.61" />
  <line x1="181.26"
    y1="63.78"
    x2="208.97"
    y2="63.78"
    style="fill:none;stroke:#000;stroke-linecap:square;stroke-miterlimit:10" />
  <line x1="159.54"
    y1="63.78"
    x2="180.67"
    y2="63.78"
    style="fill:none;stroke:#000;stroke-linecap:square;stroke-miterlimit:10" />
  <polygon points="179.94 66.27 184.26 63.78 179.94 61.29 179.94 66.27" />
  <line x1="181.26"
    y1="109.13"
    x2="208.97"
    y2="109.13"
    style="fill:none;stroke:#000;stroke-linecap:square;stroke-miterlimit:10" />
  <line x1="159.54"
    y1="109.13"
    x2="180.67"
    y2="109.13"
    style="fill:none;stroke:#000;stroke-linecap:square;stroke-miterlimit:10" />
  <polygon points="179.94 111.63 184.26 109.13 179.94 106.64 179.94 111.63" />
  <line x1="181.26"
    y1="97.8"
    x2="208.97"
    y2="97.8"
    style="fill:none;stroke:#000;stroke-linecap:square;stroke-miterlimit:10" />
  <line x1="159.54"
    y1="97.8"
    x2="180.67"
    y2="97.8"
    style="fill:none;stroke:#000;stroke-linecap:square;stroke-miterlimit:10" />
  <polygon points="179.94 100.29 184.26 97.8 179.94 95.3 179.94 100.29" />
  <line x1="181.26"
    y1="86.46"
    x2="208.97"
    y2="86.46"
    style="fill:none;stroke:#000;stroke-linecap:square;stroke-miterlimit:10" />
  <line x1="159.54"
    y1="86.46"
    x2="180.67"
    y2="86.46"
    style="fill:none;stroke:#000;stroke-linecap:square;stroke-miterlimit:10" />
  <polygon points="179.94 88.95 184.26 86.46 179.94 83.96 179.94 88.95" />
  <line x1="181.26"
    y1="75.12"
    x2="208.97"
    y2="75.12"
    style="fill:none;stroke:#000;stroke-linecap:square;stroke-miterlimit:10" />
  <line x1="159.54"
    y1="75.12"
    x2="180.67"
    y2="75.12"
    style="fill:none;stroke:#000;stroke-linecap:square;stroke-miterlimit:10" />
  <polygon points="179.94 77.61 184.26 75.12 179.94 72.63 179.94 77.61" />
  <path d="M159.54,116.81s15.64,1.77,23.85,1.77c9.56,0,25.58-1.77,25.58-1.77"
    style="fill:none;stroke:#000;stroke-linecap:square;stroke-miterlimit:10" />
  <path d="M159.54,124s14.8,5.34,24.43,5.34c10.66,0,25-5.34,25-5.34"
    style="fill:none;stroke:#000;stroke-linecap:square;stroke-miterlimit:10" />
  <path d="M155.83,130.07s10,9.56,27.3,9.56c18.57,0,29.55-10,29.55-10"
    style="fill:none;stroke:#000;stroke-linecap:square;stroke-miterlimit:10" />
  <polygon points="180.11 121.07 184.42 118.58 180.11 116.08 180.11 121.07" />
  <polygon points="180.11 131.75 184.42 129.26 180.11 126.77 180.11 131.75" />
  <polygon points="180.11 142.12 184.42 139.63 180.11 137.13 180.11 142.12" />
  <path d="M159.54,33.42s15.64-1.76,23.85-1.76c9.56,0,25.58,1.76,25.58,1.76"
    style="fill:none;stroke:#000;stroke-linecap:square;stroke-miterlimit:10" />
  <path d="M159.54,26.26s14.8-5.34,24.43-5.34c10.66,0,25,5.34,25,5.34"
    style="fill:none;stroke:#000;stroke-linecap:square;stroke-miterlimit:10" />
  <path d="M155.83,20.17s10-9.56,27.3-9.56c18.57,0,29.55,10.05,29.55,10.05"
    style="fill:none;stroke:#000;stroke-linecap:square;stroke-miterlimit:10" />
  <polygon points="180.11 34.15 184.42 31.66 180.11 29.17 180.11 34.15" />
  <polygon points="180.11 23.47 184.42 20.98 180.11 18.48 180.11 23.47" />
  <polygon points="180.11 13.1 184.42 10.61 180.11 8.12 180.11 13.1" /><text transform="translate(74.01 80.96)"
    style="font-size:20px;font-family:SchneidlerBT-BlackItalic, Schneidler Blk BT;font-weight:800;font-style:italic">N</text><text transform="translate(279.99 80.96)"
    style="font-size:20px;font-family:SchneidlerBT-BlackItalic, Schneidler Blk BT;font-weight:800;font-style:italic">S</text>
</svg>
