<svg xmlns="http://www.w3.org/2000/svg"
  viewBox="0 0 558.31 273.66"
  width="558.31"
  height="273.66"
  class="w-100 my-3">
  <title>amperes-law</title>
  <path d="M233.48,122.14c.43,56.16-12.23,101.68-21.78,135.29-.2,1.22,1.27,2.47,3.29,2.81s3.82-.37,4-1.58c0,0,22-80.36,21.55-136.52"
    style="fill:#0078c8;stroke:#000;stroke-miterlimit:10;stroke-width:1.17910462057891px" />
  <path d="M276.27,122.14c.44,56.16,1.33,103.62,0,140,0,1.23-1.67,2.23-3.74,2.23s-3.65-1-3.65-2.25v0c1.42-36.49.41-83.87,0-140"
    style="fill:#0078c8;stroke:#000;stroke-miterlimit:10;stroke-width:1.17910462057891px" />
  <path d="M311.52,122.14c-.43,56.16,12.23,101.68,21.78,135.29.21,1.22-1.27,2.47-3.29,2.81s-3.82-.37-4-1.58c0,0-22-80.36-21.54-136.52"
    style="fill:#0078c8;stroke:#000;stroke-miterlimit:10;stroke-width:1.17910462057891px" />
  <ellipse cx="275.36"
    cy="131.86"
    rx="108.31"
    ry="53.15"
    style="fill:#fff;stroke:#000;stroke-miterlimit:10;stroke-width:1.17910462057891px" />
  <path d="M216.6,12.83c7.1,29.22,16.87,108.53,16.87,108.53,0,1.23,1.65,2.18,3.6,2.13s3.51-1.09,3.48-2.32c0,0-9.77-80.69-16.88-109.91"
    style="fill:#0078c8;stroke:#000;stroke-linecap:round;stroke-miterlimit:10;stroke-width:1.17910462057891px" />
  <path d="M275.55,11.26c.49,29.79.66,110.79.66,110.79,0,1.23-1.65,2.23-3.68,2.23s-3.68-1-3.68-2.23c0,0-.05-81.9-.37-110.79"
    style="fill:#0078c8;stroke:#000;stroke-linecap:round;stroke-miterlimit:10;stroke-width:1.17910462057891px" />
  <path d="M328.41,12.83c-7.11,29.22-16.89,108.53-16.89,108.53,0,1.23-1.64,2.18-3.59,2.13s-3.51-1.09-3.48-2.32c0,0,9.78-80.69,16.88-109.91"
    style="fill:#0078c8;stroke:#000;stroke-miterlimit:10;stroke-width:1.17910462057891px" />
  <ellipse cx="220.01"
    cy="11.55"
    rx="3.71"
    ry="2.23"
    transform="translate(1.12 36.55) rotate(-9.52)"
    style="fill:#a0c8ff;stroke:#000;stroke-miterlimit:10;stroke-width:1.17910462057891px" />
  <ellipse cx="271.97"
    cy="11.55"
    rx="3.58"
    ry="2.23"
    style="fill:#a0c8ff;stroke:#000;stroke-miterlimit:10;stroke-width:1.17910462057891px" />
  <ellipse cx="325"
    cy="11.55"
    rx="2.23"
    ry="3.71"
    transform="translate(259.85 330.16) rotate(-80.48)"
    style="fill:#a0c8ff;stroke:#000;stroke-miterlimit:10;stroke-width:1.17910462057891px" /><text transform="translate(236.68 40.56)"
    style="font-size:20px;font-family:ScriptMTBold, Script MT Bold">i</text>
  <path d="M242.24,65.47c-.46-4-1.09-8.34-2-12.86-.66-3.45-1.39-6.73-2.18-9.82"
    style="fill:#fff" />
  <path d="M242.24,65.47c-.46-4-1.09-8.34-2-12.86-.24-1.27-.49-2.52-.76-3.74"
    style="fill:none;stroke:#000;stroke-miterlimit:10;stroke-width:1.175px" />
  <polygon points="241.76 49.8 238.1 42.79 237.76 50.69 241.76 49.8" /><text transform="translate(282.67 41.32)"
    style="font-size:20px;font-family:ScriptMTBold, Script MT Bold">i</text>
  <path d="M284.73,66.7c-.16-4.05-.27-8.22-.3-12.51q0-5.74.08-11.21"
    style="fill:#fff" />
  <path d="M284.73,66.7c-.16-4.05-.27-8.22-.3-12.51,0-1.67,0-3.33,0-5"
    style="fill:none;stroke:#000;stroke-miterlimit:10;stroke-width:1.175px" />
  <polygon points="286.5 50.63 284.51 42.98 282.41 50.6 286.5 50.63" /><text transform="translate(331.18 42.94)"
    style="font-size:20px;font-family:ScriptMTBold, Script MT Bold">i</text>
  <path d="M328.73,69.08A76.56,76.56,0,0,1,333,44.59"
    style="fill:#fff" />
  <path d="M328.73,69.08a76.45,76.45,0,0,1,2.47-18.51"
    style="fill:none;stroke:#000;stroke-miterlimit:10;stroke-width:1.175px" />
  <polygon points="332.78 52.5 333.02 44.59 328.86 51.33 332.78 52.5" />
  <path d="M386.55,148.85A27.17,27.17,0,0,0,391,137.56a26.69,26.69,0,0,0,0-7.68"
    style="fill:none;stroke:#000;stroke-miterlimit:10;stroke-width:1.175px" />
  <polygon points="393.24 130.78 389.45 123.84 389.26 131.75 393.24 130.78" /><text transform="translate(380.51 161.97)"
    style="font-size:12px;font-family:SchneidlerBT-Black, Schneidler Blk BT;font-weight:800">L</text><text transform="translate(177.94 180.89)"
    style="font-size:12px;font-family:SchneidlerBT-Black, Schneidler Blk BT;font-weight:800">H</text>
  <line x1="169.16"
    y1="142.35"
    x2="179.22"
    y2="163.73"
    style="fill:none;stroke:#000;stroke-miterlimit:10;stroke-width:1.175px" />
  <polygon points="176.78 163.34 181.88 169.38 180.48 161.6 176.78 163.34" /><text transform="translate(172.93 140.92)"
    style="font-size:12px;font-family:SchneidlerBT-Black, Schneidler Blk BT;font-weight:800">d<tspan x="7.57"
      y="0"
      style="font-family:ScriptMTBold, Script MT Bold;font-weight:400">l</tspan></text>
</svg>
