<svg xmlns="http://www.w3.org/2000/svg"
  viewBox="0 0 368.5 240.94"
  width="368.5"
  height="240.94"
  class="w-100 h-auto my-3">
  <title>闭合铁芯</title>
  <g style="opacity:0.8">
    <polyline points="271.45 130.49 237.21 119.89 200.55 129.91"
      style="fill:#a0c8ff" />
    <line x1="271.45"
      y1="130.49"
      x2="270"
      y2="130.04"
      style="fill:none;stroke:#000;stroke-linecap:round;stroke-linejoin:round;stroke-width:0.891564819726376px" />
    <polyline points="265.77 128.73 237.21 119.89 204.15 128.93"
      style="fill:none;stroke:#000;stroke-linecap:round;stroke-linejoin:round;stroke-width:0.891564819726376px;stroke-dasharray:2.950739622116089,4.426109313964844" />
    <line x1="202.01"
      y1="129.51"
      x2="200.55"
      y2="129.91"
      style="fill:none;stroke:#000;stroke-linecap:round;stroke-linejoin:round;stroke-width:0.891564819726376px" />
  </g>
  <polyline points="200.55 129.91 237.37 143.48 271.45 130.49"
    style="fill:#a0c8ff;stroke:#000;stroke-linecap:round;stroke-linejoin:round;stroke-width:0.89119766390072px;opacity:0.8" />
  <path d="M271.45,130.49V47.34c-9.37-2.21-125.87-29.64-141.26-32.8-4.22-.86-34,2.65-36.8,3.12"
    style="fill:none;stroke:#000;stroke-linecap:round;stroke-linejoin:round;stroke-width:0.89119766390072px" />
  <path d="M237.4,53.6c-6.83-1.83-139-34.31-143.28-35.47"
    style="fill:none;stroke:#000;stroke-linecap:round;stroke-linejoin:round;stroke-width:0.89119766390072px" />
  <path
    d="M123,170.63c5.29,3,10.56,6,15.89,9q22.37,12.31,44.77,24.54c12.38,6.72,24.83,13.3,37.25,19.94q6.78,3.63,13.57,7.22a6,6,0,0,0,5.79,0c10.28-4.87,20.59-9.65,30.89-14.47.12-.06.2-.19.58-.57,0-.58-.38-70.38-.29-71.34"
    style="fill:none;stroke:#000;stroke-linecap:round;stroke-linejoin:round;stroke-width:0.89119766390072px" />
  <path d="M200.55,72.25v104L121.7,139.61V48.67C123,48.91,199.54,71.93,200.55,72.25Z"
    style="fill:none;stroke:#000;stroke-linecap:round;stroke-linejoin:round;stroke-width:0.89119766390072px" />
  <path d="M93.83,155.18l27.72,15.16"
    style="fill:none;stroke:#000;stroke-linecap:round;stroke-linejoin:round;stroke-width:0.89119766390072px" />
  <path d="M150.14,44.41,148.68,44"
    style="fill:none;stroke:#000;stroke-linecap:round;stroke-linejoin:round;stroke-width:0.569083927484921px" />
  <path d="M147.33,43.58c-2.49-.75-5-1.49-7.46-2.26"
    style="fill:none;stroke:#000;stroke-linecap:round;stroke-linejoin:round;stroke-width:0.569083927484921px;stroke-dasharray:1.4166836738586426,1.4166836738586426,2.833367347717285,4.250051021575928" />
  <path d="M137.84,40.68l-.11,0c-7.14-2.26-14.25-4.61-21.38-6.92-6.9-2.23-11,3.79-10.46,9,.44,4.4.32,8.85.34,13.28,0,10.15,0,20.3,0,30.45"
    style="fill:none;stroke:#000;stroke-linecap:round;stroke-linejoin:round;stroke-width:0.569083927484921px;stroke-dasharray:2.833367347717285,1.4166836738586426,1.4166836738586426,1.4166836738586426,2.833367347717285,4.250051021575928" />
  <path d="M106.12,88.54c-.05.5-.12,1-.16,1.51"
    style="fill:none;stroke:#000;stroke-linecap:round;stroke-linejoin:round;stroke-width:0.569083927484921px" />
  <polygon points="149.78 43.26 153.03 45.28 149.21 45.16 149.78 43.26" />
  <path d="M167.48,48.46a2.17,2.17,0,0,1,.57,0l.91.25"
    style="fill:none;stroke:#000;stroke-linecap:round;stroke-linejoin:round;stroke-width:0.569083927484921px" />
  <path d="M170.39,49.13l7.91,2.24"
    style="fill:none;stroke:#000;stroke-linecap:round;stroke-linejoin:round;stroke-width:0.569083927484921px;stroke-dasharray:1.4933679103851318,1.4933679103851318,2.9867358207702637,4.480103969573975" />
  <path
    d="M180.45,52q8.53,2.42,17.06,4.88c3.21.93,6.71,1.54,9.47,3.26,7.17,4.49,10.64,11.41,10.72,19.82.12,13.77,0,27.54,0,41.3v15.15s.32,47.74-.09,53.59-3.2,10-11.13,6.82c-6.49-2.6-12.58-6.2-18.81-9.43q-10.2-5.28-20.36-10.66"
    style="fill:none;stroke:#000;stroke-linecap:round;stroke-linejoin:round;stroke-width:0.569083927484921px;stroke-dasharray:2.9867358207702637,1.4933679103851318,1.4933679103851318,1.4933679103851318,2.9867358207702637,4.480103969573975" />
  <path d="M165.35,175.67,164,175"
    style="fill:none;stroke:#000;stroke-linecap:round;stroke-linejoin:round;stroke-width:0.569083927484921px" />
  <path d="M106.25,90.47V92"
    style="fill:none;stroke:#000;stroke-linecap:round;stroke-linejoin:round;stroke-width:0.569083927484921px" />
  <path d="M106.25,93.44v8"
    style="fill:none;stroke:#000;stroke-linecap:round;stroke-linejoin:round;stroke-width:0.569083927484921px;stroke-dasharray:1.4476466178894043,1.4476466178894043,2.8952932357788086,4.342939853668213" />
  <path d="M106.25,103.57v1.21c0,8.67.12,17.33,0,26-.18,9.62,3.62,16.26,12.7,20.33,9.67,4.34,19.05,9.32,28.52,14.12"
    style="fill:none;stroke:#000;stroke-linecap:round;stroke-linejoin:round;stroke-width:0.569083927484921px;stroke-dasharray:2.8952932357788086,1.4476466178894043,1.4476466178894043,1.4476466178894043,2.8952932357788086,4.342939853668213" />
  <path d="M149.37,166.2l1.35.68"
    style="fill:none;stroke:#000;stroke-linecap:round;stroke-linejoin:round;stroke-width:0.569083927484921px" />
  <path d="M150.15,132.22q17.17,6.93,34.37,13.85c5.18,2.08,10.39,4.06,15.59,6.08"
    style="fill:none;stroke:#000;stroke-linecap:round;stroke-linejoin:round;stroke-width:0.89119766390072px" />
  <path d="M49.64,86.59q20.94,7.5,41.88,15a8.94,8.94,0,0,0,1.73.3"
    style="fill:none;stroke:#0078c8;stroke-linecap:round;stroke-linejoin:round;stroke-width:1.51755713995979px" />
  <path d="M128.56,161.82c-3.94,6.54-9.28,11.94-15.13,16.86-8.62,6.12-18,6.12-27.61,6.12"
    style="fill:none;stroke:#000;stroke-linecap:round;stroke-linejoin:round;stroke-width:0.891564819726376px" />
  <polygon points="126.64 161.97 130.8 157.64 129.37 163.47 126.64 161.97" />
  <path d="M149.86,132.2c-5.44,1.44-24.89,6.45-28.16,7.41"
    style="fill:none;stroke:#000;stroke-linecap:round;stroke-linejoin:round;stroke-width:0.89119766390072px" />
  <path d="M262.9,139.94c4.52,4.49,10.53,6.62,16.67,8,7.35,1.67,15,2.08,22.5,3"
    style="fill:none;stroke:#000;stroke-linecap:round;stroke-linejoin:round;stroke-width:0.891564819726376px" />
  <polygon points="262.46 141.69 259.9 136.26 264.83 139.69 262.46 141.69" />
  <path d="M75.15,40.27l-16-4.94a3.08,3.08,0,0,0-.86,0"
    style="fill:none;stroke:#000;stroke-linecap:round;stroke-linejoin:round;stroke-width:0.891564819726376px" />
  <polygon points="74.59 38.47 79.67 41.67 73.67 41.44 74.59 38.47" />
  <path d="M271.45,144.93c-.09-4.24.1-10.21,0-14.44"
    style="fill:none;stroke:#000;stroke-linecap:round;stroke-linejoin:round;stroke-width:0.89119766390072px" />
  <path
    d="M50.79,40.37c5.49,1.93,11,3.89,16.47,5.77,8.55,2.92,17.13,5.79,25.7,8.68l1.16.57,11.55,3.47,1.15.58c3.85,1.25,7.7,2.52,11.56,3.74a27.72,27.72,0,0,0,2.88.59h.58c6.16-1.06,12.33-2.09,18.48-3.19,2.81-.51,6.92-1.52,9.87-2.14"
    style="fill:none;stroke:#0078c8;stroke-linecap:round;stroke-linejoin:round;stroke-width:1.51755713995979px;opacity:0.8" />
  <line x1="93.39"
    y1="17.66"
    x2="93.83"
    y2="155.18"
    style="fill:none;stroke:#000;stroke-linecap:round;stroke-linejoin:round;stroke-width:0.89119766390072px" />
  <line x1="149.86"
    y1="132.2"
    x2="149.86"
    y2="57.41"
    style="fill:none;stroke:#000;stroke-linecap:round;stroke-linejoin:round;stroke-width:0.89119766390072px" />
  <path
    d="M150.18,66.93a.85.85,0,0,1,.69.35c.18.32-.18,1.19-.45,1.53a.81.81,0,0,1-.33.25,24,24,0,0,1-4.57,1c-6.54,1.28-13,2.42-19.61,3.85-4.23.92-7.79-.61-11.57-1.55-2.54-.63-5-1.52-7.52-2.29l-1.44-.86c-4.33-1.16-9.21-2.51-12.53-4.45"
    style="fill:none;stroke:#0078c8;stroke-linecap:round;stroke-linejoin:round;stroke-width:1.51755713995979px" />
  <path d="M150.18,77.43a.81.81,0,0,1,.69.34c.18.32,0,1.58-.53,1.7-8.41,1.83-18.07,3.67-26.48,5.38-.66.13-1.34.2-2,.29h-.58a14.11,14.11,0,0,1-1.44-.29l-13-4-1.15-.58c-4.26-1.67-9-2.26-12.55-4.72"
    style="fill:none;stroke:#0078c8;stroke-linecap:round;stroke-linejoin:round;stroke-width:1.51755713995979px" />
  <path
    d="M150.18,87.38a.82.82,0,0,1,.69.35c.17.3-.08,1-.23,1.34a.6.6,0,0,1-.36.32,43.17,43.17,0,0,1-4.47,1.21c-7.21,1.51-14.43,2.93-21.66,4.34a11.87,11.87,0,0,1-2.31,0h-.58a27.72,27.72,0,0,1-2.88-.59c-3.86-1.22-7.71-2.49-11.56-3.74l-.57-.16-13.16-4.6"
    style="fill:none;stroke:#0078c8;stroke-linecap:round;stroke-linejoin:round;stroke-width:1.51755713995979px" />
  <path d="M150.18,98.21a.81.81,0,0,1,.69.34c.15.26,0,.91-.17,1.36a.83.83,0,0,1-.63.56c-5.23,1-11.81,2.44-17,3.44-3.74.72-7.5,1.35-11.26,2h0l-12-2.84s-12.9-4.38-16.57-6.95"
    style="fill:none;stroke:#0078c8;stroke-linecap:round;stroke-linejoin:round;stroke-width:1.51755713995979px" />
  <path
    d="M150.18,108.78a.82.82,0,0,1,.69.35c.16.27,0,.91-.19,1.31a.7.7,0,0,1-.51.43c-4.37.86-9.86,2-14.18,2.86-4.71.89-9.43,1.74-14.15,2.6h-.58a12.18,12.18,0,0,1-2-.3c-4.15-1.32-8.29-2.68-12.43-4,0,0-10-2.61-13.4-5.13"
    style="fill:none;stroke:#0078c8;stroke-linecap:round;stroke-linejoin:round;stroke-width:1.51755713995979px" />
  <path
    d="M157.13,48.09a2,2,0,0,1-.67-.59,1.41,1.41,0,0,1-.26-.74,2.19,2.19,0,0,1,.13-.88,2.32,2.32,0,0,1,.43-.79,2.11,2.11,0,0,1,.7-.55,2.83,2.83,0,0,1,1-.27,4.71,4.71,0,0,1,1.23,0l.58-1.74,0,0,.07,0h.1l.16,0,.15,0,.09,0,0,0v.05l-.59,1.75a4.16,4.16,0,0,1,1.11.42,2.12,2.12,0,0,1,.68.59,1.5,1.5,0,0,1,.26.74,2.5,2.5,0,0,1-.57,1.68,2.09,2.09,0,0,1-.7.54,2.77,2.77,0,0,1-1,.27,4.73,4.73,0,0,1-1.23,0L158.41,50a.05.05,0,0,1,0,0l-.06,0h-.11l-.15,0-.15,0-.09,0s0,0,0,0a0,0,0,0,1,0-.05l.46-1.38A4.85,4.85,0,0,1,157.13,48.09Zm2.37-3.34a4.11,4.11,0,0,0-.91,0,1.9,1.9,0,0,0-.71.18,1.54,1.54,0,0,0-.53.42A2.07,2.07,0,0,0,157,46a2.47,2.47,0,0,0-.13.67,1.06,1.06,0,0,0,.14.58,1.48,1.48,0,0,0,.48.49,3.21,3.21,0,0,0,.9.37ZM159,48.21a4.19,4.19,0,0,0,.91,0,2.24,2.24,0,0,0,.72-.19,1.51,1.51,0,0,0,.52-.42,1.89,1.89,0,0,0,.36-.66,2.37,2.37,0,0,0,.12-.66,1.16,1.16,0,0,0-.13-.59,1.48,1.48,0,0,0-.48-.49,3.23,3.23,0,0,0-.9-.36Z"
    style="stroke:#000;stroke-miterlimit:10;stroke-width:0.12725462192751436px" />
  <path
    d="M159.72,175.49a.81.81,0,0,1,0,.11l0,.08,0,0-.09.06-.22.08L159,176a2.38,2.38,0,0,1-.39,0,3,3,0,0,1-.42,0,2.52,2.52,0,0,1-.76-.23,1.39,1.39,0,0,1-.5-.42,1.42,1.42,0,0,1-.23-.6,2.28,2.28,0,0,1,0-.77,2.47,2.47,0,0,1,.34-.82,1.61,1.61,0,0,1,.53-.51,1.74,1.74,0,0,1,.68-.25,2.55,2.55,0,0,1,.78,0,2.22,2.22,0,0,1,.37.09,1.33,1.33,0,0,1,.32.12l.25.15a.58.58,0,0,1,.16.13l.06.08s0,0,0,.06v.09a.89.89,0,0,1,0,.11.49.49,0,0,1-.08.19.15.15,0,0,1-.12,0,.29.29,0,0,1-.14-.08l-.2-.17a2,2,0,0,0-.3-.18,1.65,1.65,0,0,0-.44-.12,1.12,1.12,0,0,0-.91.22,1.55,1.55,0,0,0-.5.92,1.65,1.65,0,0,0-.05.57,1,1,0,0,0,.13.43.86.86,0,0,0,.31.29,1.44,1.44,0,0,0,.47.15,1.84,1.84,0,0,0,.47,0,2.8,2.8,0,0,0,.37-.1l.27-.11a.33.33,0,0,1,.17,0l.05,0,0,.06v.09A.6.6,0,0,1,159.72,175.49Z"
    style="stroke:#000;stroke-miterlimit:10;stroke-width:0.169668046234513px" />
  <path d="M155.11,164.74s-1,3.45-1.34,6.08a1.68,1.68,0,0,0,.73,1.81c.8.41,1.87-1.6,1.87-1.6"
    style="fill:none;stroke:#000;stroke-linecap:round;stroke-miterlimit:10;stroke-width:0.933595731228232px" />
  <path
    d="M70.65,32.71c-1.16,1.22-2,1.82-2.59,1.82a.94.94,0,0,1-.8-.48,2.14,2.14,0,0,1-.33-1.22A13.33,13.33,0,0,1,68,28.46l1.88-.39H70l-.74,2.32a7.66,7.66,0,0,0-.46,2,.6.6,0,0,0,.11.39.33.33,0,0,0,.27.16,1,1,0,0,0,.58-.22,7.27,7.27,0,0,0,.92-.91Zm-.15-7.54c0,1.18-.44,1.78-1.31,1.78a1.62,1.62,0,0,1-1.09-.39,5.2,5.2,0,0,0,.67-1.47,1.89,1.89,0,0,0,.94.37A1.33,1.33,0,0,0,70.5,25.17Z" />
  <path
    d="M306.15,153.5a.42.42,0,0,1-.18-.25.33.33,0,0,1,0-.29,4.73,4.73,0,0,0,.2-.43c.07-.18.15-.39.22-.62s.15-.46.22-.71.13-.5.19-.73.1-.45.13-.64a2.34,2.34,0,0,0,0-.47.52.52,0,0,1,0-.11h-.47a.38.38,0,0,1-.28-.12.42.42,0,0,1-.12-.3.36.36,0,0,1,.12-.28.38.38,0,0,1,.28-.12h.61v-1.6a.41.41,0,0,1,.12-.3.4.4,0,0,1,.29-.12.38.38,0,0,1,.29.12.41.41,0,0,1,.12.3v1.6h.48a.4.4,0,0,1,.29.12.36.36,0,0,1,.12.28.42.42,0,0,1-.12.3.4.4,0,0,1-.29.12H308v.87c.1.13.19.28.29.43s.19.31.27.47.16.29.23.43a2.31,2.31,0,0,1,.17.37.42.42,0,0,1,0,.31.4.4,0,0,1-.23.21l-.14,0a.39.39,0,0,1-.23-.07.41.41,0,0,1-.16-.2,1.54,1.54,0,0,0-.09-.19l-.11-.22V156a.38.38,0,0,1-.12.29.36.36,0,0,1-.29.13.37.37,0,0,1-.29-.13.38.38,0,0,1-.12-.29v-3.77c-.08.25-.16.47-.24.67a4.15,4.15,0,0,1-.23.47.39.39,0,0,1-.35.2A.46.46,0,0,1,306.15,153.5Zm2.89,3a.41.41,0,0,1-.21,0,.28.28,0,0,1-.15-.17.33.33,0,0,1,0-.29.42.42,0,0,1,.2-.24,2.78,2.78,0,0,0,1.22-1.07.37.37,0,0,1,.24-.19.35.35,0,0,1,.3,0,.37.37,0,0,1,.2.24.36.36,0,0,1,0,.3,3.47,3.47,0,0,1-1.56,1.39A.34.34,0,0,1,309,156.51Zm4.52-7.44a.42.42,0,0,1,.29.11.38.38,0,0,1,.12.28.4.4,0,0,1-.12.29.42.42,0,0,1-.29.11h-1.81v.63h1.19a.59.59,0,0,1,.44.19.61.61,0,0,1,.18.45v2.55a.63.63,0,0,1-.18.45.62.62,0,0,1-.44.18h-3.25a.61.61,0,0,1-.45-.18.6.6,0,0,1-.19-.45v-2.57a.62.62,0,0,1,.19-.46.61.61,0,0,1,.45-.18h1.24v-.63h-1.78a.42.42,0,0,1-.29-.11.4.4,0,0,1-.12-.29.39.39,0,0,1,.41-.39h.73v-.84h-.46a.36.36,0,0,1-.27-.12.38.38,0,0,1-.12-.28.37.37,0,0,1,.12-.27.39.39,0,0,1,.27-.11h.46v-.59a.42.42,0,0,1,.11-.29.41.41,0,0,1,.58,0,.38.38,0,0,1,.12.29v.59h1.25v-.59a.38.38,0,0,1,.12-.29.36.36,0,0,1,.28-.12.35.35,0,0,1,.28.12.38.38,0,0,1,.12.29v.59h.54a.39.39,0,0,1,.27.11.37.37,0,0,1,.12.27.38.38,0,0,1-.12.28.36.36,0,0,1-.27.12h-.54v.86Zm-3.75,2.19V152h1.11v-.78Zm0,2.31h1.11v-.76h-1.11Zm.85-4.52h1.27v-.84h-1.27Zm2.13,4.52v-.76h-1.06v.76Zm-1-2.31V152h1.06v-.78Zm2.1,4.68a.37.37,0,0,1,.06.3.32.32,0,0,1-.17.24.38.38,0,0,1-.21.07.45.45,0,0,1-.19-.05.4.4,0,0,1-.15-.14,3.69,3.69,0,0,0-.46-.54,8.83,8.83,0,0,0-.75-.63.38.38,0,0,1-.15-.25.42.42,0,0,1,.34-.46.39.39,0,0,1,.29.09l.3.24.39.33q.19.18.39.39A2.76,2.76,0,0,1,313.85,155.94Z" />
  <path
    d="M315.46,153.21a.41.41,0,0,1-.17-.24.36.36,0,0,1,.06-.29c.22-.36.45-.73.67-1.13a7.61,7.61,0,0,0,.57-1.35.41.41,0,0,1,.19-.22.33.33,0,0,1,.29,0,.38.38,0,0,1,.22.19.36.36,0,0,1,0,.29l-.15.42h1l-.13-.3a.42.42,0,0,1,0-.29.32.32,0,0,1,.21-.2.3.3,0,0,1,.29,0,.43.43,0,0,1,.21.21l.23.58h.79a.4.4,0,0,1,.26.11.36.36,0,0,1,.11.26.41.41,0,0,1-.11.28.4.4,0,0,1-.26.11h-.85v.71h.71a.4.4,0,0,1,.27.11.37.37,0,0,1,.11.27.38.38,0,0,1-.38.37h-.71v.78h.71a.38.38,0,0,1,.38.37.37.37,0,0,1-.11.27.4.4,0,0,1-.27.11h-.71v.71H320a.37.37,0,0,1,.27.11.34.34,0,0,1,.11.28.41.41,0,0,1-.11.28.4.4,0,0,1-.27.11h-3.06a.39.39,0,0,1-.12.25.34.34,0,0,1-.26.11.38.38,0,0,1-.28-.12.36.36,0,0,1-.12-.27v-3.26a1.06,1.06,0,0,1-.18.27.33.33,0,0,1-.31.18A.31.31,0,0,1,315.46,153.21Zm7.41,1a.35.35,0,0,1,.29.1.42.42,0,0,1,.14.28,2.64,2.64,0,0,1,0,.81,2.12,2.12,0,0,1-.18.57,1,1,0,0,1-.29.35.88.88,0,0,1-.35.17.62.62,0,0,1-.18,0,1.12,1.12,0,0,1-.68-.28,2.24,2.24,0,0,1-.63-1,1.62,1.62,0,0,1-.11-.3l-.12.13a.38.38,0,0,1-.28.11.44.44,0,0,1-.27-.09.38.38,0,0,1-.12-.28.39.39,0,0,1,.1-.27l.23-.27a2.85,2.85,0,0,1,.23-.26,27.34,27.34,0,0,1-.36-4.15H315.9a.37.37,0,0,1-.28-.11.36.36,0,0,1-.1-.27.39.39,0,0,1,.11-.28.37.37,0,0,1,.27-.11h1.54v-.84h-1.07a.38.38,0,0,1-.28-.12.36.36,0,0,1,0-.54.38.38,0,0,1,.28-.12h1.07v-.68a.37.37,0,0,1,.12-.26.35.35,0,0,1,.26-.12.38.38,0,0,1,.28.12.37.37,0,0,1,.12.26v.66h1.15a.38.38,0,0,1,.28.12.37.37,0,0,1,.12.26.41.41,0,0,1-.4.4h-1.15v.84h2c0-.7,0-1.46,0-2.29a.35.35,0,0,1,.12-.26.38.38,0,0,1,.29-.12.37.37,0,0,1,.27.12.41.41,0,0,1,.11.28V148c0,.37,0,.73,0,1.09h1.7a.39.39,0,0,1,.28.11.39.39,0,0,1,.1.28.38.38,0,0,1-.38.38H321c0,.65.06,1.23.09,1.76s.08,1,.13,1.42a6.51,6.51,0,0,0,.49-1,10.31,10.31,0,0,0,.37-1.11.36.36,0,0,1,.19-.23.31.31,0,0,1,.28,0,.43.43,0,0,1,.24.18.39.39,0,0,1,0,.3,9.85,9.85,0,0,1-1.4,3,5.78,5.78,0,0,0,.23.78,3.5,3.5,0,0,0,.18.38l.17.23a.92.92,0,0,0,.14.11l.09,0s.05,0,.08-.07a.67.67,0,0,0,.09-.19,1.17,1.17,0,0,0,.07-.33,2.55,2.55,0,0,0,0-.49.38.38,0,0,1,.09-.29A.39.39,0,0,1,322.87,154.21Zm-4.78-2.57h-1.16v.7h1.16Zm0,1.46h-1.16v.78h1.16Zm0,1.53h-1.16v.71h1.16Zm3.46-7.79a.36.36,0,0,1,.3-.07.32.32,0,0,1,.25.17l.72,1.11a.34.34,0,0,1,.05.29.36.36,0,0,1-.37.31.37.37,0,0,1-.33-.17l-.72-1.1a.39.39,0,0,1-.06-.3A.35.35,0,0,1,321.55,146.84Z" />
  <path
    d="M325.22,147.82a.4.4,0,0,1-.3-.11.44.44,0,0,1-.11-.29.4.4,0,0,1,.12-.29.38.38,0,0,1,.29-.12h6.86a.4.4,0,0,1,.29.12.44.44,0,0,1,0,.58.39.39,0,0,1-.29.11h-3.26l-.32,1.23h2.88a.66.66,0,0,1,.5.2.69.69,0,0,1,.2.5v5.66a.68.68,0,0,1-.21.49.67.67,0,0,1-.49.21h-5.47a.7.7,0,0,1-.7-.7v-5.66a.68.68,0,0,1,.7-.7h1.76l.32-1.23Zm.8,7.46h1.11v-5.42H326Zm3.33-5.42H328V151h1.4Zm0,2H328v1.42h1.4Zm-1.4,3.42h1.4v-1.19H328Zm3.32-5.41h-1.1v5.41h1.1Z" />
  <path
    d="M334.46,154.48a.41.41,0,0,1-.16,0,.36.36,0,0,1-.21-.21.35.35,0,0,1,0-.3c.06-.15.14-.37.24-.67s.19-.63.28-1,.18-.72.26-1.08.13-.68.16-.95h-.63a.38.38,0,0,1-.28-.12.38.38,0,0,1-.12-.29.36.36,0,0,1,.12-.28.38.38,0,0,1,.28-.12h.89V148l-.44.08-.32,0h-.07a.39.39,0,0,1-.26-.17.42.42,0,0,1-.06-.31.43.43,0,0,1,.15-.26.4.4,0,0,1,.28-.07l.4-.05.66-.13.67-.13.43-.12a.45.45,0,0,1,.32,0,.35.35,0,0,1,.2.23.37.37,0,0,1,0,.31.39.39,0,0,1-.23.21l-.32.08-.59.13v1.64h.82a.38.38,0,0,1,.29.12.36.36,0,0,1,.12.28.41.41,0,0,1-.41.41h-.82v.37c.17.25.35.54.56.87s.41.69.61,1.07a.4.4,0,0,1,0,.3.35.35,0,0,1-.2.23.49.49,0,0,1-.18,0,.39.39,0,0,1-.21-.06.37.37,0,0,1-.14-.16l-.23-.42-.24-.42v4a.39.39,0,0,1-.11.29.4.4,0,0,1-.69-.29v-3.33c-.1.33-.18.63-.27.89a5.42,5.42,0,0,1-.22.61.39.39,0,0,1-.14.17A.36.36,0,0,1,334.46,154.48Zm3,2a.39.39,0,0,1-.18,0,.43.43,0,0,1-.21-.23.41.41,0,0,1,0-.31c.25-.54.48-1,.66-1.52s.36-.94.5-1.4a.39.39,0,0,1,.19-.24.39.39,0,0,1,.32,0,.47.47,0,0,1,.24.2.37.37,0,0,1,0,.31c-.15.49-.32,1-.51,1.46s-.42,1-.68,1.56a.34.34,0,0,1-.15.18A.37.37,0,0,1,337.42,156.49Zm3.16-4.33H338.2a.67.67,0,0,1-.42-.16.64.64,0,0,1-.2-.53v-3.76a.76.76,0,0,1,.09-.4.53.53,0,0,1,.19-.2.6.6,0,0,1,.21-.09h2.53a.59.59,0,0,1,.57.28,1.09,1.09,0,0,1,.07.24c0,.08,0,.15,0,.2v3.74a.68.68,0,0,1-.18.5A.64.64,0,0,1,340.58,152.16Zm-2.18-.81h2v-3.53h-2Zm3.12,5.15a.4.4,0,0,1-.24-.07.41.41,0,0,1-.15-.21c-.16-.54-.34-1-.53-1.5s-.41-.95-.64-1.44a.35.35,0,0,1,0-.3.42.42,0,0,1,.21-.24.37.37,0,0,1,.31,0,.38.38,0,0,1,.23.2c.25.51.47,1,.67,1.49s.39,1,.56,1.56a.36.36,0,0,1,0,.32.4.4,0,0,1-.24.2Z" />
  <path
    d="M351.56,154.81a.76.76,0,0,1,.05.21.14.14,0,0,1-.05.13.37.37,0,0,1-.15,0h-.59a.4.4,0,0,1-.17,0l-.08,0-.05-.09-.66-1.87h-3.19l-.62,1.84a.36.36,0,0,1-.05.09.22.22,0,0,1-.09.07.53.53,0,0,1-.16,0h-.55a.26.26,0,0,1-.15-.06A.17.17,0,0,1,345,155a.76.76,0,0,1,.06-.21l2.57-7.13a.17.17,0,0,1,.06-.1.3.3,0,0,1,.11-.07.54.54,0,0,1,.19,0h.61a.56.56,0,0,1,.2,0,.35.35,0,0,1,.12.07.3.3,0,0,1,.07.11Zm-3.3-6.29h0l-1.32,3.83h2.67Z" />
  <path
    d="M18.86,181.94c0,.19-.09.39-.14.59s-.11.4-.18.62H20a.39.39,0,0,1,.28.12.38.38,0,0,1,.12.28.4.4,0,0,1-.12.29A.41.41,0,0,1,20,184h-.61v1.39h.81a.41.41,0,1,1,0,.82h-.81v2l.72-.72a.44.44,0,0,1,.58,0,.4.4,0,0,1,.12.29.45.45,0,0,1-.12.29l-1.42,1.4a.36.36,0,0,1-.28.11.41.41,0,0,1-.16,0,.4.4,0,0,1-.19-.15.44.44,0,0,1-.07-.22v-3h-.59a.38.38,0,0,1-.29-.11.41.41,0,0,1,0-.58.38.38,0,0,1,.29-.12h.61V184a.42.42,0,0,1-.21-.06.51.51,0,0,1-.16.2.4.4,0,0,1-.23.08l-.13,0a.47.47,0,0,1-.24-.22.32.32,0,0,1,0-.3c.11-.35.2-.66.28-.95s.15-.55.21-.82.11-.55.16-.83.09-.61.13-1a.42.42,0,0,1,.16-.27.34.34,0,0,1,.29-.08.37.37,0,0,1,.27.15.41.41,0,0,1,.09.3c0,.17,0,.34-.07.49s0,.31-.07.46h1.14a.41.41,0,0,1,.41.41.38.38,0,0,1-.12.29.4.4,0,0,1-.29.12Zm4.58,3.43a8.28,8.28,0,0,0,.57,2,6.71,6.71,0,0,0,1.1,1.76.38.38,0,0,1,.1.3.41.41,0,0,1-.15.28.45.45,0,0,1-.27.1.36.36,0,0,1-.31-.15,9,9,0,0,1-.9-1.31,8.58,8.58,0,0,1-.63-1.46,6.59,6.59,0,0,1-.88,1.58,5.84,5.84,0,0,1-1.27,1.26.34.34,0,0,1-.12.06l-.12,0a.49.49,0,0,1-.18-.05.35.35,0,0,1-.15-.12.35.35,0,0,1-.08-.29.38.38,0,0,1,.17-.28,4.59,4.59,0,0,0,.82-.71,6,6,0,0,0,.64-.88,5.56,5.56,0,0,0,.73-2.1H20.75a.4.4,0,0,1-.29-.12.38.38,0,0,1-.12-.29.41.41,0,0,1,.41-.41h1.82v-2.2h-.78c-.05.25-.12.5-.19.75s-.17.51-.27.79a.49.49,0,0,1-.16.19.41.41,0,0,1-.24.08h-.07l-.06,0a.47.47,0,0,1-.23-.23.47.47,0,0,1,0-.31,7.4,7.4,0,0,0,.27-.79,5.3,5.3,0,0,0,.18-.74c0-.25.07-.49.09-.74a7,7,0,0,0,0-.81.41.41,0,0,1,.7-.29.44.44,0,0,1,.11.29c0,.18,0,.35,0,.52a3.91,3.91,0,0,1,0,.49h.66v-1.4a.4.4,0,0,1,.12-.29.36.36,0,0,1,.28-.12.42.42,0,0,1,.3.12.4.4,0,0,1,.12.29v1.4h1a.4.4,0,0,1,.29.12.42.42,0,0,1,.12.29.41.41,0,0,1-.41.41h-1v2.2h1.4a.4.4,0,0,1,.29.12.44.44,0,0,1,.11.29.42.42,0,0,1-.11.29.4.4,0,0,1-.29.12Z" />
  <path
    d="M27.17,188.65a.41.41,0,0,1-.21-.22.32.32,0,0,1,0-.3,2.37,2.37,0,0,0,.08-.32q.06-.24.12-.54c0-.21.08-.42.13-.65s.08-.45.11-.66.07-.4.09-.56a3,3,0,0,0,0-.33.44.44,0,0,1,.11-.3.37.37,0,0,1,.28-.11h0a.41.41,0,0,1,.3.11.36.36,0,0,1,.12.28c0,.08,0,.22,0,.4s0,.38-.09.61-.07.46-.12.71-.09.48-.14.71-.1.43-.15.6a2.19,2.19,0,0,1-.11.37.38.38,0,0,1-.37.23ZM34.11,181a.36.36,0,0,1,.28.12.42.42,0,0,1,.12.29.4.4,0,0,1-.12.29.39.39,0,0,1-.28.12H32.8v.71a.38.38,0,0,1-.12.28.37.37,0,0,1-.29.13.36.36,0,0,1-.29-.13.38.38,0,0,1-.12-.28v-.71H29.55v.71a.38.38,0,0,1-.12.28.35.35,0,0,1-.28.13.43.43,0,0,1-.42-.41v-.71H27.42a.39.39,0,0,1-.28-.12.4.4,0,0,1-.12-.29.42.42,0,0,1,.12-.29.39.39,0,0,1,.28-.12h1.31v-.71a.4.4,0,0,1,.12-.29.44.44,0,0,1,.3-.11.41.41,0,0,1,.28.11.4.4,0,0,1,.12.29V181H32v-.71a.4.4,0,0,1,.12-.29.42.42,0,0,1,.29-.11.44.44,0,0,1,.29.11.4.4,0,0,1,.12.29V181Zm-4.75,3.22a.37.37,0,0,1,.29.12.39.39,0,0,1,.09.3v4c0,.11.06.17.18.17h2.15a.13.13,0,0,0,.12-.05.14.14,0,0,0,.06-.12v-.53a.44.44,0,0,1,.11-.29.41.41,0,0,1,.58,0,.41.41,0,0,1,.13.29v.53a1,1,0,0,1-.08.38,1.21,1.21,0,0,1-.22.32.92.92,0,0,1-.31.2,1,1,0,0,1-.38.08H29.93a1,1,0,0,1-.38-.08.83.83,0,0,1-.31-.2,1.21,1.21,0,0,1-.22-.32,1,1,0,0,1-.08-.38v-4a.38.38,0,0,1,.13-.3A.38.38,0,0,1,29.36,184.24Zm2.05,2a.4.4,0,0,1-.27-.11.43.43,0,0,1-.13-.28.85.85,0,0,0-.05-.21l-.1-.34c-.05-.12-.09-.26-.14-.39s-.09-.27-.14-.4l-.12-.33a1.84,1.84,0,0,0-.09-.19.4.4,0,0,1,.08-.55.35.35,0,0,1,.29-.09.43.43,0,0,1,.29.15l.12.24a4.15,4.15,0,0,1,.16.4c.06.15.12.32.18.5s.11.34.16.49.09.3.12.42a.81.81,0,0,1,.05.25.42.42,0,0,1-.1.31.43.43,0,0,1-.28.13Zm2.65,2a.4.4,0,0,1-.27-.14.47.47,0,0,1-.12-.27s0-.13-.05-.26-.07-.26-.12-.43-.1-.33-.15-.52-.11-.36-.17-.52-.11-.3-.15-.42l-.1-.25a.43.43,0,0,1-.06-.31.44.44,0,0,1,.18-.26.38.38,0,0,1,.31,0,.39.39,0,0,1,.26.18,2.34,2.34,0,0,1,.13.29l.18.5c.07.19.14.4.2.61s.13.41.18.61a4.92,4.92,0,0,1,.13.52,2.12,2.12,0,0,1,.05.32.39.39,0,0,1-.13.28.38.38,0,0,1-.29.12Z" />
  <path
    d="M38.18,179.74a.33.33,0,0,1,.22.21.42.42,0,0,1,0,.31l-.48,1.26h1a.68.68,0,0,1,.49.2.67.67,0,0,1,.21.49v3.26a.22.22,0,0,1,0,.09.19.19,0,0,1,0,.08v3.26a.7.7,0,0,1-.7.69H37.11a.66.66,0,0,1-.49-.2.64.64,0,0,1-.21-.49v-6.68a.65.65,0,0,1,.2-.47.77.77,0,0,1,.47-.22l.57-1.55a.43.43,0,0,1,.21-.23A.44.44,0,0,1,38.18,179.74Zm.64,2.61h-1.6v2.8h1.6Zm0,6.43V186h-1.6v2.81Zm2.71-9.06a.38.38,0,0,1,.26.17.39.39,0,0,1,.07.29,5.18,5.18,0,0,1-.14.66,5.31,5.31,0,0,1-.2.68H43a.68.68,0,0,1,.7.69v5.57a2.05,2.05,0,0,1-.16.78,2,2,0,0,1-.44.65,2.18,2.18,0,0,1-.64.43,2.1,2.1,0,0,1-.79.16.4.4,0,0,1-.29-.12.41.41,0,0,1-.11-.3.38.38,0,0,1,.11-.28.4.4,0,0,1,.29-.12,1,1,0,0,0,.47-.1,1.25,1.25,0,0,0,.38-.25,1.12,1.12,0,0,0,.26-.38,1,1,0,0,0,.1-.47v-5.44H41.19a11.9,11.9,0,0,1-.59,1.19.38.38,0,0,1-.35.21.58.58,0,0,1-.21-.05.44.44,0,0,1-.19-.25.4.4,0,0,1,0-.3,9,9,0,0,0,1.18-3.09.38.38,0,0,1,.16-.27A.43.43,0,0,1,41.53,179.72Zm.54,7.26a.39.39,0,0,1-.25-.08.36.36,0,0,1-.14-.23,9.18,9.18,0,0,0-.39-1.15,10.22,10.22,0,0,0-.57-1.15.4.4,0,0,1,0-.32.43.43,0,0,1,.5-.29.39.39,0,0,1,.24.19,10.37,10.37,0,0,1,1.06,2.52.44.44,0,0,1,0,.32.39.39,0,0,1-.25.18Z" />
  <path
    d="M52.82,184.76a.41.41,0,0,1,.3.12.38.38,0,0,1,.12.29.38.38,0,0,1-.12.28.42.42,0,0,1-.3.12h-3v3.82a.38.38,0,0,1-.12.29.41.41,0,0,1-.3.12.36.36,0,0,1-.28-.12.38.38,0,0,1-.12-.29v-3.82H46a.4.4,0,0,1-.29-.12.38.38,0,0,1-.12-.28.38.38,0,0,1,.12-.29.4.4,0,0,1,.29-.12h3v-3.83H46.36a.38.38,0,0,1-.28-.12.38.38,0,0,1-.12-.29.36.36,0,0,1,.12-.28.38.38,0,0,1,.28-.12h6.07a.4.4,0,0,1,.29.12.36.36,0,0,1,.11.28.38.38,0,0,1-.11.29.4.4,0,0,1-.29.12H49.82v3.83ZM47.59,184a.38.38,0,0,1-.37-.24l-.71-1.4a.37.37,0,0,1,0-.31.44.44,0,0,1,.2-.24.37.37,0,0,1,.31,0,.47.47,0,0,1,.25.21l.7,1.4a.41.41,0,0,1,0,.31.43.43,0,0,1-.2.24l-.1,0Zm3.75-2a.35.35,0,0,1,.2-.23.4.4,0,0,1,.32,0,.43.43,0,0,1,.23.21.4.4,0,0,1,0,.32l-.5,1.4a.45.45,0,0,1-.16.2.4.4,0,0,1-.23.08.33.33,0,0,1-.13,0,.38.38,0,0,1-.23-.2.4.4,0,0,1,0-.32Z" />
  <path
    d="M55.43,188.81a.35.35,0,0,1-.34-.19.41.41,0,0,1-.06-.31.34.34,0,0,1,.18-.24l.94-.59v-4.12h-.76a.38.38,0,0,1-.28-.12A.36.36,0,0,1,55,183a.38.38,0,0,1,.12-.29.38.38,0,0,1,.28-.12h.76v-2.31a.38.38,0,0,1,.12-.29.36.36,0,0,1,.28-.12.41.41,0,0,1,.41.41v2.31h.54a.36.36,0,0,1,.28.12.38.38,0,0,1,.12.29.41.41,0,0,1-.4.4H57V187l.52-.33a.46.46,0,0,1,.3-.05.42.42,0,0,1,.26.19.42.42,0,0,1,.05.31.4.4,0,0,1-.19.25l-2.25,1.41A.51.51,0,0,1,55.43,188.81Zm4.79.88h-.29a.46.46,0,0,1-.29-.13.36.36,0,0,1-.1-.29.38.38,0,0,1,.12-.29.39.39,0,0,1,.29-.11h.27a1,1,0,0,0,.37-.08,1.17,1.17,0,0,0,.47-.3,1.93,1.93,0,0,0,.38-.6,2.74,2.74,0,0,0,.18-1l.06-4.86s0,0,0,0h0s0,0,0,0H59.19c-.07.2-.15.41-.23.6a4.29,4.29,0,0,1-.26.58.42.42,0,0,1-.37.22.34.34,0,0,1-.18,0,.42.42,0,0,1-.21-.24.34.34,0,0,1,0-.31c.11-.23.21-.47.31-.73a7.41,7.41,0,0,0,.26-.75,6.66,6.66,0,0,0,.19-.7,6.18,6.18,0,0,0,.11-.61.41.41,0,0,1,.44-.36.45.45,0,0,1,.28.15.38.38,0,0,1,.08.31,6.88,6.88,0,0,1-.21,1.07h2.21a.84.84,0,0,1,.63.25.91.91,0,0,1,.16.23.72.72,0,0,1,.07.4l-.06,4.86a3.65,3.65,0,0,1-.25,1.29,2.6,2.6,0,0,1-.55.86,2.13,2.13,0,0,1-.71.48A2,2,0,0,1,60.22,189.69Zm-1.61-1.75a.42.42,0,0,1-.34-.17.49.49,0,0,1-.07-.31.41.41,0,0,1,.18-.27l2.36-1.64a.39.39,0,0,1,.56.1.4.4,0,0,1,.08.31.46.46,0,0,1-.17.26l-2.36,1.64A.36.36,0,0,1,58.61,187.94Zm1.77-2.75a.37.37,0,0,1-.31-.15c-.09-.11-.18-.22-.26-.3s-.16-.18-.24-.27l-.27-.25-.34-.29a.37.37,0,0,1-.15-.27.41.41,0,0,1,.09-.3.4.4,0,0,1,.57-.06l.39.32c.11.1.21.19.3.29a3.32,3.32,0,0,1,.26.28l.28.33a.38.38,0,0,1,.09.29.41.41,0,0,1-.15.28A.44.44,0,0,1,60.38,185.19Z" />
  <path
    d="M71.74,188.65a.34.34,0,0,1,.17.25.39.39,0,0,1,0,.3.32.32,0,0,1-.15.13.43.43,0,0,1-.19,0,.41.41,0,0,1-.23-.06,10,10,0,0,1-2.25-2,9.13,9.13,0,0,1-1.45-2.55H66.28v3.87l1.37-1a.39.39,0,0,1,.31-.07.44.44,0,0,1,.27.17.45.45,0,0,1,.07.3.37.37,0,0,1-.18.26l-2,1.4a.4.4,0,0,1-.23.08.36.36,0,0,1-.19-.05.36.36,0,0,1-.22-.36v-4.63h-.81a.38.38,0,0,1-.29-.12.39.39,0,0,1-.12-.28.4.4,0,0,1,.12-.29.39.39,0,0,1,.29-.13h.79v-3.82a.41.41,0,0,1,.13-.29.4.4,0,0,1,.29-.12.39.39,0,0,1,.28.12.4.4,0,0,1,.12.29V184h5.24a.41.41,0,0,1,.29.13.44.44,0,0,1,.11.29.43.43,0,0,1-.11.28.4.4,0,0,1-.29.12H68.46A8.75,8.75,0,0,0,71.74,188.65Zm-4.67-5.5a.37.37,0,0,1-.22-.08.4.4,0,0,1-.16-.2.34.34,0,0,1,0-.31.49.49,0,0,1,.24-.21,7.53,7.53,0,0,0,1.78-.87,10.27,10.27,0,0,0,1.7-1.45.45.45,0,0,1,.28-.12A.46.46,0,0,1,71,180a.41.41,0,0,1,.13.29.4.4,0,0,1-.12.29,11.53,11.53,0,0,1-1.85,1.56,9,9,0,0,1-1.94,1Z" />
  <path
    d="M80.68,180.93A.39.39,0,0,1,81,181a.41.41,0,0,1-.29.7H75.23v2.58c0,.62,0,1.17,0,1.65a12.74,12.74,0,0,1-.15,1.34,9.1,9.1,0,0,1-.26,1.14c-.11.36-.25.72-.4,1.09a.45.45,0,0,1-.37.25.34.34,0,0,1-.16,0,.41.41,0,0,1-.22-.21.4.4,0,0,1,0-.32,8.3,8.3,0,0,0,.38-1,7.87,7.87,0,0,0,.24-1.06,11.25,11.25,0,0,0,.12-1.26c0-.45,0-1,0-1.57v-2.7a.68.68,0,0,1,.2-.49.66.66,0,0,1,.49-.2h2.37l0-.09-.19-.59a.38.38,0,0,1,0-.31.41.41,0,0,1,.23-.2.42.42,0,0,1,.31,0,.42.42,0,0,1,.2.24l.19.6a.43.43,0,0,1,0,.32Zm.25,8.06a.37.37,0,0,1,.28.15.39.39,0,0,1,.1.31.48.48,0,0,1-.14.25.45.45,0,0,1-.27.1h-.05a7.74,7.74,0,0,1-1.4-.35,7,7,0,0,1-1.17-.53,8.58,8.58,0,0,1-1.18.54,6.67,6.67,0,0,1-1.4.34h-.06a.45.45,0,0,1-.27-.1.41.41,0,0,1-.13-.25.38.38,0,0,1,.08-.31.36.36,0,0,1,.27-.15,6.25,6.25,0,0,0,1-.23,6.45,6.45,0,0,0,.88-.35,6.31,6.31,0,0,1-.64-.62,5.25,5.25,0,0,1-.45-.61,4.09,4.09,0,0,1-.28-.55,1.48,1.48,0,0,1-.09-.45.38.38,0,0,1,.11-.29.4.4,0,0,1,.29-.12h3.62a.41.41,0,0,1,.41.41,1.48,1.48,0,0,1-.09.45,3.18,3.18,0,0,1-.28.55,5.42,5.42,0,0,1-.46.61,5.53,5.53,0,0,1-.65.62,6.45,6.45,0,0,0,.88.35A5.92,5.92,0,0,0,80.93,189Zm-3.79-3.72a.68.68,0,0,1-.7-.7v-.91h-.6a.37.37,0,0,1-.29-.13.38.38,0,0,1-.12-.29.36.36,0,0,1,.12-.28.4.4,0,0,1,.29-.12h.6v-.3a.41.41,0,0,1,.41-.41.38.38,0,0,1,.29.12.4.4,0,0,1,.12.29v.3h2v-.3a.37.37,0,0,1,.13-.29.38.38,0,0,1,.28-.12.41.41,0,0,1,.41.41v.3h.61A.4.4,0,0,1,81,183a.36.36,0,0,1,.12.28.38.38,0,0,1-.12.29.37.37,0,0,1-.29.13h-.61v.91a.68.68,0,0,1-.7.7ZM77,186.59a6.39,6.39,0,0,0,.46.63,5.42,5.42,0,0,0,.77.72,5.11,5.11,0,0,0,.79-.71,5.4,5.4,0,0,0,.46-.64Zm.25-2.93v.79h2v-.79Z" />
  <path d="M271.45,47.59c-5.77,1.16-29.47,5.13-34,6-.11.71-.32,126.08-.33,175.09,0,1.06-.18,2.11-.28,3.17"
    style="fill:none;stroke:#000;stroke-linecap:round;stroke-linejoin:round;stroke-width:0.89119766390072px" />
  <path
    d="M162.69,93.82a.54.54,0,0,1,0,.2.53.53,0,0,1-.11.14.37.37,0,0,1-.14.07l-.16,0h-.34a.79.79,0,0,1-.28,0,.8.8,0,0,1-.23-.11,1.29,1.29,0,0,1-.21-.24,2.9,2.9,0,0,1-.23-.38l-2.34-4.36-.37-.71c-.12-.25-.24-.49-.34-.72h0c0,.29,0,.58,0,.87s0,.59,0,.89v4.63a.16.16,0,0,1,0,.08.16.16,0,0,1-.08,0l-.16,0h-.49l-.16,0-.08,0a.31.31,0,0,1,0-.08V87a.4.4,0,0,1,.13-.34.47.47,0,0,1,.3-.1h.5a1.17,1.17,0,0,1,.29,0,.55.55,0,0,1,.22.1.66.66,0,0,1,.18.19,3.23,3.23,0,0,1,.19.3l1.8,3.37.32.6.3.58c.09.19.19.37.28.56l.28.55h0c0-.31,0-.63,0-1V86.74a.12.12,0,0,1,0-.08l.09-.06a.46.46,0,0,1,.15,0h.49l.16,0,.08.06a.13.13,0,0,1,0,.08Z" />
  <path
    d="M173.1,86.39a.41.41,0,0,1-.12.3.46.46,0,0,1-.31.13h-5.88v7.57h6a.4.4,0,0,1,.29.12.36.36,0,0,1,.11.28.38.38,0,0,1-.11.29.35.35,0,0,1-.29.13h-6.13a.67.67,0,0,1-.5-.21.7.7,0,0,1-.2-.49V86.69a.69.69,0,0,1,.2-.5.66.66,0,0,1,.5-.2h6a.41.41,0,0,1,.3.11A.4.4,0,0,1,173.1,86.39Zm-1.67,5.91c.09,0,.13,0,.13-.14V89.22H170.4v4.41a.4.4,0,0,1-.13.31.43.43,0,0,1-.31.12.41.41,0,0,1-.3-.12.43.43,0,0,1-.12-.31V89.22h-1.15v3.47a.44.44,0,0,1-.11.29.41.41,0,0,1-.58,0,.37.37,0,0,1-.13-.29V89a.58.58,0,0,1,.18-.42.61.61,0,0,1,.42-.17h1.37v-.82a.45.45,0,0,1,.12-.31.42.42,0,0,1,.3-.13.44.44,0,0,1,.31.13.42.42,0,0,1,.13.31v.82h1.38a.61.61,0,0,1,.42.17.58.58,0,0,1,.18.42v3.17a.92.92,0,0,1-.94,1,.41.41,0,0,1-.41-.41.44.44,0,0,1,.11-.29A.39.39,0,0,1,171.43,92.3Z" />
</svg>
