<svg xmlns="http://www.w3.org/2000/svg"
  viewBox="0 0 368.5 227.9"
  width="368.5"
  height="227.9"
  class="w-100 h-auto my-3">
  <title>有气隙的铁芯</title>
  <line x1="131.62"
    y1="5.29"
    x2="94.83"
    y2="8.41"
    style="fill:none;stroke:#000;stroke-linecap:round;stroke-linejoin:round;stroke-width:1.5px" />
  <path d="M202,126.81V167l-78.85-36.62V39.42C124.48,39.66,201,62.68,202,63v51.66"
    style="fill:none;stroke:#000;stroke-linecap:round;stroke-linejoin:round;stroke-width:1.5px" />
  <path
    d="M219.18,117.89c0-9.25.06-35.44,0-47.2-.08-8.42-3.55-15.33-10.72-19.82-2.76-1.73-6.26-2.33-9.47-3.27-9.81-2.84-19.64-5.6-29.46-8.38a1.81,1.81,0,0,0-.57,0s-44-12.42-51.13-14.73c-6.9-2.24-11,3.79-10.46,9,.43,4.39.36,33.88.34,44.18,0,1.06.14,35.24,0,43.9-.18,9.61,3.62,16.26,12.7,20.33,10.79,4.84,81.11,43.1,87.6,45.69,7.93,3.17,10.73-.91,11.13-6.81.29-4.23.21-30.31.14-44.47"
    style="fill:none;stroke:#000;stroke-linecap:round;stroke-linejoin:round;stroke-width:0.35000000000000003px" />
  <polygon points="220.19 117.2 219.17 120.99 218.15 117.2 220.19 117.2" />
  <polygon points="220.23 136.95 219.21 133.16 218.2 136.96 220.23 136.95" />
  <path d="M151.59,123q17.17,6.93,34.37,13.85c5.18,2.08,10.39,4.05,15.59,6.08"
    style="fill:none;stroke:#000;stroke-linecap:round;stroke-linejoin:round;stroke-width:1.5px" />
  <path d="M51.08,77.33Q72,84.85,93,92.34a10.78,10.78,0,0,0,1.73.3"
    style="fill:none;stroke:#0078c8;stroke-linecap:round;stroke-linejoin:round;stroke-width:1.51755713995979px" />
  <path d="M151.3,123c-5.44,1.44-24.89,6.45-28.16,7.41"
    style="fill:none;stroke:#000;stroke-linecap:round;stroke-linejoin:round;stroke-width:1.5px" />
  <path d="M76.35,30.94q-7.87-2.43-15.75-4.86a2.74,2.74,0,0,0-.86,0"
    style="fill:none;stroke:#000;stroke-linecap:round;stroke-linejoin:round;stroke-width:0.75px" />
  <polygon points="75.77 29.06 81.11 32.42 74.81 32.18 75.77 29.06" />
  <path d="M273,115.32l-.13-77.23C263.51,35.88,147,8.44,131.62,5.29"
    style="fill:none;stroke:#000;stroke-linecap:round;stroke-linejoin:round;stroke-width:1.5px" />
  <line x1="273.18"
    y1="207.01"
    x2="273.04"
    y2="127.42"
    style="fill:none;stroke:#000;stroke-linecap:round;stroke-linejoin:round;stroke-width:1.5px" />
  <path d="M238.6,223s34.19-15.62,34.58-16"
    style="fill:none;stroke:#000;stroke-linecap:round;stroke-linejoin:round;stroke-width:1.5px" />
  <line x1="151.3"
    y1="122.95"
    x2="151.3"
    y2="48.16"
    style="fill:none;stroke:#000;stroke-linecap:round;stroke-linejoin:round;stroke-width:1.5px" />
  <path
    d="M151.62,57.68a.82.82,0,0,1,.69.35c.18.32-.18,1.19-.45,1.53a.88.88,0,0,1-.33.24A23.24,23.24,0,0,1,147,60.86c-6.54,1.28-13,2.42-19.61,3.85-4.23.92-7.79-.61-11.57-1.56-2.54-.63-5-1.51-7.52-2.28L106.82,60c-4.33-1.16-9.21-2.5-12.54-4.44"
    style="fill:none;stroke:#0078c8;stroke-linecap:round;stroke-linejoin:round;stroke-width:1.51755713995979px" />
  <path
    d="M151.62,68.17a.85.85,0,0,1,.69.35c.18.32,0,1.57-.53,1.7-8.41,1.83-18.07,3.66-26.48,5.38-.66.13-1.34.19-2,.29h-.58a14.15,14.15,0,0,1-1.44-.3c-4.33-1.33-8.67-2.69-13-4L107.11,71c-4.26-1.67-9-2.26-12.55-4.72"
    style="fill:none;stroke:#0078c8;stroke-linecap:round;stroke-linejoin:round;stroke-width:1.51755713995979px" />
  <path
    d="M151.62,78.13a.83.83,0,0,1,.69.34c.17.3-.08,1-.23,1.35a.58.58,0,0,1-.36.31,40.83,40.83,0,0,1-4.47,1.22c-7.21,1.51-14.43,2.93-21.66,4.34a12.71,12.71,0,0,1-2.31,0h-.58a27.72,27.72,0,0,1-2.88-.59c-3.86-1.22-7.71-2.49-11.56-3.74l-.58-.16-13.15-4.6"
    style="fill:none;stroke:#0078c8;stroke-linecap:round;stroke-linejoin:round;stroke-width:1.51755713995979px" />
  <path d="M151.62,89a.85.85,0,0,1,.69.35c.15.26,0,.91-.17,1.36a.83.83,0,0,1-.63.56c-5.23,1-11.82,2.44-17,3.43-3.74.73-7.5,1.36-11.26,2h0l-12-2.84s-12.9-4.37-16.57-6.94"
    style="fill:none;stroke:#0078c8;stroke-linecap:round;stroke-linejoin:round;stroke-width:1.51755713995979px" />
  <path
    d="M151.62,99.53a.82.82,0,0,1,.69.35c.16.27,0,.9-.2,1.31a.67.67,0,0,1-.5.43c-4.37.86-9.86,2-14.18,2.86-4.71.89-9.43,1.74-14.15,2.6h-.58a12.18,12.18,0,0,1-2-.3c-4.15-1.32-8.29-2.68-12.43-4,0,0-10-2.61-13.4-5.13"
    style="fill:none;stroke:#0078c8;stroke-linecap:round;stroke-linejoin:round;stroke-width:1.51755713995979px" />
  <path
    d="M72.09,23.46c-1.16,1.21-2,1.82-2.59,1.82a.94.94,0,0,1-.8-.48,2.14,2.14,0,0,1-.33-1.22,13.33,13.33,0,0,1,1.07-4.37l1.88-.4h.09l-.74,2.32a7.82,7.82,0,0,0-.46,2.05.68.68,0,0,0,.1.4.34.34,0,0,0,.27.15,1,1,0,0,0,.59-.21,7.27,7.27,0,0,0,.92-.91Zm-.15-7.54c0,1.18-.44,1.77-1.31,1.77a1.59,1.59,0,0,1-1.09-.38,5.47,5.47,0,0,0,.67-1.47,2,2,0,0,0,.94.37A1.35,1.35,0,0,0,71.94,15.92Z" />
  <path
    d="M286.59,168.08a.63.63,0,0,1,.05.21.13.13,0,0,1-.05.12.26.26,0,0,1-.15.05h-.59l-.17,0-.08-.06a.36.36,0,0,1-.05-.09l-.66-1.87H281.7l-.63,1.85a.36.36,0,0,1,0,.09.2.2,0,0,1-.09.06l-.16,0h-.55a.26.26,0,0,1-.15-.06.17.17,0,0,1-.05-.12,1.49,1.49,0,0,1,.05-.21l2.58-7.12a.2.2,0,0,1,.06-.11.3.3,0,0,1,.11-.07l.19,0h.61l.2,0a.35.35,0,0,1,.12.07.41.41,0,0,1,.07.11Zm-3.3-6.29h0L282,165.61h2.67Z" />
  <path
    d="M289.61,168.92v.1s0,.06,0,.08,0,0,0,.05l-.06.06a.73.73,0,0,1-.15.11,1,1,0,0,1-.23.11,1.15,1.15,0,0,1-.28.09,1.63,1.63,0,0,1-.31,0,1.57,1.57,0,0,1-.6-.11,1.18,1.18,0,0,1-.43-.33,1.35,1.35,0,0,1-.27-.52,2.5,2.5,0,0,1-.09-.71,2.6,2.6,0,0,1,.11-.79,1.56,1.56,0,0,1,.31-.54,1.23,1.23,0,0,1,.46-.32,1.8,1.8,0,0,1,.57-.1,1.36,1.36,0,0,1,.29,0l.26.07a1,1,0,0,1,.21.11l.13.1.06.06,0,.06s0,.05,0,.07v.11a.44.44,0,0,1,0,.19.1.1,0,0,1-.08,0,.22.22,0,0,1-.12-.06.83.83,0,0,0-.17-.12,1.17,1.17,0,0,0-.25-.13.91.91,0,0,0-.35-.06.73.73,0,0,0-.63.32,1.66,1.66,0,0,0-.22.92,2,2,0,0,0,.06.52,1.21,1.21,0,0,0,.17.38.67.67,0,0,0,.27.23.87.87,0,0,0,.37.07A.9.9,0,0,0,289,169a1.26,1.26,0,0,0,.26-.14l.18-.13a.22.22,0,0,1,.12-.06h0l0,.05s0,.05,0,.08Z" />
  <path d="M238.71,140.39c-.06,42.06-.11,82.63-.11,82.63L95.27,145.92,94.83,8.41h.25L238.84,44.35s-.06,41.1-.11,83.88"
    style="fill:none;stroke:#000;stroke-linecap:round;stroke-linejoin:round;stroke-width:1.5px" />
  <line x1="272.89"
    y1="38.34"
    x2="238.84"
    y2="44.35"
    style="fill:none;stroke:#000;stroke-linecap:round;stroke-linejoin:round;stroke-width:1.5px" />
  <rect x="159.26"
    y="23"
    width="11.69"
    height="9.94"
    style="fill:#fff" />
  <path
    d="M163.57,29.78a2.19,2.19,0,0,1-.85-.43,1.68,1.68,0,0,1-.49-.66,2.39,2.39,0,0,1-.15-.88,2.15,2.15,0,0,1,.16-.85,1.71,1.71,0,0,1,.5-.67,2.26,2.26,0,0,1,.84-.46,4.51,4.51,0,0,1,1.2-.22v-1.8a.07.07,0,0,1,0,0,.1.1,0,0,1,.05,0l.11,0h.31a.22.22,0,0,1,.1,0,.09.09,0,0,1,.06,0,.07.07,0,0,1,0,0v1.8a5.07,5.07,0,0,1,1.21.18,2.51,2.51,0,0,1,.85.43,1.84,1.84,0,0,1,.49.66,2.46,2.46,0,0,1,.15.88,2.16,2.16,0,0,1-.16.86,1.9,1.9,0,0,1-.5.67,2.41,2.41,0,0,1-.84.46,4.16,4.16,0,0,1-1.2.21V31.4a.11.11,0,0,1,0,.05l-.06,0-.1,0H165l-.11,0-.05,0a.11.11,0,0,1,0-.05V30A5.07,5.07,0,0,1,163.57,29.78Zm1.21-3.71a4.48,4.48,0,0,0-.9.14,1.88,1.88,0,0,0-.63.33,1.34,1.34,0,0,0-.37.51,2,2,0,0,0-.13.71,2.11,2.11,0,0,0,.1.68,1.17,1.17,0,0,0,.32.53,1.62,1.62,0,0,0,.62.37,3.61,3.61,0,0,0,1,.17Zm.65,3.44a3.66,3.66,0,0,0,.89-.15A2,2,0,0,0,167,29a1.3,1.3,0,0,0,.37-.52,1.87,1.87,0,0,0,.13-.71,2.41,2.41,0,0,0-.1-.67,1.25,1.25,0,0,0-.32-.54,1.76,1.76,0,0,0-.62-.37,3.3,3.3,0,0,0-1-.16Z"
    style="stroke:#000;stroke-miterlimit:10;stroke-width:0.12725462192751436px" />
  <path
    d="M57,68.14a.34.34,0,0,1,0,.18.27.27,0,0,1-.09.12.47.47,0,0,1-.12.07l-.14,0h-.3a.88.88,0,0,1-.24,0,.54.54,0,0,1-.2-.1,1.33,1.33,0,0,1-.19-.21c-.06-.09-.13-.2-.2-.33l-2-3.82c-.11-.2-.22-.4-.33-.62s-.21-.42-.3-.63h0c0,.25,0,.5,0,.76s0,.52,0,.78v4a.25.25,0,0,1,0,.07.16.16,0,0,1-.08,0l-.13,0H52.2l-.14,0a.13.13,0,0,1-.07,0,.25.25,0,0,1,0-.07V62.19a.35.35,0,0,1,.12-.3.38.38,0,0,1,.25-.09h.44a1,1,0,0,1,.26,0,.46.46,0,0,1,.19.08.88.88,0,0,1,.16.17,2.76,2.76,0,0,1,.16.27l1.58,2.94.28.53c.09.17.17.34.26.5l.24.49c.09.16.17.33.25.49h0c0-.27,0-.56,0-.85V62a.25.25,0,0,1,0-.07s0,0,.07-.05a.29.29,0,0,1,.14,0h.43a.29.29,0,0,1,.14,0l.07.05A.25.25,0,0,1,57,62Z" />
  <path
    d="M62.83,64.51a.62.62,0,0,1,0,.29.16.16,0,0,1-.14.08H58.72a.16.16,0,0,1-.14-.08.52.52,0,0,1,0-.29.5.5,0,0,1,0-.27.15.15,0,0,1,.14-.09h3.92a.15.15,0,0,1,.14.09A.5.5,0,0,1,62.83,64.51Zm0,2a.65.65,0,0,1,0,.29.17.17,0,0,1-.14.07H58.72a.17.17,0,0,1-.14-.07.54.54,0,0,1,0-.29.52.52,0,0,1,0-.28.15.15,0,0,1,.14-.09h3.92a.15.15,0,0,1,.14.09A.52.52,0,0,1,62.83,66.53Z" />
  <path
    d="M68.51,66.6a.62.62,0,0,1-.05.27.17.17,0,0,1-.15.1h-.76v1.41a.08.08,0,0,1,0,.07.13.13,0,0,1-.07,0,.49.49,0,0,1-.14,0h-.43a.42.42,0,0,1-.14,0,.13.13,0,0,1-.07,0,.14.14,0,0,1,0-.07V67H63.82a.16.16,0,0,1-.08-.06.33.33,0,0,1-.05-.12s0-.12,0-.2a1,1,0,0,1,0-.18.59.59,0,0,1,0-.14.65.65,0,0,1,0-.13l.06-.12,2.39-4.08a.19.19,0,0,1,.08-.07l.13,0a.54.54,0,0,1,.19,0h.58a.87.87,0,0,1,.21,0,.33.33,0,0,1,.12,0,.09.09,0,0,1,0,.08v4.29h.76a.15.15,0,0,1,.14.09A.49.49,0,0,1,68.51,66.6Zm-1.85-4h0L64.5,66.24h2.16Z" />
  <path
    d="M73.94,65.14a6.77,6.77,0,0,1-.13,1.41,3.18,3.18,0,0,1-.4,1.1,2,2,0,0,1-.74.71,2.26,2.26,0,0,1-1.12.25,2.17,2.17,0,0,1-1.07-.23,1.77,1.77,0,0,1-.7-.66,3.12,3.12,0,0,1-.37-1.08,7.94,7.94,0,0,1-.12-1.47,7.69,7.69,0,0,1,.13-1.41,3.34,3.34,0,0,1,.4-1.09,1.94,1.94,0,0,1,.74-.71,2.26,2.26,0,0,1,1.12-.26,2.29,2.29,0,0,1,1.07.23,1.77,1.77,0,0,1,.7.66,3.12,3.12,0,0,1,.37,1.08A8.09,8.09,0,0,1,73.94,65.14ZM73,65.2q0-.49,0-.9a5.74,5.74,0,0,0-.11-.7,2.73,2.73,0,0,0-.18-.53,1.13,1.13,0,0,0-.27-.36.84.84,0,0,0-.35-.21,1.63,1.63,0,0,0-.45-.07,1.16,1.16,0,0,0-.72.21,1.48,1.48,0,0,0-.43.57,2.94,2.94,0,0,0-.22.85c0,.33-.05.68-.05,1a7.87,7.87,0,0,0,.08,1.28,2.86,2.86,0,0,0,.24.86,1.13,1.13,0,0,0,.43.48,1.29,1.29,0,0,0,.64.15,1.36,1.36,0,0,0,.51-.09,1.46,1.46,0,0,0,.38-.27,1.75,1.75,0,0,0,.26-.42,2.64,2.64,0,0,0,.16-.54,4,4,0,0,0,.09-.64C73,65.69,73,65.45,73,65.2Z" />
  <path
    d="M79.43,65.14a7.52,7.52,0,0,1-.13,1.41,3.18,3.18,0,0,1-.4,1.1,2.09,2.09,0,0,1-.74.71,2.28,2.28,0,0,1-1.13.25A2.16,2.16,0,0,1,76,68.38a1.77,1.77,0,0,1-.7-.66,3.12,3.12,0,0,1-.37-1.08,7.94,7.94,0,0,1-.12-1.47,7.69,7.69,0,0,1,.13-1.41,3.34,3.34,0,0,1,.4-1.09,1.87,1.87,0,0,1,.74-.71,2.26,2.26,0,0,1,1.12-.26,2.32,2.32,0,0,1,1.07.23,1.77,1.77,0,0,1,.7.66,3.12,3.12,0,0,1,.37,1.08A8.09,8.09,0,0,1,79.43,65.14Zm-.92.06q0-.49,0-.9a5.74,5.74,0,0,0-.11-.7,2.73,2.73,0,0,0-.18-.53,1.13,1.13,0,0,0-.27-.36.84.84,0,0,0-.35-.21,1.63,1.63,0,0,0-.45-.07,1.16,1.16,0,0,0-.72.21,1.39,1.39,0,0,0-.43.57,2.94,2.94,0,0,0-.22.85c0,.33,0,.68,0,1a7.87,7.87,0,0,0,.08,1.28,2.86,2.86,0,0,0,.24.86,1.13,1.13,0,0,0,.43.48,1.29,1.29,0,0,0,.64.15,1.36,1.36,0,0,0,.51-.09,1.46,1.46,0,0,0,.38-.27,1.75,1.75,0,0,0,.26-.42,2.64,2.64,0,0,0,.16-.54,4,4,0,0,0,.09-.64C78.5,65.69,78.51,65.45,78.51,65.2Z" />
  <path
    d="M88.08,60.66A.41.41,0,0,1,88,61a.47.47,0,0,1-.31.14H81.77v7.56h6a.4.4,0,0,1,.29.12.38.38,0,0,1,.12.28.42.42,0,0,1-.12.3.37.37,0,0,1-.29.12H81.65a.67.67,0,0,1-.5-.21.7.7,0,0,1-.2-.49V61a.69.69,0,0,1,.2-.5.7.7,0,0,1,.5-.2h6a.46.46,0,0,1,.3.11A.4.4,0,0,1,88.08,60.66Zm-1.67,5.91c.09,0,.13,0,.13-.14V63.49H85.38v4.42a.38.38,0,0,1-.13.3.41.41,0,0,1-.3.12.41.41,0,0,1-.31-.12.41.41,0,0,1-.12-.3V63.49H83.37V67a.44.44,0,0,1-.11.29.41.41,0,0,1-.58,0,.41.41,0,0,1-.13-.29v-3.7a.58.58,0,0,1,.18-.42.61.61,0,0,1,.42-.17h1.37v-.82a.45.45,0,0,1,.12-.31.41.41,0,0,1,.31-.12.41.41,0,0,1,.3.12.42.42,0,0,1,.13.31v.82h1.38a.61.61,0,0,1,.42.17.58.58,0,0,1,.18.42v3.17a.94.94,0,0,1-.94,1,.41.41,0,0,1-.29-.13A.4.4,0,0,1,86,67a.38.38,0,0,1,.4-.4Z" />
  <path
    d="M271.86,15.87h3v-.79h-2.13a.68.68,0,0,1-.69-.7V10.92a.66.66,0,0,1,.2-.49.66.66,0,0,1,.49-.2h.65L273,9.66a.35.35,0,0,1-.1-.29.46.46,0,0,1,.15-.28.41.41,0,0,1,.58.06l.82,1,0,.07h1.7l0,0,0,0,.81-1a.47.47,0,0,1,.28-.16.41.41,0,0,1,.45.37.34.34,0,0,1-.08.29l-.45.56h.65a.7.7,0,0,1,.69.7v3.46a.67.67,0,0,1-.21.49.64.64,0,0,1-.48.21h-2.13v.79h3A.41.41,0,0,1,279,16a.38.38,0,0,1,.12.28.41.41,0,0,1-.41.41h-3v2a.41.41,0,0,1-.13.29.38.38,0,0,1-.29.12.41.41,0,0,1-.41-.41v-2h-3a.4.4,0,0,1-.29-.12.44.44,0,0,1-.11-.29.41.41,0,0,1,.4-.41Zm1-4.84v1.19h2V11Zm2,3.22V13h-2v1.21ZM277.7,11h-2v1.19h2Zm0,3.22V13h-2v1.21Z" />
  <path
    d="M282.93,9a.4.4,0,0,1,.27.14.41.41,0,0,1,.08.3,10.61,10.61,0,0,1-.18,1.15,10.06,10.06,0,0,1-.3,1.11v6.85a.42.42,0,0,1-.12.3.36.36,0,0,1-.28.12.38.38,0,0,1-.29-.12.39.39,0,0,1-.13-.3v-5l-.12.23-.15.22a.37.37,0,0,1-.34.19.44.44,0,0,1-.23-.06A.38.38,0,0,1,281,14a.41.41,0,0,1,.07-.32,7.77,7.77,0,0,0,.94-1.94,10.38,10.38,0,0,0,.49-2.29.46.46,0,0,1,.15-.27A.35.35,0,0,1,282.93,9Zm.61,9.79a.4.4,0,0,1-.29-.12.42.42,0,0,1-.12-.3.39.39,0,0,1,.12-.28.36.36,0,0,1,.28-.12h2.34L287,12.82a.42.42,0,0,1,.18-.25.41.41,0,0,1,.31-.06.39.39,0,0,1,.26.17.39.39,0,0,1,0,.32l-1.12,5h1.42a.38.38,0,0,1,.28.12.39.39,0,0,1,.12.28.42.42,0,0,1-.12.3.38.38,0,0,1-.28.12Zm4.83-7.47a.35.35,0,0,1-.12.28.53.53,0,0,1-.3.14h-4.16a.41.41,0,0,1-.41-.41.4.4,0,0,1,.12-.29.38.38,0,0,1,.29-.12h1.85l-.21-1.47a.47.47,0,0,1,.08-.31.37.37,0,0,1,.27-.15.37.37,0,0,1,.3.08.35.35,0,0,1,.16.26l.22,1.58H288a.41.41,0,0,1,.41.41Zm-4.13,1.16a.4.4,0,0,1,.32.05.41.41,0,0,1,.17.26l.84,4a.37.37,0,0,1-.05.31.35.35,0,0,1-.26.18h-.09a.38.38,0,0,1-.25-.09.33.33,0,0,1-.14-.23l-.84-4a.39.39,0,0,1,0-.32A.39.39,0,0,1,284.24,12.52Z" />
  <path
    d="M291.22,13a.62.62,0,0,1,.19-.46.64.64,0,0,1,.47-.19.58.58,0,0,1,.45.19.66.66,0,0,1,.19.46.64.64,0,0,1-.19.45.59.59,0,0,1-.45.2.63.63,0,0,1-.46-.2A.61.61,0,0,1,291.22,13Zm0,4.45a.62.62,0,0,1,.19-.46.64.64,0,0,1,.47-.19.58.58,0,0,1,.45.19.66.66,0,0,1,.19.46.64.64,0,0,1-.19.45.59.59,0,0,1-.45.2.63.63,0,0,1-.46-.2A.61.61,0,0,1,291.22,17.46Z" />
  <path
    d="M308,17.64a.1.1,0,0,1,0,.07.15.15,0,0,1-.06,0,.4.4,0,0,1-.13,0h-.42a.33.33,0,0,1-.13,0l-.08,0a.19.19,0,0,1,0-.07V14.8a2.26,2.26,0,0,0-.05-.54,1.31,1.31,0,0,0-.16-.42.82.82,0,0,0-.29-.27.93.93,0,0,0-1,.14,4.08,4.08,0,0,0-.66.66v3.27a.19.19,0,0,1,0,.07l-.07,0a.4.4,0,0,1-.13,0h-.41a.39.39,0,0,1-.14,0l-.07,0a.17.17,0,0,1,0-.07V14.8a2.23,2.23,0,0,0-.06-.54,1.6,1.6,0,0,0-.17-.42.75.75,0,0,0-.29-.27.88.88,0,0,0-.41-.09,1,1,0,0,0-.6.23,3.7,3.7,0,0,0-.65.66v3.27a.19.19,0,0,1,0,.07l-.07,0a.33.33,0,0,1-.13,0h-.42a.33.33,0,0,1-.13,0,.14.14,0,0,1-.07,0,.19.19,0,0,1,0-.07V13a.14.14,0,0,1,0-.07.1.1,0,0,1,.06-.05.21.21,0,0,1,.12,0h.38a.21.21,0,0,1,.12,0l.06.05a.14.14,0,0,1,0,.07v.62a2.9,2.9,0,0,1,.76-.65,1.51,1.51,0,0,1,.75-.2,2.06,2.06,0,0,1,.52.06,1.72,1.72,0,0,1,.41.19,1.38,1.38,0,0,1,.3.29,2.32,2.32,0,0,1,.21.38,4.38,4.38,0,0,1,.44-.43,3.07,3.07,0,0,1,.4-.29,1.66,1.66,0,0,1,.38-.15,1.18,1.18,0,0,1,.37,0,1.72,1.72,0,0,1,.76.15,1.49,1.49,0,0,1,.5.43,1.66,1.66,0,0,1,.26.62,3,3,0,0,1,.08.75Z" />
  <path
    d="M316.55,17.64a.1.1,0,0,1,0,.07l-.06,0a.4.4,0,0,1-.13,0h-.42l-.14,0-.07,0a.19.19,0,0,1,0-.07V14.8a2.26,2.26,0,0,0-.05-.54,1.31,1.31,0,0,0-.16-.42.82.82,0,0,0-.29-.27.93.93,0,0,0-1,.14,4.08,4.08,0,0,0-.66.66v3.27a.19.19,0,0,1,0,.07l-.07,0a.4.4,0,0,1-.13,0h-.41a.39.39,0,0,1-.14,0l-.07,0a.17.17,0,0,1,0-.07V14.8a2.23,2.23,0,0,0-.06-.54,1.6,1.6,0,0,0-.17-.42.75.75,0,0,0-.29-.27.88.88,0,0,0-.41-.09,1,1,0,0,0-.6.23,3.7,3.7,0,0,0-.65.66v3.27a.19.19,0,0,1,0,.07l-.07,0a.4.4,0,0,1-.13,0h-.42a.33.33,0,0,1-.13,0,.14.14,0,0,1-.07,0,.19.19,0,0,1,0-.07V13a.14.14,0,0,1,0-.07.1.1,0,0,1,.06-.05.21.21,0,0,1,.12,0h.38a.21.21,0,0,1,.12,0l.06.05a.14.14,0,0,1,0,.07v.62a2.9,2.9,0,0,1,.76-.65,1.51,1.51,0,0,1,.75-.2,2.06,2.06,0,0,1,.52.06,1.72,1.72,0,0,1,.41.19,1.38,1.38,0,0,1,.3.29,2.32,2.32,0,0,1,.21.38,4.38,4.38,0,0,1,.44-.43,3.07,3.07,0,0,1,.4-.29,1.66,1.66,0,0,1,.38-.15,1.18,1.18,0,0,1,.37,0,1.72,1.72,0,0,1,.76.15,1.36,1.36,0,0,1,.49.43,1.52,1.52,0,0,1,.27.62,3,3,0,0,1,.08.75Z" />
  <polyline points="201.99 114.66 220.92 121.64 238.81 128.23 272.89 115.23"
    style="fill:none;stroke:#000;stroke-linecap:round;stroke-linejoin:round;stroke-width:1.5px;opacity:0.8" />
  <polygon points="255.29 121.95 238.81 128.23 220.92 121.64 220.92 121.64 201.99 126.81 238.81 140.39 272.89 127.39 255.29 121.95 255.29 121.95"
    style="fill:#a6a6a6;stroke:#000;stroke-linecap:round;stroke-linejoin:round;stroke-width:1.5px;opacity:0.8" />
  <path d="M250.87,131.19a37.53,37.53,0,0,1,32.81,27.59"
    style="fill:none;stroke:#fff;stroke-linecap:round;stroke-linejoin:round;stroke-width:1.5px" />
  <polygon points="251.56 132.33 247.56 131.01 251.68 130.16 251.56 132.33"
    style="fill:#fff" />
  <path d="M250.65,131.16a37.56,37.56,0,0,1,33,27.62"
    style="fill:none;stroke:#000;stroke-linecap:round;stroke-linejoin:round;stroke-width:0.35000000000000003px" />
  <polygon points="251.29 132.24 247.56 131.01 251.4 130.21 251.29 132.24" />
  <line x1="275.42"
    y1="126.93"
    x2="284.23"
    y2="123.61"
    style="fill:none;stroke:#000;stroke-linecap:round;stroke-linejoin:round;stroke-width:0.35000000000000003px" />
  <line x1="275.42"
    y1="114.43"
    x2="284.23"
    y2="111.1"
    style="fill:none;stroke:#000;stroke-linecap:round;stroke-linejoin:round;stroke-width:0.35000000000000003px" />
  <line x1="279.82"
    y1="99.15"
    x2="279.82"
    y2="109.66"
    style="fill:none;stroke:#000;stroke-miterlimit:10;stroke-width:0.35000000000000003px" />
  <polygon points="278.81 108.97 279.82 112.76 280.84 108.97 278.81 108.97" />
  <line x1="279.82"
    y1="138.88"
    x2="279.82"
    y2="128.37"
    style="fill:none;stroke:#000;stroke-miterlimit:10;stroke-width:0.35000000000000003px" />
  <polygon points="280.84 129.06 279.82 125.27 278.81 129.06 280.84 129.06" />
  <path
    d="M291.54,116.6a7.69,7.69,0,0,1-.13,1.41,3.13,3.13,0,0,1-.4,1.09,1.94,1.94,0,0,1-.74.71,2.26,2.26,0,0,1-1.12.26,2.29,2.29,0,0,1-1.07-.23,1.77,1.77,0,0,1-.7-.66,3.19,3.19,0,0,1-.37-1.08,8.09,8.09,0,0,1-.12-1.47,7.69,7.69,0,0,1,.13-1.41,3.4,3.4,0,0,1,.4-1.1,2.09,2.09,0,0,1,.74-.71,2.26,2.26,0,0,1,1.12-.25,2.32,2.32,0,0,1,1.07.22,1.87,1.87,0,0,1,.7.67,3.12,3.12,0,0,1,.37,1.08A7.94,7.94,0,0,1,291.54,116.6Zm-.92.06q0-.51,0-.9a5.93,5.93,0,0,0-.11-.71,2.61,2.61,0,0,0-.18-.52,1.31,1.31,0,0,0-.27-.37.94.94,0,0,0-.35-.2,1.33,1.33,0,0,0-.45-.07,1.16,1.16,0,0,0-.72.21,1.48,1.48,0,0,0-.43.57,2.85,2.85,0,0,0-.22.85c0,.32-.05.67-.05,1a7.74,7.74,0,0,0,.08,1.27,2.78,2.78,0,0,0,.24.86,1.13,1.13,0,0,0,.43.48,1.19,1.19,0,0,0,.64.15,1.36,1.36,0,0,0,.51-.09,1.1,1.1,0,0,0,.38-.27,1.51,1.51,0,0,0,.26-.41,3.08,3.08,0,0,0,.16-.54,4.11,4.11,0,0,0,.09-.64C290.62,117.15,290.62,116.91,290.62,116.66Z" />
  <path d="M293.8,119.4a.71.71,0,0,1-.12.49.63.63,0,0,1-.44.12.65.65,0,0,1-.43-.11.69.69,0,0,1-.12-.48.71.71,0,0,1,.12-.49.63.63,0,0,1,.44-.12.6.6,0,0,1,.43.12A.65.65,0,0,1,293.8,119.4Z" />
  <path
    d="M299.35,117.81a2.42,2.42,0,0,1-.19,1,1.93,1.93,0,0,1-.51.71,2.25,2.25,0,0,1-.79.44,3.31,3.31,0,0,1-1,.15,3.7,3.7,0,0,1-.59,0,3.1,3.1,0,0,1-.5-.11l-.36-.12-.18-.1,0-.07,0-.08a.75.75,0,0,1,0-.11v-.16a.66.66,0,0,1,0-.15.37.37,0,0,1,0-.12s0,0,.05-.06a.08.08,0,0,1,.07,0,.4.4,0,0,1,.16.06l.29.14a3.18,3.18,0,0,0,.46.14,2.46,2.46,0,0,0,.64.07,2.49,2.49,0,0,0,.64-.08,1.32,1.32,0,0,0,.5-.26,1.25,1.25,0,0,0,.33-.45,1.54,1.54,0,0,0,.12-.65,1.4,1.4,0,0,0-.1-.56,1,1,0,0,0-.31-.41,1.53,1.53,0,0,0-.53-.25,3.44,3.44,0,0,0-.77-.08,4.16,4.16,0,0,0-.54,0l-.43,0a.29.29,0,0,1-.21-.06.41.41,0,0,1-.06-.26v-2.74a.37.37,0,0,1,.08-.25.32.32,0,0,1,.23-.08h3l.08,0a.23.23,0,0,1,.07.07.34.34,0,0,1,0,.12.91.91,0,0,1,0,.17.72.72,0,0,1-.05.29.16.16,0,0,1-.14.11h-2.4v1.88a2.19,2.19,0,0,1,.36,0h.42a3.15,3.15,0,0,1,1,.14,1.78,1.78,0,0,1,.69.39,1.52,1.52,0,0,1,.42.61A2,2,0,0,1,299.35,117.81Z" />
  <path
    d="M154.93,168.75a8.07,8.07,0,0,1-1.23,1,2.13,2.13,0,0,1-1,.31,1.09,1.09,0,0,1-.89-.43,1.82,1.82,0,0,1-.34-1.16,9.15,9.15,0,0,1,.47-2.61,15.87,15.87,0,0,1,1.15-2.81l1.31-.49a.22.22,0,0,1,.1,0c.1,0,.18.07.24.22a1.39,1.39,0,0,1,.1.59,4.51,4.51,0,0,1-.49,2.05,9.12,9.12,0,0,1-1.52,2.12c0,.35-.05.6-.05.74a1.31,1.31,0,0,0,.17.71.5.5,0,0,0,.44.27,1.16,1.16,0,0,0,.6-.2,7.9,7.9,0,0,0,1-.84Zm-2-2a6,6,0,0,0,1.06-1.64,3.77,3.77,0,0,0,.41-1.56.69.69,0,0,0,0-.31q-.06-.12-.15-.12c-.13,0-.31.32-.56,1A18.13,18.13,0,0,0,153,166.72Z" />
  <path
    d="M157.15,169.77a3.81,3.81,0,0,1-.71.56,1.49,1.49,0,0,1-.68.17.86.86,0,0,1-.64-.25.89.89,0,0,1-.26-.65,1.8,1.8,0,0,1,.47-1.19,1.35,1.35,0,0,1,1-.55.65.65,0,0,1,.44.15.51.51,0,0,1,.17.39.17.17,0,0,1,0,.13.31.31,0,0,1-.12.08l-.35.17-.09,0s0,0,0-.06a.69.69,0,0,1,0-.16,1.36,1.36,0,0,0,0-.16.38.38,0,0,0,0-.22.19.19,0,0,0-.15-.08c-.15,0-.28.11-.41.33a1.47,1.47,0,0,0-.18.74.9.9,0,0,0,.17.57.55.55,0,0,0,.46.22.89.89,0,0,0,.47-.14,4,4,0,0,0,.49-.43Z" />
  <line x1="155.72"
    y1="31.42"
    x2="172.2"
    y2="36.01"
    style="fill:none;stroke:#000;stroke-miterlimit:10;stroke-width:0.75px" />
  <polygon points="170.69 37.28 177 37.34 171.57 34.13 170.69 37.28" />
  <path
    d="M52.23,31.12c5.49,1.93,11,3.89,16.47,5.77,8.55,2.92,17.13,5.78,25.7,8.67l1.15.58,11.56,3.47,1.15.57c3.85,1.26,7.7,2.53,11.56,3.74a27.75,27.75,0,0,0,2.88.6h.58c6.16-1.06,12.33-2.09,18.48-3.19,2.81-.51,6.92-1.52,9.87-2.14"
    style="fill:none;stroke:#0078c8;stroke-linecap:round;stroke-linejoin:round;stroke-width:1.51755713995979px" />
</svg>
