<svg xmlns="http://www.w3.org/2000/svg"
  viewBox="0 0 368.5 227.9"
  width="368.5"
  height="227.9"
  class="w-100 h-auto my-3">
  <title>直流电机中的铁芯</title>
  <path
    d="M307.64,79.94a1,1,0,0,1,.05.21.17.17,0,0,1-.05.12.27.27,0,0,1-.16,0h-.58a.37.37,0,0,1-.17,0,.16.16,0,0,1-.08-.05.26.26,0,0,1,0-.09l-.66-1.87h-3.19l-.63,1.85a.41.41,0,0,1-.05.09.13.13,0,0,1-.08.06l-.16,0h-.55a.27.27,0,0,1-.16-.06.16.16,0,0,1,0-.12.76.76,0,0,1,.05-.21l2.58-7.13a.21.21,0,0,1,.06-.1.23.23,0,0,1,.11-.07l.19,0h.61l.2,0a.35.35,0,0,1,.12.07.24.24,0,0,1,.06.11Zm-3.31-6.29h0L303,77.47h2.66Z" />
  <path
    d="M310.38,80.41a.93.93,0,0,1-.09.42.87.87,0,0,1-.25.32,1.18,1.18,0,0,1-.39.19,1.87,1.87,0,0,1-.49.07,1.66,1.66,0,0,1-.32,0l-.27-.07a.76.76,0,0,1-.2-.08.31.31,0,0,1-.12-.08.15.15,0,0,1-.06-.09.81.81,0,0,1,0-.17v-.11s0-.06,0-.08l0,0h0a.28.28,0,0,1,.12,0l.18.1a1.28,1.28,0,0,0,.26.1,1.11,1.11,0,0,0,.34,0,1.09,1.09,0,0,0,.26,0,.53.53,0,0,0,.2-.09.36.36,0,0,0,.14-.16.48.48,0,0,0,0-.22.38.38,0,0,0-.06-.22.93.93,0,0,0-.18-.16,1.92,1.92,0,0,0-.25-.12l-.29-.11-.28-.14a1.14,1.14,0,0,1-.25-.18.76.76,0,0,1-.18-.25,1,1,0,0,1-.07-.36,1,1,0,0,1,.07-.35.77.77,0,0,1,.22-.29.93.93,0,0,1,.35-.21,1.51,1.51,0,0,1,.5-.07,1,1,0,0,1,.24,0l.23,0,.17.07.11.06.05,0a.43.43,0,0,1,0,.05s0,0,0,.06a.28.28,0,0,1,0,.09.37.37,0,0,1,0,.11s0,0,0,.07l0,0h0a.16.16,0,0,1-.09,0l-.15-.08-.22-.08a.88.88,0,0,0-.29,0,1,1,0,0,0-.26,0,.52.52,0,0,0-.18.1.49.49,0,0,0-.11.14.57.57,0,0,0,0,.18.35.35,0,0,0,.07.23.57.57,0,0,0,.18.16l.25.12.29.12a1.85,1.85,0,0,1,.29.13,1.1,1.1,0,0,1,.25.17.72.72,0,0,1,.18.25A.75.75,0,0,1,310.38,80.41Z" />
  <path d="M158.35,125.93q17.19,6.93,34.37,13.86c5.18,2.07,10.4,4.05,15.59,6.07"
    style="fill:none;stroke:#000;stroke-linecap:round;stroke-linejoin:round;stroke-width:1.5px" />
  <path d="M57.84,70.3q20.94,7.5,41.88,15a9.78,9.78,0,0,0,1.73.31"
    style="fill:none;stroke:#0078c8;stroke-linecap:round;stroke-linejoin:round;stroke-width:1.51755713995979px" />
  <path d="M158.06,125.92c-5.44,1.43-24.89,6.44-28.16,7.4"
    style="fill:none;stroke:#000;stroke-linecap:round;stroke-linejoin:round;stroke-width:1.5px" />
  <path d="M83.12,33.91,67.37,29a3.16,3.16,0,0,0-.87,0"
    style="fill:none;stroke:#000;stroke-linecap:round;stroke-linejoin:round;stroke-width:0.75px" />
  <polygon points="82.53 32.02 87.88 35.38 81.57 35.14 82.53 32.02" />
  <line x1="279.94"
    y1="209.98"
    x2="279.81"
    y2="130.39"
    style="fill:none;stroke:#000;stroke-linecap:round;stroke-linejoin:round;stroke-width:1.5px" />
  <path d="M245.36,222.83s34.2-12.47,34.58-12.85"
    style="fill:none;stroke:#000;stroke-linecap:round;stroke-linejoin:round;stroke-width:1.5px" />
  <line x1="158.06"
    y1="125.92"
    x2="158.06"
    y2="51.13"
    style="fill:none;stroke:#000;stroke-linecap:round;stroke-linejoin:round;stroke-width:1.5px" />
  <path
    d="M158.38,60.64a.84.84,0,0,1,.69.35c.18.32-.18,1.19-.45,1.53a.81.81,0,0,1-.33.25,23.07,23.07,0,0,1-4.57,1c-6.54,1.28-13,2.42-19.61,3.85-4.23.92-7.79-.61-11.57-1.55-2.54-.63-5-1.52-7.51-2.29L113.58,63c-4.33-1.16-9.21-2.5-12.53-4.45"
    style="fill:none;stroke:#0078c8;stroke-linecap:round;stroke-linejoin:round;stroke-width:1.51755713995979px" />
  <path d="M158.38,71.14a.82.82,0,0,1,.69.34c.19.33,0,1.58-.53,1.7-8.41,1.84-18.06,3.67-26.48,5.38-.66.14-1.34.2-2,.29h-.57a13.77,13.77,0,0,1-1.45-.29l-13-4-1.16-.58c-4.26-1.67-9-2.26-12.55-4.71"
    style="fill:none;stroke:#0078c8;stroke-linecap:round;stroke-linejoin:round;stroke-width:1.51755713995979px" />
  <path
    d="M158.38,81.09a.84.84,0,0,1,.69.35c.17.3-.08,1-.23,1.34a.6.6,0,0,1-.36.32A40.2,40.2,0,0,1,154,84.31c-7.21,1.51-14.43,2.93-21.66,4.34a11.87,11.87,0,0,1-2.31,0h-.57a27.38,27.38,0,0,1-2.89-.59c-3.86-1.22-7.7-2.49-11.55-3.74l-.58-.16-13.15-4.6"
    style="fill:none;stroke:#0078c8;stroke-linecap:round;stroke-linejoin:round;stroke-width:1.51755713995979px" />
  <path d="M158.38,91.92a.82.82,0,0,1,.69.34,2.3,2.3,0,0,1-.17,1.36.85.85,0,0,1-.63.57c-5.23,1-11.81,2.43-17,3.43-3.75.72-7.51,1.35-11.27,2h0l-12-2.84s-12.9-4.38-16.58-7"
    style="fill:none;stroke:#0078c8;stroke-linecap:round;stroke-linejoin:round;stroke-width:1.51755713995979px" />
  <path
    d="M78.85,26.42c-1.15,1.22-2,1.83-2.59,1.83a1,1,0,0,1-.8-.49,2.11,2.11,0,0,1-.33-1.22,13.33,13.33,0,0,1,1.07-4.37l1.88-.39h.09l-.74,2.32a7.66,7.66,0,0,0-.46,2,.67.67,0,0,0,.11.39.31.31,0,0,0,.27.16,1,1,0,0,0,.58-.21,8.43,8.43,0,0,0,.92-.92Zm-.15-7.54c0,1.19-.43,1.78-1.31,1.78a1.62,1.62,0,0,1-1.09-.39A5.27,5.27,0,0,0,77,18.81a2,2,0,0,0,.94.36A1.33,1.33,0,0,0,78.7,18.88Z" />
  <path
    d="M63.8,63.11a.43.43,0,0,1,0,.17l-.09.12a.33.33,0,0,1-.13.07l-.14,0h-.29a.9.9,0,0,1-.25,0,.62.62,0,0,1-.2-.1,1,1,0,0,1-.18-.21,1.59,1.59,0,0,1-.2-.33l-2-3.81c-.11-.2-.22-.41-.32-.62l-.31-.63h0c0,.24,0,.5,0,.76v4.82a.1.1,0,0,1,0,.07.13.13,0,0,1-.07.05l-.14,0-.22,0-.21,0-.14,0a.18.18,0,0,1-.07-.05.19.19,0,0,1,0-.07V57.15a.35.35,0,0,1,.12-.3.4.4,0,0,1,.26-.08h.43a1,1,0,0,1,.26,0,.56.56,0,0,1,.19.09.61.61,0,0,1,.16.16,1.6,1.6,0,0,1,.16.27l1.58,2.94.28.53c.09.17.18.34.26.51l.25.49.24.48h0c0-.27,0-.56,0-.85V56.92a.14.14,0,0,1,0-.07l.08-.06.13,0h.43l.14,0a.22.22,0,0,1,.07.06.14.14,0,0,1,0,.07Z" />
  <path
    d="M69.6,59.48a.52.52,0,0,1-.06.29.19.19,0,0,1-.14.08H65.48a.16.16,0,0,1-.13-.08.52.52,0,0,1-.06-.29.63.63,0,0,1,0-.28.15.15,0,0,1,.14-.09H69.4a.18.18,0,0,1,.15.09A.63.63,0,0,1,69.6,59.48Zm0,2a.5.5,0,0,1-.06.29.19.19,0,0,1-.14.08H65.48a.16.16,0,0,1-.13-.08.5.5,0,0,1-.06-.29.67.67,0,0,1,0-.28.16.16,0,0,1,.14-.08H69.4a.19.19,0,0,1,.15.08A.67.67,0,0,1,69.6,61.49Z" />
  <path
    d="M75,63.09a.88.88,0,0,1,0,.17,1,1,0,0,1,0,.12.16.16,0,0,1-.07.07.11.11,0,0,1-.08,0H71.08l-.13,0-.09-.06a.67.67,0,0,1-.06-.12,1.09,1.09,0,0,1,0-.19V62.9a.5.5,0,0,1,0-.13.75.75,0,0,1,.07-.12.91.91,0,0,1,.1-.13l1.34-1.38a9.74,9.74,0,0,0,.75-.85,6.05,6.05,0,0,0,.43-.69,2.3,2.3,0,0,0,.2-.57,2.8,2.8,0,0,0,0-.48,1.2,1.2,0,0,0-.08-.42,1,1,0,0,0-.57-.59,1.26,1.26,0,0,0-.49-.09,1.83,1.83,0,0,0-.59.09c-.17.06-.32.13-.45.19l-.33.2a.43.43,0,0,1-.19.09A.09.09,0,0,1,71,58a.1.1,0,0,1,0-.06,1.3,1.3,0,0,1,0-.13,1,1,0,0,1,0-.18.57.57,0,0,1,0-.14s0-.07,0-.1a.3.3,0,0,1,0-.08l.08-.09.22-.14a1.92,1.92,0,0,1,.38-.19,3.09,3.09,0,0,1,.51-.15,2.72,2.72,0,0,1,.58-.06,2.41,2.41,0,0,1,.85.13,1.76,1.76,0,0,1,.61.38,1.54,1.54,0,0,1,.36.55,2,2,0,0,1,.12.68,3.47,3.47,0,0,1-.06.64,2.48,2.48,0,0,1-.24.69,4.85,4.85,0,0,1-.53.82,12.05,12.05,0,0,1-.92,1l-1.06,1.11h2.91l.09,0,.06.07a.34.34,0,0,1,0,.12A.78.78,0,0,1,75,63.09Z" />
  <path
    d="M80.7,60.1a7.76,7.76,0,0,1-.12,1.42,3.13,3.13,0,0,1-.41,1.09,1.94,1.94,0,0,1-.74.71,2.26,2.26,0,0,1-1.12.25,2.32,2.32,0,0,1-1.07-.22,1.73,1.73,0,0,1-.7-.67,3.13,3.13,0,0,1-.37-1.07,8.15,8.15,0,0,1-.11-1.47,7.57,7.57,0,0,1,.12-1.41,3.32,3.32,0,0,1,.41-1.1,1.91,1.91,0,0,1,.73-.71,2.29,2.29,0,0,1,1.12-.25,2.26,2.26,0,0,1,1.07.22,1.73,1.73,0,0,1,.7.67,3.14,3.14,0,0,1,.38,1.07A9.18,9.18,0,0,1,80.7,60.1Zm-.91.07c0-.34,0-.64,0-.91a4.29,4.29,0,0,0-.11-.7,1.94,1.94,0,0,0-.18-.53,1.38,1.38,0,0,0-.26-.36,1.1,1.1,0,0,0-.36-.21,1.53,1.53,0,0,0-.45-.06,1.13,1.13,0,0,0-.71.21,1.29,1.29,0,0,0-.44.57A3.2,3.2,0,0,0,77,59a8.45,8.45,0,0,0-.06,1,9.2,9.2,0,0,0,.08,1.28,2.86,2.86,0,0,0,.24.86,1.2,1.2,0,0,0,.43.48,1.29,1.29,0,0,0,.64.15,1.36,1.36,0,0,0,.51-.09,1,1,0,0,0,.38-.27,1.31,1.31,0,0,0,.26-.41,3,3,0,0,0,.17-.55,4,4,0,0,0,.08-.63C79.78,60.65,79.79,60.42,79.79,60.17Z" />
  <path
    d="M86.19,60.1a7.76,7.76,0,0,1-.12,1.42,3.13,3.13,0,0,1-.41,1.09,1.94,1.94,0,0,1-.74.71,2.26,2.26,0,0,1-1.12.25,2.32,2.32,0,0,1-1.07-.22,1.73,1.73,0,0,1-.7-.67,3.13,3.13,0,0,1-.37-1.07,8.15,8.15,0,0,1-.11-1.47,7.57,7.57,0,0,1,.12-1.41,3.11,3.11,0,0,1,.41-1.1,1.91,1.91,0,0,1,.73-.71,2.67,2.67,0,0,1,2.19,0,1.73,1.73,0,0,1,.7.67,3.14,3.14,0,0,1,.38,1.07A9.18,9.18,0,0,1,86.19,60.1Zm-.91.07c0-.34,0-.64,0-.91a5.74,5.74,0,0,0-.11-.7A1.94,1.94,0,0,0,85,58a1.22,1.22,0,0,0-.27-.36,1,1,0,0,0-.35-.21,1.53,1.53,0,0,0-.45-.06,1.18,1.18,0,0,0-.72.21,1.35,1.35,0,0,0-.43.57,2.86,2.86,0,0,0-.21.85,8.45,8.45,0,0,0-.06,1,9.2,9.2,0,0,0,.08,1.28,2.86,2.86,0,0,0,.24.86,1.2,1.2,0,0,0,.43.48,1.29,1.29,0,0,0,.64.15,1.36,1.36,0,0,0,.51-.09,1,1,0,0,0,.38-.27,1.51,1.51,0,0,0,.26-.41,4,4,0,0,0,.17-.55,4,4,0,0,0,.08-.63C85.27,60.65,85.28,60.42,85.28,60.17Z" />
  <path
    d="M94.84,55.62a.41.41,0,0,1-.12.31.46.46,0,0,1-.3.13H88.53v7.56h6A.41.41,0,0,1,95,64a.44.44,0,0,1-.11.29.41.41,0,0,1-.3.12H88.41a.72.72,0,0,1-.7-.7V55.92a.67.67,0,0,1,.21-.5.68.68,0,0,1,.49-.2h6a.4.4,0,0,1,.29.12A.38.38,0,0,1,94.84,55.62Zm-1.67,5.91c.09,0,.13-.05.13-.14V58.45H92.14v4.42a.41.41,0,0,1-.12.3.45.45,0,0,1-.31.12.41.41,0,0,1-.3-.12.38.38,0,0,1-.13-.3V58.45H90.14v3.47a.41.41,0,0,1-.12.3.38.38,0,0,1-.29.12.4.4,0,0,1-.29-.12.41.41,0,0,1-.12-.3V58.23a.59.59,0,0,1,.17-.42.58.58,0,0,1,.42-.18h1.37v-.81a.39.39,0,0,1,.13-.31.38.38,0,0,1,.3-.13.43.43,0,0,1,.43.44v.81h1.38a.54.54,0,0,1,.42.18.56.56,0,0,1,.18.42v3.16a.93.93,0,0,1-.27.68.88.88,0,0,1-.67.28.41.41,0,0,1-.41-.41.38.38,0,0,1,.12-.29A.36.36,0,0,1,93.17,61.53Z" />
  <line x1="208.75"
    y1="112.18"
    x2="214.09"
    y2="110.15"
    style="fill:none;stroke:#000;stroke-linecap:round;stroke-linejoin:round;stroke-width:1.5px" />
  <line x1="208.75"
    y1="138.89"
    x2="211.37"
    y2="137.89"
    style="fill:none;stroke:#000;stroke-linecap:round;stroke-linejoin:round;stroke-width:1.5px" />
  <line x1="245.71"
    y1="143.38"
    x2="279.79"
    y2="130.39"
    style="fill:#a6a6a6;stroke:#000;stroke-linecap:round;stroke-linejoin:round;stroke-width:1.5px" />
  <line x1="245.71"
    y1="118.32"
    x2="279.79"
    y2="105.33"
    style="fill:#a6a6a6;stroke:#000;stroke-linecap:round;stroke-linejoin:round;stroke-width:1.5px" />
  <line x1="221.73"
    y1="105.68"
    x2="229.2"
    y2="102.84"
    style="fill:#a6a6a6;stroke:#000;stroke-linecap:round;stroke-linejoin:round;stroke-width:1.5px" />
  <line x1="232.53"
    y1="150.4"
    x2="244"
    y2="146.02"
    style="fill:#a6a6a6;stroke:#000;stroke-linecap:round;stroke-linejoin:round;stroke-width:1.5px" />
  <g style="opacity:0.8">
    <polygon points="279.65 84.36 245.57 74.19 208.75 83.78 245.57 97.35 279.65 84.36"
      style="fill:#a6a6a6" />
    <polyline points="278.72 84.71 279.65 84.36 278.69 84.07"
      style="fill:none;stroke:#000;stroke-linecap:round;stroke-linejoin:round;stroke-width:0.75px" />
    <polyline points="274.77 82.9 245.57 74.19 211.7 83.01"
      style="fill:none;stroke:#000;stroke-linecap:round;stroke-linejoin:round;stroke-width:0.75px;stroke-dasharray:2.046123743057251,4.092247486114502" />
    <polyline points="209.72 83.53 208.75 83.78 209.69 84.12"
      style="fill:none;stroke:#000;stroke-linecap:round;stroke-linejoin:round;stroke-width:0.75px" />
    <polyline points="213.33 85.47 245.57 97.35 276.91 85.4"
      style="fill:none;stroke:#000;stroke-linecap:round;stroke-linejoin:round;stroke-width:0.75px;stroke-dasharray:1.940059781074524,3.880119562149048" />
  </g>
  <path
    d="M161.7,171.71a7,7,0,0,1-1.24,1,2,2,0,0,1-1,.31,1.08,1.08,0,0,1-.9-.43,1.8,1.8,0,0,1-.34-1.16,9.26,9.26,0,0,1,.47-2.61,17,17,0,0,1,1.15-2.81l1.32-.49.09,0c.1,0,.18.07.25.22a1.63,1.63,0,0,1,.09.59,4.51,4.51,0,0,1-.49,2,9.12,9.12,0,0,1-1.52,2.12c0,.36,0,.61,0,.74a1.37,1.37,0,0,0,.16.72.51.51,0,0,0,.44.26,1.16,1.16,0,0,0,.6-.2,8.6,8.6,0,0,0,1-.84Zm-2-2a6.62,6.62,0,0,0,1.07-1.64,4,4,0,0,0,.41-1.57.71.71,0,0,0-.06-.31c0-.07-.09-.11-.14-.11s-.32.32-.56.95A16.66,16.66,0,0,0,159.71,169.69Z" />
  <path
    d="M162.58,171a3.15,3.15,0,0,1,.42-.09l.25,0a0,0,0,0,1,0,0,.15.15,0,0,1,0,.09.86.86,0,0,0,0,.27.89.89,0,0,0,.18.43.93.93,0,0,1,.18.5,1.21,1.21,0,0,1-.44.89,1.31,1.31,0,0,1-.92.43.62.62,0,0,1-.37-.11.3.3,0,0,1-.17-.23s.05-.14.17-.27.19-.21.24-.21.12.09.17.25.14.25.26.25a.51.51,0,0,0,.35-.17.58.58,0,0,0,.16-.37,1,1,0,0,0-.21-.51,2,2,0,0,1-.27-.53,7.83,7.83,0,0,1-.89,1.16h-.07v-.27A4.65,4.65,0,0,0,162.58,171Z" />
  <path
    d="M306.2,144.06a8.08,8.08,0,0,1-1.24,1,2.1,2.1,0,0,1-1,.31,1.1,1.1,0,0,1-.9-.43,1.82,1.82,0,0,1-.34-1.16,9.15,9.15,0,0,1,.47-2.61,16.66,16.66,0,0,1,1.15-2.81l1.32-.49.09,0c.1,0,.18.07.25.22a1.59,1.59,0,0,1,.09.59,4.51,4.51,0,0,1-.49,2,9.12,9.12,0,0,1-1.52,2.12c0,.36,0,.6,0,.74a1.31,1.31,0,0,0,.16.71.5.5,0,0,0,.44.27,1.16,1.16,0,0,0,.6-.2,8.6,8.6,0,0,0,1-.84Zm-2-2a6.27,6.27,0,0,0,1.07-1.64,3.93,3.93,0,0,0,.41-1.56.68.68,0,0,0-.06-.31c0-.08-.09-.12-.14-.12s-.32.32-.56,1A16.79,16.79,0,0,0,304.21,142Z" />
  <path
    d="M309.38,145.08a7,7,0,0,1-.7.59.67.67,0,0,1-.4.14q-.46,0-.45-.84a3.13,3.13,0,0,1-.55.64.88.88,0,0,1-.53.2.53.53,0,0,1-.45-.25,1,1,0,0,1-.19-.61,1.59,1.59,0,0,1,.25-.86,2.05,2.05,0,0,1,.64-.67,1.3,1.3,0,0,1,.69-.25.53.53,0,0,1,.53.35l.62-.35H309l-.27.89a3.78,3.78,0,0,0-.21.92c0,.17.06.26.19.26a.45.45,0,0,0,.26-.13l.4-.38Zm-2.22.16c.21,0,.39-.17.57-.51a2.09,2.09,0,0,0,.27-.95.36.36,0,0,0-.08-.27.24.24,0,0,0-.2-.09q-.3,0-.57.51a2.06,2.06,0,0,0-.27.95.45.45,0,0,0,.08.26A.23.23,0,0,0,307.16,145.24Z" />
  <path
    d="M234.05,130a7.09,7.09,0,0,1-1.24,1,2,2,0,0,1-1,.31,1.09,1.09,0,0,1-.89-.43,1.8,1.8,0,0,1-.34-1.16,8.86,8.86,0,0,1,.47-2.61,16.17,16.17,0,0,1,1.14-2.81l1.32-.49.09,0c.1,0,.19.07.25.22a1.57,1.57,0,0,1,.1.59,4.65,4.65,0,0,1-.49,2,9.19,9.19,0,0,1-1.53,2.12c0,.36,0,.6,0,.74a1.31,1.31,0,0,0,.17.71.5.5,0,0,0,.44.27,1.18,1.18,0,0,0,.6-.2,7.9,7.9,0,0,0,1-.84Zm-2-2a6.24,6.24,0,0,0,1.07-1.65,3.77,3.77,0,0,0,.41-1.56.87.87,0,0,0,0-.31.16.16,0,0,0-.15-.11c-.13,0-.31.31-.56,1A19.08,19.08,0,0,0,232.06,128Z" />
  <path
    d="M236.26,131c-.5.49-.89.74-1.17.74a.4.4,0,0,1-.31-.15.65.65,0,0,1-.12-.39,2.36,2.36,0,0,1,.45-1.14,1.88,1.88,0,0,1-.49.16,3.48,3.48,0,0,1-.61.78h-.07v-.28a3.54,3.54,0,0,0,.42-.52.38.38,0,0,1-.26-.34,1,1,0,0,1,.16-.5.48.48,0,0,1,.44-.26c.16,0,.23.08.23.24a1.63,1.63,0,0,1-.13.54c.33,0,.62-.29.87-.77H236l-.28.78c-.12.32-.19.54-.23.66a1.32,1.32,0,0,0-.05.31.33.33,0,0,0,.06.21.19.19,0,0,0,.16.07.35.35,0,0,0,.21-.07l.44-.41Z" />
  <path
    d="M59,34.09C64.48,36,70,38,75.46,39.85c8.56,2.93,17.13,5.79,25.7,8.68l1.16.57,11.55,3.47,1.16.58c3.85,1.25,7.69,2.52,11.55,3.74a27.38,27.38,0,0,0,2.89.59H130c6.17-1.06,12.33-2.09,18.49-3.19,2.8-.51,6.92-1.52,9.86-2.14"
    style="fill:none;stroke:#0078c8;stroke-linecap:round;stroke-linejoin:round;stroke-width:1.51755713995979px" />
  <line x1="138.71"
    y1="5.07"
    x2="101.92"
    y2="8.19"
    style="fill:none;stroke:#000;stroke-linecap:round;stroke-linejoin:round;stroke-width:1.5px" />
  <path d="M280.09,105.33,280,37.86C270.6,35.66,154.1,8.22,138.71,5.07"
    style="fill:none;stroke:#000;stroke-linecap:round;stroke-linejoin:round;stroke-width:1.5px" />
  <path d="M272.64,108a27.93,27.93,0,0,1,4.56,9.48,27,27,0,0,1,.14,13.84"
    style="fill:none;stroke:#000;stroke-linecap:round;stroke-linejoin:round;stroke-width:1.5px" />
  <path
    d="M208.75,138.89V170L129.9,133.32V42.38c1.34.24,77.84,23.27,78.85,23.58v46.25h0a18.42,18.42,0,0,1,11.36-9.46c9.88-2.64,20.51,4.16,25.39,15.57l.08-69.16L101.85,8.23h-.26L102,145.74l143.33,77.09.1-79.34a18.57,18.57,0,0,1-11.7,10.13c-9.63,2.58-20-3.83-25-14.73"
    style="fill:none;stroke:#000;stroke-linecap:round;stroke-linejoin:round;stroke-width:1.5px" />
  <line x1="228.71"
    y1="160.07"
    x2="223.39"
    y2="158.13"
    style="fill:none;stroke:#000;stroke-linecap:round;stroke-linejoin:round;stroke-width:0.35000000000000003px" />
  <line x1="228.71"
    y1="98.32"
    x2="223.39"
    y2="96.38"
    style="fill:none;stroke:#000;stroke-linecap:round;stroke-linejoin:round;stroke-width:0.35000000000000003px" />
  <path
    d="M226,93.86c0-3.77,0-10,0-20.21-.08-8.41-3.55-15.32-10.72-19.82-2.76-1.72-6.26-2.33-9.47-3.26-9.8-2.85-19.63-5.61-29.46-8.39a2.16,2.16,0,0,0-.57,0s-44-12.42-51.12-14.73c-6.91-2.23-11,3.79-10.47,9,.44,4.4.37,33.89.34,44.19,0,1.06.15,35.24,0,43.9-.18,9.61,3.63,16.25,12.7,20.32,10.79,4.84,81.12,43.1,87.61,45.7,7.92,3.17,10.72-.92,11.12-6.82.29-4.18.21-10.4.15-21.46"
    style="fill:none;stroke:#000;stroke-linecap:round;stroke-linejoin:round;stroke-width:0.35000000000000003px" />
  <polygon points="226.94 93.16 225.93 96.96 224.91 93.16 226.94 93.16" />
  <polygon points="227 162.91 225.97 159.12 224.97 162.92 227 162.91" />
  <path d="M257.29,81.5a37.53,37.53,0,0,1,42.59-4.84"
    style="fill:none;stroke:#fff;stroke-linecap:round;stroke-linejoin:round;stroke-width:1.5px" />
  <polygon points="258.59 81.79 254.88 83.78 257.1 80.2 258.59 81.79"
    style="fill:#fff" />
  <path d="M257.12,81.64a37.55,37.55,0,0,1,42.76-5"
    style="fill:none;stroke:#000;stroke-linecap:round;stroke-linejoin:round;stroke-width:0.35000000000000003px" />
  <polygon points="258.34 81.92 254.88 83.78 256.94 80.44 258.34 81.92" />
  <path d="M246.4,140.25c11.24-11.16,25.93-15.59,37.82-11.2,6.22,2.3,13,6.57,15.66,10.07"
    style="fill:none;stroke:#fff;stroke-linecap:round;stroke-linejoin:round;stroke-width:1.5px" />
  <polygon points="247.71 140.48 244.11 142.66 246.14 138.97 247.71 140.48"
    style="fill:#fff" />
  <path d="M246.24,140.4c11.26-11.27,26-15.76,38-11.35,6.22,2.3,13,6.57,15.66,10.07"
    style="fill:none;stroke:#000;stroke-linecap:round;stroke-linejoin:round;stroke-width:0.35000000000000003px" />
  <polygon points="247.46 140.61 244.11 142.66 245.99 139.21 247.46 140.61" />
  <ellipse cx="226.94"
    cy="128.19"
    rx="18.06"
    ry="22.84"
    transform="translate(-25.44 63.11) rotate(-15)"
    style="fill:none;stroke:#000;stroke-linecap:round;stroke-linejoin:round;stroke-width:1.5px" />
  <line x1="229.61"
    y1="112.13"
    x2="224.28"
    y2="110.2"
    style="fill:none;stroke:#000;stroke-linecap:round;stroke-linejoin:round;stroke-width:0.35000000000000003px" />
  <line x1="229.61"
    y1="144.89"
    x2="224.28"
    y2="142.95"
    style="fill:none;stroke:#000;stroke-linecap:round;stroke-linejoin:round;stroke-width:0.35000000000000003px" />
  <line x1="226.94"
    y1="114.27"
    x2="226.94"
    y2="140.82"
    style="fill:none;stroke:#000;stroke-linecap:round;stroke-linejoin:round;stroke-width:0.35000000000000003px" />
  <polygon points="225.93 114.96 226.94 111.17 227.96 114.96 225.93 114.96" />
  <polygon points="225.93 140.13 226.94 143.92 227.96 140.13 225.93 140.13" />
  <circle cx="226.94"
    cy="128.19"
    r="0.71" />
  <line x1="245.6"
    y1="49.16"
    x2="279.98"
    y2="37.86"
    style="fill:none;stroke:#000;stroke-linecap:round;stroke-linejoin:round;stroke-width:1.5px" />
  <rect x="166.02"
    y="25.96"
    width="11.69"
    height="9.94"
    style="fill:#fff" />
  <path
    d="M170.33,32.74a2.36,2.36,0,0,1-.84-.42,1.73,1.73,0,0,1-.49-.66,2.23,2.23,0,0,1-.16-.88,2.2,2.2,0,0,1,.16-.86,1.82,1.82,0,0,1,.5-.67,2.41,2.41,0,0,1,.84-.46,4.16,4.16,0,0,1,1.2-.21V26.77s0,0,0-.05l.06,0,.1,0H172l.1,0,.05,0s0,0,0,.05v1.81a4.28,4.28,0,0,1,1.21.18,2.22,2.22,0,0,1,.84.43,1.68,1.68,0,0,1,.49.66,2.42,2.42,0,0,1,.16.88,2.15,2.15,0,0,1-.17.85,1.79,1.79,0,0,1-.49.67,2.57,2.57,0,0,1-.85.47,4.8,4.8,0,0,1-1.19.21v1.43s0,0,0,0l-.05,0-.1,0h-.32l-.1,0-.06,0s0,0,0,0V32.93A4.58,4.58,0,0,1,170.33,32.74ZM171.54,29a3.66,3.66,0,0,0-.89.15,1.71,1.71,0,0,0-.63.33,1.29,1.29,0,0,0-.38.51,1.92,1.92,0,0,0-.12.71,2.41,2.41,0,0,0,.09.67,1.36,1.36,0,0,0,.32.54,1.69,1.69,0,0,0,.62.36,3.58,3.58,0,0,0,1,.18Zm.66,3.45a5.14,5.14,0,0,0,.89-.15,1.88,1.88,0,0,0,.63-.33,1.24,1.24,0,0,0,.37-.51,1.73,1.73,0,0,0,.13-.71,2.31,2.31,0,0,0-.09-.67,1.17,1.17,0,0,0-.33-.54,1.54,1.54,0,0,0-.61-.37,3.27,3.27,0,0,0-1-.17Z"
    style="stroke:#000;stroke-miterlimit:10;stroke-width:0.12725462192751436px" />
  <line x1="162.48"
    y1="34.38"
    x2="178.96"
    y2="38.97"
    style="fill:none;stroke:#000;stroke-miterlimit:10;stroke-width:0.75px" />
  <polygon points="177.45 40.24 183.77 40.31 178.33 37.1 177.45 40.24" />
</svg>
