<svg xmlns="http://www.w3.org/2000/svg"
  viewBox="0 0 368.5 147.4"
  width="368.5"
  height="147.4"
  class="w-100 h-auto my-3">
  <title>磁路图：闭合铁芯</title>
  <path
    d="M92.91,69.54l.64,1.54-.72.32a2.36,2.36,0,0,0-.71-.86,2,2,0,0,0-1-.2l-.39,0a2.91,2.91,0,0,0-.32,0l-.27,0-.66,2.89h1.61a1,1,0,0,0,.66-.2,1.39,1.39,0,0,0,.39-.69l.75.16a10.92,10.92,0,0,0-.33,1.19c-.1.42-.17.86-.24,1.32L91.56,75s0-.11,0-.18,0-.21,0-.25a.4.4,0,0,0-.09-.3c-.06-.06-.21-.08-.46-.08H89.27l-.73,3.26.55.08.56.1-.08.64c-.43,0-.83-.08-1.21-.1l-1.06,0-.87,0c-.29,0-.61,0-1,.08l.14-.66.48-.07.31-.07c.26-1,.52-2,.79-3.18s.54-2.42.84-3.86l-.46-.09-.46-.12.16-.62.25,0c.65,0,1.1.08,1.36.08.5,0,1.17,0,2,0l1.75,0Z" />
  <path
    d="M95,77.21l-.22,1,.1-.1c1-.89,1.53-1.34,1.76-1.34a.25.25,0,0,1,.21.11.52.52,0,0,1,.08.29,4.94,4.94,0,0,1-.18.79c0,.11-.06.19-.07.25,1-1,1.65-1.44,1.91-1.44a.31.31,0,0,1,.26.12.51.51,0,0,1,.09.32,1.71,1.71,0,0,1-.07.38c0,.18-.14.46-.26.82l0,0a6.36,6.36,0,0,0-.26.92.11.11,0,0,0,0,.08.1.1,0,0,0,.08,0,.94.94,0,0,0,.28-.14l.12-.07.1.18A6.22,6.22,0,0,1,98,80a1.87,1.87,0,0,1-.67.19.31.31,0,0,1-.22-.08.29.29,0,0,1-.07-.22.28.28,0,0,1,0-.09l0-.12.43-1.57a.45.45,0,0,0,0-.13.11.11,0,0,0,0,0,.14.14,0,0,0,0-.07s0,0-.06,0a.64.64,0,0,0-.28.17l-.65.57-.34,1.55H95.08l.49-2a.74.74,0,0,0,0-.12.18.18,0,0,0,0-.06.08.08,0,0,0,0-.07.05.05,0,0,0,0,0s-.13.07-.28.19l-.59.53-.34,1.55H93.17l.21-.76c.1-.38.18-.71.24-1a3.65,3.65,0,0,0,.09-.53.16.16,0,0,0,0-.09.09.09,0,0,0-.07,0h0l-.07,0-.28.16-.12-.19L94.26,77a1.25,1.25,0,0,1,.27-.15.74.74,0,0,1,.23,0,.24.24,0,0,1,.17.07A.24.24,0,0,1,95,77v.07Z" />
  <path d="M100.68,72.59h7v1.35h-7Zm0,2.62h7v1.35h-7Z" />
  <path
    d="M111.92,71.56l-1.2,5.79.52.12.47.09-.1.65-.79-.07-.66,0-.66,0-.77.07.12-.65.51-.12.46-.09,1.58-6.68-.19-.3-.39-.08-.42-.08.18-.67c.32,0,.64.08,1,.1s.67,0,1.07,0,.73,0,1,0,.64-.06,1-.1l0,.67a3.26,3.26,0,0,1-.47.09l-.53.07,3.09,5.38,1.13-5.38-.46-.06-.63-.1.11-.67h0a12.83,12.83,0,0,0,1.41.13c.19,0,.59,0,1.19-.11l.19,0-.1.67a2.47,2.47,0,0,1-.41.09l-.5.07-1.85,7.93h-.93Z" />
  <path
    d="M122.29,73.57l-.44,1.63c-.17.61-.28,1-.33,1.25a3.17,3.17,0,0,0-.08.41.25.25,0,0,0,0,.15.18.18,0,0,0,.14.06.64.64,0,0,0,.19-.07l.29-.16.21-.14.17.32a8.66,8.66,0,0,1-1.51.9,2.94,2.94,0,0,1-1.12.33.55.55,0,0,1-.39-.12.45.45,0,0,1-.13-.36,3,3,0,0,1,.12-.62V77.1l.65-2.41c0-.09,0-.17,0-.25a1.83,1.83,0,0,0,0-.21.3.3,0,0,0,0-.16A.18.18,0,0,0,120,74l-.09,0-.11.06-.48.28-.21-.33,1.78-1.16a4,4,0,0,1,.64-.37.9.9,0,0,1,.4-.11.48.48,0,0,1,.35.12.46.46,0,0,1,.12.35,1.69,1.69,0,0,1,0,.3A3.56,3.56,0,0,1,122.29,73.57Zm.28-4.38a.78.78,0,0,1,.58.21.74.74,0,0,1,.22.57,1.27,1.27,0,0,1-.4.93,1.32,1.32,0,0,1-1,.41.82.82,0,0,1-.61-.22.75.75,0,0,1-.23-.57,1.27,1.27,0,0,1,.4-.94A1.38,1.38,0,0,1,122.57,69.19Z" />
  <polyline points="329.92 95.88 329.92 138.4 56.09 138.4 56.09 95.88"
    style="fill:none;stroke:#000;stroke-miterlimit:10;stroke-width:1.5px" />
  <polyline points="56.09 53.36 56.09 10.84 112.41 10.84 329.92 10.84 329.92 53.36"
    style="fill:none;stroke:#000;stroke-miterlimit:10;stroke-width:1.5px" />
  <rect x="322.84"
    y="53.36"
    width="14.17"
    height="42.52"
    style="fill:none;stroke:#000;stroke-miterlimit:10;stroke-width:1.50080527142421px" />
  <path
    d="M190.68,38.58a3.29,3.29,0,0,1-2.33-.77,2.11,2.11,0,0,1-.53-2,3.29,3.29,0,0,1,1.25-2,5,5,0,0,1,2.68-.94l.44-2.41h1l-.44,2.41a3.43,3.43,0,0,1,2.34.82,2.09,2.09,0,0,1,.51,2,3.27,3.27,0,0,1-1.29,2.08,4.73,4.73,0,0,1-2.63.89L191.26,41h-1Zm.09-.47.89-4.83A2.82,2.82,0,0,0,189,35.75a2,2,0,0,0,.3,1.61A2,2,0,0,0,190.77,38.11Zm1,0a3,3,0,0,0,1.76-.74,2.89,2.89,0,0,0,.88-1.66,2.15,2.15,0,0,0-.26-1.68,2,2,0,0,0-1.49-.75Z" />
  <line x1="174.99"
    y1="21.07"
    x2="205.71"
    y2="21.07"
    style="fill:none;stroke:#000;stroke-miterlimit:10" />
  <polygon points="204.52 22.82 211.03 21.07 204.52 19.33 204.52 22.82" />
  <path
    d="M307.8,74l1.38,2.73a1.94,1.94,0,0,0,.48.66,1,1,0,0,0,.56.28v.49c-.2,0-.38.06-.56.07l-.55,0a2.24,2.24,0,0,1-1.29-.31,3.55,3.55,0,0,1-1-1.39l-1.09-2.34h-.28l-.7,3.19.48.08.49.1-.1.63-1.2-.1-1,0-.83,0-1,.09.15-.66.42-.06.41-.08c.26-1,.52-2,.79-3.18s.55-2.43.85-3.87l-.44-.08-.52-.12.13-.62.89.06.71,0c.3,0,.69,0,1.18,0s.84,0,1,0a3.64,3.64,0,0,1,2.07.5,1.73,1.73,0,0,1,.71,1.49,2.2,2.2,0,0,1-.61,1.52A3.37,3.37,0,0,1,307.8,74Zm-2.16-.58h.24a2.12,2.12,0,0,0,1.48-.5,1.74,1.74,0,0,0,.55-1.35,1.35,1.35,0,0,0-.29-1,1.14,1.14,0,0,0-.88-.3h-.14l-.23,0Z" />
  <path
    d="M312.67,77.18l-.23,1,.11-.1c.94-.89,1.53-1.33,1.76-1.33a.25.25,0,0,1,.21.11.49.49,0,0,1,.08.28,4.2,4.2,0,0,1-.19.8c0,.1-.05.18-.06.24,1-1,1.65-1.43,1.91-1.43a.31.31,0,0,1,.26.12.48.48,0,0,1,.09.31,1.62,1.62,0,0,1-.07.38c-.05.19-.14.46-.26.82l0,.06a5.17,5.17,0,0,0-.26.91.12.12,0,0,0,0,.09s0,0,.08,0a.94.94,0,0,0,.28-.14l.12-.07.1.19a5,5,0,0,1-.89.52,1.64,1.64,0,0,1-.66.19.29.29,0,0,1-.22-.07.31.31,0,0,1-.07-.22.38.38,0,0,1,0-.1.35.35,0,0,1,0-.12l.43-1.57a.49.49,0,0,0,0-.12s0,0,0-.06a.09.09,0,0,0,0-.07l-.05,0c-.05,0-.14.06-.28.18a8.61,8.61,0,0,0-.65.57l-.34,1.55h-1.15l.5-2a.74.74,0,0,0,0-.12.15.15,0,0,0,0-.06.14.14,0,0,0,0-.07l-.06,0A.83.83,0,0,0,313,78c-.15.12-.35.3-.6.53L312,80.12h-1.14l.21-.77q.15-.57.24-1a3.89,3.89,0,0,0,.09-.53.12.12,0,0,0,0-.09.08.08,0,0,0-.07,0l-.05,0a.15.15,0,0,0-.07,0l-.28.16-.12-.18L312,77a1.76,1.76,0,0,1,.27-.14.5.5,0,0,1,.23,0,.24.24,0,0,1,.17.06.25.25,0,0,1,.06.17v.08Z" />
  <path d="M56.09,53.36A21.26,21.26,0,1,1,34.83,74.62,21.2,21.2,0,0,1,56.09,53.36"
    style="fill:none;stroke:#000;stroke-miterlimit:10;stroke-width:1.5px" />
  <path d="M55.39,59.66h1.4v2.9h2.82v1.35H56.79v2.91h-1.4V63.91H52.57V62.56h2.82Z" />
  <polyline points="59.6 89.57 52.58 89.57 52.58 88.22 59.6 88.22" />
</svg>
