<svg xmlns="http://www.w3.org/2000/svg"
  viewBox="0 0 368.5 226.77"
  width="368.5"
  height="226.77"
  class="w-100 h-auto my-3">
  <title>磁路图：直流电机中的铁芯</title>
  <rect x="316.86"
    y="42.78"
    width="7.56"
    height="22.68"
    style="fill:none;stroke:#000;stroke-miterlimit:10;stroke-width:1.5px" />
  <rect x="316.86"
    y="82.29"
    width="7.56"
    height="22.68"
    style="fill:none;stroke:#000;stroke-miterlimit:10;stroke-width:1.5px" />
  <rect x="316.86"
    y="121.8"
    width="7.56"
    height="22.68"
    style="fill:none;stroke:#000;stroke-miterlimit:10;stroke-width:1.5px" />
  <rect x="316.86"
    y="161.31"
    width="7.56"
    height="22.68"
    style="fill:none;stroke:#000;stroke-miterlimit:10;stroke-width:1.5px" />
  <path
    d="M181.4,47.85a3.27,3.27,0,0,1-2.33-.77,2.11,2.11,0,0,1-.53-2A3.32,3.32,0,0,1,179.78,43a5.07,5.07,0,0,1,2.69-.94l.44-2.41h1l-.44,2.41a3.43,3.43,0,0,1,2.34.82,2.09,2.09,0,0,1,.51,2,3.25,3.25,0,0,1-1.3,2.08,4.7,4.7,0,0,1-2.62.89L182,50.31h-1Zm.09-.47.89-4.83A2.82,2.82,0,0,0,179.73,45a2,2,0,0,0,.3,1.61A2,2,0,0,0,181.49,47.38Zm1,0a2.94,2.94,0,0,0,1.75-.74,2.85,2.85,0,0,0,.89-1.66,2.15,2.15,0,0,0-.26-1.68,2,2,0,0,0-1.49-.75Z" />
  <line x1="165.71"
    y1="30.34"
    x2="196.43"
    y2="30.34"
    style="fill:none;stroke:#000;stroke-miterlimit:10" />
  <polygon points="195.24 32.09 201.75 30.34 195.24 28.6 195.24 32.09" />
  <path
    d="M295.05,52.47l1.38,2.74a1.94,1.94,0,0,0,.48.66,1.1,1.1,0,0,0,.56.28v.49l-.56.07a5.15,5.15,0,0,1-.55,0,2.32,2.32,0,0,1-1.29-.3,3.53,3.53,0,0,1-1-1.4L293,52.7h-.28l-.7,3.18.48.09.49.1-.1.63c-.44,0-.84-.08-1.2-.1l-1,0-.83,0-1,.09.14-.66.43-.07.41-.08c.26-1,.52-2,.79-3.17s.55-2.43.85-3.87l-.44-.08-.52-.12.13-.62.89.06.7,0c.31,0,.7,0,1.19,0s.84,0,1,0a3.56,3.56,0,0,1,2.07.5,1.72,1.72,0,0,1,.71,1.49,2.2,2.2,0,0,1-.61,1.51A3.3,3.3,0,0,1,295.05,52.47Zm-2.16-.57h.24a2.08,2.08,0,0,0,1.48-.51,1.71,1.71,0,0,0,.55-1.35,1.32,1.32,0,0,0-.29-.94,1.16,1.16,0,0,0-.88-.3h-.14l-.23,0Z" />
  <path
    d="M299.92,55.69l-.23,1,.11-.1c.94-.89,1.53-1.33,1.76-1.33a.23.23,0,0,1,.21.11.49.49,0,0,1,.08.28,4.39,4.39,0,0,1-.19.8c0,.1-.05.18-.06.24,1-1,1.65-1.43,1.91-1.43a.33.33,0,0,1,.26.11.53.53,0,0,1,.09.32,1.62,1.62,0,0,1-.07.38c-.05.18-.14.46-.26.82l0,.06a5.17,5.17,0,0,0-.26.91.2.2,0,0,0,0,.09.12.12,0,0,0,.09,0,1.07,1.07,0,0,0,.28-.14l.12-.07.1.19a5.66,5.66,0,0,1-.89.52,1.69,1.69,0,0,1-.66.19.29.29,0,0,1-.22-.08.28.28,0,0,1-.07-.21.38.38,0,0,1,0-.1.35.35,0,0,1,0-.12l.43-1.57a.49.49,0,0,0,0-.12v-.06a.08.08,0,0,0,0-.07l-.05,0c-.05,0-.14.06-.28.17s-.36.31-.65.58l-.34,1.54H300l.5-2a.74.74,0,0,0,0-.12.18.18,0,0,0,0-.06.14.14,0,0,0,0-.07s0,0-.06,0a.83.83,0,0,0-.27.19c-.15.12-.35.3-.6.53l-.34,1.54h-1.14l.21-.76q.15-.57.24-1a4.16,4.16,0,0,0,.09-.53.12.12,0,0,0,0-.09.08.08,0,0,0-.07,0l-.06,0-.06,0-.28.16-.12-.19,1.17-.77.27-.15a.66.66,0,0,1,.23,0,.24.24,0,0,1,.17.06.25.25,0,0,1,.06.17.2.2,0,0,1,0,.07A.5.5,0,0,1,299.92,55.69Z" />
  <path
    d="M307.18,55.43l-.23.76h-.12a.89.89,0,0,0-.36-.36,1,1,0,0,0-.52-.14.7.7,0,0,0-.4.11.33.33,0,0,0-.16.26c0,.15.2.31.6.47h0a2.23,2.23,0,0,1,.74.42.68.68,0,0,1,.16.48,1.11,1.11,0,0,1-.49.92,2,2,0,0,1-1.26.38,2.24,2.24,0,0,1-.52-.06,2.36,2.36,0,0,1-.47-.16l.06-.94h.1a1.82,1.82,0,0,0,.5.53,1.07,1.07,0,0,0,.59.18.56.56,0,0,0,.37-.11.33.33,0,0,0,.14-.29c0-.13-.17-.26-.52-.4h0a2.2,2.2,0,0,1-.75-.41.66.66,0,0,1-.19-.49,1.12,1.12,0,0,1,.49-.92,2,2,0,0,1,1.24-.38,3,3,0,0,1,.52,0A2.68,2.68,0,0,1,307.18,55.43Z" />
  <path
    d="M295.05,131.49l1.38,2.74a2.17,2.17,0,0,0,.48.66,1.1,1.1,0,0,0,.56.28v.49l-.56.07-.55,0a2.32,2.32,0,0,1-1.29-.3,3.61,3.61,0,0,1-1-1.4L293,131.72h-.28l-.7,3.18.48.08.49.1-.1.64c-.44-.05-.84-.08-1.2-.1l-1,0-.83,0-1,.09.14-.66.43-.07.41-.08c.26-1,.52-2,.79-3.18s.55-2.42.85-3.86l-.44-.09-.52-.12.13-.62.89.07.7,0c.31,0,.7,0,1.19-.05l1,0a3.55,3.55,0,0,1,2.07.51,1.72,1.72,0,0,1,.71,1.49,2.22,2.22,0,0,1-.61,1.51A3.3,3.3,0,0,1,295.05,131.49Zm-2.16-.57h.24a2.08,2.08,0,0,0,1.48-.51,1.71,1.71,0,0,0,.55-1.35,1.32,1.32,0,0,0-.29-.94,1.16,1.16,0,0,0-.88-.31h-.14l-.23,0Z" />
  <path
    d="M299.92,134.71l-.23,1,.11-.1c.94-.89,1.53-1.33,1.76-1.33a.23.23,0,0,1,.21.11.47.47,0,0,1,.08.28,4.18,4.18,0,0,1-.19.79c0,.11-.05.19-.06.25,1-1,1.65-1.43,1.91-1.43a.3.3,0,0,1,.26.11.51.51,0,0,1,.09.32,1.71,1.71,0,0,1-.07.38c-.05.18-.14.46-.26.82l0,.06a5.17,5.17,0,0,0-.26.91.24.24,0,0,0,0,.09.12.12,0,0,0,.09,0,1.07,1.07,0,0,0,.28-.14l.12-.07.1.18a5.07,5.07,0,0,1-.89.53,1.69,1.69,0,0,1-.66.19.26.26,0,0,1-.29-.3.34.34,0,0,1,0-.09.27.27,0,0,1,0-.12l.43-1.57a.49.49,0,0,0,0-.12v-.06a.08.08,0,0,0,0-.07l-.05,0c-.05,0-.14.06-.28.17s-.36.31-.65.58l-.34,1.54H300l.5-2a.74.74,0,0,0,0-.12.18.18,0,0,0,0-.06.14.14,0,0,0,0-.07s0,0-.06,0a.91.91,0,0,0-.27.18l-.6.54-.34,1.54h-1.14l.21-.76c.1-.38.18-.71.24-1a3.65,3.65,0,0,0,.09-.53.16.16,0,0,0,0-.09.09.09,0,0,0-.07,0h-.06l-.06,0-.28.16-.12-.19,1.17-.77a1.25,1.25,0,0,1,.27-.15.66.66,0,0,1,.23,0,.21.21,0,0,1,.23.23.23.23,0,0,1,0,.07A.6.6,0,0,1,299.92,134.71Z" />
  <path
    d="M305.9,134.92l-.18.63h0a4.46,4.46,0,0,1,.78-.91,1.07,1.07,0,0,1,.67-.3h.11l-.23,1.16-.23,0h-.19a1.2,1.2,0,0,0-.52.12,1.56,1.56,0,0,0-.47.36l-.37,1.7h-1.14c.17-.65.3-1.18.4-1.58a5.48,5.48,0,0,0,.14-.71.11.11,0,0,0,0-.08.12.12,0,0,0-.08,0l-.07,0-.15.07-.18.11-.11-.19,1.16-.77a2.26,2.26,0,0,1,.26-.14.76.76,0,0,1,.21-.05.24.24,0,0,1,.17.06.19.19,0,0,1,.07.16,1.54,1.54,0,0,1,0,.19A1.7,1.7,0,0,1,305.9,134.92Z" />
  <path
    d="M295.05,171l1.38,2.74a2.17,2.17,0,0,0,.48.66,1.1,1.1,0,0,0,.56.28v.49l-.56.07-.55,0a2.32,2.32,0,0,1-1.29-.3,3.61,3.61,0,0,1-1-1.4L293,171.23h-.28l-.7,3.18.48.08.49.1-.1.64c-.44,0-.84-.08-1.2-.1l-1,0-.83,0-1,.09.14-.66.43-.07.41-.08c.26-1,.52-2,.79-3.18s.55-2.42.85-3.86l-.44-.09-.52-.12.13-.62.89.06.7,0c.31,0,.7,0,1.19,0l1,0a3.55,3.55,0,0,1,2.07.51,1.72,1.72,0,0,1,.71,1.49,2.22,2.22,0,0,1-.61,1.51A3.3,3.3,0,0,1,295.05,171Zm-2.16-.57h.24a2.08,2.08,0,0,0,1.48-.51,1.71,1.71,0,0,0,.55-1.35,1.32,1.32,0,0,0-.29-.94,1.16,1.16,0,0,0-.88-.31h-.14l-.23,0Z" />
  <path
    d="M299.92,174.21l-.23,1,.11-.1c.94-.89,1.53-1.34,1.76-1.34a.24.24,0,0,1,.21.12.47.47,0,0,1,.08.28,4.18,4.18,0,0,1-.19.79c0,.11-.05.19-.06.25,1-1,1.65-1.44,1.91-1.44a.31.31,0,0,1,.26.12.51.51,0,0,1,.09.32,1.71,1.71,0,0,1-.07.38c-.05.18-.14.46-.26.82l0,.06a5.17,5.17,0,0,0-.26.91.19.19,0,0,0,0,.08.1.1,0,0,0,.09,0,1.07,1.07,0,0,0,.28-.14l.12-.07.1.18a5.07,5.07,0,0,1-.89.53,1.88,1.88,0,0,1-.66.19.26.26,0,0,1-.29-.3.31.31,0,0,1,0-.09.27.27,0,0,1,0-.12l.43-1.57a.49.49,0,0,0,0-.12V175a.08.08,0,0,0,0-.07s0,0-.05,0-.14.06-.28.17-.36.31-.65.57l-.34,1.55H300l.5-2a.74.74,0,0,0,0-.12.18.18,0,0,0,0-.06.14.14,0,0,0,0-.07.06.06,0,0,0-.06,0,1.08,1.08,0,0,0-.27.19l-.6.53-.34,1.55h-1.14l.21-.76c.1-.38.18-.71.24-1a3.65,3.65,0,0,0,.09-.53.16.16,0,0,0,0-.09.09.09,0,0,0-.07,0h-.06l-.06,0-.28.16-.12-.19,1.17-.77a1.25,1.25,0,0,1,.27-.15.68.68,0,0,1,.23-.05.24.24,0,0,1,.17.07.24.24,0,0,1,.06.17.23.23,0,0,1,0,.07A.43.43,0,0,1,299.92,174.21Z" />
  <path
    d="M306.9,174.13l.07-.25h1l-.52,2.11,0,.17a.71.71,0,0,0,0,.14.32.32,0,0,0,0,.16.13.13,0,0,0,.11,0,.34.34,0,0,0,.15,0l.25-.16.13.19a5.78,5.78,0,0,1-.9.57,1.32,1.32,0,0,1-.59.19.31.31,0,0,1-.25-.11.49.49,0,0,1-.09-.3,1.75,1.75,0,0,1,.05-.42c0-.16.1-.4.19-.71a5.06,5.06,0,0,1-1,1.12,1.44,1.44,0,0,1-.86.42.48.48,0,0,1-.39-.17.72.72,0,0,1-.14-.48,2.26,2.26,0,0,1,.17-.81,3.39,3.39,0,0,1,.46-.86,3.46,3.46,0,0,1,.82-.84,1.47,1.47,0,0,1,.8-.31.59.59,0,0,1,.32.09A.67.67,0,0,1,306.9,174.13Zm-.22.7a1,1,0,0,1,0-.14c0-.05,0-.09,0-.12a.28.28,0,0,0-.11-.21.49.49,0,0,0-.28-.08.56.56,0,0,0-.35.13,1.31,1.31,0,0,0-.29.41,4.12,4.12,0,0,0-.27.69,2.2,2.2,0,0,0-.1.56.3.3,0,0,0,0,.18.15.15,0,0,0,.13.06c.15,0,.34-.13.58-.39a2.94,2.94,0,0,0,.54-.95Z" />
  <path
    d="M295.05,92l1.38,2.74a2,2,0,0,0,.48.66,1.1,1.1,0,0,0,.56.28v.49l-.56.07-.55,0a2.32,2.32,0,0,1-1.29-.3,3.61,3.61,0,0,1-1-1.4L293,92.21h-.28l-.7,3.18c.16,0,.32,0,.48.09l.49.09-.1.64c-.44,0-.84-.08-1.2-.1l-1,0-.83,0-1,.09.14-.66.43-.07.41-.08c.26-1,.52-2,.79-3.17s.55-2.43.85-3.87l-.44-.08-.52-.12.13-.63.89.07.7,0c.31,0,.7,0,1.19,0l1,0a3.55,3.55,0,0,1,2.07.51,1.72,1.72,0,0,1,.71,1.49A2.22,2.22,0,0,1,296.7,91,3.3,3.3,0,0,1,295.05,92Zm-2.16-.57h.24a2.08,2.08,0,0,0,1.48-.51,1.71,1.71,0,0,0,.55-1.35,1.32,1.32,0,0,0-.29-.94,1.16,1.16,0,0,0-.88-.31h-.14l-.23,0Z" />
  <path
    d="M299.92,95.2l-.23,1,.11-.1c.94-.89,1.53-1.33,1.76-1.33a.23.23,0,0,1,.21.11.49.49,0,0,1,.08.28,4.39,4.39,0,0,1-.19.8c0,.1-.05.18-.06.24,1-1,1.65-1.43,1.91-1.43a.3.3,0,0,1,.26.11.51.51,0,0,1,.09.32,1.71,1.71,0,0,1-.07.38c-.05.18-.14.46-.26.82l0,.06a5.17,5.17,0,0,0-.26.91.24.24,0,0,0,0,.09.12.12,0,0,0,.09,0,1.07,1.07,0,0,0,.28-.14l.12-.07.1.19A5.66,5.66,0,0,1,303,98a1.69,1.69,0,0,1-.66.19.29.29,0,0,1-.22-.08.28.28,0,0,1-.07-.21.38.38,0,0,1,0-.1.35.35,0,0,1,0-.12l.43-1.57a.49.49,0,0,0,0-.12v-.06a.08.08,0,0,0,0-.07l-.05,0c-.05,0-.14.06-.28.17s-.36.31-.65.58l-.34,1.54H300l.5-2a.74.74,0,0,0,0-.12.18.18,0,0,0,0-.06.14.14,0,0,0,0-.07s0,0-.06,0a.83.83,0,0,0-.27.19c-.15.12-.35.3-.6.53l-.34,1.54h-1.14l.21-.76c.1-.38.18-.71.24-1a3.86,3.86,0,0,0,.09-.52.17.17,0,0,0,0-.1.09.09,0,0,0-.07,0h-.06l-.06,0-.28.16-.12-.19,1.17-.77a1.92,1.92,0,0,1,.27-.15.66.66,0,0,1,.23,0A.21.21,0,0,1,300,95a.23.23,0,0,1,0,.07A.6.6,0,0,1,299.92,95.2Z" />
  <path
    d="M306.9,95.11l.07-.25h1L307.45,97l0,.17a.71.71,0,0,0,0,.14.32.32,0,0,0,0,.16s.06,0,.11,0a.34.34,0,0,0,.15,0l.25-.16.13.19a5.78,5.78,0,0,1-.9.57,1.32,1.32,0,0,1-.59.19.31.31,0,0,1-.25-.11.49.49,0,0,1-.09-.3,1.81,1.81,0,0,1,.05-.42c0-.16.1-.4.19-.71a5.06,5.06,0,0,1-1,1.12,1.44,1.44,0,0,1-.86.42.48.48,0,0,1-.39-.17.72.72,0,0,1-.14-.48,2.26,2.26,0,0,1,.17-.81,3.56,3.56,0,0,1,.46-.86,3.65,3.65,0,0,1,.82-.84,1.45,1.45,0,0,1,.8-.3.59.59,0,0,1,.32.08A.67.67,0,0,1,306.9,95.11Zm-.22.7s0-.08,0-.14,0-.09,0-.12a.24.24,0,0,0-.11-.2.43.43,0,0,0-.28-.09.56.56,0,0,0-.35.13,1.45,1.45,0,0,0-.29.41,3.91,3.91,0,0,0-.27.7,2.14,2.14,0,0,0-.1.55.3.3,0,0,0,0,.18.15.15,0,0,0,.13.06c.15,0,.34-.13.58-.39a2.84,2.84,0,0,0,.54-1Z" />
  <path
    d="M84,107.28l.64,1.53-.72.33a2.51,2.51,0,0,0-.71-.87,2.16,2.16,0,0,0-1-.19H81.8l-.32,0-.28,0-.66,2.9h1.61a1,1,0,0,0,.67-.2,1.39,1.39,0,0,0,.39-.69l.74.16c-.12.37-.23.77-.33,1.19s-.17.86-.23,1.31l-.73-.13s0-.11,0-.18,0-.21,0-.25a.38.38,0,0,0-.09-.3.73.73,0,0,0-.46-.09H80.37l-.74,3.27.56.08.56.1-.08.63-1.21-.09c-.38,0-.73,0-1.06,0l-.87,0-1,.09.14-.67.48-.07.31-.06c.25-1,.52-2,.78-3.18s.55-2.43.85-3.87l-.46-.08a3.9,3.9,0,0,1-.46-.12l.15-.62.26,0c.64,0,1.1.07,1.36.07.5,0,1.17,0,2,0s1.42,0,1.76,0Z" />
  <path
    d="M86.06,115l-.23,1,.11-.1c.94-.89,1.53-1.34,1.76-1.34a.26.26,0,0,1,.21.11.51.51,0,0,1,.08.28,4.2,4.2,0,0,1-.19.8,2.15,2.15,0,0,0-.06.25c1-1,1.65-1.44,1.91-1.44a.31.31,0,0,1,.26.12A.48.48,0,0,1,90,115a2.44,2.44,0,0,1-.07.38c-.05.19-.14.46-.26.83l0,0a5.43,5.43,0,0,0-.26.91s0,.07,0,.09a.12.12,0,0,0,.09,0,.8.8,0,0,0,.28-.14l.12-.07.1.19a5,5,0,0,1-.89.52,1.69,1.69,0,0,1-.66.19.29.29,0,0,1-.22-.07.31.31,0,0,1-.07-.22.28.28,0,0,1,0-.09.35.35,0,0,1,0-.13l.43-1.56a.66.66,0,0,0,0-.13v0s0-.06,0-.07a.05.05,0,0,0,0,0s-.14.06-.28.18a8.61,8.61,0,0,0-.65.57l-.34,1.55H86.17l.5-2a.74.74,0,0,0,0-.12.13.13,0,0,0,0-.06.11.11,0,0,0,0-.06.06.06,0,0,0-.06,0,.83.83,0,0,0-.27.19l-.6.53-.34,1.55H84.27l.21-.76c.1-.38.18-.72.24-1a3.89,3.89,0,0,0,.09-.53.12.12,0,0,0,0-.09.08.08,0,0,0-.07,0l-.06,0-.06,0-.28.17-.12-.19,1.17-.77a1.25,1.25,0,0,1,.27-.15.68.68,0,0,1,.23,0,.22.22,0,0,1,.17.07.21.21,0,0,1,.06.16.28.28,0,0,1,0,.08A.52.52,0,0,1,86.06,115Z" />
  <path d="M91.78,110.33h7v1.35h-7Zm0,2.62h7v1.35h-7Z" />
  <path
    d="M103,109.29l-1.2,5.8.52.12.46.08-.09.66-.8-.07c-.24,0-.46,0-.65,0s-.42,0-.67,0l-.76.07.12-.66.51-.12.46-.08,1.57-6.69-.18-.3-.39-.07-.42-.08.18-.67.95.1q.48,0,1.08,0c.37,0,.72,0,1,0l1-.1,0,.67-.47.09c-.16,0-.34,0-.54.06l3.1,5.39,1.12-5.39-.45,0-.64-.1.12-.67h0c.69.08,1.15.13,1.4.13s.6,0,1.2-.11l.19,0-.1.67-.41.09c-.15,0-.32,0-.5.06L107.88,116H107Z" />
  <path
    d="M113.39,111.31l-.44,1.63c-.17.61-.28,1-.33,1.25a2,2,0,0,0-.08.41.18.18,0,0,0,.19.2.62.62,0,0,0,.19-.06l.29-.17.2-.13.18.32a9.7,9.7,0,0,1-1.52.9A2.85,2.85,0,0,1,111,116a.52.52,0,0,1-.38-.12.45.45,0,0,1-.13-.36,3.5,3.5,0,0,1,.11-.62l0,0,.65-2.42a2.07,2.07,0,0,0,.07-.45.21.21,0,0,0-.06-.16.14.14,0,0,0-.12-.06.16.16,0,0,0-.09,0,.3.3,0,0,0-.11.06l-.48.27-.21-.32,1.78-1.17a4.32,4.32,0,0,1,.64-.37,1.05,1.05,0,0,1,.4-.11.5.5,0,0,1,.35.12.48.48,0,0,1,.12.35,1.8,1.8,0,0,1,0,.31A3.56,3.56,0,0,1,113.39,111.31Zm.28-4.38a.79.79,0,0,1,.58.21.74.74,0,0,1,.22.57,1.27,1.27,0,0,1-.4.93,1.31,1.31,0,0,1-1,.4.85.85,0,0,1-.61-.21.75.75,0,0,1-.23-.57,1.27,1.27,0,0,1,.4-1A1.41,1.41,0,0,1,113.67,106.93Z" />
  <path d="M46.81,92.13a21.26,21.26,0,1,1-21.26,21.26A21.2,21.2,0,0,1,46.81,92.13"
    style="fill:none;stroke:#000;stroke-miterlimit:10;stroke-width:1.5px" />
  <path d="M46.11,98.43h1.4v2.9h2.82v1.35H47.51v2.91h-1.4v-2.91H43.29v-1.35h2.82Z" />
  <polyline points="50.33 128.34 43.3 128.34 43.3 126.99 50.33 126.99" />
  <polyline points="320.64 183.99 320.64 206.66 46.81 206.66 46.81 134.65"
    style="fill:none;stroke:#000;stroke-miterlimit:10;stroke-width:1.5px" />
  <polyline points="46.81 92.13 46.81 20.11 103.12 20.11 320.64 20.11 320.64 42.78"
    style="fill:none;stroke:#000;stroke-miterlimit:10;stroke-width:1.5px" />
  <line x1="320.64"
    y1="144.48"
    x2="320.64"
    y2="161.31"
    style="fill:none;stroke:#000;stroke-miterlimit:10;stroke-width:1.5px" />
  <line x1="320.64"
    y1="105.15"
    x2="320.64"
    y2="121.8"
    style="fill:none;stroke:#000;stroke-miterlimit:10;stroke-width:1.5px" />
  <line x1="320.64"
    y1="65.46"
    x2="320.64"
    y2="82.29"
    style="fill:none;stroke:#000;stroke-miterlimit:10;stroke-width:1.5px" />
</svg>
