<svg xmlns="http://www.w3.org/2000/svg"
  viewBox="0 0 368.5 216.74"
  width="368.5"
  height="216.74"
  class="w-100 h-auto my-3">
  <title>闭合铁芯</title>
  <rect x="76.55"
    y="40.57"
    width="155.91"
    height="170.08"
    style="fill:none;stroke:#000;stroke-miterlimit:10;stroke-width:1.5px" />
  <rect x="295.33"
    y="40.57"
    width="28.35"
    height="170.08"
    style="fill:none;stroke:#000;stroke-miterlimit:10;stroke-width:1.5px" />
  <rect x="119.07"
    y="83.09"
    width="85.04"
    height="85.04"
    style="fill:none;stroke:#000;stroke-miterlimit:10;stroke-width:1.5px" />
  <polyline points="215.18 189.39 97.81 189.39 97.81 61.84 215.18 61.84"
    style="fill:none;stroke:#000;stroke-miterlimit:10;stroke-width:0.35000000000000003px" />
  <polygon points="214.49 188.38 218.28 189.39 214.49 190.41 214.49 188.38" />
  <polygon points="214.49 62.85 218.28 61.84 214.49 60.82 214.49 62.85" />
  <line x1="218.28"
    y1="64.94"
    x2="218.28"
    y2="186.29"
    style="fill:none;stroke:#000;stroke-miterlimit:10;stroke-width:0.35000000000000003px" />
  <polygon points="217.27 65.63 218.28 61.84 219.3 65.63 217.27 65.63" />
  <polygon points="217.27 185.6 218.28 189.39 219.3 185.6 217.27 185.6" />
  <line x1="76.55"
    y1="40.57"
    x2="76.55"
    y2="39.57"
    style="fill:none;stroke:#000;stroke-miterlimit:10;stroke-width:0.35000000000000003px" />
  <line x1="76.55"
    y1="37.77"
    x2="76.55"
    y2="31.45"
    style="fill:none;stroke:#000;stroke-miterlimit:10;stroke-width:0.35000000000000003px;stroke-dasharray:1.8056962490081787,1.8056962490081787,1.8056962490081787,1.8056962490081787" />
  <line x1="76.55"
    y1="30.55"
    x2="76.55"
    y2="29.55"
    style="fill:none;stroke:#000;stroke-miterlimit:10;stroke-width:0.35000000000000003px" />
  <line x1="119.07"
    y1="83.09"
    x2="119.07"
    y2="82.09"
    style="fill:none;stroke:#000;stroke-miterlimit:10;stroke-width:0.35000000000000003px" />
  <line x1="119.07"
    y1="79.85"
    x2="119.07"
    y2="72.01"
    style="fill:none;stroke:#000;stroke-miterlimit:10;stroke-width:0.35000000000000003px;stroke-dasharray:2.241224527359009,2.241224527359009,2.241224527359009,2.241224527359009" />
  <line x1="119.07"
    y1="70.89"
    x2="119.07"
    y2="31.67"
    style="fill:none;stroke:#000;stroke-miterlimit:10;stroke-width:0.35000000000000003px;stroke-dasharray:2.241224527359009,2.241224527359009,2.241224527359009,2.241224527359009,2.241224527359009,2.241224527359009" />
  <line x1="119.07"
    y1="30.55"
    x2="119.07"
    y2="29.55"
    style="fill:none;stroke:#000;stroke-miterlimit:10;stroke-width:0.35000000000000003px" />
  <line x1="204.11"
    y1="83.09"
    x2="204.11"
    y2="82.09"
    style="fill:none;stroke:#000;stroke-miterlimit:10;stroke-width:0.35000000000000003px" />
  <line x1="204.11"
    y1="79.85"
    x2="204.11"
    y2="72.01"
    style="fill:none;stroke:#000;stroke-miterlimit:10;stroke-width:0.35000000000000003px;stroke-dasharray:2.241224527359009,2.241224527359009,2.241224527359009,2.241224527359009" />
  <line x1="204.11"
    y1="70.89"
    x2="204.11"
    y2="31.67"
    style="fill:none;stroke:#000;stroke-miterlimit:10;stroke-width:0.35000000000000003px;stroke-dasharray:2.241224527359009,2.241224527359009,2.241224527359009,2.241224527359009,2.241224527359009,2.241224527359009" />
  <line x1="204.11"
    y1="30.55"
    x2="204.11"
    y2="29.55"
    style="fill:none;stroke:#000;stroke-miterlimit:10;stroke-width:0.35000000000000003px" />
  <line x1="232.46"
    y1="40.57"
    x2="232.46"
    y2="39.57"
    style="fill:none;stroke:#000;stroke-miterlimit:10;stroke-width:0.35000000000000003px" />
  <line x1="232.46"
    y1="37.77"
    x2="232.46"
    y2="31.45"
    style="fill:none;stroke:#000;stroke-miterlimit:10;stroke-width:0.35000000000000003px;stroke-dasharray:1.8056962490081787,1.8056962490081787,1.8056962490081787,1.8056962490081787" />
  <line x1="232.46"
    y1="30.55"
    x2="232.46"
    y2="29.55"
    style="fill:none;stroke:#000;stroke-miterlimit:10;stroke-width:0.35000000000000003px" />
  <line x1="295.33"
    y1="40.57"
    x2="295.33"
    y2="39.57"
    style="fill:none;stroke:#000;stroke-miterlimit:10;stroke-width:0.35000000000000003px" />
  <line x1="295.33"
    y1="37.77"
    x2="295.33"
    y2="31.45"
    style="fill:none;stroke:#000;stroke-miterlimit:10;stroke-width:0.35000000000000003px;stroke-dasharray:1.8056962490081787,1.8056962490081787,1.8056962490081787,1.8056962490081787" />
  <line x1="295.33"
    y1="30.55"
    x2="295.33"
    y2="29.55"
    style="fill:none;stroke:#000;stroke-miterlimit:10;stroke-width:0.35000000000000003px" />
  <line x1="323.68"
    y1="40.57"
    x2="323.68"
    y2="39.57"
    style="fill:none;stroke:#000;stroke-miterlimit:10;stroke-width:0.35000000000000003px" />
  <line x1="323.68"
    y1="37.77"
    x2="323.68"
    y2="31.45"
    style="fill:none;stroke:#000;stroke-miterlimit:10;stroke-width:0.35000000000000003px;stroke-dasharray:1.8056962490081787,1.8056962490081787,1.8056962490081787,1.8056962490081787" />
  <line x1="323.68"
    y1="30.55"
    x2="323.68"
    y2="29.55"
    style="fill:none;stroke:#000;stroke-miterlimit:10;stroke-width:0.35000000000000003px" />
  <line x1="232.46"
    y1="40.57"
    x2="233.46"
    y2="40.57"
    style="fill:none;stroke:#000;stroke-miterlimit:10;stroke-width:0.35000000000000003px" />
  <line x1="235.17"
    y1="40.57"
    x2="241.17"
    y2="40.57"
    style="fill:none;stroke:#000;stroke-miterlimit:10;stroke-width:0.35000000000000003px;stroke-dasharray:1.7145335674285889,1.7145335674285889,1.7145335674285889,1.7145335674285889" />
  <line x1="242.03"
    y1="40.57"
    x2="243.03"
    y2="40.57"
    style="fill:none;stroke:#000;stroke-miterlimit:10;stroke-width:0.35000000000000003px" />
  <line x1="204.11"
    y1="83.09"
    x2="205.11"
    y2="83.09"
    style="fill:none;stroke:#000;stroke-miterlimit:10;stroke-width:0.35000000000000003px" />
  <line x1="207.28"
    y1="83.09"
    x2="214.88"
    y2="83.09"
    style="fill:none;stroke:#000;stroke-miterlimit:10;stroke-width:0.35000000000000003px;stroke-dasharray:2.17171311378479,2.17171311378479,2.17171311378479,2.17171311378479" />
  <line x1="215.97"
    y1="83.09"
    x2="240.94"
    y2="83.09"
    style="fill:none;stroke:#000;stroke-miterlimit:10;stroke-width:0.35000000000000003px;stroke-dasharray:2.17171311378479,2.17171311378479,2.17171311378479,2.17171311378479,2.17171311378479,2.17171311378479" />
  <line x1="242.03"
    y1="83.09"
    x2="243.03"
    y2="83.09"
    style="fill:none;stroke:#000;stroke-miterlimit:10;stroke-width:0.35000000000000003px" />
  <line x1="204.11"
    y1="168.13"
    x2="205.11"
    y2="168.13"
    style="fill:none;stroke:#000;stroke-miterlimit:10;stroke-width:0.35000000000000003px" />
  <line x1="207.28"
    y1="168.13"
    x2="214.88"
    y2="168.13"
    style="fill:none;stroke:#000;stroke-miterlimit:10;stroke-width:0.35000000000000003px;stroke-dasharray:2.17171311378479,2.17171311378479,2.17171311378479,2.17171311378479" />
  <line x1="215.97"
    y1="168.13"
    x2="240.94"
    y2="168.13"
    style="fill:none;stroke:#000;stroke-miterlimit:10;stroke-width:0.35000000000000003px;stroke-dasharray:2.17171311378479,2.17171311378479,2.17171311378479,2.17171311378479,2.17171311378479,2.17171311378479" />
  <line x1="242.03"
    y1="168.13"
    x2="243.03"
    y2="168.13"
    style="fill:none;stroke:#000;stroke-miterlimit:10;stroke-width:0.35000000000000003px" />
  <line x1="232.46"
    y1="210.65"
    x2="233.46"
    y2="210.65"
    style="fill:none;stroke:#000;stroke-miterlimit:10;stroke-width:0.35000000000000003px" />
  <line x1="235.17"
    y1="210.65"
    x2="241.17"
    y2="210.65"
    style="fill:none;stroke:#000;stroke-miterlimit:10;stroke-width:0.35000000000000003px;stroke-dasharray:1.7145335674285889,1.7145335674285889,1.7145335674285889,1.7145335674285889" />
  <line x1="242.03"
    y1="210.65"
    x2="243.03"
    y2="210.65"
    style="fill:none;stroke:#000;stroke-miterlimit:10;stroke-width:0.35000000000000003px" />
  <path d="M76.55,101.4a3,3,0,0,0,0,5.67l42.64-.37a3,3,0,0,1,0,5.67"
    style="fill:none;stroke:#0078c8;stroke-linecap:round;stroke-miterlimit:10;stroke-width:1.5px" />
  <path d="M119.19,101.77a3,3,0,0,0,0-5.67H44.83"
    style="fill:none;stroke:#0078c8;stroke-linecap:round;stroke-miterlimit:10;stroke-width:1.5px" />
  <path d="M76.55,112.09a3,3,0,0,0,0,5.67l42.64-.37a3,3,0,0,1,0,5.67"
    style="fill:none;stroke:#0078c8;stroke-linecap:round;stroke-miterlimit:10;stroke-width:1.5px" />
  <path d="M76.55,122.78a3,3,0,0,0,0,5.67l42.64-.37a3,3,0,0,1,0,5.67"
    style="fill:none;stroke:#0078c8;stroke-linecap:round;stroke-miterlimit:10;stroke-width:1.5px" />
  <path d="M76.55,133.47a3,3,0,0,0,0,5.67l42.64-.37a3,3,0,0,1,0,5.67"
    style="fill:none;stroke:#0078c8;stroke-linecap:round;stroke-miterlimit:10;stroke-width:1.5px" />
  <line x1="44.83"
    y1="155.13"
    x2="76.55"
    y2="155.13"
    style="fill:none;stroke:#0078c8;stroke-linecap:round;stroke-miterlimit:10;stroke-width:1.5px" />
  <path d="M119.19,155.13a3,3,0,0,0,0-5.67l-42.64.37a3,3,0,0,1,0-5.66"
    style="fill:none;stroke:#0078c8;stroke-linecap:round;stroke-miterlimit:10;stroke-width:1.5px" />
  <line x1="207.21"
    y1="34.91"
    x2="229.36"
    y2="34.91"
    style="fill:none;stroke:#000;stroke-miterlimit:10;stroke-width:0.35000000000000003px" />
  <polygon points="207.91 35.92 204.11 34.91 207.91 33.89 207.91 35.92" />
  <polygon points="228.66 35.92 232.46 34.91 228.66 33.89 228.66 35.92" />
  <line x1="298.43"
    y1="34.91"
    x2="320.58"
    y2="34.91"
    style="fill:none;stroke:#000;stroke-miterlimit:10;stroke-width:0.35000000000000003px" />
  <polygon points="299.13 35.92 295.33 34.91 299.13 33.89 299.13 35.92" />
  <polygon points="319.88 35.92 323.68 34.91 319.88 33.89 319.88 35.92" />
  <line x1="122.17"
    y1="34.91"
    x2="201.01"
    y2="34.91"
    style="fill:none;stroke:#000;stroke-miterlimit:10;stroke-width:0.35000000000000003px" />
  <polygon points="122.87 35.92 119.07 34.91 122.87 33.89 122.87 35.92" />
  <polygon points="200.32 35.92 204.11 34.91 200.32 33.89 200.32 35.92" />
  <line x1="78.88"
    y1="34.91"
    x2="116.75"
    y2="34.91"
    style="fill:none;stroke:#000;stroke-miterlimit:10;stroke-width:0.35000000000000003px" />
  <polygon points="79.4 35.67 76.55 34.91 79.4 34.14 79.4 35.67" />
  <polygon points="116.22 35.67 119.07 34.91 116.22 34.14 116.22 35.67" />
  <line x1="238.13"
    y1="171.23"
    x2="238.13"
    y2="207.55"
    style="fill:none;stroke:#000;stroke-miterlimit:10;stroke-width:0.35000000000000003px" />
  <polygon points="237.11 171.93 238.13 168.13 239.14 171.93 237.11 171.93" />
  <polygon points="237.11 206.86 238.13 210.65 239.14 206.86 237.11 206.86" />
  <line x1="238.13"
    y1="86.2"
    x2="238.13"
    y2="165.03"
    style="fill:none;stroke:#000;stroke-miterlimit:10;stroke-width:0.35000000000000003px" />
  <polygon points="237.11 86.89 238.13 83.09 239.14 86.89 237.11 86.89" />
  <polygon points="237.11 164.34 238.13 168.13 239.14 164.34 237.11 164.34" />
  <line x1="238.13"
    y1="43.68"
    x2="238.13"
    y2="79.99"
    style="fill:none;stroke:#000;stroke-miterlimit:10;stroke-width:0.35000000000000003px" />
  <polygon points="237.11 44.37 238.13 40.58 239.14 44.37 237.11 44.37" />
  <polygon points="237.11 79.3 238.13 83.09 239.14 79.3 237.11 79.3" />
  <line x1="150.25"
    y1="77.87"
    x2="167.95"
    y2="77.87"
    style="fill:none;stroke:#000;stroke-miterlimit:10;stroke-width:0.75px" />
  <polygon points="166.83 79.5 172.93 77.87 166.83 76.23 166.83 79.5" />
  <path
    d="M156.51,74.78a2.36,2.36,0,0,1-.84-.42,1.73,1.73,0,0,1-.49-.66,2.26,2.26,0,0,1-.16-.88,2.16,2.16,0,0,1,.16-.86,1.82,1.82,0,0,1,.5-.67,2.41,2.41,0,0,1,.84-.46,4.51,4.51,0,0,1,1.2-.22v-1.8a.09.09,0,0,1,0,0,.15.15,0,0,1,.06,0l.1,0h.32l.1,0,.05,0a.09.09,0,0,1,0,0v1.8a4.66,4.66,0,0,1,1.22.19,2.22,2.22,0,0,1,.84.43,1.68,1.68,0,0,1,.49.66,2.38,2.38,0,0,1,.16.88,2.15,2.15,0,0,1-.17.85,1.71,1.71,0,0,1-.5.67,2.26,2.26,0,0,1-.84.46,4.43,4.43,0,0,1-1.2.22V76.4a.09.09,0,0,1,0,0l-.05,0-.1,0h-.32l-.1,0a.15.15,0,0,1-.06,0,.09.09,0,0,1,0,0V75A5,5,0,0,1,156.51,74.78Zm1.21-3.71a3.66,3.66,0,0,0-.89.15,1.7,1.7,0,0,0-.63.32,1.33,1.33,0,0,0-.38.52,1.92,1.92,0,0,0-.12.71,2.41,2.41,0,0,0,.09.67,1.26,1.26,0,0,0,.32.53,1.51,1.51,0,0,0,.62.37,3.27,3.27,0,0,0,1,.17Zm.65,3.44a3.75,3.75,0,0,0,.9-.15,1.7,1.7,0,0,0,.63-.32,1.34,1.34,0,0,0,.37-.51,1.73,1.73,0,0,0,.13-.71,2.43,2.43,0,0,0-.09-.68,1.28,1.28,0,0,0-.33-.53,1.51,1.51,0,0,0-.62-.37,3.21,3.21,0,0,0-1-.17Z"
    style="stroke:#000;stroke-miterlimit:10;stroke-width:0.12725462192751436px" />
  <path
    d="M53.27,85.25c-.91,1-1.6,1.44-2.05,1.44a.75.75,0,0,1-.63-.38,1.73,1.73,0,0,1-.26-1,10.51,10.51,0,0,1,.84-3.45l1.49-.31h.07l-.58,1.83A6.47,6.47,0,0,0,51.78,85a.53.53,0,0,0,.09.32.26.26,0,0,0,.21.12.77.77,0,0,0,.46-.17,5.08,5.08,0,0,0,.73-.72Zm-.11-6c0,.93-.35,1.4-1,1.4a1.27,1.27,0,0,1-.86-.3,4.37,4.37,0,0,0,.52-1.16,1.55,1.55,0,0,0,.75.28A1.07,1.07,0,0,0,53.16,79.29Z" />
  <path
    d="M158.23,57.87a6.66,6.66,0,0,1-1.06.82,1.67,1.67,0,0,1-.87.26,1,1,0,0,1-.77-.36,1.61,1.61,0,0,1-.29-1,7.8,7.8,0,0,1,.41-2.24,14.11,14.11,0,0,1,1-2.41l1.13-.42.08,0c.09,0,.16.07.21.19a1.24,1.24,0,0,1,.08.51,4.05,4.05,0,0,1-.41,1.76,7.91,7.91,0,0,1-1.31,1.81c0,.31,0,.53,0,.64a1.17,1.17,0,0,0,.14.61.43.43,0,0,0,.38.23,1,1,0,0,0,.51-.17,6.8,6.8,0,0,0,.83-.72Zm-1.7-1.74a5.49,5.49,0,0,0,.91-1.41,3.28,3.28,0,0,0,.36-1.34.6.6,0,0,0-.05-.26c0-.07-.08-.1-.13-.1s-.27.27-.48.82A16.25,16.25,0,0,0,156.53,56.13Z" />
  <path
    d="M158.64,58.36a1.88,1.88,0,0,1,.57-.09l.37,0,.37,0a.49.49,0,0,0,.25-.06.36.36,0,0,0,.15-.2s0-.06,0-.06a.23.23,0,0,1,.11,0s0,0,0,0a1.39,1.39,0,0,1-.14.38,1.09,1.09,0,0,1-.28.39.88.88,0,0,1-.44.09l-.46,0-.46,0a1.64,1.64,0,0,0-.37,0l-.14,0a0,0,0,0,1,0,0,.81.81,0,0,1,.06-.31,2,2,0,0,1,.26-.4,8.39,8.39,0,0,1,.61-.62l.29-.27a2,2,0,0,0,.49-.62,1.5,1.5,0,0,0,.14-.61.6.6,0,0,0-.14-.43.43.43,0,0,0-.35-.16.53.53,0,0,0-.37.15.49.49,0,0,0-.15.36.37.37,0,0,0,.17.31q.09.06.09.12s-.07.11-.2.17a.87.87,0,0,1-.32.1.24.24,0,0,1-.17-.1.35.35,0,0,1-.07-.23,1.09,1.09,0,0,1,.41-.8,1.4,1.4,0,0,1,.92-.37,1,1,0,0,1,.68.25.84.84,0,0,1,.27.64,1,1,0,0,1-.18.58,2.3,2.3,0,0,1-.42.46c-.16.13-.37.29-.64.47s-.47.33-.61.44A1.53,1.53,0,0,0,158.64,58.36Z" />
  <path
    d="M224.16,127.33a6.66,6.66,0,0,1-1.06.82,1.69,1.69,0,0,1-.87.27,1,1,0,0,1-.77-.37,1.61,1.61,0,0,1-.29-1,7.8,7.8,0,0,1,.41-2.24,14.11,14.11,0,0,1,1-2.41l1.13-.42h.08c.09,0,.16.06.21.19a1.16,1.16,0,0,1,.08.5,4.05,4.05,0,0,1-.41,1.76,8.17,8.17,0,0,1-1.31,1.82c0,.31,0,.52,0,.63a1.21,1.21,0,0,0,.14.62.43.43,0,0,0,.38.22.91.91,0,0,0,.51-.17,6.8,6.8,0,0,0,.83-.72Zm-1.7-1.74a5.49,5.49,0,0,0,.91-1.41,3.28,3.28,0,0,0,.36-1.34.6.6,0,0,0,0-.26c0-.07-.08-.1-.13-.1s-.27.27-.48.82A16.25,16.25,0,0,0,222.46,125.59Z" />
  <path
    d="M225.19,125.17a2.74,2.74,0,0,0-.58.65c0,.07-.07.11-.09.11a.11.11,0,0,1-.09,0,.07.07,0,0,1-.05-.06.83.83,0,0,1,.14-.24,3,3,0,0,1,.45-.49,2.28,2.28,0,0,1,.47-.37.9.9,0,0,1,.4-.07q.12,0,.12.06v.08h0l-.22.88-.28,1.08c-.11.42-.21.77-.3,1.06a2.34,2.34,0,0,1-.18.49.56.56,0,0,1-.23.07,2.38,2.38,0,0,1-.39,0c-.09,0-.14,0-.14-.06a.51.51,0,0,1,.05-.17C224.55,127.43,224.86,126.42,225.19,125.17Z" />
  <path
    d="M133.61,124.66a.34.34,0,0,1,0,.18.27.27,0,0,1-.09.12.47.47,0,0,1-.12.07l-.14,0h-.3a.88.88,0,0,1-.24,0,.56.56,0,0,1-.2-.11.92.92,0,0,1-.19-.2c-.06-.09-.13-.2-.2-.33l-2-3.82c-.11-.2-.22-.4-.33-.62s-.21-.43-.3-.63h0c0,.25,0,.5,0,.76s0,.52,0,.78v4.05a.25.25,0,0,1,0,.07.16.16,0,0,1-.08,0l-.13,0h-.44l-.13,0a.13.13,0,0,1-.07,0,.11.11,0,0,1,0-.07v-6.2a.34.34,0,0,1,.12-.29.38.38,0,0,1,.25-.09h.44a1,1,0,0,1,.26,0,.46.46,0,0,1,.19.08.88.88,0,0,1,.16.17c0,.07.1.16.16.26l1.58,3,.28.53c.09.17.17.34.26.5l.24.49c.09.16.17.32.25.49h0c0-.28,0-.56,0-.86v-4.49a.1.1,0,0,1,0-.07.13.13,0,0,1,.07-.05.29.29,0,0,1,.14,0l.22,0,.21,0a.29.29,0,0,1,.14,0,.18.18,0,0,1,.07.05.19.19,0,0,1,0,.07Z" />
  <path
    d="M139.4,121a.5.5,0,0,1-.06.29.17.17,0,0,1-.13.08h-3.92a.19.19,0,0,1-.14-.08.5.5,0,0,1-.06-.29.49.49,0,0,1,.06-.27.15.15,0,0,1,.14-.09h3.92a.15.15,0,0,1,.14.09A.5.5,0,0,1,139.4,121Zm0,2a.52.52,0,0,1-.06.29.16.16,0,0,1-.13.07h-3.92a.17.17,0,0,1-.14-.07.52.52,0,0,1-.06-.29.51.51,0,0,1,.06-.28.15.15,0,0,1,.14-.09h3.92a.15.15,0,0,1,.14.09A.52.52,0,0,1,139.4,123.05Z" />
  <path
    d="M144.79,124.65a.81.81,0,0,1,0,.16.34.34,0,0,1,0,.12.12.12,0,0,1-.06.08l-.08,0h-3.71l-.13,0a.18.18,0,0,1-.09-.06.2.2,0,0,1-.06-.12.92.92,0,0,1,0-.19c0-.07,0-.13,0-.18a.57.57,0,0,1,0-.14.67.67,0,0,1,.06-.12.6.6,0,0,1,.11-.12l1.34-1.38a8.06,8.06,0,0,0,.74-.86,4.84,4.84,0,0,0,.44-.69,2.73,2.73,0,0,0,.2-.56,2.8,2.8,0,0,0,.05-.48,1.16,1.16,0,0,0-.08-.42.91.91,0,0,0-.22-.35,1,1,0,0,0-.35-.24,1.3,1.3,0,0,0-.49-.09,1.78,1.78,0,0,0-.59.09,3.36,3.36,0,0,0-.46.19l-.32.19a.45.45,0,0,1-.2.09l-.06,0a.13.13,0,0,1-.05-.07.35.35,0,0,1,0-.12,1.09,1.09,0,0,1,0-.19V119s0-.07,0-.1l0-.08a.75.75,0,0,1,.09-.09,1.16,1.16,0,0,1,.21-.15,2.43,2.43,0,0,1,.39-.18,4.92,4.92,0,0,1,.5-.16,2.81,2.81,0,0,1,.59-.06,2.44,2.44,0,0,1,.85.14,1.71,1.71,0,0,1,.61.38,1.46,1.46,0,0,1,.36.55,1.89,1.89,0,0,1,.12.67,3.39,3.39,0,0,1-.06.64,2.59,2.59,0,0,1-.24.69,4.9,4.9,0,0,1-.53.83,10.86,10.86,0,0,1-.93,1l-1.06,1.11h2.92a.11.11,0,0,1,.08,0,.16.16,0,0,1,.07.07.36.36,0,0,1,0,.11A.86.86,0,0,1,144.79,124.65Z" />
  <path
    d="M150.51,121.66a7.6,7.6,0,0,1-.13,1.41,3.18,3.18,0,0,1-.4,1.1,2.09,2.09,0,0,1-.74.71,2.26,2.26,0,0,1-1.12.25,2.29,2.29,0,0,1-1.07-.23,1.77,1.77,0,0,1-.7-.66,3.12,3.12,0,0,1-.37-1.08,8.09,8.09,0,0,1-.12-1.47,7.69,7.69,0,0,1,.13-1.41,3.49,3.49,0,0,1,.4-1.1,2.09,2.09,0,0,1,.74-.71,2.38,2.38,0,0,1,1.12-.25,2.32,2.32,0,0,1,1.07.23,1.77,1.77,0,0,1,.7.66,3.12,3.12,0,0,1,.37,1.08A8.09,8.09,0,0,1,150.51,121.66Zm-.92.06q0-.5,0-.9a5.93,5.93,0,0,0-.11-.71,2.86,2.86,0,0,0-.18-.52,1.31,1.31,0,0,0-.27-.37.94.94,0,0,0-.35-.2,1.33,1.33,0,0,0-.45-.07,1.16,1.16,0,0,0-.72.21,1.48,1.48,0,0,0-.43.57,2.94,2.94,0,0,0-.22.85c0,.33-.05.68-.05,1a7.87,7.87,0,0,0,.08,1.28,2.79,2.79,0,0,0,.24.85,1.1,1.1,0,0,0,.43.49,1.29,1.29,0,0,0,.64.15,1.19,1.19,0,0,0,.51-.1,1.22,1.22,0,0,0,.38-.26,1.75,1.75,0,0,0,.26-.42,2.64,2.64,0,0,0,.16-.54,4.11,4.11,0,0,0,.09-.64C149.58,122.21,149.59,122,149.59,121.72Z" />
  <path
    d="M156,121.66a7.64,7.64,0,0,1-.12,1.41,3.18,3.18,0,0,1-.4,1.1,2.09,2.09,0,0,1-.74.71,2.62,2.62,0,0,1-2.19,0,1.77,1.77,0,0,1-.7-.66,3.12,3.12,0,0,1-.38-1.08,9.18,9.18,0,0,1-.11-1.47,7.69,7.69,0,0,1,.13-1.41,3.49,3.49,0,0,1,.4-1.1,2,2,0,0,1,.74-.71,2.38,2.38,0,0,1,1.12-.25,2.32,2.32,0,0,1,1.07.23,1.77,1.77,0,0,1,.7.66,3.12,3.12,0,0,1,.37,1.08A8.15,8.15,0,0,1,156,121.66Zm-.91.06q0-.5,0-.9a5.93,5.93,0,0,0-.11-.71,2.86,2.86,0,0,0-.18-.52,1.54,1.54,0,0,0-.27-.37.94.94,0,0,0-.35-.2,1.33,1.33,0,0,0-.45-.07,1.16,1.16,0,0,0-.72.21,1.39,1.39,0,0,0-.43.57,2.94,2.94,0,0,0-.22.85,8.8,8.8,0,0,0,0,1,9.37,9.37,0,0,0,.07,1.28,3.08,3.08,0,0,0,.25.85,1.1,1.1,0,0,0,.43.49,1.29,1.29,0,0,0,.64.15,1.19,1.19,0,0,0,.51-.1,1.22,1.22,0,0,0,.38-.26,1.75,1.75,0,0,0,.26-.42,2.64,2.64,0,0,0,.16-.54,5.8,5.8,0,0,0,.09-.64C155.07,122.21,155.08,122,155.08,121.72Z" />
  <path
    d="M164.65,117.18a.41.41,0,0,1-.12.3.52.52,0,0,1-.31.14h-5.88v7.56h6a.4.4,0,0,1,.29.12.36.36,0,0,1,.11.28.41.41,0,0,1-.11.3.37.37,0,0,1-.29.12h-6.13a.67.67,0,0,1-.5-.21.7.7,0,0,1-.2-.49v-7.82a.69.69,0,0,1,.2-.5.66.66,0,0,1,.5-.2h6a.46.46,0,0,1,.3.11A.4.4,0,0,1,164.65,117.18ZM163,123.09c.09,0,.13,0,.13-.14V120H162v4.42a.38.38,0,0,1-.13.3.43.43,0,0,1-.31.12.41.41,0,0,1-.42-.42V120h-1.15v3.47a.44.44,0,0,1-.11.29.41.41,0,0,1-.58,0,.37.37,0,0,1-.13-.29v-3.7a.58.58,0,0,1,.18-.42.61.61,0,0,1,.42-.17h1.37v-.82a.45.45,0,0,1,.12-.31.42.42,0,0,1,.3-.13.44.44,0,0,1,.31.13.42.42,0,0,1,.13.31v.82h1.38a.61.61,0,0,1,.42.17.58.58,0,0,1,.18.42V123a.92.92,0,0,1-.94,1,.41.41,0,0,1-.41-.41.38.38,0,0,1,.4-.4Z" />
  <path
    d="M94.54,31.23a.81.81,0,0,1,0,.17.66.66,0,0,1,0,.11l-.06.06-.07,0H90.85l-.07,0a.1.1,0,0,1,0-.06.28.28,0,0,1,0-.11.72.72,0,0,1,0-.17.78.78,0,0,1,0-.16.36.36,0,0,1,0-.11.2.2,0,0,1,.06-.07l.07,0h1.4v-5.1L91,26.54a.35.35,0,0,1-.16.06.12.12,0,0,1-.1,0,.23.23,0,0,1,0-.11,1.15,1.15,0,0,1,0-.2.66.66,0,0,1,0-.15.3.3,0,0,1,0-.1.43.43,0,0,1,0-.07.27.27,0,0,1,.08-.07l1.54-1,.06,0,.07,0,.11,0h.37l.13,0a.1.1,0,0,1,.06.05s0,0,0,.06v5.89h1.22l.08,0a.18.18,0,0,1,0,.07.36.36,0,0,1,0,.11A.81.81,0,0,1,94.54,31.23Z" />
  <path
    d="M99.88,29.43a2.42,2.42,0,0,1-.18,1,1.93,1.93,0,0,1-.51.71,2.58,2.58,0,0,1-.8.44,3.2,3.2,0,0,1-1,.15,3.83,3.83,0,0,1-.6-.05,3,3,0,0,1-.49-.11,2.5,2.5,0,0,1-.36-.12l-.18-.1a.23.23,0,0,1,0-.07l0-.08a.31.31,0,0,1,0-.11s0-.1,0-.16,0-.11,0-.16l0-.11a.18.18,0,0,1,0-.07l.06,0a.4.4,0,0,1,.16.07,3,3,0,0,0,.3.14,2.69,2.69,0,0,0,.45.14,2.54,2.54,0,0,0,.65.07,2.61,2.61,0,0,0,.64-.08,1.58,1.58,0,0,0,.5-.26,1.25,1.25,0,0,0,.33-.45,1.54,1.54,0,0,0,.12-.65,1.6,1.6,0,0,0-.1-.56.94.94,0,0,0-.32-.41,1.31,1.31,0,0,0-.53-.25,3.34,3.34,0,0,0-.76-.08,4.22,4.22,0,0,0-.55,0l-.42,0a.29.29,0,0,1-.21-.06A.43.43,0,0,1,96,28V25.21a.32.32,0,0,1,.08-.25.28.28,0,0,1,.23-.08h3a.12.12,0,0,1,.08,0s.05,0,.06.07a.34.34,0,0,1,0,.12.88.88,0,0,1,0,.17.76.76,0,0,1,0,.29c0,.07-.08.1-.14.1h-2.4v1.89a2,2,0,0,1,.36,0h.42a3.15,3.15,0,0,1,1,.14,1.94,1.94,0,0,1,.69.39,1.66,1.66,0,0,1,.42.61A2.22,2.22,0,0,1,99.88,29.43Z" />
  <path
    d="M105.52,28.22a7.72,7.72,0,0,1-.12,1.41,3.35,3.35,0,0,1-.41,1.09,1.87,1.87,0,0,1-.74.71,2.26,2.26,0,0,1-1.12.26,2.29,2.29,0,0,1-1.07-.23,1.77,1.77,0,0,1-.7-.66,3.27,3.27,0,0,1-.37-1.08,8.15,8.15,0,0,1-.11-1.47,7.72,7.72,0,0,1,.12-1.41,3.19,3.19,0,0,1,.41-1.1,1.91,1.91,0,0,1,.73-.71,2.67,2.67,0,0,1,2.19,0,1.8,1.8,0,0,1,.7.67,3.12,3.12,0,0,1,.38,1.08A9,9,0,0,1,105.52,28.22Zm-.92.06q0-.51,0-.9a5.93,5.93,0,0,0-.11-.71,3,3,0,0,0-.18-.53,1.22,1.22,0,0,0-.27-.36,1.13,1.13,0,0,0-.35-.21,1.53,1.53,0,0,0-.45-.06,1.18,1.18,0,0,0-.72.21,1.48,1.48,0,0,0-.43.57,2.86,2.86,0,0,0-.21.85,8.5,8.5,0,0,0-.06,1.05,7.74,7.74,0,0,0,.08,1.27,2.86,2.86,0,0,0,.24.86,1.2,1.2,0,0,0,.43.48,1.29,1.29,0,0,0,.64.15,1.36,1.36,0,0,0,.51-.09,1,1,0,0,0,.38-.27,1.51,1.51,0,0,0,.26-.41,4.26,4.26,0,0,0,.17-.54,4.14,4.14,0,0,0,.08-.64C104.6,28.77,104.6,28.53,104.6,28.28Z" />
  <path
    d="M158.26,29.67a2.19,2.19,0,0,1-.16.83,1.87,1.87,0,0,1-.47.64,2,2,0,0,1-.74.4,3,3,0,0,1-1,.15,3.06,3.06,0,0,1-.63-.06,5.15,5.15,0,0,1-.53-.13,2.81,2.81,0,0,1-.37-.15l-.19-.12a.19.19,0,0,1-.06-.07.36.36,0,0,1,0-.09.51.51,0,0,1,0-.13,1,1,0,0,1,0-.18.54.54,0,0,1,0-.26.1.1,0,0,1,.1-.07.38.38,0,0,1,.19.08l.36.18.52.18a2.71,2.71,0,0,0,.66.08,1.87,1.87,0,0,0,.61-.09,1.22,1.22,0,0,0,.45-.25.94.94,0,0,0,.27-.38,1.28,1.28,0,0,0,.09-.48,1.19,1.19,0,0,0-.11-.51,1.17,1.17,0,0,0-.34-.4,1.64,1.64,0,0,0-.55-.25,2.7,2.7,0,0,0-.73-.09H155a.11.11,0,0,1-.08,0,.13.13,0,0,1-.07-.06.23.23,0,0,1-.05-.11.72.72,0,0,1,0-.17c0-.07,0-.12,0-.16a.58.58,0,0,1,0-.11l.06-.06h.67a2,2,0,0,0,.62-.09,1.38,1.38,0,0,0,.46-.26,1.11,1.11,0,0,0,.29-.39,1.27,1.27,0,0,0,.1-.52,1.09,1.09,0,0,0-.07-.4.83.83,0,0,0-.2-.32.93.93,0,0,0-.34-.23,1.44,1.44,0,0,0-.49-.08,1.63,1.63,0,0,0-.55.1,3.21,3.21,0,0,0-.45.19l-.33.19a.41.41,0,0,1-.18.1l-.06,0a.08.08,0,0,1,0-.05.81.81,0,0,1,0-.11v-.32s0-.07,0-.1l0-.08a.28.28,0,0,1,.07-.09,1.21,1.21,0,0,1,.2-.14,2.51,2.51,0,0,1,.37-.19,3.09,3.09,0,0,1,.51-.15,3,3,0,0,1,.62-.06,2.57,2.57,0,0,1,.82.12,1.77,1.77,0,0,1,.59.33,1.49,1.49,0,0,1,.35.53,1.78,1.78,0,0,1,.12.67,1.92,1.92,0,0,1-.09.59,1.35,1.35,0,0,1-.24.48,1.54,1.54,0,0,1-.4.36,1.64,1.64,0,0,1-.54.2h0a1.83,1.83,0,0,1,.64.18,1.54,1.54,0,0,1,.82.82A1.53,1.53,0,0,1,158.26,29.67Z" />
  <path
    d="M163.91,28.22a7.72,7.72,0,0,1-.12,1.41,3.13,3.13,0,0,1-.4,1.09,1.94,1.94,0,0,1-.74.71,2.3,2.3,0,0,1-1.13.26,2.27,2.27,0,0,1-1.06-.23,1.77,1.77,0,0,1-.7-.66,3.27,3.27,0,0,1-.38-1.08,9.18,9.18,0,0,1-.11-1.47,6.9,6.9,0,0,1,.13-1.41,3.4,3.4,0,0,1,.4-1.1,1.94,1.94,0,0,1,.74-.71,2.26,2.26,0,0,1,1.12-.25,2.32,2.32,0,0,1,1.07.22,1.8,1.8,0,0,1,.7.67,3.12,3.12,0,0,1,.37,1.08A8,8,0,0,1,163.91,28.22Zm-.91.06a8,8,0,0,0,0-.9,4.49,4.49,0,0,0-.1-.71,3,3,0,0,0-.18-.53,1.69,1.69,0,0,0-.27-.36,1.07,1.07,0,0,0-.36-.21,1.51,1.51,0,0,0-.44-.06,1.14,1.14,0,0,0-.72.21,1.39,1.39,0,0,0-.43.57,2.85,2.85,0,0,0-.22.85,8.6,8.6,0,0,0-.05,1.05,9.21,9.21,0,0,0,.07,1.27,3.16,3.16,0,0,0,.25.86,1.13,1.13,0,0,0,.43.48,1.26,1.26,0,0,0,.64.15,1.36,1.36,0,0,0,.51-.09,1,1,0,0,0,.37-.27,1.33,1.33,0,0,0,.27-.41,3.08,3.08,0,0,0,.16-.54A5.8,5.8,0,0,0,163,29C163,28.77,163,28.53,163,28.28Z" />
  <path
    d="M169.3,28.22a6.9,6.9,0,0,1-.13,1.41,3.13,3.13,0,0,1-.4,1.09,1.87,1.87,0,0,1-.74.71,2.26,2.26,0,0,1-1.12.26,2.29,2.29,0,0,1-1.07-.23,1.77,1.77,0,0,1-.7-.66,3.27,3.27,0,0,1-.37-1.08,8.15,8.15,0,0,1-.11-1.47,7.72,7.72,0,0,1,.12-1.41,3.4,3.4,0,0,1,.4-1.1,2,2,0,0,1,.74-.71,2.26,2.26,0,0,1,1.12-.25,2.29,2.29,0,0,1,1.07.22,1.8,1.8,0,0,1,.7.67,3.12,3.12,0,0,1,.38,1.08A9,9,0,0,1,169.3,28.22Zm-.92.06q0-.51,0-.9a5.93,5.93,0,0,0-.11-.71,3,3,0,0,0-.18-.53,1.22,1.22,0,0,0-.27-.36,1.13,1.13,0,0,0-.35-.21,1.58,1.58,0,0,0-.45-.06,1.18,1.18,0,0,0-.72.21,1.48,1.48,0,0,0-.43.57,3.19,3.19,0,0,0-.22.85c0,.32-.05.67-.05,1.05a7.74,7.74,0,0,0,.08,1.27,2.86,2.86,0,0,0,.24.86,1.13,1.13,0,0,0,.43.48A1.29,1.29,0,0,0,167,31a1.36,1.36,0,0,0,.51-.09,1,1,0,0,0,.38-.27,1.51,1.51,0,0,0,.26-.41,4.26,4.26,0,0,0,.17-.54,5.88,5.88,0,0,0,.08-.64C168.38,28.77,168.38,28.53,168.38,28.28Z" />
  <path
    d="M245.77,64.16a.7.7,0,0,1,0,.16.28.28,0,0,1,0,.11l-.06.06-.07,0h-3.5l-.07,0-.06-.06a.58.58,0,0,1,0-.11.76.76,0,0,1,0-.16.86.86,0,0,1,0-.17.76.76,0,0,0,0-.11.17.17,0,0,1,.06-.06.11.11,0,0,1,.08,0h1.4v-5.1l-1.3.77a.32.32,0,0,1-.16.06.09.09,0,0,1-.09,0,.13.13,0,0,1-.05-.11,1,1,0,0,1,0-.2c0-.06,0-.11,0-.15s0-.07,0-.1a.18.18,0,0,1,.05-.07l.07-.07,1.55-1,.05,0,.08,0,.11,0h.36l.13,0a.1.1,0,0,1,.06.05.14.14,0,0,1,0,.06v5.89h1.21a.13.13,0,0,1,.08,0,.17.17,0,0,1,.06.06s0,.07,0,.11S245.77,64.09,245.77,64.16Z" />
  <path
    d="M251.11,62.35a2.42,2.42,0,0,1-.19,1,1.93,1.93,0,0,1-.51.71,2.25,2.25,0,0,1-.79.44,3.31,3.31,0,0,1-1,.15,3.7,3.7,0,0,1-.59,0,3.1,3.1,0,0,1-.5-.11l-.36-.12a1.15,1.15,0,0,1-.18-.1l-.05-.07,0-.07s0-.07,0-.12v-.31a1,1,0,0,1,0-.12s0,0,0-.06a.08.08,0,0,1,.07,0,.4.4,0,0,1,.16.06l.29.14a3.18,3.18,0,0,0,.46.14,2.41,2.41,0,0,0,.64.07,2.55,2.55,0,0,0,.64-.08,1.32,1.32,0,0,0,.5-.26,1.25,1.25,0,0,0,.33-.45,1.54,1.54,0,0,0,.12-.65,1.4,1.4,0,0,0-.1-.56,1,1,0,0,0-.31-.41,1.53,1.53,0,0,0-.53-.25,3.44,3.44,0,0,0-.77-.08,4.44,4.44,0,0,0-.55,0l-.42,0a.29.29,0,0,1-.21-.06.41.41,0,0,1-.06-.26V58.13a.37.37,0,0,1,.08-.25.32.32,0,0,1,.23-.08h3l.08,0a.23.23,0,0,1,.07.07.83.83,0,0,1,0,.12.91.91,0,0,1,0,.17.72.72,0,0,1-.05.29.16.16,0,0,1-.14.11h-2.4v1.88a2.19,2.19,0,0,1,.36,0h.42a3.15,3.15,0,0,1,1,.14,1.78,1.78,0,0,1,.69.39,1.52,1.52,0,0,1,.42.61A2,2,0,0,1,251.11,62.35Z" />
  <path
    d="M256.74,61.14a7.72,7.72,0,0,1-.12,1.41,3.13,3.13,0,0,1-.41,1.09,1.84,1.84,0,0,1-.73.71,2.59,2.59,0,0,1-2.2,0,1.75,1.75,0,0,1-.69-.66,3.12,3.12,0,0,1-.38-1.08,9.18,9.18,0,0,1-.11-1.47,7.72,7.72,0,0,1,.12-1.41,3.4,3.4,0,0,1,.41-1.1,2,2,0,0,1,.74-.71,2.24,2.24,0,0,1,1.12-.25,2.2,2.2,0,0,1,1.07.23,1.69,1.69,0,0,1,.69.66,3.12,3.12,0,0,1,.38,1.08A9,9,0,0,1,256.74,61.14Zm-.91.06a8,8,0,0,0,0-.9,6.07,6.07,0,0,0-.1-.71,2.1,2.1,0,0,0-.19-.52,1.29,1.29,0,0,0-.26-.37,1,1,0,0,0-.36-.2,1.25,1.25,0,0,0-.45-.07,1.13,1.13,0,0,0-.71.21,1.41,1.41,0,0,0-.44.57,3.2,3.2,0,0,0-.21.85,8.5,8.5,0,0,0-.06,1,9,9,0,0,0,.08,1.27,2.51,2.51,0,0,0,.25.86,1,1,0,0,0,.43.48,1.14,1.14,0,0,0,.63.16,1.29,1.29,0,0,0,.51-.1.94.94,0,0,0,.38-.27,1.31,1.31,0,0,0,.26-.41,2.84,2.84,0,0,0,.17-.54,4.14,4.14,0,0,0,.08-.64Q255.83,61.58,255.83,61.2Z" />
  <path
    d="M245.77,192.26a.7.7,0,0,1,0,.16.28.28,0,0,1,0,.11l-.06.06-.07,0h-3.5l-.07,0-.06-.06a.28.28,0,0,1,0-.11.7.7,0,0,1,0-.16.79.79,0,0,1,0-.17l0-.11.06-.06a.11.11,0,0,1,.08,0h1.4v-5.1l-1.3.77a.52.52,0,0,1-.16.07.12.12,0,0,1-.09,0,.16.16,0,0,1-.05-.11,1,1,0,0,1,0-.2c0-.06,0-.11,0-.15a.29.29,0,0,1,0-.1.16.16,0,0,1,0-.07l.07-.07,1.55-1,.05,0,.08,0,.11,0h.36l.13,0a.1.1,0,0,1,.06.05.14.14,0,0,1,0,.06v5.89h1.21a.11.11,0,0,1,.08,0l.06.06a.36.36,0,0,1,0,.11S245.77,192.19,245.77,192.26Z" />
  <path
    d="M251.11,190.45a2.42,2.42,0,0,1-.19,1,1.93,1.93,0,0,1-.51.71,2.25,2.25,0,0,1-.79.44,3.31,3.31,0,0,1-1,.15,3.7,3.7,0,0,1-.59-.05,3.1,3.1,0,0,1-.5-.11l-.36-.12-.18-.1-.05-.07,0-.07s0-.07,0-.12v-.16a.66.66,0,0,1,0-.15.37.37,0,0,1,0-.12s0,0,0-.06a.08.08,0,0,1,.07,0,.4.4,0,0,1,.16.06l.29.14a3.18,3.18,0,0,0,.46.14,2.46,2.46,0,0,0,.64.07,2.49,2.49,0,0,0,.64-.08,1.32,1.32,0,0,0,.5-.26,1.25,1.25,0,0,0,.33-.45,1.54,1.54,0,0,0,.12-.65,1.4,1.4,0,0,0-.1-.56,1,1,0,0,0-.31-.41,1.53,1.53,0,0,0-.53-.25,3.44,3.44,0,0,0-.77-.08,4.16,4.16,0,0,0-.54,0,3.62,3.62,0,0,1-.43,0,.29.29,0,0,1-.21-.07.41.41,0,0,1-.06-.26v-2.73a.38.38,0,0,1,.08-.26.32.32,0,0,1,.23-.08h3l.08,0a.23.23,0,0,1,.07.07.34.34,0,0,1,0,.12.91.91,0,0,1,0,.17.72.72,0,0,1-.05.29.16.16,0,0,1-.14.11h-2.4v1.88a2.19,2.19,0,0,1,.36,0h.42a3.15,3.15,0,0,1,1,.14,1.78,1.78,0,0,1,.69.39,1.52,1.52,0,0,1,.42.61A2,2,0,0,1,251.11,190.45Z" />
  <path
    d="M256.74,189.24a7.72,7.72,0,0,1-.12,1.41,3.49,3.49,0,0,1-.4,1.1,2.09,2.09,0,0,1-.74.71,2.42,2.42,0,0,1-1.13.25,2.25,2.25,0,0,1-1.06-.23,1.71,1.71,0,0,1-.7-.66,3.12,3.12,0,0,1-.38-1.08,9.18,9.18,0,0,1-.11-1.47,6.9,6.9,0,0,1,.13-1.41,3.18,3.18,0,0,1,.4-1.1,2,2,0,0,1,.74-.71,2.24,2.24,0,0,1,1.12-.25,2.32,2.32,0,0,1,1.07.23,1.69,1.69,0,0,1,.69.66,2.93,2.93,0,0,1,.38,1.08A9,9,0,0,1,256.74,189.24Zm-.91.06a8.16,8.16,0,0,0,0-.9,6.07,6.07,0,0,0-.1-.71,2.1,2.1,0,0,0-.19-.52,1.29,1.29,0,0,0-.26-.37,1,1,0,0,0-.36-.2,1.25,1.25,0,0,0-.45-.07,1.13,1.13,0,0,0-.71.21,1.31,1.31,0,0,0-.43.57,2.85,2.85,0,0,0-.22.85,8.5,8.5,0,0,0-.06,1.05,9.3,9.3,0,0,0,.08,1.28,2.77,2.77,0,0,0,.25.85,1.1,1.1,0,0,0,.43.49,1.22,1.22,0,0,0,.63.15,1.29,1.29,0,0,0,.51-.1,1,1,0,0,0,.38-.26,1.29,1.29,0,0,0,.26-.42,2.63,2.63,0,0,0,.17-.54,5.8,5.8,0,0,0,.09-.64C255.82,189.79,255.83,189.55,255.83,189.3Z" />
  <path
    d="M245.7,126.37a2,2,0,0,1-.16.83,1.84,1.84,0,0,1-.46.64,2.1,2.1,0,0,1-.74.4,3.13,3.13,0,0,1-1,.15,3.21,3.21,0,0,1-.63-.06,3.29,3.29,0,0,1-.52-.13,3,3,0,0,1-.38-.15l-.19-.12-.06-.07,0-.09a1.3,1.3,0,0,1,0-.13v-.18a.75.75,0,0,1,0-.26.12.12,0,0,1,.11-.07.46.46,0,0,1,.19.08l.36.18.52.18a2.57,2.57,0,0,0,.65.08,1.93,1.93,0,0,0,.62-.09,1.22,1.22,0,0,0,.45-.25.94.94,0,0,0,.27-.38,1.21,1.21,0,0,0,.09-.48,1.07,1.07,0,0,0-.12-.51,1.11,1.11,0,0,0-.33-.39,1.48,1.48,0,0,0-.55-.26,2.78,2.78,0,0,0-.74-.09h-.66a.13.13,0,0,1-.08,0,.18.18,0,0,1-.07-.05,1.17,1.17,0,0,1-.05-.11,1,1,0,0,1,0-.18.71.71,0,0,1,0-.16.28.28,0,0,1,.05-.11.15.15,0,0,1,.06,0,.11.11,0,0,1,.08,0H243a1.91,1.91,0,0,0,.61-.09,1.27,1.27,0,0,0,.46-.25,1,1,0,0,0,.29-.4,1.27,1.27,0,0,0,.11-.52,1.23,1.23,0,0,0-.07-.39.91.91,0,0,0-.2-.33.84.84,0,0,0-.35-.22,1.21,1.21,0,0,0-.48-.08,1.69,1.69,0,0,0-.56.09,3.63,3.63,0,0,0-.44.19,1.91,1.91,0,0,0-.33.2.46.46,0,0,1-.18.09l-.07,0a.07.07,0,0,1,0,0s0-.06,0-.11,0-.1,0-.18a.61.61,0,0,1,0-.14.3.3,0,0,1,0-.1l0-.08.07-.09.2-.14.38-.19a2.71,2.71,0,0,1,.5-.15,3,3,0,0,1,.62-.06,2.53,2.53,0,0,1,.82.12,1.55,1.55,0,0,1,.59.34,1.23,1.23,0,0,1,.35.52,1.78,1.78,0,0,1,.12.67,2.21,2.21,0,0,1-.08.59,1.57,1.57,0,0,1-.25.48,1.35,1.35,0,0,1-.39.36,1.59,1.59,0,0,1-.54.2h0a2,2,0,0,1,.64.18,1.72,1.72,0,0,1,.49.34,1.34,1.34,0,0,1,.32.49A1.45,1.45,0,0,1,245.7,126.37Z" />
  <path
    d="M251.36,124.92a7.72,7.72,0,0,1-.12,1.41,3.27,3.27,0,0,1-.41,1.1,1.91,1.91,0,0,1-.74.7,2.26,2.26,0,0,1-1.12.26,2.32,2.32,0,0,1-1.07-.23,1.77,1.77,0,0,1-.7-.66,3.12,3.12,0,0,1-.37-1.08,8.15,8.15,0,0,1-.11-1.47,7.72,7.72,0,0,1,.12-1.41,3.4,3.4,0,0,1,.41-1.1,2,2,0,0,1,.73-.71,2.29,2.29,0,0,1,1.12-.25,2.15,2.15,0,0,1,1.07.23,1.71,1.71,0,0,1,.7.66,3.12,3.12,0,0,1,.38,1.08A9,9,0,0,1,251.36,124.92Zm-.91.06c0-.34,0-.64,0-.9a4.42,4.42,0,0,0-.11-.71,1.76,1.76,0,0,0-.18-.52,1.29,1.29,0,0,0-.26-.37,1.07,1.07,0,0,0-.36-.2,1.25,1.25,0,0,0-.45-.07,1.13,1.13,0,0,0-.71.21,1.41,1.41,0,0,0-.44.57,3.2,3.2,0,0,0-.21.85,8.5,8.5,0,0,0-.06,1,9.3,9.3,0,0,0,.08,1.28,2.79,2.79,0,0,0,.24.85,1.23,1.23,0,0,0,.43.49,1.29,1.29,0,0,0,.64.15,1.36,1.36,0,0,0,.51-.1,1.12,1.12,0,0,0,.38-.26,1.49,1.49,0,0,0,.26-.42,2.63,2.63,0,0,0,.17-.54,4.14,4.14,0,0,0,.08-.64Q250.45,125.35,250.45,125Z" />
  <path
    d="M256.74,124.92a7.72,7.72,0,0,1-.12,1.41,3.49,3.49,0,0,1-.4,1.1,2,2,0,0,1-.74.7,2.3,2.3,0,0,1-1.13.26,2.25,2.25,0,0,1-1.06-.23,1.71,1.71,0,0,1-.7-.66,3.12,3.12,0,0,1-.38-1.08,9.18,9.18,0,0,1-.11-1.47,6.9,6.9,0,0,1,.13-1.41,3.18,3.18,0,0,1,.4-1.1,2,2,0,0,1,.74-.71,2.24,2.24,0,0,1,1.12-.25,2.2,2.2,0,0,1,1.07.23,1.69,1.69,0,0,1,.69.66,2.93,2.93,0,0,1,.38,1.08A9,9,0,0,1,256.74,124.92Zm-.91.06a8,8,0,0,0,0-.9,6.07,6.07,0,0,0-.1-.71,2.1,2.1,0,0,0-.19-.52,1.29,1.29,0,0,0-.26-.37,1,1,0,0,0-.36-.2,1.25,1.25,0,0,0-.45-.07,1.13,1.13,0,0,0-.71.21,1.31,1.31,0,0,0-.43.57,2.85,2.85,0,0,0-.22.85,8.5,8.5,0,0,0-.06,1,9.3,9.3,0,0,0,.08,1.28,2.77,2.77,0,0,0,.25.85,1.1,1.1,0,0,0,.43.49,1.22,1.22,0,0,0,.63.15,1.29,1.29,0,0,0,.51-.1,1,1,0,0,0,.38-.26,1.29,1.29,0,0,0,.26-.42,2.63,2.63,0,0,0,.17-.54,5.8,5.8,0,0,0,.09-.64C255.82,125.47,255.83,125.23,255.83,125Z" />
  <path
    d="M215,31.23a.72.72,0,0,1,0,.17.28.28,0,0,1,0,.11l-.06.06-.07,0h-3.5l-.07,0-.06-.06a.28.28,0,0,1,0-.11,1.37,1.37,0,0,1,0-.33s0-.08,0-.11l.06-.07.08,0h1.4v-5.1l-1.3.77a.35.35,0,0,1-.16.06.09.09,0,0,1-.09,0,.13.13,0,0,1-.05-.11,1,1,0,0,1,0-.2c0-.06,0-.11,0-.15s0-.07,0-.1a.18.18,0,0,1,.05-.07.23.23,0,0,1,.07-.07l1.55-1,.05,0,.08,0,.11,0h.36l.13,0a.1.1,0,0,1,.06.05.11.11,0,0,1,0,.06v5.89h1.21l.08,0L215,31a.35.35,0,0,1,0,.11A.78.78,0,0,1,215,31.23Z" />
  <path
    d="M220.61,28.22a7.72,7.72,0,0,1-.12,1.41,3.13,3.13,0,0,1-.41,1.09,1.87,1.87,0,0,1-.74.71,2.26,2.26,0,0,1-1.12.26,2.32,2.32,0,0,1-1.07-.23,1.77,1.77,0,0,1-.7-.66,3.27,3.27,0,0,1-.37-1.08,8.15,8.15,0,0,1-.11-1.47,7.72,7.72,0,0,1,.12-1.41,3.19,3.19,0,0,1,.41-1.1,1.91,1.91,0,0,1,.73-.71,2.67,2.67,0,0,1,2.19,0,1.8,1.8,0,0,1,.7.67,3.12,3.12,0,0,1,.38,1.08A9,9,0,0,1,220.61,28.22Zm-.91.06c0-.34,0-.64,0-.9a5.93,5.93,0,0,0-.11-.71,1.94,1.94,0,0,0-.18-.53,1.22,1.22,0,0,0-.27-.36,1.13,1.13,0,0,0-.35-.21,1.53,1.53,0,0,0-.45-.06,1.18,1.18,0,0,0-.72.21,1.48,1.48,0,0,0-.43.57,2.86,2.86,0,0,0-.21.85,8.5,8.5,0,0,0-.06,1.05,9,9,0,0,0,.08,1.27,2.86,2.86,0,0,0,.24.86,1.2,1.2,0,0,0,.43.48,1.29,1.29,0,0,0,.64.15,1.36,1.36,0,0,0,.51-.09,1,1,0,0,0,.38-.27,1.51,1.51,0,0,0,.26-.41,4.26,4.26,0,0,0,.17-.54,4.14,4.14,0,0,0,.08-.64Q219.7,28.66,219.7,28.28Z" />
  <path
    d="M226,28.22a7.72,7.72,0,0,1-.12,1.41,3.13,3.13,0,0,1-.41,1.09,1.84,1.84,0,0,1-.73.71,2.59,2.59,0,0,1-2.2,0,1.75,1.75,0,0,1-.69-.66,3.27,3.27,0,0,1-.38-1.08,9.18,9.18,0,0,1-.11-1.47,7.72,7.72,0,0,1,.12-1.41,3.4,3.4,0,0,1,.41-1.1,1.94,1.94,0,0,1,.74-.71,2.24,2.24,0,0,1,1.12-.25,2.32,2.32,0,0,1,1.07.22,1.77,1.77,0,0,1,.69.67,3.12,3.12,0,0,1,.38,1.08A9,9,0,0,1,226,28.22Zm-.91.06a8,8,0,0,0,0-.9,6.07,6.07,0,0,0-.1-.71,2.35,2.35,0,0,0-.19-.53,1.38,1.38,0,0,0-.26-.36,1.31,1.31,0,0,0-.36-.21,1.53,1.53,0,0,0-.45-.06,1.13,1.13,0,0,0-.71.21,1.41,1.41,0,0,0-.44.57,3.2,3.2,0,0,0-.21.85,8.5,8.5,0,0,0-.06,1.05,9,9,0,0,0,.08,1.27,2.58,2.58,0,0,0,.25.86,1.07,1.07,0,0,0,.43.48,1.22,1.22,0,0,0,.63.15,1.29,1.29,0,0,0,.51-.09.94.94,0,0,0,.38-.27,1.31,1.31,0,0,0,.26-.41,3.09,3.09,0,0,0,.17-.54,4.14,4.14,0,0,0,.08-.64Q225.08,28.66,225.08,28.28Z" />
  <path
    d="M306.24,31.23a.72.72,0,0,1,0,.17.28.28,0,0,1,0,.11.17.17,0,0,1-.06.06l-.07,0h-3.5l-.07,0a.17.17,0,0,1-.06-.06.28.28,0,0,1-.05-.11s0-.1,0-.17,0-.11,0-.16,0-.08,0-.11l.06-.07.08,0H304v-5.1l-1.3.77a.35.35,0,0,1-.16.06.09.09,0,0,1-.09,0,.16.16,0,0,1,0-.11,1,1,0,0,1,0-.2c0-.06,0-.11,0-.15a.29.29,0,0,1,0-.1.1.1,0,0,1,0-.07.23.23,0,0,1,.07-.07l1.55-1,.05,0,.08,0,.11,0h.36l.13,0a.1.1,0,0,1,.06.05.11.11,0,0,1,0,.06v5.89h1.21l.08,0,.06.07a.35.35,0,0,1,0,.11A.78.78,0,0,1,306.24,31.23Z" />
  <path
    d="M311.83,28.22a7.72,7.72,0,0,1-.12,1.41,3.35,3.35,0,0,1-.41,1.09,1.87,1.87,0,0,1-.74.71,2.26,2.26,0,0,1-1.12.26,2.32,2.32,0,0,1-1.07-.23,1.77,1.77,0,0,1-.7-.66,3.27,3.27,0,0,1-.37-1.08,8.15,8.15,0,0,1-.11-1.47,7.72,7.72,0,0,1,.12-1.41,3.19,3.19,0,0,1,.41-1.1,1.91,1.91,0,0,1,.73-.71,2.29,2.29,0,0,1,1.12-.25,2.26,2.26,0,0,1,1.07.22,1.8,1.8,0,0,1,.7.67,3.12,3.12,0,0,1,.38,1.08A9,9,0,0,1,311.83,28.22Zm-.91.06c0-.34,0-.64,0-.9a4.42,4.42,0,0,0-.11-.71,1.94,1.94,0,0,0-.18-.53,1.22,1.22,0,0,0-.27-.36,1.13,1.13,0,0,0-.35-.21,1.53,1.53,0,0,0-.45-.06,1.18,1.18,0,0,0-.72.21,1.48,1.48,0,0,0-.43.57,3.2,3.2,0,0,0-.21.85,8.5,8.5,0,0,0-.06,1.05,7.74,7.74,0,0,0,.08,1.27,2.86,2.86,0,0,0,.24.86,1.2,1.2,0,0,0,.43.48,1.29,1.29,0,0,0,.64.15,1.36,1.36,0,0,0,.51-.09,1,1,0,0,0,.38-.27,1.51,1.51,0,0,0,.26-.41,3.09,3.09,0,0,0,.17-.54,4.14,4.14,0,0,0,.08-.64Q310.92,28.66,310.92,28.28Z" />
  <path
    d="M317.21,28.22a7.72,7.72,0,0,1-.12,1.41,3.34,3.34,0,0,1-.4,1.09,1.94,1.94,0,0,1-.74.71,2.3,2.3,0,0,1-1.13.26,2.25,2.25,0,0,1-1.06-.23,1.71,1.71,0,0,1-.7-.66,3.27,3.27,0,0,1-.38-1.08,9.18,9.18,0,0,1-.11-1.47,6.9,6.9,0,0,1,.13-1.41,3.18,3.18,0,0,1,.4-1.1,1.87,1.87,0,0,1,.74-.71,2.22,2.22,0,0,1,1.11-.25A2.34,2.34,0,0,1,316,25a1.77,1.77,0,0,1,.69.67,2.93,2.93,0,0,1,.38,1.08A9,9,0,0,1,317.21,28.22Zm-.91.06a8,8,0,0,0,0-.9,6.07,6.07,0,0,0-.1-.71,2.35,2.35,0,0,0-.19-.53,1.38,1.38,0,0,0-.26-.36,1.31,1.31,0,0,0-.36-.21,1.53,1.53,0,0,0-.45-.06,1.13,1.13,0,0,0-.71.21,1.31,1.31,0,0,0-.43.57,2.85,2.85,0,0,0-.22.85,8.5,8.5,0,0,0-.06,1.05,9,9,0,0,0,.08,1.27,2.84,2.84,0,0,0,.25.86,1.07,1.07,0,0,0,.43.48,1.22,1.22,0,0,0,.63.15,1.29,1.29,0,0,0,.51-.09.94.94,0,0,0,.38-.27,1.31,1.31,0,0,0,.26-.41,3.09,3.09,0,0,0,.17-.54,5.8,5.8,0,0,0,.09-.64C316.29,28.77,316.3,28.53,316.3,28.28Z" />
  <line x1="44.83"
    y1="91.14"
    x2="62.52"
    y2="91.14"
    style="fill:none;stroke:#000;stroke-linecap:round;stroke-linejoin:round;stroke-width:0.75px" />
  <polygon points="61.41 92.78 67.5 91.14 61.41 89.51 61.41 92.78" />
  <path
    d="M278.11,13.23h3v-.8H279a.68.68,0,0,1-.69-.7V8.27a.68.68,0,0,1,.2-.49.66.66,0,0,1,.49-.2h.65L279.19,7a.38.38,0,0,1-.09-.29.41.41,0,0,1,.73-.22l.82,1a.59.59,0,0,1,0,.08h1.7s0,0,0,0a.05.05,0,0,0,0,0l.81-1a.47.47,0,0,1,.28-.16.41.41,0,0,1,.45.37.34.34,0,0,1-.08.29l-.45.57h.65a.66.66,0,0,1,.49.2.66.66,0,0,1,.2.49v3.46a.72.72,0,0,1-.69.7H282v.8h3a.4.4,0,0,1,.29.12.37.37,0,0,1,.11.28.39.39,0,0,1-.11.29A.4.4,0,0,1,285,14h-3v2a.41.41,0,1,1-.82,0V14h-3a.4.4,0,0,1-.29-.12.44.44,0,0,1-.11-.29.41.41,0,0,1,.11-.28.4.4,0,0,1,.29-.12Zm1-4.85V9.57h2V8.38Zm2,3.22V10.39h-2V11.6ZM284,8.38h-2V9.57h2Zm0,3.22V10.39h-2V11.6Z" />
  <path
    d="M289.18,6.39a.37.37,0,0,1,.27.15.41.41,0,0,1,.08.29A11.19,11.19,0,0,1,289.35,8a10.52,10.52,0,0,1-.3,1.1v6.85a.41.41,0,0,1-.12.3.38.38,0,0,1-.28.12.42.42,0,0,1-.3-.12.41.41,0,0,1-.12-.3V11a2.53,2.53,0,0,1-.13.22,1.64,1.64,0,0,1-.14.22.38.38,0,0,1-.34.19.44.44,0,0,1-.23-.06.36.36,0,0,1-.17-.26.38.38,0,0,1,.07-.31,8.4,8.4,0,0,0,.94-2,10.38,10.38,0,0,0,.49-2.29.41.41,0,0,1,.15-.27A.35.35,0,0,1,289.18,6.39Zm.61,9.79a.4.4,0,0,1-.29-.12.42.42,0,0,1-.12-.3.39.39,0,0,1,.12-.28.36.36,0,0,1,.28-.12h2.34l1.17-5.19a.38.38,0,0,1,.18-.25.41.41,0,0,1,.31-.06A.39.39,0,0,1,294,10a.39.39,0,0,1,0,.32l-1.12,5h1.42a.38.38,0,0,1,.28.12.39.39,0,0,1,.12.28.42.42,0,0,1-.12.3.38.38,0,0,1-.28.12Zm4.82-7.47a.34.34,0,0,1-.11.28.53.53,0,0,1-.3.14H290a.41.41,0,0,1-.41-.41.4.4,0,0,1,.12-.29.38.38,0,0,1,.29-.12h1.84l-.2-1.47a.47.47,0,0,1,.08-.31.37.37,0,0,1,.27-.15.37.37,0,0,1,.3.08.35.35,0,0,1,.16.26l.22,1.58h1.5a.4.4,0,0,1,.29.12A.39.39,0,0,1,294.61,8.71Zm-4.12,1.16a.4.4,0,0,1,.32.05.41.41,0,0,1,.17.26l.84,4a.37.37,0,0,1-.05.31.35.35,0,0,1-.26.18h-.09a.38.38,0,0,1-.25-.09.33.33,0,0,1-.14-.23l-.84-4a.39.39,0,0,1,.3-.49Z" />
  <path
    d="M297.47,10.36a.62.62,0,0,1,.19-.46.64.64,0,0,1,.47-.19.58.58,0,0,1,.45.19.65.65,0,0,1,0,.92.62.62,0,0,1-.45.19.66.66,0,0,1-.46-.19A.63.63,0,0,1,297.47,10.36Zm0,4.45a.62.62,0,0,1,.19-.46.64.64,0,0,1,.47-.19.58.58,0,0,1,.45.19.66.66,0,0,1,.19.46.62.62,0,0,1-.19.45.59.59,0,0,1-.45.2.63.63,0,0,1-.46-.2A.59.59,0,0,1,297.47,14.81Z" />
  <path
    d="M314.21,15a.1.1,0,0,1,0,.07s0,0-.06,0l-.13,0h-.42l-.14,0-.07,0a.19.19,0,0,1,0-.07V12.15a2.26,2.26,0,0,0-.05-.54,1.31,1.31,0,0,0-.16-.42.77.77,0,0,0-.3-.27.86.86,0,0,0-.41-.09.9.9,0,0,0-.59.23,4.08,4.08,0,0,0-.66.66V15a.19.19,0,0,1,0,.07s0,0-.07,0l-.13,0h-.42l-.13,0-.07,0a.17.17,0,0,1,0-.07V12.15a2.23,2.23,0,0,0-.06-.54,1.6,1.6,0,0,0-.17-.42.82.82,0,0,0-.29-.27.88.88,0,0,0-.41-.09,1,1,0,0,0-.6.23,3.7,3.7,0,0,0-.65.66V15a.19.19,0,0,1,0,.07l-.07,0-.13,0h-.42l-.13,0s-.06,0-.07,0a.19.19,0,0,1,0-.07V10.32a.14.14,0,0,1,0-.07.1.1,0,0,1,.06-.05.21.21,0,0,1,.12,0h.38a.21.21,0,0,1,.12,0l.06.05a.15.15,0,0,1,0,.07v.62a3.09,3.09,0,0,1,.77-.65,1.51,1.51,0,0,1,.75-.2,2.06,2.06,0,0,1,.52.06,1.72,1.72,0,0,1,.41.19,1.64,1.64,0,0,1,.3.29,1.72,1.72,0,0,1,.2.38,5.77,5.77,0,0,1,.45-.43,3.07,3.07,0,0,1,.4-.29,1.66,1.66,0,0,1,.38-.15,1.18,1.18,0,0,1,.37-.05,1.75,1.75,0,0,1,.76.15,1.36,1.36,0,0,1,.49.43,1.52,1.52,0,0,1,.27.62,3,3,0,0,1,.08.75Z" />
  <path
    d="M322.8,15a.1.1,0,0,1,0,.07s0,0-.06,0l-.13,0h-.42l-.14,0-.07,0a.19.19,0,0,1,0-.07V12.15a2.26,2.26,0,0,0-.05-.54,1.31,1.31,0,0,0-.16-.42.77.77,0,0,0-.3-.27.86.86,0,0,0-.41-.09.9.9,0,0,0-.59.23,4.08,4.08,0,0,0-.66.66V15a.19.19,0,0,1,0,.07s0,0-.07,0l-.13,0h-.42l-.13,0-.07,0a.19.19,0,0,1,0-.07V12.15a2.26,2.26,0,0,0-.05-.54,1.6,1.6,0,0,0-.17-.42.82.82,0,0,0-.29-.27.88.88,0,0,0-.41-.09,1,1,0,0,0-.6.23,3.7,3.7,0,0,0-.65.66V15a.19.19,0,0,1,0,.07l-.07,0-.13,0h-.42l-.13,0s-.06,0-.07,0a.19.19,0,0,1,0-.07V10.32a.14.14,0,0,1,0-.07.1.1,0,0,1,.06-.05.21.21,0,0,1,.12,0h.38a.21.21,0,0,1,.12,0l.06.05a.15.15,0,0,1,0,.07v.62a3.09,3.09,0,0,1,.77-.65,1.51,1.51,0,0,1,.75-.2,2.12,2.12,0,0,1,.52.06,1.72,1.72,0,0,1,.41.19,1.64,1.64,0,0,1,.3.29,1.72,1.72,0,0,1,.2.38,5.77,5.77,0,0,1,.45-.43,3.07,3.07,0,0,1,.4-.29,1.66,1.66,0,0,1,.38-.15,1.18,1.18,0,0,1,.37-.05,1.75,1.75,0,0,1,.76.15,1.36,1.36,0,0,1,.49.43,1.52,1.52,0,0,1,.27.62,3,3,0,0,1,.08.75Z" />
</svg>
