<svg xmlns="http://www.w3.org/2000/svg"
  viewBox="0 0 368.5 147.4"
  width="368.5"
  height="147.4"
  class="w-100 h-auto my-3">
  <title>磁路图：有气隙的铁芯</title>
  <path
    d="M93.29,68.51,93.93,70l-.72.33a2.51,2.51,0,0,0-.71-.87,2.16,2.16,0,0,0-1-.19h-.39l-.32,0-.27,0-.67,2.9h1.61a1,1,0,0,0,.67-.2,1.39,1.39,0,0,0,.39-.69l.74.16a12.07,12.07,0,0,0-.32,1.19,13.22,13.22,0,0,0-.24,1.31l-.73-.13c0-.05,0-.11,0-.18s0-.21,0-.25a.38.38,0,0,0-.09-.3.73.73,0,0,0-.46-.09H89.65l-.74,3.27.56.08.56.1-.08.63-1.21-.09c-.38,0-.73,0-1.06,0l-.87,0-1,.09.14-.67.48-.07.31-.06q.39-1.47.78-3.18c.27-1.14.55-2.43.85-3.87L88,69.25a3.9,3.9,0,0,1-.46-.12l.16-.62.25,0c.65,0,1.1.07,1.36.07.5,0,1.17,0,2,0s1.42,0,1.76,0Z" />
  <path
    d="M95.34,76.18l-.23,1,.11-.1c.94-.89,1.53-1.34,1.76-1.34a.25.25,0,0,1,.21.11.51.51,0,0,1,.08.28,4.2,4.2,0,0,1-.19.8c0,.1,0,.19-.06.25,1-1,1.65-1.44,1.91-1.44a.31.31,0,0,1,.26.12.48.48,0,0,1,.09.31,1.62,1.62,0,0,1-.07.38c0,.19-.14.46-.26.83l0,0a5.43,5.43,0,0,0-.26.91.12.12,0,0,0,0,.09s0,0,.08,0a.73.73,0,0,0,.28-.14l.12-.07.1.19a5,5,0,0,1-.89.52,1.64,1.64,0,0,1-.66.19.29.29,0,0,1-.22-.07.31.31,0,0,1-.07-.22.28.28,0,0,1,0-.09.35.35,0,0,1,0-.13l.43-1.56a.66.66,0,0,0,0-.13.43.43,0,0,1,0,0,.08.08,0,0,0,0-.07.05.05,0,0,0,0,0c-.05,0-.14.06-.28.18a8.61,8.61,0,0,0-.65.57l-.34,1.55H95.45l.5-2A.74.74,0,0,0,96,77a.13.13,0,0,0,0-.06.11.11,0,0,0,0-.06.06.06,0,0,0-.06,0,.83.83,0,0,0-.27.19l-.6.53-.34,1.55H93.55l.21-.76c.1-.38.18-.72.24-1a3.89,3.89,0,0,0,.09-.53.12.12,0,0,0,0-.09.08.08,0,0,0-.07,0l0,0-.07,0-.28.17-.12-.19L94.64,76a1.25,1.25,0,0,1,.27-.15.68.68,0,0,1,.23,0,.21.21,0,0,1,.17.07.21.21,0,0,1,.06.16v.08Z" />
  <path d="M101.06,71.56h7v1.35h-7Zm0,2.62h7v1.35h-7Z" />
  <path
    d="M112.3,70.52l-1.2,5.8.52.12.46.08-.09.66-.8-.07c-.24,0-.46,0-.65,0s-.42,0-.67,0l-.76.07.12-.66.51-.12.46-.08,1.57-6.69-.18-.3-.39-.07-.42-.08.18-.67,1,.1q.48,0,1.08,0c.38,0,.72,0,1,0l1-.1,0,.67-.47.09c-.16,0-.34,0-.53.06L117,74.72l1.12-5.39-.45,0-.64-.1.12-.67h0c.69.08,1.15.13,1.4.13s.6,0,1.2-.11l.19,0-.1.67-.41.09c-.15,0-.32,0-.5.06l-1.85,7.94h-.93Z" />
  <path
    d="M122.67,72.54l-.44,1.63c-.17.61-.28,1-.33,1.25a2,2,0,0,0-.08.41.18.18,0,0,0,.19.2.62.62,0,0,0,.19-.06l.29-.17.21-.13.17.32a9.7,9.7,0,0,1-1.52.9,2.85,2.85,0,0,1-1.12.33.52.52,0,0,1-.38-.12.45.45,0,0,1-.13-.36,3,3,0,0,1,.12-.62v-.05l.65-2.42a2.07,2.07,0,0,0,.07-.45.25.25,0,0,0,0-.16.18.18,0,0,0-.13-.06.16.16,0,0,0-.09,0,.3.3,0,0,0-.11.06l-.48.27L119.5,73l1.78-1.17a4.9,4.9,0,0,1,.64-.37,1.05,1.05,0,0,1,.4-.11.5.5,0,0,1,.35.12.48.48,0,0,1,.12.35,1.8,1.8,0,0,1,0,.31A3.56,3.56,0,0,1,122.67,72.54Zm.28-4.38a.79.79,0,0,1,.58.21.74.74,0,0,1,.22.57,1.27,1.27,0,0,1-.4.93,1.31,1.31,0,0,1-1,.4.85.85,0,0,1-.61-.21.75.75,0,0,1-.23-.57,1.31,1.31,0,0,1,.4-.95A1.41,1.41,0,0,1,123,68.16Z" />
  <polyline points="329.92 115.72 329.92 138.4 56.09 138.4 56.09 95.88"
    style="fill:none;stroke:#000;stroke-miterlimit:10;stroke-width:1.5px" />
  <polyline points="56.09 53.36 56.09 10.84 112.41 10.84 329.92 10.84 329.92 33.51"
    style="fill:none;stroke:#000;stroke-miterlimit:10;stroke-width:1.5px" />
  <rect x="326.14"
    y="33.51"
    width="7.56"
    height="22.68"
    style="fill:none;stroke:#000;stroke-miterlimit:10;stroke-width:1.5px" />
  <rect x="326.14"
    y="93.04"
    width="7.56"
    height="22.68"
    style="fill:none;stroke:#000;stroke-miterlimit:10;stroke-width:1.5px" />
  <path
    d="M190.68,38.58a3.29,3.29,0,0,1-2.33-.77,2.11,2.11,0,0,1-.53-2,3.29,3.29,0,0,1,1.25-2,5,5,0,0,1,2.68-.94l.44-2.41h1l-.44,2.41a3.43,3.43,0,0,1,2.34.82,2.09,2.09,0,0,1,.51,2,3.27,3.27,0,0,1-1.29,2.08,4.73,4.73,0,0,1-2.63.89L191.26,41h-1Zm.09-.47.89-4.83A2.82,2.82,0,0,0,189,35.75a2,2,0,0,0,.3,1.61A2,2,0,0,0,190.77,38.11Zm1,0a3,3,0,0,0,1.76-.74,2.89,2.89,0,0,0,.88-1.66,2.15,2.15,0,0,0-.26-1.68,2,2,0,0,0-1.49-.75Z" />
  <line x1="174.99"
    y1="21.07"
    x2="205.71"
    y2="21.07"
    style="fill:none;stroke:#000;stroke-miterlimit:10" />
  <polygon points="204.52 22.82 211.03 21.07 204.52 19.33 204.52 22.82" />
  <path
    d="M304.33,43.2l1.38,2.74a2.09,2.09,0,0,0,.48.66,1.1,1.1,0,0,0,.56.28v.49l-.56.07a5.15,5.15,0,0,1-.55,0,2.34,2.34,0,0,1-1.29-.3,3.53,3.53,0,0,1-1-1.4l-1.09-2.33H302l-.7,3.18.48.09.49.1-.1.63-1.2-.1-1,0-.83,0-1,.09.15-.66.42-.07.41-.08c.26-1,.52-2,.79-3.17s.55-2.43.85-3.87l-.44-.08-.52-.12.13-.62.89.06.71,0c.3,0,.69,0,1.19,0s.83,0,1,0a3.56,3.56,0,0,1,2.07.5,1.72,1.72,0,0,1,.71,1.49,2.16,2.16,0,0,1-.61,1.51A3.3,3.3,0,0,1,304.33,43.2Zm-2.16-.57h.24a2.08,2.08,0,0,0,1.48-.51,1.71,1.71,0,0,0,.55-1.35,1.37,1.37,0,0,0-.28-.94,1.18,1.18,0,0,0-.89-.3h-.14l-.23,0Z" />
  <path
    d="M309.2,46.42l-.23,1,.11-.1c.94-.89,1.53-1.33,1.76-1.33a.23.23,0,0,1,.21.11.49.49,0,0,1,.08.28,5,5,0,0,1-.18.8c0,.1-.06.18-.07.24,1-1,1.65-1.43,1.91-1.43a.33.33,0,0,1,.26.11.53.53,0,0,1,.09.32,1.62,1.62,0,0,1-.07.38c-.05.18-.14.46-.26.82l0,.06a5.17,5.17,0,0,0-.26.91.12.12,0,0,0,0,.09s0,0,.08,0a.94.94,0,0,0,.28-.14l.12-.07.1.19a5.66,5.66,0,0,1-.89.52,1.64,1.64,0,0,1-.66.19.29.29,0,0,1-.22-.08.28.28,0,0,1-.07-.21.38.38,0,0,1,0-.1.35.35,0,0,1,0-.12l.43-1.57a.49.49,0,0,0,0-.12s0,0,0-.06a.09.09,0,0,0,0-.07l0,0a.77.77,0,0,0-.28.17c-.15.12-.36.31-.65.58l-.34,1.54h-1.14l.49-2a.74.74,0,0,0,0-.12.18.18,0,0,0,0-.06.14.14,0,0,0,0-.07s0,0-.06,0a.83.83,0,0,0-.27.19c-.15.12-.35.3-.59.53l-.35,1.54h-1.14l.21-.76q.15-.57.24-1a4.16,4.16,0,0,0,.09-.53.12.12,0,0,0,0-.09.08.08,0,0,0-.07,0l-.05,0a.11.11,0,0,0-.07,0l-.28.16-.12-.19,1.17-.77.27-.15a.66.66,0,0,1,.23,0,.24.24,0,0,1,.17.06.25.25,0,0,1,.06.17v.07Z" />
  <path
    d="M316.63,46.16l-.5.75a2.81,2.81,0,0,0-.47-.3.65.65,0,0,0-.29-.07q-.28,0-.54.45a2.13,2.13,0,0,0-.24,1,.8.8,0,0,0,.18.56.66.66,0,0,0,.51.19,1.29,1.29,0,0,0,.45-.09,2.13,2.13,0,0,0,.5-.25l.13.19a3.9,3.9,0,0,1-.9.63,1.89,1.89,0,0,1-.86.22,1.06,1.06,0,0,1-.82-.31,1.18,1.18,0,0,1-.3-.86,2.19,2.19,0,0,1,.69-1.62,2.38,2.38,0,0,1,1.71-.67,1.72,1.72,0,0,1,.39,0A1.9,1.9,0,0,1,316.63,46.16Z" />
  <path
    d="M304.33,102.73l1.38,2.74a2.17,2.17,0,0,0,.48.66,1.1,1.1,0,0,0,.56.28v.49l-.56.07-.55,0a2.32,2.32,0,0,1-1.29-.3,3.61,3.61,0,0,1-1-1.4L302.28,103H302l-.69,3.18.48.08.49.1-.1.64c-.44,0-.84-.08-1.2-.1l-1,0-.83,0-1,.09.14-.66.43-.07.41-.08c.26-1,.52-2,.79-3.18s.55-2.42.85-3.86l-.44-.09-.52-.12.13-.62.89.06.7,0c.31,0,.7,0,1.19,0l1,0a3.55,3.55,0,0,1,2.07.51,1.72,1.72,0,0,1,.71,1.49,2.22,2.22,0,0,1-.61,1.51A3.3,3.3,0,0,1,304.33,102.73Zm-2.17-.57h.25a2.08,2.08,0,0,0,1.48-.51,1.71,1.71,0,0,0,.55-1.35,1.32,1.32,0,0,0-.29-.94,1.16,1.16,0,0,0-.88-.31h-.14l-.23,0Z" />
  <path
    d="M309.2,105.94l-.23,1,.11-.1c.94-.89,1.53-1.34,1.76-1.34a.25.25,0,0,1,.21.12.47.47,0,0,1,.08.28,4.18,4.18,0,0,1-.19.79c0,.11-.05.19-.06.25,1-1,1.65-1.44,1.91-1.44a.31.31,0,0,1,.26.12.51.51,0,0,1,.09.32,1.71,1.71,0,0,1-.07.38c-.05.18-.14.46-.26.82l0,.06a5.17,5.17,0,0,0-.26.91.11.11,0,0,0,0,.08.1.1,0,0,0,.09,0,1.07,1.07,0,0,0,.28-.14L313,108l.1.18a5.07,5.07,0,0,1-.89.53,1.88,1.88,0,0,1-.66.19.26.26,0,0,1-.29-.3.31.31,0,0,1,0-.09.27.27,0,0,1,0-.12l.43-1.57a.49.49,0,0,0,0-.12v-.06a.08.08,0,0,0,0-.07s0,0,0,0-.14.06-.28.17-.36.31-.65.57l-.34,1.55h-1.15l.5-2a.74.74,0,0,0,0-.12.18.18,0,0,0,0-.06.14.14,0,0,0,0-.07.06.06,0,0,0-.06,0,1.08,1.08,0,0,0-.27.19l-.6.53-.34,1.55h-1.14l.21-.76c.1-.38.18-.71.24-1a3.65,3.65,0,0,0,.09-.53.16.16,0,0,0,0-.09.09.09,0,0,0-.07,0h-.06l-.06,0-.28.16-.12-.19,1.17-.77a1.25,1.25,0,0,1,.27-.15.68.68,0,0,1,.23,0,.26.26,0,0,1,.17.07.24.24,0,0,1,.06.17.23.23,0,0,1,0,.07A.43.43,0,0,1,309.2,105.94Z" />
  <path
    d="M316.18,105.86l.07-.25h1l-.52,2.11,0,.17a.71.71,0,0,0,0,.14.32.32,0,0,0,0,.16.13.13,0,0,0,.11,0,.34.34,0,0,0,.15,0l.25-.16.13.19a5.78,5.78,0,0,1-.9.57,1.32,1.32,0,0,1-.59.19.31.31,0,0,1-.25-.11.49.49,0,0,1-.09-.3,1.75,1.75,0,0,1,.05-.42c0-.16.1-.4.19-.71a5.06,5.06,0,0,1-1,1.12,1.44,1.44,0,0,1-.86.42.48.48,0,0,1-.39-.17.72.72,0,0,1-.14-.48,2.26,2.26,0,0,1,.17-.81,3.39,3.39,0,0,1,.46-.86,3.46,3.46,0,0,1,.82-.84,1.47,1.47,0,0,1,.8-.31.59.59,0,0,1,.32.09A.67.67,0,0,1,316.18,105.86Zm-.22.7,0-.14a.74.74,0,0,0,0-.12.28.28,0,0,0-.11-.21.51.51,0,0,0-.28-.08.56.56,0,0,0-.35.13,1.17,1.17,0,0,0-.29.41,4.12,4.12,0,0,0-.27.69,2.2,2.2,0,0,0-.1.56.3.3,0,0,0,0,.18.15.15,0,0,0,.13.06c.15,0,.34-.13.58-.39a2.94,2.94,0,0,0,.54-1Z" />
  <path d="M56.09,53.36A21.26,21.26,0,1,1,34.83,74.62,21.2,21.2,0,0,1,56.09,53.36"
    style="fill:none;stroke:#000;stroke-miterlimit:10;stroke-width:1.5px" />
  <path d="M55.39,59.66h1.4v2.9h2.82v1.35H56.79v2.91h-1.4V63.91H52.57V62.56h2.82Z" />
  <polyline points="59.6 89.57 52.58 89.57 52.58 88.22 59.6 88.22" />
  <line x1="329.92"
    y1="56.19"
    x2="329.92"
    y2="93.04"
    style="fill:none;stroke:#000;stroke-miterlimit:10;stroke-width:1.5px" />
</svg>
