<svg xmlns="http://www.w3.org/2000/svg"
  viewBox="0 0 368.5 311.81"
  width="368.5"
  height="311.81"
  class="w-100 h-auto my-3">
  <title>F<sub>m</sub>-φ 曲线</title>
  <polyline points="329.06 285.02 52.76 285.02 52.76 14.29"
    style="fill:none;stroke:#000;stroke-miterlimit:10;stroke-width:2px" />
  <polygon points="325.69 280.57 327.58 285.02 325.69 289.46 336.23 285.02 325.69 280.57" />
  <polygon points="57.21 17.66 52.76 15.77 48.32 17.66 52.76 7.12 57.21 17.66" />
  <path
    d="M53.17,283.84a27.56,27.56,0,0,0,7.72-4.9c4-3.65,6-7.67,11.25-20.36,2.76-6.62,4.14-9.94,4.67-11.35,10.17-27.33,14.24-40,14.24-40,13.72-42.62,12-42.68,18-56.51,6.92-16.12,10.34-24.77,18.47-34.21,8-9.25,17.44-18.53,35.72-24.87C179.32,86.08,204.68,77.24,278,69.25c20.06-2.19,36.71-2.26,47.83-2.6"
    style="fill:none;stroke:#000;stroke-miterlimit:10;stroke-width:2px" />
  <path
    d="M36.16,21.74A2.82,2.82,0,0,1,35,20.9a2.58,2.58,0,0,1-.57-1.29,5.15,5.15,0,0,1,0-1.74A5.45,5.45,0,0,1,35,16.18a4.64,4.64,0,0,1,1-1.32,5.26,5.26,0,0,1,1.51-.9,6.81,6.81,0,0,1,2-.41l.59-3.4a.34.34,0,0,1,.06-.12A.32.32,0,0,1,40.3,10a1.09,1.09,0,0,1,.23-.06h.69a.67.67,0,0,1,.21.06.21.21,0,0,1,.1.08.17.17,0,0,1,0,.12l-.6,3.4a5.76,5.76,0,0,1,1.86.35,2.92,2.92,0,0,1,1.21.84A2.62,2.62,0,0,1,44.57,16a5.15,5.15,0,0,1,0,1.74,5.77,5.77,0,0,1-.57,1.7,4.86,4.86,0,0,1-1.05,1.32,5,5,0,0,1-1.51.89,6.62,6.62,0,0,1-2,.42L39,24.81a.34.34,0,0,1-.06.12.48.48,0,0,1-.13.09.9.9,0,0,1-.22.05l-.35,0-.34,0a1,1,0,0,1-.22-.05.3.3,0,0,1-.1-.09.25.25,0,0,1,0-.12L38,22.1A6,6,0,0,1,36.16,21.74Zm3.17-7A5.06,5.06,0,0,0,38,15a3,3,0,0,0-1.69,1.51,5.09,5.09,0,0,0-.48,2.5,2,2,0,0,0,.29,1,1.87,1.87,0,0,0,.77.66,3.46,3.46,0,0,0,1.32.31Zm1.6,5.94a3,3,0,0,0,1-.58,3,3,0,0,0,.71-.92A5,5,0,0,0,43,17.87a4.74,4.74,0,0,0,.07-1.22,1.88,1.88,0,0,0-.3-1,1.79,1.79,0,0,0-.76-.67,3.29,3.29,0,0,0-1.31-.3l-1.1,6.21A4.9,4.9,0,0,0,40.93,20.66Z"
    style="stroke:#000;stroke-miterlimit:10;stroke-width:0.25px" />
  <path
    d="M335,294.61a1.63,1.63,0,0,1-.07.28.53.53,0,0,1-.09.2.6.6,0,0,1-.12.11.27.27,0,0,1-.12,0H330.5l-.67,3.81h3.88a.2.2,0,0,1,.11,0,.16.16,0,0,1,.08.1.5.5,0,0,1,0,.19,1.89,1.89,0,0,1,0,.29c0,.11,0,.21-.07.29a.85.85,0,0,1-.1.19.38.38,0,0,1-.11.11.24.24,0,0,1-.13,0h-3.88l-.82,4.66a.31.31,0,0,1-.05.12.28.28,0,0,1-.14.09l-.23.05-.37,0-.35,0-.23-.05a.15.15,0,0,1-.1-.09.25.25,0,0,1,0-.12l1.83-10.37a.7.7,0,0,1,.26-.47.73.73,0,0,1,.4-.13h5a.2.2,0,0,1,.11,0,.28.28,0,0,1,.08.12.53.53,0,0,1,0,.2C335,294.4,335,294.5,335,294.61Z"
    style="stroke:#000;stroke-miterlimit:10;stroke-width:0.25px" />
  <path
    d="M341.28,306l0,.07-.08.05-.13,0h-.41l-.12,0s-.05,0-.06-.05a.08.08,0,0,1,0-.07l.49-2.76a3.37,3.37,0,0,0,0-.52,1.18,1.18,0,0,0-.09-.41.63.63,0,0,0-.24-.27.74.74,0,0,0-.38-.09,1.11,1.11,0,0,0-.62.23,4.82,4.82,0,0,0-.76.65l-.55,3.17a.16.16,0,0,1,0,.07s0,0-.07.05l-.14,0h-.4l-.12,0s-.05,0-.06-.05a.15.15,0,0,1,0-.07l.49-2.76a3.37,3.37,0,0,0,0-.52,1,1,0,0,0-.1-.41.61.61,0,0,0-.23-.27.75.75,0,0,0-.39-.09,1.14,1.14,0,0,0-.62.23,4.4,4.4,0,0,0-.75.65l-.56,3.17a.09.09,0,0,1,0,.07l-.07.05-.14,0h-.4l-.13,0s-.05,0-.05-.05a.15.15,0,0,1,0-.07l.8-4.54,0-.07s0,0,.07-.05l.12,0h.37l.11,0s0,0,0,.05a.08.08,0,0,1,0,.07l-.1.6a3.85,3.85,0,0,1,.85-.63,1.77,1.77,0,0,1,.77-.2,1.45,1.45,0,0,1,.49.07,1.06,1.06,0,0,1,.37.18,1,1,0,0,1,.24.29,1.29,1.29,0,0,1,.14.36l.5-.42a5.12,5.12,0,0,1,.44-.28,1.8,1.8,0,0,1,.4-.15,1.57,1.57,0,0,1,.37-.05,1.36,1.36,0,0,1,.71.16,1,1,0,0,1,.41.41,1.4,1.4,0,0,1,.15.6,3.09,3.09,0,0,1-.05.73Z"
    style="stroke:#000;stroke-miterlimit:10;stroke-width:0.25px" />
</svg>
