<svg xmlns="http://www.w3.org/2000/svg"
  viewBox="0 0 368.5 311.81"
  width="368.5"
  height="311.81"
  class="w-100 h-auto my-3">
  <title>H-B 曲线</title>
  <polyline points="329.06 285.02 52.76 285.02 52.76 14.29"
    style="fill:none;stroke:#000;stroke-miterlimit:10;stroke-width:2px" />
  <polygon points="325.69 280.57 327.58 285.02 325.69 289.46 336.23 285.02 325.69 280.57" />
  <polygon points="57.21 17.66 52.76 15.77 48.32 17.66 52.76 7.12 57.21 17.66" />
  <path
    d="M53.17,283.84a27.56,27.56,0,0,0,7.72-4.9c4-3.65,6-7.67,11.25-20.36,2.76-6.62,4.14-9.94,4.67-11.35,10.17-27.33,14.24-40,14.24-40,13.72-42.62,12-42.68,18-56.51,6.92-16.12,10.34-24.77,18.47-34.21,8-9.25,17.44-18.53,35.72-24.87C179.32,86.08,204.68,77.24,278,69.25c20.06-2.19,36.71-2.26,47.83-2.6"
    style="fill:none;stroke:#000;stroke-miterlimit:10;stroke-width:2px" />
  <path
    d="M42.42,18.72a3.41,3.41,0,0,1-.31,1,3.89,3.89,0,0,1-.51.8,4.14,4.14,0,0,1-.7.62,4,4,0,0,1-.85.45,5,5,0,0,1-1,.27,6.59,6.59,0,0,1-1.14.09H35a.52.52,0,0,1-.36-.13.49.49,0,0,1-.09-.47l1.76-10a.7.7,0,0,1,.26-.47.72.72,0,0,1,.4-.14h2.54a5.48,5.48,0,0,1,1.62.2,2.35,2.35,0,0,1,1,.55,1.8,1.8,0,0,1,.48.89,2.79,2.79,0,0,1,0,1.19,3.42,3.42,0,0,1-.23.77A3.49,3.49,0,0,1,42,15a3.24,3.24,0,0,1-.56.55,3.59,3.59,0,0,1-.72.4,2.16,2.16,0,0,1,.8.31,2,2,0,0,1,.6.59,2.28,2.28,0,0,1,.32.83A2.81,2.81,0,0,1,42.42,18.72Zm-1.58.09a2,2,0,0,0,0-.88,1.22,1.22,0,0,0-.35-.64,1.59,1.59,0,0,0-.7-.4,4,4,0,0,0-1.14-.13H36.86l-.69,3.95h2.16a2.86,2.86,0,0,0,.91-.13,2.59,2.59,0,0,0,.73-.35,2.14,2.14,0,0,0,.56-.6A2.3,2.3,0,0,0,40.84,18.81Zm.22-5.1a2,2,0,0,0,0-.73,1.08,1.08,0,0,0-.26-.56,1.25,1.25,0,0,0-.56-.35,3.39,3.39,0,0,0-1-.12H37.71l-.64,3.62h1.7a2.59,2.59,0,0,0,.95-.15,2.15,2.15,0,0,0,.66-.4,1.89,1.89,0,0,0,.45-.6A2.68,2.68,0,0,0,41.06,13.71Z"
    style="stroke:#000;stroke-miterlimit:10;stroke-width:0.25px" />
  <path
    d="M335.37,304.94a.33.33,0,0,1-.05.12.28.28,0,0,1-.14.09l-.24.05-.35,0-.36,0-.22-.05a.2.2,0,0,1-.11-.09.23.23,0,0,1,0-.12l.88-5h-5.1l-.88,5a.22.22,0,0,1-.05.12.28.28,0,0,1-.14.09l-.24.05-.36,0-.35,0-.23-.05a.15.15,0,0,1-.1-.09.16.16,0,0,1,0-.12l1.9-10.75a.34.34,0,0,1,.06-.12.26.26,0,0,1,.13-.08,1.11,1.11,0,0,1,.24-.05,2,2,0,0,1,.36,0,1.84,1.84,0,0,1,.36,0,1,1,0,0,1,.22.05.24.24,0,0,1,.11.08.25.25,0,0,1,0,.12l-.79,4.49H335l.8-4.49a.21.21,0,0,1,0-.12A.37.37,0,0,1,336,294l.23-.05a2,2,0,0,1,.37,0,1.83,1.83,0,0,1,.35,0,1,1,0,0,1,.22.05.17.17,0,0,1,.1.08.25.25,0,0,1,0,.12Z"
    style="stroke:#000;stroke-miterlimit:10;stroke-width:0.25px" />
</svg>
