<svg xmlns="http://www.w3.org/2000/svg"
  viewBox="0 0 368.5 311.81"
  width="368.5"
  height="311.81"
  class="w-100 h-auto my-3">
  <title>H-μ 曲线</title>
  <polyline points="329.06 285.02 52.76 285.02 52.76 14.29"
    style="fill:none;stroke:#000;stroke-miterlimit:10;stroke-width:2px" />
  <polygon points="325.69 280.57 327.58 285.02 325.69 289.46 336.23 285.02 325.69 280.57" />
  <polygon points="57.21 17.66 52.76 15.77 48.32 17.66 52.76 7.12 57.21 17.66" />
  <path
    d="M42.65,21.28a1.76,1.76,0,0,1-.1.4.36.36,0,0,1-.12.19.69.69,0,0,1-.17.1L42,22l-.29,0a2.14,2.14,0,0,1-1.42-.3,1.31,1.31,0,0,1-.38-1.06,5.71,5.71,0,0,1-1.44,1,3.11,3.11,0,0,1-1.29.31,2.63,2.63,0,0,1-.88-.13,1.16,1.16,0,0,1-.59-.48c0,.13,0,.26,0,.41s0,.3,0,.45a3.62,3.62,0,0,1-.06.46c0,.15,0,.28-.06.41l-.29,1.63a.34.34,0,0,1-.06.12A.48.48,0,0,1,35,25a.9.9,0,0,1-.22.05l-.36,0-.34,0a.81.81,0,0,1-.21-.05.22.22,0,0,1-.1-.09.17.17,0,0,1,0-.12l1.92-10.88a.22.22,0,0,1,.05-.12.48.48,0,0,1,.13-.09,1,1,0,0,1,.23-.05h.7a.81.81,0,0,1,.21.05l.09.09a.16.16,0,0,1,0,.12l-.87,4.9a2.16,2.16,0,0,0,.16,1.5,1.24,1.24,0,0,0,1.14.53,2.06,2.06,0,0,0,1.13-.38A7.85,7.85,0,0,0,40,19.37l1-5.44a.22.22,0,0,1,0-.12.48.48,0,0,1,.13-.09,1,1,0,0,1,.23-.05h.7a.64.64,0,0,1,.2.05.3.3,0,0,1,.1.09.22.22,0,0,1,0,.12l-1,5.66a4,4,0,0,0-.07.6,1.06,1.06,0,0,0,0,.39.35.35,0,0,0,.17.22.67.67,0,0,0,.33.07l.25,0,.18,0,.14,0h.12a.07.07,0,0,1,.06,0s0,0,0,.07a.38.38,0,0,1,0,.15A1.76,1.76,0,0,1,42.65,21.28Z"
    style="stroke:#000;stroke-miterlimit:10;stroke-width:0.25px" />
  <path
    d="M335.37,304.94a.33.33,0,0,1-.05.12.28.28,0,0,1-.14.09l-.24.05-.35,0-.36,0-.22-.05a.2.2,0,0,1-.11-.09.23.23,0,0,1,0-.12l.88-5h-5.1l-.88,5a.22.22,0,0,1-.05.12.28.28,0,0,1-.14.09l-.24.05-.36,0-.35,0-.23-.05a.15.15,0,0,1-.1-.09.22.22,0,0,1,0-.12l1.9-10.75a.34.34,0,0,1,.06-.12.26.26,0,0,1,.13-.08,1.11,1.11,0,0,1,.24-.05,1.94,1.94,0,0,1,.36,0,1.84,1.84,0,0,1,.36,0,1,1,0,0,1,.22.05.24.24,0,0,1,.11.08.25.25,0,0,1,0,.12l-.79,4.49H335l.79-4.49a.21.21,0,0,1,0-.12A.37.37,0,0,1,336,294l.23-.05a2,2,0,0,1,.37,0,1.83,1.83,0,0,1,.35,0,1,1,0,0,1,.22.05.17.17,0,0,1,.1.08.25.25,0,0,1,0,.12Z"
    style="stroke:#000;stroke-miterlimit:10;stroke-width:0.25px" />
  <path d="M53.17,110.1c19.51-50.12,36-63.19,53.68-63.19,32.71,0,54,45.16,110.64,109.09,62.29,70.28,78.3,76.57,108.3,91.82"
    style="fill:none;stroke:#000;stroke-miterlimit:10;stroke-width:2px" />
</svg>
