<svg xmlns="http://www.w3.org/2000/svg"
  viewBox="0 0 481.89 354.33" width="481.89" height="354.33" class="w-100 h-auto my-3">
  <title>磁滞回线的面积变化</title>
  <line x1="248.41"
    y1="347.24"
    x2="248.41"
    y2="10.67"
    style="fill:none;stroke:#000;stroke-miterlimit:10" />
  <polygon points="250.63 12.35 248.41 11.41 246.19 12.35 248.41 7.09 250.63 12.35" />
  <line x1="464.08"
    y1="177.17"
    x2="14.17"
    y2="177.17"
    style="fill:none;stroke:#000;stroke-miterlimit:10;stroke-width:1.01655684416174px" />
  <polygon points="462.36 174.91 463.32 177.16 462.36 179.42 467.72 177.16 462.36 174.91" />
  <path
    d="M463.05,197.39a.26.26,0,0,1-.22.23,1,1,0,0,1-.28.06,2.46,2.46,0,0,1-.41,0,2.26,2.26,0,0,1-.42,0,.83.83,0,0,1-.26-.06.19.19,0,0,1-.12-.09.22.22,0,0,1,0-.14l1-5.8h-6l-1,5.8a.37.37,0,0,1-.07.14.31.31,0,0,1-.16.09.9.9,0,0,1-.28.06,2.42,2.42,0,0,1-.42,0,2.37,2.37,0,0,1-.41,0,.77.77,0,0,1-.26-.06.17.17,0,0,1-.14-.23l2.21-12.55a.27.27,0,0,1,.07-.14.27.27,0,0,1,.15-.09,1.05,1.05,0,0,1,.29-.06,2.5,2.5,0,0,1,.42,0,2.37,2.37,0,0,1,.41,0,.83.83,0,0,1,.26.06.19.19,0,0,1,.12.09.22.22,0,0,1,0,.14l-.93,5.23h5.95l.93-5.23a.25.25,0,0,1,.06-.14.35.35,0,0,1,.16-.09.9.9,0,0,1,.27-.06,2.54,2.54,0,0,1,.43,0,2.37,2.37,0,0,1,.41,0,.76.76,0,0,1,.25.06.19.19,0,0,1,.13.09.22.22,0,0,1,0,.14Z" />
  <path
    d="M266.89,20.47a4.47,4.47,0,0,1-.36,1.14,4.37,4.37,0,0,1-.6.93,4.32,4.32,0,0,1-.81.73,5,5,0,0,1-1,.53,5.78,5.78,0,0,1-1.12.31,6.75,6.75,0,0,1-1.33.11h-3.41a.57.57,0,0,1-.41-.16c-.12-.1-.16-.28-.11-.55l2.05-11.65a.79.79,0,0,1,.31-.55.85.85,0,0,1,.46-.16h3a6.36,6.36,0,0,1,1.88.23,2.64,2.64,0,0,1,1.13.64,2.06,2.06,0,0,1,.57,1,3.45,3.45,0,0,1,0,1.4,3.74,3.74,0,0,1-.27.88,3.36,3.36,0,0,1-1.12,1.43,3.41,3.41,0,0,1-.84.46,2.68,2.68,0,0,1,.94.37,2.35,2.35,0,0,1,.69.68,2.7,2.7,0,0,1,.38,1A3.58,3.58,0,0,1,266.89,20.47Zm-1.85.11a2.59,2.59,0,0,0,0-1,1.56,1.56,0,0,0-.42-.74,1.88,1.88,0,0,0-.81-.46,4.47,4.47,0,0,0-1.33-.16H260.4l-.81,4.61h2.52a3.78,3.78,0,0,0,1.06-.14,3.13,3.13,0,0,0,.86-.42,2.56,2.56,0,0,0,.65-.7A2.41,2.41,0,0,0,265,20.58Zm.26-5.95a2.51,2.51,0,0,0,0-.86,1.23,1.23,0,0,0-.3-.65,1.36,1.36,0,0,0-.66-.41,3.73,3.73,0,0,0-1.17-.14h-1.8l-.74,4.23h2a3,3,0,0,0,1.12-.18,2.49,2.49,0,0,0,.77-.47,2.24,2.24,0,0,0,.52-.7A3.15,3.15,0,0,0,265.3,14.63Z" />
  <path d="M371.23,48.5l-2.87.88"
    style="fill:none;stroke:#000;stroke-miterlimit:10;stroke-width:2px" />
  <path d="M362.73,51.18c-46.15,15.3-69.24,36.33-81.42,54.07-6.27,9.15-24,50.56-32.72,72-22.07,54.25-28.75,64.22-35.55,74.14-12.71,18.53-26.79,34.85-73.35,49.06"
    style="fill:none;stroke:#000;stroke-miterlimit:10;stroke-width:2px;stroke-dasharray:5.904484272003174,5.904484272003174" />
  <path d="M136.86,301.3l-2.88.83"
    style="fill:none;stroke:#000;stroke-miterlimit:10;stroke-width:2px" />
  <path d="M261.39,150.54c-.28-1.19-.56-2.17-.79-2.89-.66.43-1.5,1-2.45,1.71"
    style="fill:none;stroke:#000;stroke-linecap:round;stroke-linejoin:round;stroke-width:2px" />
  <path d="M253.23,153.48A52.8,52.8,0,0,0,236.86,197"
    style="fill:none;stroke:#000;stroke-linecap:round;stroke-linejoin:round;stroke-width:2px;stroke-dasharray:6.419045925140381,6.419045925140381" />
  <path d="M237.25,200.21c.18,1.2.38,2.19.54,2.95.61-.33,1.55-.7,2.73-1.23"
    style="fill:none;stroke:#000;stroke-linecap:round;stroke-linejoin:round;stroke-width:2px" />
  <path d="M246.26,198.62c4.74-3.45,10.29-9.64,14-21.45A51,51,0,0,0,262,153.8"
    style="fill:none;stroke:#000;stroke-linecap:round;stroke-linejoin:round;stroke-width:2px;stroke-dasharray:6.62796688079834,6.62796688079834" />
  <path
    d="M280.25,106.92c-17,1.53-25.07,9.2-32.49,20.24-12.94,19.25-18.07,51.66-21.15,76.56-2.21,17.88-6.82,32.37-9.34,41.29,18.81,0,29.17-8.22,34.89-21.69,13-30.46,14.46-43.26,19.15-69.1C275.12,133.25,278.79,116.94,280.25,106.92Z"
    style="fill:none;stroke:#000;stroke-linecap:round;stroke-linejoin:round;stroke-width:2px" />
  <path
    d="M371.23,48.5C285.4,55.62,258.14,78,236.63,101.92c-33.28,37-14.51,106.22-43.88,155.57-12.1,20.34-27.25,31.62-58.77,44.64,81.8-4.22,123.3-39,134.13-60.1,21.6-42.08,10.37-72.69,28.68-125.39C310.47,77.26,348,58.4,371.23,48.5Z"
    style="fill:none;stroke:#000;stroke-linecap:round;stroke-linejoin:round;stroke-width:2px" />
</svg>
