<svg xmlns="http://www.w3.org/2000/svg"
  viewBox="0 0 368.5 147.4"
  width="368.5"
  height="147.4"
  class="w-100 h-auto my-3">
  <title>一个简单的电路图</title><text transform="translate(18.16 78.16)"
    style="font-size:12px;font-family:SchneidlerBT-BlackItalic, Schneidler Blk BT;font-weight:800;font-style:italic">V</text>
  <polyline points="329.92 95.88 329.92 138.4 56.09 138.4 56.09 95.88"
    style="fill:none;stroke:#000;stroke-miterlimit:10;stroke-width:1.5px" />
  <polyline points="56.09 53.36 56.09 10.84 112.41 10.84 329.92 10.84 329.92 53.36"
    style="fill:none;stroke:#000;stroke-miterlimit:10;stroke-width:1.5px" />
  <rect x="322.84"
    y="53.36"
    width="14.17"
    height="42.52"
    style="fill:none;stroke:#000;stroke-miterlimit:10;stroke-width:1.50080527142421px" /><text transform="translate(190.42 38.47)"
    style="font-size:12px;font-family:SchneidlerBT-BlackItalic, Schneidler Blk BT;font-weight:800;font-style:italic">I</text>
  <line x1="174.99"
    y1="21.07"
    x2="205.71"
    y2="21.07"
    style="fill:none;stroke:#000;stroke-miterlimit:10" />
  <polygon points="204.52 22.82 211.03 21.07 204.52 19.33 204.52 22.82" /><text transform="translate(344.5 78.12)"
    style="font-size:12px;font-family:SchneidlerBT-BlackItalic, Schneidler Blk BT;font-weight:800;font-style:italic">R</text>
  <path d="M56.09,53.36A21.26,21.26,0,1,1,34.83,74.62,21.2,21.2,0,0,1,56.09,53.36"
    style="fill:none;stroke:#000;stroke-miterlimit:10;stroke-width:1.5px" />
  <path d="M55.39,59.66h1.4v2.9h2.82v1.35H56.79v2.91h-1.4V63.91H52.57V62.56h2.82Z" />
  <polyline points="59.6 89.57 52.58 89.57 52.58 88.22 59.6 88.22" />
</svg>
