<svg xmlns="http://www.w3.org/2000/svg"
  viewBox="0 0 368.5 311.81"
  width="368.5"
  height="311.81"
  class="w-100 h-auto my-3">
  <title>磁化曲线上的分区和膝点</title>
  <polyline points="329.06 285.02 52.76 285.02 52.76 14.29"
    style="fill:none;stroke:#000;stroke-miterlimit:10;stroke-width:2px" />
  <polygon points="325.69 280.57 327.58 285.02 325.69 289.46 336.23 285.02 325.69 280.57" />
  <polygon points="57.21 17.66 52.76 15.77 48.32 17.66 52.76 7.12 57.21 17.66" />
  <path
    d="M53.17,283.84a27.56,27.56,0,0,0,7.72-4.9c4-3.65,6-7.67,11.25-20.36,2.76-6.62,4.14-9.94,4.67-11.35,10.17-27.33,14.24-40,14.24-40,13.72-42.62,12-42.68,18-56.51,6.92-16.12,10.34-24.77,18.47-34.21,8-9.25,17.44-18.53,35.72-24.87C179.32,86.08,204.68,77.24,278,69.25c20.06-2.19,36.71-2.26,47.83-2.6"
    style="fill:none;stroke:#000;stroke-miterlimit:10;stroke-width:2px" />
  <path
    d="M42.42,18.72a3.41,3.41,0,0,1-.31,1,3.89,3.89,0,0,1-.51.8,3.75,3.75,0,0,1-.7.62,4,4,0,0,1-.85.45,5,5,0,0,1-1,.27,5.69,5.69,0,0,1-1.14.1H35a.52.52,0,0,1-.36-.14.49.49,0,0,1-.09-.47l1.76-10a.65.65,0,0,1,.66-.6h2.54a5.52,5.52,0,0,1,1.62.19,2.35,2.35,0,0,1,1,.55,1.8,1.8,0,0,1,.48.89,2.83,2.83,0,0,1,0,1.2A3.23,3.23,0,0,1,42,15a3.24,3.24,0,0,1-.56.55,3.59,3.59,0,0,1-.72.4,2.16,2.16,0,0,1,.8.31,2,2,0,0,1,.6.59,2.28,2.28,0,0,1,.32.83A2.81,2.81,0,0,1,42.42,18.72Zm-1.58.09a2,2,0,0,0,0-.88,1.29,1.29,0,0,0-.35-.64,1.59,1.59,0,0,0-.7-.4,4,4,0,0,0-1.14-.13H36.86l-.69,3.95h2.16a2.86,2.86,0,0,0,.91-.13,2.59,2.59,0,0,0,.73-.35,2.14,2.14,0,0,0,.56-.6A2.3,2.3,0,0,0,40.84,18.81Zm.22-5.1a2,2,0,0,0,0-.73,1.08,1.08,0,0,0-.26-.56,1.25,1.25,0,0,0-.56-.35,3.44,3.44,0,0,0-1-.12H37.71l-.64,3.62h1.69a2.61,2.61,0,0,0,1-.15,2.1,2.1,0,0,0,1.11-1A2.68,2.68,0,0,0,41.06,13.71Z"
    style="stroke:#000;stroke-miterlimit:10;stroke-width:0.25px" />
  <path
    d="M335.37,304.94a.23.23,0,0,1-.06.12.25.25,0,0,1-.13.09l-.24.05-.35,0-.37,0-.21-.05a.2.2,0,0,1-.11-.09.16.16,0,0,1,0-.12l.87-5h-5.09l-.88,5a.33.33,0,0,1-.05.12.28.28,0,0,1-.14.09l-.24.05-.36,0-.35,0-.23-.05a.15.15,0,0,1-.1-.09.16.16,0,0,1,0-.12l1.9-10.75a.31.31,0,0,1,.05-.12.37.37,0,0,1,.14-.08,1.11,1.11,0,0,1,.24-.05,3.25,3.25,0,0,1,.72,0,1,1,0,0,1,.22.05.17.17,0,0,1,.1.08.25.25,0,0,1,0,.12l-.79,4.49H335l.79-4.49a.34.34,0,0,1,.06-.12A.37.37,0,0,1,336,294l.23-.05a2,2,0,0,1,.37,0,1.67,1.67,0,0,1,.34,0,1,1,0,0,1,.23.05.21.21,0,0,1,.1.08.17.17,0,0,1,0,.12Z"
    style="stroke:#000;stroke-miterlimit:10;stroke-width:0.25px" />
  <path
    d="M72.46,154a.64.64,0,0,1-.42-.15.68.68,0,0,1-.25-.39.75.75,0,0,1,.12-.51.62.62,0,0,1,.42-.28l.44-.07a.9.9,0,0,0,.19-.08.27.27,0,0,0,.11-.17,1.63,1.63,0,0,0,.06-.35c0-.15,0-.37,0-.65v-3.47H71.88c0,.47,0,1-.06,1.46s-.07,1-.12,1.48-.1,1-.17,1.41-.13.85-.2,1.21a.71.71,0,0,1-.29.43.66.66,0,0,1-.51.09.62.62,0,0,1-.42-.28.74.74,0,0,1-.1-.53c.09-.42.16-.9.24-1.45s.12-1.13.17-1.72.07-1.19.1-1.78,0-1.12,0-1.62V139a1.13,1.13,0,0,1,.33-.81,1,1,0,0,1,.79-.34h1.74a1,1,0,0,1,.79.34,1.16,1.16,0,0,1,.31.81v12.35c0,.29,0,.56-.05.83a2.71,2.71,0,0,1-.17.72,1.72,1.72,0,0,1-.41.57,1.89,1.89,0,0,1-.75.38l-.08,0-.46.07Zm.7-14.76H71.9v3h1.26ZM71.9,146.5h1.26v-2.9H71.9Zm3.49.63A.65.65,0,0,1,75,147a.63.63,0,0,1-.25-.3.6.6,0,0,1,0-.51.72.72,0,0,1,.36-.37,6.1,6.1,0,0,0,1.79-1.11,17.14,17.14,0,0,0,1.24-1.32l.14-.16a.69.69,0,0,1,.43-.31h0a.7.7,0,0,1,.4.06.66.66,0,0,1,.3.27.8.8,0,0,1,.09.39,10.94,10.94,0,0,0,1.76,1.57,12.08,12.08,0,0,0,2.06,1.22.63.63,0,0,1,.34.36.65.65,0,0,1,0,.51.68.68,0,0,1-.25.3.74.74,0,0,1-.36.09.65.65,0,0,1-.27-.05,14.3,14.3,0,0,1-2.16-1.27,13.29,13.29,0,0,1-1.89-1.61A11.27,11.27,0,0,1,77.48,146a8.18,8.18,0,0,1-1.83,1.08A.71.71,0,0,1,75.39,147.13Zm7-7.15H79.73l.88.72,1,.79.81.69c.22.2.37.34.43.41a.61.61,0,0,1,.14.5.62.62,0,0,1-.25.44.54.54,0,0,1-.41.14.66.66,0,0,1-.28,0,.58.58,0,0,1-.23-.18l-.31-.28-.58-.48-.71-.6-.72-.58v.72a.58.58,0,0,1-.19.45.62.62,0,0,1-.44.18.61.61,0,0,1-.44-.19.61.61,0,0,1-.19-.44v-.69a7.51,7.51,0,0,1-1.14,1.12c-.41.31-.85.62-1.33.93a.48.48,0,0,1-.36.13.61.61,0,0,1-.52-.29.65.65,0,0,1-.1-.47.6.6,0,0,1,.28-.41c.29-.19.56-.37.81-.55a6.48,6.48,0,0,0,.71-.56,5.45,5.45,0,0,0,.63-.64,7.71,7.71,0,0,0,.59-.81h-2.2a.62.62,0,0,1-.44-.18.66.66,0,0,1-.19-.46.61.61,0,0,1,.19-.44.59.59,0,0,1,.44-.19h2.63v-1.17a.6.6,0,0,1,.19-.46.58.58,0,0,1,.44-.19.59.59,0,0,1,.44.19.6.6,0,0,1,.19.46v1.17h2.88a.59.59,0,0,1,.44.19.58.58,0,0,1,.19.44.63.63,0,0,1-.63.64Zm-6.71,12.71a.7.7,0,0,1-.44-.18.61.61,0,0,1-.19-.45.58.58,0,0,1,.18-.43l1.72-1.76a.55.55,0,0,1,.44-.2.63.63,0,0,1,.64.63.64.64,0,0,1-.18.45l-1.72,1.74A.53.53,0,0,1,75.65,152.69Zm1.54-3.49a.6.6,0,0,1-.46-.2l-.87-.92a.59.59,0,0,1-.17-.45.65.65,0,0,1,.66-.62.61.61,0,0,1,.43.21l.88.94a.67.67,0,0,1,.16.45.57.57,0,0,1-.19.43.45.45,0,0,1-.21.12A.62.62,0,0,1,77.19,149.2Zm.24,4.7h-.15a.61.61,0,0,1-.44-.19.66.66,0,0,1-.19-.46.63.63,0,0,1,.19-.44.61.61,0,0,1,.44-.19h.15a.76.76,0,0,0,.54-.22.68.68,0,0,0,.23-.52V146.3a.63.63,0,0,1,.63-.63.61.61,0,0,1,.44.19.59.59,0,0,1,.19.44v5.58a1.92,1.92,0,0,1-.16.79,2.16,2.16,0,0,1-.44.63,2.26,2.26,0,0,1-.65.44A2.09,2.09,0,0,1,77.43,153.9Zm2.95-4.7a.58.58,0,0,1-.52-.27.6.6,0,0,1-.1-.47.65.65,0,0,1,.26-.41,1.74,1.74,0,0,0,.26-.19l.26-.24.27-.24a.63.63,0,0,1,.46-.14.56.56,0,0,1,.42.21.62.62,0,0,1,.16.46.68.68,0,0,1-.23.44l-.25.22a3.82,3.82,0,0,1-.32.27l-.33.27A.62.62,0,0,1,80.38,149.2Zm2,3.42a.53.53,0,0,1-.38-.13c-.24-.16-.44-.32-.61-.45l-.48-.41q-.22-.19-.45-.42l-.51-.53a.61.61,0,0,1-.19-.45.61.61,0,0,1,.19-.44.57.57,0,0,1,.45-.18.64.64,0,0,1,.45.18l.48.51c.15.14.29.28.43.4a5.3,5.3,0,0,0,.43.38,6,6,0,0,0,.55.42.62.62,0,0,1,.25.42.59.59,0,0,1-.11.45A.6.6,0,0,1,82.38,152.62Z" />
  <path
    d="M86.45,152.76a5.83,5.83,0,0,0,.74-.83,4.6,4.6,0,0,0,.51-.91,2.48,2.48,0,0,0,.2-1.12.64.64,0,0,1,.19-.51.71.71,0,0,1,1,0,.66.66,0,0,1,.2.49,3.75,3.75,0,0,1-.28,1.55,7.29,7.29,0,0,1-.66,1.25,4.8,4.8,0,0,1-.68.83c-.22.21-.33.31-.34.33a.73.73,0,0,1-.45.16.75.75,0,0,1-.29-.06.41.41,0,0,1-.23-.18.66.66,0,0,1-.18-.51A.74.74,0,0,1,86.45,152.76Zm1.15-9.55a1.17,1.17,0,0,1,.33-.84,1.08,1.08,0,0,1,.8-.35h2.94v-2.25a.34.34,0,0,1,0-.15.3.3,0,0,1,0-.14v-1.89a.68.68,0,0,1,.68-.7.72.72,0,0,1,.7.7v1.35h4.77a.72.72,0,0,1,.5.2.66.66,0,0,1,.2.48.7.7,0,0,1-.2.5.69.69,0,0,1-.5.21H93.05V142h3.6a1.13,1.13,0,0,1,.83.35,1.14,1.14,0,0,1,.34.84V147a1,1,0,0,1-.29.82,1.11,1.11,0,0,1-.86.38h-7.9a1.12,1.12,0,0,1-.83-.34,1.15,1.15,0,0,1-.34-.85Zm1.37,3.6h7.48V143.4H89ZM92.33,154a.62.62,0,0,1-.46-.19.77.77,0,0,1-.22-.44,3.51,3.51,0,0,0-.16-.55c-.09-.27-.19-.57-.32-.89s-.26-.64-.4-1a5.94,5.94,0,0,0-.36-.72.68.68,0,0,1-.08-.52.64.64,0,0,1,.33-.41.66.66,0,0,1,.53-.07.62.62,0,0,1,.42.32c.1.17.22.42.38.77s.31.7.46,1.08.28.73.39,1.08a3,3,0,0,1,.19.76.58.58,0,0,1-.16.5.66.66,0,0,1-.48.24Zm1.41-4.7a.67.67,0,0,1,.93.25c.1.17.22.43.38.77s.31.7.47,1.08.29.74.4,1.08a3,3,0,0,1,.19.76.61.61,0,0,1-.16.51.69.69,0,0,1-.49.23h0a.64.64,0,0,1-.47-.19.7.7,0,0,1-.23-.44,3.51,3.51,0,0,0-.16-.55c-.09-.27-.19-.57-.32-.89s-.25-.64-.39-1a4,4,0,0,0-.36-.72.71.71,0,0,1-.07-.53A.67.67,0,0,1,93.74,149.29Zm3.11,0a.64.64,0,0,1,.52-.07.67.67,0,0,1,.42.32c.09.17.22.43.37.77s.32.7.47,1.08.29.74.4,1.08a3.4,3.4,0,0,1,.18.76.67.67,0,0,1-.63.74h-.06a.64.64,0,0,1-.47-.19.62.62,0,0,1-.23-.44,3.15,3.15,0,0,0-.15-.55c-.09-.27-.2-.57-.33-.89s-.25-.64-.38-1a4,4,0,0,0-.36-.72.66.66,0,0,1-.07-.53A.62.62,0,0,1,96.85,149.29Z" />
  <line x1="183.1"
    y1="7.12"
    x2="183.1"
    y2="10.12"
    style="fill:none;stroke:#000;stroke-miterlimit:10;stroke-width:0.5px" />
  <line x1="183.1"
    y1="22.48"
    x2="183.1"
    y2="275.84"
    style="fill:none;stroke:#000;stroke-miterlimit:10;stroke-width:0.5px;stroke-dasharray:6.179433345794678,12.358866691589355" />
  <line x1="183.1"
    y1="282.02"
    x2="183.1"
    y2="285.02"
    style="fill:none;stroke:#000;stroke-miterlimit:10;stroke-width:0.5px" />
  <line x1="111.24"
    y1="7.12"
    x2="111.24"
    y2="10.12"
    style="fill:none;stroke:#000;stroke-miterlimit:10;stroke-width:0.5px" />
  <line x1="111.24"
    y1="22.48"
    x2="111.24"
    y2="275.84"
    style="fill:none;stroke:#000;stroke-miterlimit:10;stroke-width:0.5px;stroke-dasharray:6.179433345794678,12.358866691589355" />
  <line x1="111.24"
    y1="282.02"
    x2="111.24"
    y2="285.02"
    style="fill:none;stroke:#000;stroke-miterlimit:10;stroke-width:0.5px" />
  <circle cx="111.24"
    cy="146.07"
    r="5.67"
    style="fill:#0078c8" />
  <circle cx="82"
    cy="85.38"
    r="8.44"
    style="fill:#0078c8" />
  <path d="M83.69,89.88H82V83.41a5.9,5.9,0,0,1-2.22,1.3V83.15a4.7,4.7,0,0,0,1.46-.83,3.1,3.1,0,0,0,1.08-1.44h1.4Z"
    style="fill:#fff" />
  <circle cx="147.17"
    cy="54.57"
    r="8.44"
    style="fill:#0078c8" />
  <path
    d="M150,57.48v1.59h-5.63a4.58,4.58,0,0,1,.55-1.71,11.35,11.35,0,0,1,1.81-2.15A12.27,12.27,0,0,0,148,53.74a2,2,0,0,0,.33-1.05,1.24,1.24,0,0,0-.29-.88,1,1,0,0,0-.8-.31,1.06,1.06,0,0,0-.8.32,1.81,1.81,0,0,0-.34,1.08l-1.6-.17a2.91,2.91,0,0,1,.9-2,2.88,2.88,0,0,1,1.88-.62,2.6,2.6,0,0,1,2,.72,2.44,2.44,0,0,1,.71,1.78,3.39,3.39,0,0,1-.2,1.15,4.68,4.68,0,0,1-.65,1.15,10.62,10.62,0,0,1-1,1.14q-.75.75-1,1a3.43,3.43,0,0,0-.33.48Z"
    style="fill:#fff" />
  <circle cx="231.13"
    cy="46.38"
    r="8.44"
    style="fill:#0078c8" />
  <path
    d="M228.32,48.4l1.57-.2a1.57,1.57,0,0,0,.4.95,1.13,1.13,0,0,0,1.65-.06,1.63,1.63,0,0,0,.34-1.07,1.46,1.46,0,0,0-.33-1,1,1,0,0,0-.8-.38,3,3,0,0,0-.75.13l.18-1.38a1.36,1.36,0,0,0,1-.29,1.08,1.08,0,0,0,.34-.84,1,1,0,0,0-.25-.71.9.9,0,0,0-.68-.27,1,1,0,0,0-.71.3,1.55,1.55,0,0,0-.36.88l-1.49-.26a3.47,3.47,0,0,1,.47-1.28,2.09,2.09,0,0,1,.88-.75,2.85,2.85,0,0,1,1.26-.28,2.48,2.48,0,0,1,1.92.8,2.13,2.13,0,0,1,.59,1.47A2.09,2.09,0,0,1,232.34,46a2,2,0,0,1,1.17.72,2.2,2.2,0,0,1,.43,1.37,2.73,2.73,0,0,1-.81,2,2.77,2.77,0,0,1-2,.81,2.73,2.73,0,0,1-1.91-.68A2.76,2.76,0,0,1,228.32,48.4Z"
    style="fill:#fff" />
</svg>
