<svg xmlns="http://www.w3.org/2000/svg"
  viewBox="0 0 483.25 310.27"
  width="483.25"
  height="310.27"
  class="w-100 h-auto my-3">
  <title>右手螺旋定律</title>
  <path d="M447.57,166.76V57.18C435.21,54.27,281.67,18.11,261.39,14c-5.55-1.14-44.87,3.5-48.49,4.12"
    style="fill:none;stroke:#000;stroke-linecap:round;stroke-linejoin:round;stroke-width:1.17451612256832px" />
  <path d="M402.69,65.43c-9-2.41-183.26-45.22-188.84-46.74"
    style="fill:none;stroke:#000;stroke-linecap:round;stroke-linejoin:round;stroke-width:1.17451612256832px" />
  <path
    d="M251.92,219.67c7,3.93,13.92,7.92,20.94,11.79q29.47,16.22,59,32.34c16.32,8.86,32.72,17.53,49.09,26.28q8.94,4.79,17.9,9.52a8,8,0,0,0,7.62,0c13.55-6.41,27.14-12.72,40.71-19.07.15-.07.26-.24.77-.75,0-.76-.51-92.75-.38-94"
    style="fill:none;stroke:#000;stroke-linecap:round;stroke-linejoin:round;stroke-width:1.17451612256832px" />
  <path d="M354.12,90v137L250.2,178.78V58.93C252,59.25,352.79,89.59,354.12,90Z"
    style="fill:none;stroke:#000;stroke-linecap:round;stroke-linejoin:round;stroke-width:1.17451612256832px" />
  <path d="M213.47,199.3l36.54,20"
    style="fill:none;stroke:#000;stroke-linecap:round;stroke-linejoin:round;stroke-width:1.17451612256832px" />
  <path d="M286.41,52.94l-1.92-.57"
    style="fill:none;stroke:#000;stroke-linecap:round;stroke-linejoin:round;stroke-width:0.75px" />
  <path d="M282.72,51.84c-3.24-1-6.49-1.94-9.72-3"
    style="fill:none;stroke:#000;stroke-linecap:round;stroke-linejoin:round;stroke-width:0.75px;stroke-dasharray:1.8475444316864014,1.8475444316864014,3.6950888633728027,5.542633533477783" />
  <path d="M270.36,48.05c-9.08-2.88-18.13-5.87-27.2-8.81s-14.48,5-13.8,11.81c.58,5.79.44,11.67.46,17.5q.08,20.08,0,40.16"
    style="fill:none;stroke:#000;stroke-linecap:round;stroke-linejoin:round;stroke-width:0.75px;stroke-dasharray:3.6950888633728027,1.8475444316864014,1.8475444316864014,1.8475444316864014,3.6950888633728027,5.542633533477783" />
  <path d="M229.68,111.48c-.08.66-.16,1.32-.22,2"
    style="fill:none;stroke:#000;stroke-linecap:round;stroke-linejoin:round;stroke-width:0.75px" />
  <polygon points="285.78 50.91 291.5 54.47 284.77 54.25 285.78 50.91" />
  <path d="M229.84,114v2"
    style="fill:none;stroke:#000;stroke-linecap:round;stroke-linejoin:round;stroke-width:0.75px" />
  <path d="M229.84,118.06v11.23"
    style="fill:none;stroke:#000;stroke-linecap:round;stroke-linejoin:round;stroke-width:0.75px;stroke-dasharray:2.0401864051818848,2.0401864051818848,4.0803728103637695,6.120558738708496" />
  <path
    d="M229.84,132.35v.53c0,11.42.17,22.84-.05,34.26-.23,12.66,4.78,21.42,16.73,26.78,14.23,6.39,80.23,42.41,90.67,47.81,8.21,4.25,16.24,9,24.79,12.42,10.45,4.17,14.13-1.21,14.67-9s.12-70.62.12-70.62v-20c0-18.15.12-36.29,0-54.43-.1-11.1-4.67-20.21-14.13-26.12-3.63-2.28-8.24-3.08-12.48-4.31-11.54-3.35-23.12-6.61-34.68-9.89"
    style="fill:none;stroke:#000;stroke-linecap:round;stroke-linejoin:round;stroke-width:0.75px;stroke-dasharray:4.0803728103637695,2.0401864051818848,2.0401864051818848,2.0401864051818848,4.0803728103637695,6.120558738708496" />
  <path d="M312.49,59l-1.2-.34a3.22,3.22,0,0,0-.76,0"
    style="fill:none;stroke:#000;stroke-linecap:round;stroke-linejoin:round;stroke-width:0.75px" />
  <path d="M287.7,169q22.64,9.14,45.3,18.26c6.82,2.73,13.7,5.34,20.55,8"
    style="fill:none;stroke:#000;stroke-linecap:round;stroke-linejoin:round;stroke-width:1.17451612256832px" />
  <path d="M155.23,108.9q27.6,9.9,55.2,19.78a13.25,13.25,0,0,0,2.28.39"
    style="fill:none;stroke:#0078c8;stroke-linecap:round;stroke-linejoin:round;stroke-width:2px" />
  <path d="M287.32,169c-7.18,1.89-32.8,8.49-37.12,9.76"
    style="fill:none;stroke:#000;stroke-linecap:round;stroke-linejoin:round;stroke-width:1.17451612256832px" />
  <path d="M188.85,47.86q-10.53-3.27-21.06-6.51a3.94,3.94,0,0,0-1.14,0"
    style="fill:none;stroke:#000;stroke-linecap:round;stroke-linejoin:round;stroke-width:1.175px" />
  <polygon points="188.12 45.49 194.82 49.71 186.91 49.41 188.12 45.49" />
  <path d="M447.57,185.79c-.13-5.58.12-13.45,0-19"
    style="fill:none;stroke:#000;stroke-linecap:round;stroke-linejoin:round;stroke-width:1.17451612256832px" />
  <path
    d="M156.76,48c7.23,2.54,14.44,5.12,21.7,7.6C189.73,59.45,201,63.22,212.33,67l1.52.76,15.23,4.57,1.52.76c5.08,1.65,10.14,3.33,15.23,4.93a34.58,34.58,0,0,0,3.8.78h.76c8.12-1.4,16.25-2.75,24.36-4.21,3.7-.66,9.12-2,13-2.81"
    style="fill:none;stroke:#0078c8;stroke-linecap:round;stroke-linejoin:round;stroke-width:2px;opacity:0.8" />
  <line x1="212.9"
    y1="18.07"
    x2="213.47"
    y2="199.3"
    style="fill:none;stroke:#000;stroke-linecap:round;stroke-linejoin:round;stroke-width:1.17451612256832px" />
  <line x1="287.32"
    y1="169.02"
    x2="287.32"
    y2="70.46"
    style="fill:none;stroke:#000;stroke-linecap:round;stroke-linejoin:round;stroke-width:1.17451612256832px" />
  <path
    d="M287.74,83a1.11,1.11,0,0,1,.91.46c.24.42-.24,1.57-.6,2a1.08,1.08,0,0,1-.43.33,30.71,30.71,0,0,1-6,1.39c-8.62,1.69-17.14,3.19-25.85,5.07-5.57,1.21-10.26-.81-15.24-2.05-3.35-.83-6.61-2-9.91-3l-1.9-1.14c-5.71-1.53-12.14-3.3-16.52-5.86"
    style="fill:none;stroke:#0078c8;stroke-linecap:round;stroke-linejoin:round;stroke-width:2px" />
  <path
    d="M287.74,96.83a1.11,1.11,0,0,1,.91.46c.24.42.05,2.07-.7,2.23-11.09,2.42-23.81,4.83-34.89,7.09-.88.18-1.78.26-2.67.39h-.76c-.63-.13-1.28-.2-1.9-.39-5.71-1.76-11.42-3.55-17.13-5.32l-1.52-.76c-5.62-2.21-11.82-3-16.54-6.22"
    style="fill:none;stroke:#0078c8;stroke-linecap:round;stroke-linejoin:round;stroke-width:2px" />
  <path
    d="M287.74,110a1.12,1.12,0,0,1,.91.45c.23.4-.1,1.29-.31,1.77a.75.75,0,0,1-.47.42,53.68,53.68,0,0,1-5.89,1.6c-9.5,2-19,3.86-28.55,5.72a16.21,16.21,0,0,1-3,0h-.76a37.08,37.08,0,0,1-3.8-.78c-5.09-1.6-10.15-3.28-15.23-4.93l-.76-.21L212.51,108"
    style="fill:none;stroke:#0078c8;stroke-linecap:round;stroke-linejoin:round;stroke-width:2px" />
  <path d="M287.74,124.21a1.11,1.11,0,0,1,.91.46c.2.35,0,1.2-.23,1.79a1.08,1.08,0,0,1-.83.74c-6.88,1.39-15.57,3.22-22.35,4.53-4.94,1-9.9,1.79-14.85,2.67h0l-15.86-3.74s-17-5.77-21.84-9.15"
    style="fill:none;stroke:#0078c8;stroke-linecap:round;stroke-linejoin:round;stroke-width:2px" />
  <path
    d="M287.74,138.15a1.11,1.11,0,0,1,.91.46c.21.36,0,1.2-.26,1.73a.88.88,0,0,1-.66.56c-5.76,1.14-13,2.7-18.69,3.77-6.21,1.18-12.43,2.29-18.65,3.44h-.76a18,18,0,0,1-2.66-.4c-5.46-1.74-10.91-3.54-16.37-5.31,0,0-13.23-3.44-17.67-6.76"
    style="fill:none;stroke:#0078c8;stroke-linecap:round;stroke-linejoin:round;stroke-width:2px" /><text transform="matrix(1.21, 0.26, -0.32, 0.97, 294.21, 57.71)"
    style="font-size:12px;stroke:#000;stroke-miterlimit:10;stroke-width:0.15000000596046448px;font-family:Calibri-Light, Calibri;font-weight:300">φ</text><text transform="translate(177.91 40.06)"
    style="font-size:20px;font-family:Calibri, ScriptMTBold, Script MT Bold, SchneidlerBT-BlackItalic, Schneidler Blk BT">i</text>
  <path d="M447.57,57.51C440,59,408.72,64.27,402.69,65.43c-.14.93-.42,166.16-.44,230.75,0,1.39-.23,2.79-.36,4.18"
    style="fill:none;stroke:#000;stroke-linecap:round;stroke-linejoin:round;stroke-width:1.17451612256832px" /><text transform="translate(295.24 118.99)"
    style="font-size:16px;font-family:Calibri">
    <tspan style="letter-spacing:0.0999755859375em">N</tspan>
    <tspan x="11.93"
      y="0"
      style="font-size:14px;font-family:YOUSHEhaoshenti">匝</tspan>
  </text>
  <path
    d="M121.77,140.21c-2,1.88-2.62,4.42-4.51,6.67,0-2.42,1.07-3.82,2-5.27,1.79-2.8,3.65-5.57,5.46-8.35a1.3,1.3,0,0,0,.19-.67c0-3.16.12-6.35-1.57-9.23-.65-1.1-1.21-.53-1.7.13a14.6,14.6,0,0,0-2.5,5.6c-.1.49-.18,1.25-.86,1.08s-.28-.88-.21-1.34c.48-3.14,2.48-5.52,4.07-8.12,1.38-2.24,3.63-4.28,3-7.25-.38-1.69.17-3.62-1.33-5.09-.71-.7-.92-1.12-1.79-.09a44,44,0,0,1-4.67,4.59,7.54,7.54,0,0,0-2.65,4.93c0,.39,0,1-.56.94-.71,0-.53-.66-.53-1.07a7.13,7.13,0,0,1,2.22-4.77c1.47-1.62,3.24-2.94,4.7-4.59a6.52,6.52,0,0,0-.28-9.09c-.21-.19-.49-.32-.51-.7.5-.79,1.13.17,1.78-.13a7.6,7.6,0,0,0-2.29-3.48c-4.22-4.38-8.94-8.1-14.79-10.11a22,22,0,0,0-8.16-1.41c-2.67.14-4.05,2.11-2.76,4.44,1.88,3.42,4.41,6.29,8.22,7.78.91.35,1.07.28,1.13-.67a8.49,8.49,0,0,1,.69-3.72c.14-.26.07-1,.75-.66.5.23.39.6.2,1a9.06,9.06,0,0,0-.38,4.47c.1,1.75,1.19,2.36,2.74,1.56.3-.16.55-.43.86-.58s.86-.33,1.09.11-.27.64-.62.84c-1.94,1.12-3.36,2.54-3.33,5a2.44,2.44,0,0,1-1.2,2,58.3,58.3,0,0,0-6.09,5c-2,1.68-4.42,2.16-6.76,2.89a31.09,31.09,0,0,1-7.09,1.57,3.48,3.48,0,0,0-1.1.52,3.4,3.4,0,0,0,.35.27c.56.26,1.77-.31,1.65.68-.16,1.24-1.19.32-1.83.29a14.55,14.55,0,0,1-11.33-5.76,19.35,19.35,0,0,1-3.72-10.63c-.46-5.47.66-10.93,0-16.39a17.58,17.58,0,0,0-5.15-11.09c-2.71-2.61-8.3-2.41-10.56.42,1.52,0,2.95.15,4.36.11a4.66,4.66,0,0,1,4.3,4.54c-.11,1.27.24,2.61,0,3.82-.59,2.46-1.88,3.29-4.57,3.42-3.18.15-3.18.15-3.05,3.39.15,3.66.15,3.66,3.83,3.6l.35,0a3.71,3.71,0,0,1,2.22.82.64.64,0,0,1-.1.6c-.73.55-1.47,0-2.13-.17a8.06,8.06,0,0,0-2.59-.06,1.31,1.31,0,0,0-1.32,1.51c.14,6.32-.81,12.56-1.28,18.84-.35,4.61-1.19,9.15-1.57,13.74-.36,4.22-.43,8.46-.57,12.7a5.91,5.91,0,0,1-1.43,4.27,2.83,2.83,0,0,0-.91,1.65c-.13,2.87-2.46,3.84-4.4,4.8a79,79,0,0,1-11.93,4.49,3.69,3.69,0,0,1-.85.18c-.39,0-.9.2-1-.35s.42-.63.77-.75c2.94-1,6-1.73,8.8-3A45.17,45.17,0,0,0,44.79,148a3.25,3.25,0,0,0,1.71-2.46,3.58,3.58,0,0,1,.82-2.08c1.39-1.5,1.52-3.27,1.46-5.15-.14-4.06.58-8.07.83-12.11.36-5.69,1.25-11.34,1.79-17a140.42,140.42,0,0,0,0-30.26c-.25-2.07-.72-4.19-.34-6.34a2.23,2.23,0,0,1,1.45-1.9c3.47-1.66,7-2,10.14.23,2.59,1.8,4,4.65,5.18,7.6,1.48,3.69,1.4,7.49,1.28,11.33-.07,2.3-.42,4.6-.49,6.88a21.14,21.14,0,0,0,4.11,13.52c2.29,3.1,5.78,4.1,9.65,3.37,3.41-.64,6.76-1.43,10.1-2.34a4.68,4.68,0,0,0,.67-.15c1-.45,2.3-.68,2.9-1.45.92-1.18-.77-1.74-1.25-2.59a6.09,6.09,0,0,1-.89-4.46A2.84,2.84,0,0,0,93,99.86c-2.48-2.77-2.91-5.37-.44-8.94.5-.72.73-1.15.23-2a4.7,4.7,0,0,1,.29-5.55c1.17-1.57,3-1.7,4.79-1.4,7,1.16,13.24,3.77,18.43,8.72,2.41,2.28,5.2,4.27,6.31,7.55a9.5,9.5,0,0,1,.66,5.38,4,4,0,0,0,1.24,4.06c2.72,2.61,3.08,5.75,1.27,9-.66,1.21-1.43,2.36-2,3.6-.76,1.57.77,2.49,1.25,3.7a33.17,33.17,0,0,1,1.85,5c.61,2.68-1.09,4.55-2.27,6.52-.95,1.58-1.93,2.8-1.45,4.95a7.39,7.39,0,0,1-1.15,5.27,30.16,30.16,0,0,0-3.12,6.5c-.85,2.62-2.82,4.4-5.09,5.89-5.25,3.45-10.32,7.18-15.72,10.36s-11.15,6.22-17.75,6.85a16.74,16.74,0,0,0-8.47,3.55,76.15,76.15,0,0,1-14.92,9.29,5.28,5.28,0,0,1-1,.4c-.42.1-1,.45-1.22-.16s.41-.72.81-.88a68.23,68.23,0,0,0,13-7.57c3.1-2.15,6-4.68,9.83-5.52,2.25-.5,4.59-.45,6.81-1.19a57.88,57.88,0,0,0,13.52-6.5c3-2,6-3.86,9-5.85q4.08-2.73,8-5.61c1.11-.8,1.51-2.19,2-3.39a66.39,66.39,0,0,1,3.37-7A7.27,7.27,0,0,0,121.77,140.21Zm-29.43-45a4.12,4.12,0,0,0,1,3.26,78,78,0,0,0,6.64,6.6,1.38,1.38,0,0,0,1.77-.06c1.37-.85,2.9-4.28,2.65-5.91-.08-.55-.43-.77-.83-1-3.09-2-6.63-3.39-8.94-6.48-.34-.45-.72-.55-1.21.13C92.65,92.81,92,93.85,92.34,95.21ZM52.33,79c.19,4.51,1.41,5.44,5.27,4.32a2.84,2.84,0,0,0,.49-.17,2.14,2.14,0,0,0,1.3-1.54,10.53,10.53,0,0,0,.24-3.95c-.31-1.4-.35-3-2.25-3.44a13.76,13.76,0,0,0-4.14-.33c-.88.08-1.38.43-1.24,1.45C52.18,76.68,52.25,78,52.33,79Zm43.19,23.77c-.36-.06-.49.13-.59.45-.36,1.28.94,4.25,2.13,4.88a1.1,1.1,0,0,0,1.39-.34c.44-.42,1.11-.73,1.06-1.48C99.48,105.86,96,102.82,95.52,102.79Z" />
  <path d="M58.24,97.74a4.12,4.12,0,0,1,.7,0c.46.06,1.16-.21,1.15.64s-.62.54-1,.57a13.22,13.22,0,0,0-3.75.48c-.45.17-1.12.2-1.2-.56s.49-.77,1-.81C56.17,98,57.21,97.84,58.24,97.74Z" />
  <path d="M56.52,96.94c-.5-.46-1.83.08-1.88-.85,0-.75,1.11-.45,1.76-.55s1.21.15,1.27.81S57.09,96.89,56.52,96.94Z" />
  <path d="M109.79,125.67c-.39,0-.64-.15-.58-.42a2.8,2.8,0,0,1,1.4-2c.39-.19.58.37.52.67C111,124.74,110.11,125.05,109.79,125.67Z" />
  <path d="M114.47,138.32a4,4,0,0,1,.13,1.07,2.58,2.58,0,0,1-1.43,1.55.37.37,0,0,1-.53-.28c-.09-.76.66-1,1-1.53A5.24,5.24,0,0,1,114.47,138.32Z" />
</svg>
