<svg id="图标" xmlns="http://www.w3.org/2000/svg" viewBox="0 0 99.21 63.4"><defs><style>.cls-1,.cls-7{fill:#9e90c4;}.cls-2,.cls-3,.cls-5{fill:#fff;}.cls-2,.cls-4,.cls-5{stroke:#fff;}.cls-2,.cls-4,.cls-5,.cls-6{stroke-miterlimit:10;}.cls-2{stroke-width:2.19px;}.cls-4,.cls-6{fill:none;}.cls-4,.cls-5{stroke-width:4.37px;}.cls-6{stroke:#9e90c4;stroke-linecap:round;stroke-width:5px;}.cls-6,.cls-7{opacity:0.6;}</style></defs><title>icon-techWriting-1</title><rect class="cls-1" y="6.71" width="99.21" height="56.69"/><path class="cls-2" d="M58.76,370.14a17.22,17.22,0,0,1-.4,3.68,8.51,8.51,0,0,0-6.73,8.07,7.45,7.45,0,0,0,.32,2.17A20.81,20.81,0,0,1,45,387.75a9.66,9.66,0,0,0-10.95-1.35,9.28,9.28,0,0,0-1.88,1.35,20.55,20.55,0,0,1-6.91-3.7,8.09,8.09,0,0,0-4.21-9.4,9.86,9.86,0,0,0-2.19-.83,16.77,16.77,0,0,1,0-7.37,8.5,8.5,0,0,0,6.72-8.07,7.73,7.73,0,0,0-.32-2.16,20.63,20.63,0,0,1,6.91-3.69,9.62,9.62,0,0,0,10.94,1.34A9,9,0,0,0,45,352.53a20.44,20.44,0,0,1,6.91,3.69,8.08,8.08,0,0,0,4.22,9.4,9,9,0,0,0,2.19.83A17.24,17.24,0,0,1,58.76,370.14Zm-20.14-7.43c-4.44,0-8,3.32-8,7.43s3.61,7.43,8,7.43,8.06-3.33,8.06-7.43S43.07,362.71,38.62,362.71Z" transform="translate(0 -327.78)"/><polygon class="cls-1" points="72.24 27.07 52 44.87 51.62 45.21 36.28 46.26 35.38 45.23 38.45 30.16 38.84 29.84 59.07 12.03 72.24 27.07"/><path class="cls-3" d="M54.16,366a3,3,0,0,1-2.26-1l-5.62-6.41a3,3,0,0,1-.74-2.18,3,3,0,0,1,1-2.06L73.67,330.6a4.74,4.74,0,0,1,6.7.44l3.32,3.78a4.76,4.76,0,0,1-.44,6.71L56.14,365.29A3,3,0,0,1,54.16,366Z" transform="translate(0 -327.78)"/><path class="cls-1" d="M76.8,331.06a3.11,3.11,0,0,1,2.34,1.06l3.32,3.78a3.11,3.11,0,0,1-.29,4.39L55.06,364.06a1.4,1.4,0,0,1-.9.34,1.36,1.36,0,0,1-1-.47l-5.62-6.41a1.36,1.36,0,0,1,.13-1.93l27.11-23.76a3.08,3.08,0,0,1,2-.77m0-3.28h0a6.38,6.38,0,0,0-4.21,1.58L45.48,353.12a4.59,4.59,0,0,0-1.58,3.19A4.65,4.65,0,0,0,45,359.68l5.62,6.41a4.63,4.63,0,0,0,6.56.43l27.11-23.76a6.4,6.4,0,0,0,.6-9L81.61,330a6.39,6.39,0,0,0-4.81-2.18Z" transform="translate(0 -327.78)"/><path class="cls-4" d="M53.13,363.93l-5.62-6.41a1.36,1.36,0,0,1,.13-1.93l27.11-23.76a3.12,3.12,0,0,1,4.39.29l3.32,3.78a3.11,3.11,0,0,1-.29,4.39L55.06,364.06A1.37,1.37,0,0,1,53.13,363.93Z" transform="translate(0 -327.78)"/><path class="cls-5" d="M41,368.75l1.86-9.12a.27.27,0,0,1,.46-.12L50.71,368a.27.27,0,0,1-.18.44l-9.29.64A.27.27,0,0,1,41,368.75Z" transform="translate(0 -327.78)"/><line class="cls-6" x1="53.64" y1="30.06" x2="74.96" y2="11.38"/><circle class="cls-7" cx="45.35" cy="37.23" r="1.75"/></svg>