<svg id="图层_3" data-name="图层 3" xmlns="http://www.w3.org/2000/svg" xmlns:xlink="http://www.w3.org/1999/xlink" viewBox="0 0 263.16 263.16"><defs><style>.cls-1,.cls-10{fill:#57d4ff;}.cls-1,.cls-10,.cls-11,.cls-12,.cls-13,.cls-14,.cls-15,.cls-2,.cls-9{stroke:#1075b2;stroke-miterlimit:10;}.cls-1{stroke-width:0.53px;}.cls-2,.cls-9{fill:#89daf7;}.cls-2{stroke-width:0.53px;}.cls-3{font-size:11.47px;}.cls-16,.cls-17,.cls-3,.cls-5{font-family:MyriadPro-Regular, Myriad Pro;}.cls-4{letter-spacing:0.03em;}.cls-5{font-size:8.34px;}.cls-6{letter-spacing:0em;}.cls-7{letter-spacing:0em;}.cls-8{letter-spacing:-0.01em;}.cls-10,.cls-11,.cls-12,.cls-13,.cls-14,.cls-15,.cls-9{stroke-width:0.52px;}.cls-11{fill:#29abe2;}.cls-12{fill:url(#linear-gradient);}.cls-13{fill:url(#linear-gradient-2);}.cls-14{fill:url(#linear-gradient-3);}.cls-15{fill:url(#linear-gradient-4);}.cls-16{font-size:11.9px;}.cls-17{font-size:9.07px;}.cls-18{letter-spacing:-0.07em;}</style><linearGradient id="linear-gradient" x1="136.97" y1="113.27" x2="193.04" y2="113.27" gradientUnits="userSpaceOnUse"><stop offset="0" stop-color="#fff"/><stop offset="0" stop-color="#7fd0e8"/></linearGradient><linearGradient id="linear-gradient-2" x1="76.24" y1="184.64" x2="132.31" y2="184.64" gradientUnits="userSpaceOnUse"><stop offset="0" stop-color="#fff"/><stop offset="0.01" stop-color="#7fd0e8"/></linearGradient><linearGradient id="linear-gradient-3" x1="51.77" y1="128.3" x2="81.41" y2="128.3" gradientUnits="userSpaceOnUse"><stop offset="0" stop-color="#fff"/><stop offset="0.56" stop-color="#7fd0e8"/></linearGradient><linearGradient id="linear-gradient-4" x1="106.39" y1="148.62" x2="162.46" y2="148.62" xlink:href="#linear-gradient-2"/></defs><title>programming</title><polygon class="cls-1" points="214.56 160.61 186.61 172.81 185.68 198.51 212.7 212.01 240.65 199.81 241.58 174.11 214.56 160.61"/><line class="cls-1" x1="236.71" y1="175.46" x2="215.74" y2="164.01"/><line class="cls-1" x1="215.26" y1="208.21" x2="237.19" y2="198.01"/><line class="cls-1" x1="190.51" y1="175.45" x2="190.51" y2="198.79"/><polygon class="cls-2" points="50.46 157.46 22.51 169.66 21.58 195.36 48.6 208.86 76.55 196.66 77.48 170.96 50.46 157.46"/><line class="cls-2" x1="72.61" y1="172.31" x2="51.63" y2="160.86"/><line class="cls-2" x1="51.15" y1="205.06" x2="73.09" y2="194.86"/><line class="cls-2" x1="26.8" y1="172.99" x2="26.8" y2="195.79"/><text class="cls-3" transform="translate(29.65 186.52) scale(1.23 1)">Jque<tspan class="cls-4" x="22.76" y="0">r</tspan><tspan x="26.8" y="0">y</tspan></text><text class="cls-5" transform="translate(194.3 188.33) scale(1.23 1)"><tspan class="cls-6">B</tspan><tspan class="cls-7" x="4.56" y="0">ootst</tspan><tspan class="cls-8" x="22.55" y="0">r</tspan><tspan x="25.23" y="0">ap</tspan></text><polygon class="cls-9" points="139.04 51.15 111.01 62.75 110.08 87.17 136.63 99.74 137.18 100 165.22 88.41 166.15 63.98 139.04 51.15"/><line class="cls-9" x1="161.26" y1="65.26" x2="140.22" y2="54.38"/><line class="cls-9" x1="139.74" y1="96.4" x2="161.75" y2="86.7"/><line class="cls-9" x1="114.91" y1="65.44" x2="114.91" y2="87.61"/><polygon class="cls-10" points="110.38 85.87 82.34 97.46 81.41 121.89 108.51 134.72 136.55 123.12 137.48 98.7 110.38 85.87"/><line class="cls-10" x1="132.6" y1="99.98" x2="111.55" y2="89.1"/><line class="cls-10" x1="111.07" y1="131.11" x2="133.08" y2="121.41"/><line class="cls-10" x1="86.18" y1="100.21" x2="86.18" y2="122.39"/><polygon class="cls-11" points="190.1 125.52 162.06 137.12 161.13 161.54 188.24 174.37 216.27 162.78 217.2 138.35 190.1 125.52"/><line class="cls-11" x1="212.32" y1="139.63" x2="191.28" y2="128.75"/><line class="cls-11" x1="190.79" y1="170.76" x2="212.8" y2="161.07"/><line class="cls-11" x1="165.78" y1="140.03" x2="165.78" y2="162.2"/><polygon class="cls-12" points="165.94 88.84 137.9 100.44 136.97 124.86 163.53 137.43 164.08 137.69 192.11 126.1 193.04 101.67 165.94 88.84"/><polygon class="cls-13" points="105.21 160.22 77.17 171.81 76.24 196.24 103.34 209.07 131.38 197.47 132.31 173.05 105.21 160.22"/><line class="cls-14" x1="81.41" y1="121.89" x2="51.77" y2="134.72"/><polygon class="cls-9" points="80.22 121.89 52.19 133.48 51.26 157.9 78.36 170.74 106.4 159.14 107.33 134.72 80.22 121.89"/><line class="cls-9" x1="102.45" y1="136" x2="81.4" y2="125.12"/><line class="cls-9" x1="80.92" y1="167.13" x2="102.93" y2="157.43"/><line class="cls-9" x1="56.39" y1="135.99" x2="56.39" y2="158.17"/><polygon class="cls-15" points="135.36 124.2 107.32 135.79 106.39 160.22 133.5 173.05 161.53 161.45 162.46 137.03 135.36 124.2"/><polygon class="cls-9" points="160.77 160.88 132.73 172.47 131.8 196.9 158.36 209.47 158.91 209.73 186.94 198.13 187.88 173.71 160.77 160.88"/><line class="cls-9" x1="182.99" y1="174.99" x2="161.95" y2="164.11"/><line class="cls-9" x1="161.47" y1="206.12" x2="183.47" y2="196.42"/><line class="cls-9" x1="136.18" y1="175.3" x2="136.18" y2="196.97"/><text class="cls-16" transform="translate(69.91 149.8) scale(1.3 1)">Git</text><text class="cls-17" transform="translate(97.98 112.95) scale(1.3 1)">DI<tspan class="cls-18" x="8.21" y="0">T</tspan><tspan x="12.04" y="0">A</tspan></text><text class="cls-17" transform="translate(146.02 115.93) scale(1.3 1)">S1000D</text><text class="cls-16" transform="translate(120.11 152.12) scale(1.3 1)">XML</text><text class="cls-3" transform="translate(148.14 188.67) scale(1.3 1)">CSS</text><text class="cls-3" transform="translate(86.16 188.01) scale(1.3 1)">HTML</text><text class="cls-16" transform="translate(177.26 153.44) scale(1.3 1)">XSL</text><text class="cls-16" transform="translate(123.56 79.07) scale(1.3 1)">CMS</text></svg>