<svg id="图层_1" data-name="图层 1" xmlns="http://www.w3.org/2000/svg" xmlns:xlink="http://www.w3.org/1999/xlink" viewBox="0 0 745.97 745.97"><defs><style>.cls-1{clip-path:url(#clip-path);}.cls-2{fill:none;}.cls-3{fill-opacity:0.5;}.cls-4{clip-path:url(#clip-path-2);}.cls-5{clip-path:url(#clip-path-3);}.cls-6{clip-path:url(#clip-path-4);}.cls-7{fill:url(#未命名的渐变_2);}.cls-8{fill:url(#未命名的渐变);}.cls-9{fill:url(#未命名的渐变_4);}.cls-10{fill:url(#未命名的渐变_5);}.cls-11{fill:url(#未命名的渐变_6);}.cls-12{fill:url(#未命名的渐变_7);}.cls-13{fill:#7f0012;}.cls-14{fill:#fff;}.cls-15{clip-path:url(#clip-path-6);}.cls-16{mask:url(#mask);}.cls-17{clip-path:url(#clip-path-7);}.cls-18{fill:url(#j);}.cls-19{fill:url(#未命名的渐变_8);}.cls-20{fill:url(#未命名的渐变_9);}.cls-21{fill:url(#未命名的渐变_10);}.cls-22{fill:url(#未命名的渐变_11);}.cls-23{clip-path:url(#clip-path-8);}.cls-24{mask:url(#mask-2);}.cls-25{clip-path:url(#clip-path-9);}.cls-26{fill:url(#g);}.cls-27{fill:url(#未命名的渐变_12);}.cls-28{fill:url(#未命名的渐变_13);}.cls-29{fill:url(#未命名的渐变_14);}.cls-30{fill:url(#未命名的渐变_15);}.cls-31{clip-path:url(#clip-path-10);}.cls-32{mask:url(#mask-3);}.cls-33{font-size:31.07px;font-family:SegoePrint-Bold, Segoe Print;font-weight:700;letter-spacing:0.22em;}.cls-34{letter-spacing:0.2em;}</style><clipPath id="clip-path"><rect class="cls-2" x="82.63" y="88.59" width="1495.7" height="1058.72"/></clipPath><clipPath id="clip-path-2"><rect class="cls-2" x="50.65" y="58.39" width="1495.7" height="1058.72"/></clipPath><clipPath id="clip-path-3"><rect class="cls-2" x="137.69" y="95.7" width="1495.7" height="1058.72"/></clipPath><clipPath id="clip-path-4"><rect class="cls-2" width="842" height="596"/></clipPath><linearGradient id="未命名的渐变_2" x1="98.98" y1="-15535.41" x2="134.73" y2="-15535.41" gradientTransform="matrix(1, 0, 0, -1, 0, -15190.88)" gradientUnits="userSpaceOnUse"><stop offset="0" stop-color="#f2f2f2"/><stop offset="1" stop-color="#a8a8a8"/></linearGradient><linearGradient id="未命名的渐变" x1="98.98" y1="-15550.58" x2="134.73" y2="-15550.58" xlink:href="#未命名的渐变_2"/><linearGradient id="未命名的渐变_4" x1="79.51" y1="-393.86" x2="81.29" y2="-393.86" gradientTransform="translate(-69184.34 7892.4) rotate(72.26) scale(173.99)" gradientUnits="userSpaceOnUse"><stop offset="0" stop-color="#ff1f37"/><stop offset="1" stop-color="#a20022"/></linearGradient><linearGradient id="未命名的渐变_5" x1="77.4" y1="-394.57" x2="79.18" y2="-394.57" gradientTransform="translate(-125661.15 -2436.1) rotate(80.04) scale(313.3)" xlink:href="#未命名的渐变_4"/><linearGradient id="未命名的渐变_6" x1="79.42" y1="-394.15" x2="81.2" y2="-394.15" gradientTransform="matrix(38.12, 199.69, -199.69, 38.12, -81524.03, -403.87)" xlink:href="#未命名的渐变_2"/><linearGradient id="未命名的渐变_7" x1="80.28" y1="-398.26" x2="82.06" y2="-398.26" gradientTransform="translate(-48047.6 -31976.78) rotate(112.33) scale(143.7)" gradientUnits="userSpaceOnUse"><stop offset="0" stop-color="#e0e0e0"/><stop offset="1" stop-color="#a6a6a6"/></linearGradient><clipPath id="clip-path-6"><polygon class="cls-2" points="332.32 303.69 537.76 303.69 537.76 393.2 332.32 393.2 332.32 303.69 332.32 303.69"/></clipPath><mask id="mask" x="-236.41" y="-1718.43" width="4838.23" height="3424.68" maskUnits="userSpaceOnUse"><g id="b"><g class="cls-1"><path class="cls-3" d="M82.63,88.59h1495.7V1147.31H82.63Z"/></g></g></mask><clipPath id="clip-path-7"><rect class="cls-2" x="-236.41" y="-1718.43" width="4838.23" height="3424.68"/></clipPath><pattern id="j" data-name="j" width="842" height="596" patternTransform="translate(-1657.04 -3261.98) scale(5.75)" patternUnits="userSpaceOnUse" viewBox="0 0 842 596"><rect class="cls-2" width="842" height="596"/><g class="cls-6"><path class="cls-8" d="M99,356.21l6.23-4.3,29.52,10.83L127,367.48,99,356.21Z"/></g></pattern><linearGradient id="未命名的渐变_8" x1="79.09" y1="-393.8" x2="80.86" y2="-393.8" gradientTransform="translate(-69184.24 7843.33) rotate(72.26) scale(173.99)" xlink:href="#未命名的渐变_4"/><linearGradient id="未命名的渐变_9" x1="77.17" y1="-394.51" x2="78.94" y2="-394.51" gradientTransform="translate(-125788.71 -2487.08) rotate(80.04) scale(313.62)" xlink:href="#未命名的渐变_4"/><linearGradient id="未命名的渐变_10" x1="79.06" y1="-394.05" x2="80.84" y2="-394.05" gradientTransform="translate(-81472.84 -453.34) rotate(79.19) scale(203.17)" xlink:href="#未命名的渐变_2"/><linearGradient id="未命名的渐变_11" x1="79.92" y1="-397.87" x2="81.7" y2="-397.87" gradientTransform="translate(-48061.08 -32035.63) rotate(112.33) scale(143.74)" xlink:href="#未命名的渐变_7"/><clipPath id="clip-path-8"><polygon class="cls-2" points="300.34 186.26 505.79 186.26 505.79 275.75 300.34 275.75 300.34 186.26 300.34 186.26"/></clipPath><mask id="mask-2" x="-268.39" y="-1748.63" width="4838.23" height="3424.68" maskUnits="userSpaceOnUse"><g id="b-2" data-name="b"><g class="cls-4"><path class="cls-3" d="M50.65,58.39h1495.7V1117.11H50.65Z"/></g></g></mask><clipPath id="clip-path-9"><rect class="cls-2" x="-268.39" y="-1748.63" width="4838.23" height="3424.68"/></clipPath><pattern id="g" data-name="g" width="842" height="596" patternTransform="translate(-1689.02 -3292.18) scale(5.75)" patternUnits="userSpaceOnUse" viewBox="0 0 842 596"><rect class="cls-2" width="842" height="596"/><g class="cls-6"><path class="cls-7" d="M99,341l6.23-4.3,29.52,10.83L127,352.31,99,341Z"/></g></pattern><linearGradient id="未命名的渐变_12" x1="79.24" y1="-394.29" x2="81.02" y2="-394.29" gradientTransform="translate(-69184.13 7795.49) rotate(72.26) scale(174)" xlink:href="#未命名的渐变_4"/><linearGradient id="未命名的渐变_13" x1="77.22" y1="-394.79" x2="79" y2="-394.79" gradientTransform="translate(-125659.56 -2533.78) rotate(80.04) scale(313.3)" xlink:href="#未命名的渐变_4"/><linearGradient id="未命名的渐变_14" x1="79.14" y1="-394.49" x2="80.92" y2="-394.49" gradientTransform="translate(-81524.8 -501.62) rotate(79.19) scale(203.3)" xlink:href="#未命名的渐变_2"/><linearGradient id="未命名的渐变_15" x1="79.69" y1="-398.45" x2="81.46" y2="-398.45" gradientTransform="translate(-48043.44 -32073.72) rotate(112.33) scale(143.69)" xlink:href="#未命名的渐变_7"/><clipPath id="clip-path-10"><polygon class="cls-2" points="150.51 268.21 685.4 268.21 685.4 476.8 150.51 476.8 150.51 268.21 150.51 268.21"/></clipPath><mask id="mask-3" x="-181.35" y="-1711.32" width="4838.23" height="3424.68" maskUnits="userSpaceOnUse"><g id="b-3" data-name="b"><g class="cls-5"><path class="cls-3" d="M137.69,95.7H1633.4V1154.41H137.69Z"/></g></g></mask></defs><title>style-guides</title><g id="图层_2" data-name="图层 2"><path class="cls-9" d="M98.58,426.18,350.43,548.71,632.34,356,360.73,261,98.58,426.18Z"/><path class="cls-10" d="M347.47,626.89l-238.39-131s-21-14.47-1.66-60.94c0,0-5.59-4.53-9.74,3.62,0,0-20.25,37.93,7.76,65.2L350.29,638.88l275.3-199.74-8.83-6.49L347.46,626.89Z"/><path class="cls-11" d="M110.66,498.19,348.89,631.56c-14.2-37.34.83-76.74.83-76.74l-242-120.55c-21.52,40.58,2.9,63.92,2.9,63.92"/><path class="cls-12" d="M627.47,367.7l.25-.18,1-3.26c-.43,1.14-.83,2.29-1.21,3.44M349.58,555.23s-16.83,37.41-.63,76.71L617.52,437.52s-2.38-34.23,10-69.82L349.6,555.23Z"/><path class="cls-13" d="M632.23,355.92s5.13,4.42.74,8.1L354.1,553.1s-6,2.45-10.3-.71L106.14,433.92s-5.9-2.22-8.82,5.16a56.39,56.39,0,0,0-6,26.78c-.52,11.83,1.34,28.48,18.65,39.71L350.3,638.69,625.61,439s3,7.47-2.2,10.44L349.7,650.25,107.6,513.38a44.59,44.59,0,0,1-18.58-20s-19.29-38.54,9.06-66.82c0,0,3.39-3.12,12.46,2.2l234.8,115.75s6.58,1.66,10.22-1.7L632.23,355.92Z"/><path class="cls-14" d="M331.15,329.25l37-25.65,171.64,63-.11-.76L368.16,302.43l-37.75,26.29.74.53Z"/><g class="cls-15"><g class="cls-16"><g class="cls-17"><path class="cls-18" d="M-236.41,1706.26H4601.81V-1718.43H-236.41Z"/></g></g></g><path class="cls-13" d="M332.43,328.27l161,65,44.08-27.34,2.33.68-46.3,28.8L331.15,329.25l1.28-1Z"/><path class="cls-19" d="M66.61,308.81l251.84,122.5L600.36,238.64l-271.6-95L66.61,308.81Z"/><path class="cls-20" d="M315.49,509.52l-238.38-131s-21-14.51-1.66-61c0,0-5.6-4.51-9.74,3.64,0,0-20.25,37.93,7.76,65.2L318.32,521.5,593.61,321.76l-8.82-6.49L315.49,509.51Z"/><path class="cls-21" d="M78.68,380.8,316.92,514.17c-14.21-37.35.83-76.72.83-76.72l-242-120.58c-21.53,40.6,2.89,63.93,2.89,63.93"/><path class="cls-22" d="M595.5,250.3l.24-.18,1-3.23c-.43,1.15-.84,2.27-1.21,3.41M317.6,437.86s-16.83,37.41-.62,76.69l268.56-194.4s-2.38-34.25,10-69.85L317.62,437.86Z"/><path class="cls-13" d="M600.25,238.5s5.14,4.42.74,8.07L322.13,435.69s-6,2.41-10.31-.75L74.17,316.48s-5.91-2.2-8.82,5.16a56.4,56.4,0,0,0-6,26.77c-.52,11.83,1.35,28.51,18.65,39.73l240.33,133.1L593.63,321.5s3,7.5-2.2,10.44L317.73,532.81,75.62,396a44.63,44.63,0,0,1-18.58-20s-19.28-38.54,9.07-66.82c0,0,3.39-3.12,12.46,2.22l234.8,115.74s6.58,1.68,10.21-1.69Z"/><path class="cls-14" d="M299.17,211.88l37-25.66,171.64,63-.11-.76L336.19,185.06l-37.75,26.26.73.56Z"/><g class="cls-23"><g class="cls-24"><g class="cls-25"><path class="cls-26" d="M-268.39,1676.06H4569.84V-1748.63H-268.39Z"/></g></g></g><path class="cls-13" d="M300.45,210.89l161,65,44.09-27.36,2.33.69L461.52,278l-162.35-66.1,1.28-1Z"/><path class="cls-27" d="M159.13,260.87,411,383.4,692.9,190.72l-271.6-95L159.13,260.87Z"/><path class="cls-28" d="M408,461.57l-238.39-131s-20.94-14.48-1.64-61c0,0-5.59-4.52-9.76,3.61,0,0-20.23,38,7.76,65.23L410.86,473.55l275.3-199.74-8.82-6.48L408,461.57Z"/><path class="cls-29" d="M171.23,332.87,409.47,466.24c-14.21-37.35.81-76.72.81-76.72L168.33,268.94c-21.52,40.6,2.9,63.93,2.9,63.93"/><path class="cls-30" d="M688,202.37l.27-.18,1-3.24L688,202.37M410.12,389.92s-16.83,37.42-.63,76.7l268.56-194.4s-2.38-34.26,10-69.85Z"/><path class="cls-13" d="M692.81,190.58s5.14,4.43.74,8.08L414.66,387.77s-5.94,2.45-10.3-.74L166.7,268.58s-5.88-2.22-8.82,5.15a56.46,56.46,0,0,0-6,26.77c-.52,11.83,1.35,28.51,18.67,39.73l240.3,133.1L686.17,273.61s3,7.48-2.2,10.42L410.26,484.89,168.18,348.05a44.61,44.61,0,0,1-18.6-20s-19.26-38.54,9.09-66.8c0,0,3.39-3.14,12.46,2.2l234.8,115.73s6.58,1.69,10.21-1.68L692.81,190.58Z"/><path class="cls-14" d="M391.71,164l37-25.65,171.66,63-.11-.76L428.71,137.13,391,163.39Z"/><path class="cls-13" d="M393,163l161,64.95L598,200.58l2.33.68L554,230.05,391.71,164Z"/><text class="cls-33" transform="matrix(0.47, 0.19, -0.7, 0.71, 422.56, 162.98)">S<tspan class="cls-34" x="26.6" y="0">tyle Guides</tspan></text></g></svg>