<svg id="图层_1" data-name="图层 1" xmlns="http://www.w3.org/2000/svg" xmlns:xlink="http://www.w3.org/1999/xlink" viewBox="0 0 745.97 745.97"><defs><style>.cls-1,.cls-3{fill:#fff;}.cls-11,.cls-13,.cls-2{fill:none;}.cls-13,.cls-2,.cls-3{stroke:#000;}.cls-2,.cls-3{stroke-width:1.35px;}.cls-4{fill:gray;}.cls-5{fill:#b3b3b3;}.cls-10,.cls-11,.cls-12,.cls-6,.cls-7,.cls-8,.cls-9{stroke:#2b2a29;}.cls-10,.cls-12,.cls-13,.cls-6,.cls-7,.cls-8,.cls-9{stroke-width:0.9px;}.cls-10,.cls-12,.cls-6,.cls-7,.cls-8,.cls-9{fill-rule:evenodd;}.cls-6{fill:url(#未命名的渐变_3);}.cls-7{fill:url(#未命名的渐变_4);}.cls-8{fill:url(#未命名的渐变_3-2);}.cls-9{fill:url(#未命名的渐变_4-2);}.cls-10{fill:url(#未命名的渐变_5);}.cls-11{stroke-width:3.58px;}.cls-12{fill:url(#未命名的渐变_6);}.cls-14{fill:#e60012;}</style><linearGradient id="未命名的渐变_3" x1="601.52" y1="-2431.72" x2="541.46" y2="-2483.98" gradientTransform="matrix(0.43, 0, 0, -0.43, 53.91, -891.38)" gradientUnits="userSpaceOnUse"><stop offset="0" stop-color="#623620"/><stop offset="0.12" stop-color="#cc9e20"/><stop offset="0.24" stop-color="#fff"/><stop offset="0.52" stop-color="#cf9a30"/><stop offset="1" stop-color="#662d29"/></linearGradient><linearGradient id="未命名的渐变_4" x1="637.55" y1="-2473.13" x2="577.49" y2="-2525.39" gradientTransform="matrix(0.43, 0, 0, -0.43, 53.91, -891.38)" gradientUnits="userSpaceOnUse"><stop offset="0" stop-color="#2b2a29"/><stop offset="0.06" stop-color="#626767"/><stop offset="0.12" stop-color="#b5b1b4"/><stop offset="0.19" stop-color="#e5e5e5"/><stop offset="0.24" stop-color="#fff"/><stop offset="0.4" stop-color="#c8cecb"/><stop offset="0.62" stop-color="#9f9a9e"/><stop offset="0.78" stop-color="#666467"/><stop offset="1" stop-color="#2b2a29"/></linearGradient><linearGradient id="未命名的渐变_3-2" x1="870.03" y1="-2743.98" x2="813.65" y2="-2793.06" xlink:href="#未命名的渐变_3"/><linearGradient id="未命名的渐变_4-2" x1="888.04" y1="-2764.69" x2="831.66" y2="-2813.76" xlink:href="#未命名的渐变_4"/><linearGradient id="未命名的渐变_5" x1="1020.81" y1="-3041.23" x2="1091.5" y2="-2979.73" gradientTransform="matrix(0.43, 0, 0, -0.43, 53.91, -891.38)" gradientUnits="userSpaceOnUse"><stop offset="0" stop-color="#c90"/><stop offset="0.01" stop-color="#cf9a00"/><stop offset="0.26" stop-color="#fdffce"/><stop offset="0.36" stop-color="#cf9a00"/><stop offset="0.44" stop-color="#cf9a00"/><stop offset="0.66" stop-color="#cf9a00"/><stop offset="0.77" stop-color="#e1e8e2"/><stop offset="0.99" stop-color="#c89a00"/><stop offset="1" stop-color="#cf9a00"/></linearGradient><linearGradient id="未命名的渐变_6" x1="549.56" y1="-2427.24" x2="540.02" y2="-2435.55" gradientTransform="matrix(0.43, 0, 0, -0.43, 53.91, -891.38)" gradientUnits="userSpaceOnUse"><stop offset="0" stop-color="#d59700"/><stop offset="0.12" stop-color="#fdffcb"/><stop offset="0.25" stop-color="#fff"/><stop offset="0.41" stop-color="#fdffcb"/><stop offset="0.81" stop-color="#c89a20"/><stop offset="1" stop-color="#9c6400"/></linearGradient></defs><title>tech-writing</title><g id="textblocks"><path class="cls-1" d="M681.65,289.63,549.2,654.56l-484.89.49L275,289.53Z"/><path class="cls-2" d="M681.65,289.63,549.2,654.56l-484.89.49L275,289.53Z"/><path class="cls-3" d="M681.66,282,549.2,646.9l-484.89.49L275,281.88Z"/><path class="cls-3" d="M681.66,274.33,549.2,639.25l-484.89.49L275,274.23Z"/><path class="cls-3" d="M681.66,266.68,549.2,631.6l-484.89.49L275,266.57Z"/><path class="cls-3" d="M681.66,259,549.2,624l-484.89.49L275,258.92Z"/><path class="cls-3" d="M681.66,251.37,549.2,616.3l-484.89.49L275,251.27Z"/><path class="cls-3" d="M681.66,243.72,549.2,608.64l-484.89.49L275,243.62Z"/><path class="cls-3" d="M681.66,236.07,549.2,601l-484.89.49L275,236Z"/><path class="cls-3" d="M681.66,228.42,549.2,593.34l-484.89.49L275,228.31Z"/><path class="cls-3" d="M681.66,220.77,549.2,585.69l-484.89.49L275,220.66Z"/><path class="cls-3" d="M681.66,213.12,549.2,578l-484.89.49L275,213Z"/><path class="cls-3" d="M681.66,205.46,549.2,570.41l-484.89.5L275,205.36Z"/><path class="cls-3" d="M681.66,197.81l-132.46,365-484.89.5L275,197.71Z"/><path class="cls-3" d="M681.66,190.16l-132.46,365-484.89.49L275,190.06Z"/><path class="cls-3" d="M681.66,182.51l-132.46,365L64.31,548,275,182.41Z"/><polygon class="cls-4" points="574.9 349.37 241.86 349.37 274.69 289.53 602.33 289.53 574.9 349.37"/><polygon class="cls-5" points="313.83 389.45 221.88 389.45 231.1 372.65 323.05 372.65 313.83 389.45"/><polygon class="cls-5" points="537.39 435.73 322.4 435.73 354.49 375.32 566.77 375.32 537.39 435.73"/><polygon class="cls-5" points="300.64 413.15 208.69 413.15 217.9 396.35 309.86 396.35 300.64 413.15"/><polygon points="612.05 256.59 553.82 256.59 559.65 245.95 617.88 245.95 612.05 256.59"/><polygon class="cls-5" points="287.44 436.85 195.49 436.85 204.71 420.05 296.66 420.05 287.44 436.85"/><polygon class="cls-5" points="392.84 518.72 161.68 518.72 170.73 505.08 399.18 505.08 392.84 518.72"/><path class="cls-6" d="M358.39,230.57c-6.41,5.59-18.09,2.76-25.95-6.27L242,120.37c-7.85-9-9-21-2.61-26.58s18.1-2.76,25.95,6.26L355.78,204C363.64,213,364.81,225,358.39,230.57Z"/><path class="cls-7" d="M373.84,248.32c-6.42,5.59-18.1,2.76-25.95-6.27L257.44,138.12c-7.85-9-9-21-2.61-26.58s18.1-2.76,25.95,6.26l90.45,103.94C379.08,230.76,380.26,242.73,373.84,248.32Z"/><path class="cls-8" d="M480.25,358.54l-11.94,10.4c-3.13,2.71-8.83,1.34-12.68-3.05L350.56,245.16c-3.82-4.41-4.41-10.24-1.28-13l11.94-10.4c3.13-2.72,8.83-1.35,12.68,3.05L479,345.55C482.8,350,483.38,355.8,480.25,358.54Z"/><path class="cls-9" d="M488,367.41,476,377.81c-3.13,2.72-8.83,1.35-12.68-3.05L358.29,254c-3.83-4.42-4.42-10.25-1.29-13l11.94-10.39c3.14-2.72,8.84-1.35,12.69,3L486.69,354.43C490.52,358.84,491.11,364.67,488,367.41Z"/><path class="cls-10" d="M537.76,435.69c-30.3-34.71-24-58.1-53.68-75.11q-12.88.17-14.92,12.75C484.54,403.39,507.09,401.3,537.76,435.69Z"/><line class="cls-11" x1="474.7" y1="363.08" x2="506.4" y2="399"/><polygon class="cls-12" points="332.53 199.94 329.83 202.29 242.35 101.75 245.04 99.4 332.53 199.94"/><path class="cls-13" d="M465.68,376.92a16,16,0,0,1,22.73-20.08"/><ellipse class="cls-14" cx="596.6" cy="228.31" rx="30.04" ry="15.2" transform="translate(-14.4 41.93) rotate(-3.98)"/></g></svg>