<svg xmlns="http://www.w3.org/2000/svg"
  viewBox="0 0 745.97 745.97"
  width="745.97"
  height="745.97"
  class="link-image">
  <title>career-development</title>
  <path fill-opacity="0.22"
    d="M684.79,557.9l-2.84,2Q661.72,566,563.52,569.6q-98.86,3.63-232.85,2.94-127.86-.94-204.53-5.61-24.56-1.5-40.46-3.27l-13.37-1.83q-11-1.87-11.14-3.93,3.34-6.27,91.33-10.44T373,543.13q132.51.15,220.49,4.33t91.32,10.44" />
  <path fill="#304e4a"
    d="M509.61,392.88a19,19,0,0,0,18.9-20.9c-1-9.88-9.83-17.11-19.75-17.11H373.66a3.57,3.57,0,0,1-3.57-3.57h0a3.57,3.57,0,0,1,3.57-3.57H508.51c14.32,0,26.8,11,27.23,25.34A26.15,26.15,0,0,1,509.61,400H373.66a3.57,3.57,0,0,1-3.57-3.57h0a3.57,3.57,0,0,1,3.57-3.57Z" />
  <path fill="#ebf0f3"
    d="M528.51,372a19,19,0,0,1-18.9,20.9H374.33q8.85-19,0-38H508.76C518.68,354.87,527.55,362.1,528.51,372Z" />
  <path fill="#e1e6e9"
    d="M516.85,363.54H377.41c-.13-.5-.3-1-.44-1.5H516.85Z" />
  <path fill="#e1e6e9"
    d="M516.85,369.08H378.47c-.06-.5-.18-1-.26-1.5H516.85Z" />
  <path fill="#e1e6e9"
    d="M516.85,374.63H378.71c0-.5,0-1,0-1.51H516.85Z" />
  <path fill="#e1e6e9"
    d="M516.85,380.17H378.21c.08-.5.2-1,.26-1.5H516.85Z" />
  <path fill="#e1e6e9"
    d="M516.85,385.72H377c.14-.51.31-1,.44-1.51H516.85Z" />
  <path fill="#884636"
    d="M390.51,445.5a19,19,0,0,1-18.91-20.91c1-9.87,9.84-17.1,19.76-17.1h135.1a3.57,3.57,0,0,0,3.57-3.57h0a3.57,3.57,0,0,0-3.57-3.57H391.6c-14.31,0-26.8,11-27.22,25.34a26.14,26.14,0,0,0,26.13,26.95h136a3.57,3.57,0,0,0,3.57-3.57h0a3.57,3.57,0,0,0-3.57-3.57Z" />
  <path fill="#ebf0f3"
    d="M371.6,424.6a19,19,0,0,0,18.91,20.9H525.78q-8.84-19,0-38H391.36C381.44,407.49,372.56,414.72,371.6,424.6Z" />
  <path fill="#e1e6e9"
    d="M383.26,416.16H522.71c.12-.5.29-1,.43-1.51H383.26Z" />
  <path fill="#e1e6e9"
    d="M383.26,421.7H521.64c.06-.5.19-1,.27-1.5H383.26Z" />
  <path fill="#e1e6e9"
    d="M383.26,427.25H521.4c0-.51,0-1,0-1.51H383.26Z" />
  <path fill="#e1e6e9"
    d="M383.26,432.79H521.91c-.08-.5-.21-1-.27-1.5H383.26Z" />
  <path fill="#e1e6e9"
    d="M383.26,438.33H523.14c-.14-.5-.31-1-.43-1.5H383.26Z" />
  <path fill="#535d66"
    d="M392.05,497.26a19,19,0,0,1-18.91-20.9c1-9.87,9.84-17.1,19.76-17.1H528a3.57,3.57,0,0,0,3.57-3.57h0a3.57,3.57,0,0,0-3.57-3.57H393.14c-14.31,0-26.79,11-27.22,25.34a26.14,26.14,0,0,0,26.13,27H528a3.57,3.57,0,0,0,3.57-3.57h0a3.57,3.57,0,0,0-3.57-3.57Z" />
  <path fill="#ebf0f3"
    d="M373.14,476.36a19,19,0,0,0,18.91,20.9H527.32q-8.84-19,0-38H392.9C383,459.26,374.1,466.49,373.14,476.36Z" />
  <path fill="#e1e6e9"
    d="M384.81,467.93H524.25c.12-.5.29-1,.44-1.51H384.81Z" />
  <path fill="#e1e6e9"
    d="M384.81,473.47H523.18c.06-.5.19-1,.27-1.51H384.81Z" />
  <path fill="#e1e6e9"
    d="M384.81,479H522.94q0-.75,0-1.5H384.81Z" />
  <path fill="#e1e6e9"
    d="M384.81,484.56H523.45c-.08-.5-.21-1-.27-1.51H384.81Z" />
  <path fill="#e1e6e9"
    d="M384.81,490.1H524.69c-.15-.5-.32-1-.44-1.5H384.81Z" />
  <path fill="#81c665"
    d="M512.43,549.63a19,19,0,0,0,18.91-20.91c-1-9.87-9.84-17.1-19.75-17.1H376.48a3.57,3.57,0,0,1-3.57-3.57h0a3.57,3.57,0,0,1,3.57-3.57H511.34c14.31,0,26.8,11,27.22,25.34a26.14,26.14,0,0,1-26.13,26.95H376.48a3.57,3.57,0,0,1-3.57-3.57h0a3.57,3.57,0,0,1,3.57-3.57Z" />
  <path fill="#ebf0f3"
    d="M531.34,528.72a19,19,0,0,1-18.91,20.91H377.16q8.85-19,0-38H511.59C521.5,511.62,530.38,518.85,531.34,528.72Z" />
  <path fill="#e1e6e9"
    d="M519.68,520.29H380.23c-.12-.5-.29-1-.43-1.51H519.68Z" />
  <path fill="#e1e6e9"
    d="M519.68,525.83H381.3c-.06-.5-.19-1-.26-1.5H519.68Z" />
  <path fill="#e1e6e9"
    d="M519.68,531.38H381.54c0-.51,0-1,0-1.51H519.68Z" />
  <path fill="#81c665"
    d="M352.63,392.88A19,19,0,0,0,371.54,372c-1-9.88-9.84-17.11-19.76-17.11H216.68a3.57,3.57,0,0,1-3.57-3.57h0a3.57,3.57,0,0,1,3.57-3.57H351.54c14.31,0,26.79,11,27.22,25.34A26.14,26.14,0,0,1,352.63,400H216.68a3.57,3.57,0,0,1-3.57-3.57h0a3.57,3.57,0,0,1,3.57-3.57Z" />
  <path fill="#ebf0f3"
    d="M371.54,372a19,19,0,0,1-18.91,20.9H217.36q8.83-19,0-38H351.78C361.7,354.87,370.58,362.1,371.54,372Z" />
  <path fill="#e1e6e9"
    d="M359.88,363.54H220.43c-.12-.5-.29-1-.44-1.5H359.88Z" />
  <path fill="#e1e6e9"
    d="M359.88,369.08H221.5c-.06-.5-.19-1-.27-1.5H359.88Z" />
  <path fill="#e1e6e9"
    d="M359.88,374.63H221.74c0-.5,0-1,0-1.51H359.88Z" />
  <path fill="#e1e6e9"
    d="M359.88,380.17H221.23c.08-.5.21-1,.27-1.5H359.88Z" />
  <path fill="#e1e6e9"
    d="M359.88,385.72H220c.15-.51.32-1,.44-1.51H359.88Z" />
  <path fill="#535d66"
    d="M233.53,445.5a19,19,0,0,1-18.91-20.91c1-9.87,9.84-17.1,19.76-17.1h135.1a3.57,3.57,0,0,0,3.57-3.57h0a3.57,3.57,0,0,0-3.57-3.57H234.63c-14.32,0-26.8,11-27.23,25.34a26.15,26.15,0,0,0,26.13,26.95h136a3.57,3.57,0,0,0,3.57-3.57h0a3.56,3.56,0,0,0-3.57-3.57Z" />
  <path fill="#ebf0f3"
    d="M214.62,424.6a19,19,0,0,0,18.91,20.9H368.81q-8.85-19,0-38H234.38C224.46,407.49,215.59,414.72,214.62,424.6Z" />
  <path fill="#e1e6e9"
    d="M226.29,416.16H365.73c.13-.5.29-1,.44-1.51H226.29Z" />
  <path fill="#e1e6e9"
    d="M226.29,421.7H364.67c.06-.5.18-1,.26-1.5H226.29Z" />
  <path fill="#e1e6e9"
    d="M226.29,427.25H364.43c0-.51,0-1,0-1.51H226.29Z" />
  <path fill="#e1e6e9"
    d="M226.29,432.79H364.93c-.08-.5-.2-1-.26-1.5H226.29Z" />
  <path fill="#e1e6e9"
    d="M214.77,438.33H354.65c-.14-.5-.31-1-.43-1.5H214.77Z" />
  <path fill="#884636"
    d="M235.07,497.26a19,19,0,0,1-18.9-20.9c1-9.87,9.83-17.1,19.75-17.1H371a3.57,3.57,0,0,0,3.57-3.57h0a3.57,3.57,0,0,0-3.57-3.57H236.17c-14.32,0-26.8,11-27.23,25.34a26.15,26.15,0,0,0,26.13,27H371a3.57,3.57,0,0,0,3.57-3.57h0a3.57,3.57,0,0,0-3.57-3.57Z" />
  <path fill="#ebf0f3"
    d="M216.17,476.36a19,19,0,0,0,18.9,20.9H370.35q-8.85-19,0-38H235.92C226,459.26,217.13,466.49,216.17,476.36Z" />
  <path fill="#e1e6e9"
    d="M227.83,467.93H367.27c.13-.5.3-1,.44-1.51H227.83Z" />
  <path fill="#e1e6e9"
    d="M227.83,473.47H366.21c.06-.5.18-1,.26-1.51H227.83Z" />
  <path fill="#e1e6e9"
    d="M227.83,479H366q0-.75,0-1.5H227.83Z" />
  <path fill="#e1e6e9"
    d="M227.83,484.56H366.47c-.08-.5-.2-1-.26-1.51H227.83Z" />
  <path fill="#e1e6e9"
    d="M227.83,490.1H367.71c-.14-.5-.31-1-.44-1.5H227.83Z" />
  <path fill="#304e4a"
    d="M355.46,549.63a19,19,0,0,0,18.91-20.91c-1-9.87-9.84-17.1-19.76-17.1H219.51a3.57,3.57,0,0,1-3.57-3.57h0a3.57,3.57,0,0,1,3.57-3.57H354.36c14.32,0,26.8,11,27.23,25.34a26.15,26.15,0,0,1-26.13,26.95H219.51a3.57,3.57,0,0,1-3.57-3.57h0a3.57,3.57,0,0,1,3.57-3.57Z" />
  <path fill="#ebf0f3"
    d="M374.37,528.72a19,19,0,0,1-18.91,20.91H220.18q8.85-19,0-38H354.61C364.53,511.62,373.4,518.85,374.37,528.72Z" />
  <path fill="#e1e6e9"
    d="M362.7,520.29H223.26c-.13-.5-.29-1-.44-1.51H362.7Z" />
  <path fill="#e1e6e9"
    d="M362.7,525.83H224.32c-.06-.5-.18-1-.26-1.5H362.7Z" />
  <path fill="#e1e6e9"
    d="M362.7,531.38H224.56c0-.51,0-1,0-1.51H362.7Z" />
  <path fill="#e1e6e9"
    d="M519.68,536.92H381c.07-.5.2-1,.26-1.51H519.68Z" />
  <path fill="#e1e6e9"
    d="M519.68,542.46H379.8c.14-.5.31-1,.43-1.5H519.68Z" />
  <path
    d="M528.14,429.94a43.79,43.79,0,0,0-2.4,14.23q.1,6.66,2.63,7.81a6.41,6.41,0,0,0,2.81.63,120.28,120.28,0,0,1,19.24.42,20.23,20.23,0,0,1,3.78.78,31.91,31.91,0,0,1,3.94,1.66l1.47.5a19.39,19.39,0,0,0,3.54.59,63,63,0,0,0,13-.46q12.82-1.62,7.43-9a7.23,7.23,0,0,0-3.35-2.54,9.36,9.36,0,0,0-1.8-.4,32.7,32.7,0,0,1-6.61-.71,15.39,15.39,0,0,1-4.88-2.19q-4.33-2.67-14.2-14.87l-24.47,3.51" />
  <path
    d="M457.29,437.48l-23.13,5.1q-.86,10.95,0,16.45,1.71,11.42,8.91,13.36,4.08,1.47,15.06.86c5.63-.57,9.24-1.61,10.82-3.09,1.07-1,1.3-2.24.67-3.89a15.73,15.73,0,0,0-1.58-3q-5.05-7.23-5.35-7.91a34.85,34.85,0,0,1-2.1-4.06q-2-4.47-3.35-13.76" />
  <path
    d="M433.18,308.23q-36.75-.89-37.39,25.25.24,9,6,13.21a10.27,10.27,0,0,0,3.08,1.38,149,149,0,0,1,20.66,5.06,126.37,126.37,0,0,0,.34,19.79q6.54,39.68,5.89,41.42.69,9.78-1.51,26.68l4.62,8.47,27.19-2.41q1.24-5.32.89-15.7-5.35-47.65-5.64-75.28,61.12-2.53,66.87-3.46-1.47,18.24-.95,25-.12,3.72,3.51,27.95l1.42,25.9,6.23,5.55,23.5-5.63q.87-5.74.7-21.45a239.26,239.26,0,0,0-2.31-32.76l1.4-26.77a97.83,97.83,0,0,0-.35-12.14q-1.3-13.71-8.09-19-5.81-4.6-16.8-5.56-3.23-.31-7.72-.37-21.53.53-26.76,0a204.32,204.32,0,0,1-23.86-2.92l-8.66-.71q-20.64-1.69-32.13-1.54" />
  <path fill="#ffb792"
    d="M554.7,297.67l-27.78-4.19-5.62-16.7-23.94,4.87a113,113,0,0,0,5.71,17.19q4.71,11.51,7.56,15.53,3.12,4.86,10.25,5.53,8.19,1,14.07-3.35a5.1,5.1,0,0,0,4,2.23,23,23,0,0,0,8.53-.3,3.16,3.16,0,0,0,1.09-.63l1.47-1.53a33,33,0,0,0,3.2-2.83,8.58,8.58,0,0,0,2-3.27,17.82,17.82,0,0,0,.54-2L557,302q0-1.16-2.23-4.26" />
  <path fill="#006a4a"
    d="M469.12,210.34q-6-.24-12,9.45-11.6.24-24.66,7.38a35.59,35.59,0,0,0-12.79,12.62A53.75,53.75,0,0,0,414.94,251q-1.05,3.41-2,7.31-5,22.59-6.09,25.39-1.23,4.84-9,25.6c-.79,2.31-1.39,4.33-1.82,6.05a41.37,41.37,0,0,0,0,20l1.75-9.17a39.77,39.77,0,0,1,3.12-4.71,17.93,17.93,0,0,1,3.59-3.42,52.54,52.54,0,0,1,6.94-4q3.49-3.09,4.58-3.44a6.63,6.63,0,0,1,2.94-.32q11.25.39,58.64.88L495.83,278l1.42,4.29a5.51,5.51,0,0,0,3.22,1.12q3.86.46,22.75-3.41A110.64,110.64,0,0,1,520.13,267q-.42-1.2-.44-11.1l-.72-4.53a34.14,34.14,0,0,0-5.58-12.23,19.38,19.38,0,0,0-3.74-3.64,41.59,41.59,0,0,0-6.74-3.82q-14.48-12-20.74-16-8.1-5.34-12.87-5.31M396.05,335.47c-.07.29-.06.32,0,.07" />
  <path
    d="M490.9,173.31q-8.44,0-13.24,5.74-5.06,6.24-7.75,19.24a42.9,42.9,0,0,0-.71,14l13.63,2.41q26.55-8,32.76-9.79,7.29-2.1,7.17-1.7a27.89,27.89,0,0,1-3.47-5.26l-3.35-8.65a38.42,38.42,0,0,0-1.82-3.79,24,24,0,0,0-4.45-5.83q-6.8-6.22-18.67-6.41" />
  <path fill="#ffb792"
    d="M420.79,276.65l-1.61.21a49.87,49.87,0,0,0,1.09,12.88,35.6,35.6,0,0,0,1.66,5.09,162.19,162.19,0,0,1,7.38,17.44q1.76,5,12.82,5.49,11.69.48,13.4.19a26,26,0,0,0,7.67-1.82q6.87-2.38,27.92-17.7l7.67,1.35a45,45,0,0,0,4.95.45q8.88.28,11.9-.8a11.21,11.21,0,0,0,4.45-2.86q1.67,1.31,3-.58-.66-2.67-4-7.83a53.79,53.79,0,0,0,5.76.38c.08.22.42.48,1,.77l4.31,2,3.88-3.29q-7.05-5.06-9.83-6.13a16.68,16.68,0,0,0-2.25-.79,44.88,44.88,0,0,1-6.11-1.56,6.44,6.44,0,0,0-1.88-.18,11.69,11.69,0,0,0-2.45.42l-7.52,2.3-9.4,2.31-18,5.63c-3.27,1-6,1.69-8.32,2.18a51.9,51.9,0,0,1-17.54.75q1-5.66.49-7.8l-.73-3.73a6.08,6.08,0,0,0-1.44-1.09q-1.25-1-11.17-2.54l-17-1.09" />
  <path fill="#ffb792"
    d="M493.94,199l-3.51,7.7-5.22.48-3.33,4.52-2.16-1.69c-.12-4.08-.7-6.64-1.76-7.7-1.58-1.57-3.19-1.87-4.81-.89q-1.89,1.2-2,8.8l-1.83.21a25.65,25.65,0,0,1-4.44,10.26,69.1,69.1,0,0,0,5.3,10.63,36.1,36.1,0,0,0,6.24,6.95l.15,19.32,9.14-17.71a46.88,46.88,0,0,0,7.86,3c1.57.33,2.67.07,3.31-.76s1.33-2.62,1.85-5.6c.79-.44,1.23-.86,1.33-1.29a9.34,9.34,0,0,0,.37-2.2c1.87-.32,2.86-1.28,3-2.87,1.89.13,3,0,3.27-.32.23-.06.5-.7.82-1.92.86-.55,1.33-1,1.42-1.23q.79-.84,1-8.31c2.31-.85,3.6-1.95,3.86-3.28A85.5,85.5,0,0,1,516.36,203a22.76,22.76,0,0,1-7.35-.26q-3.58-.59-15-3.69" />
  <path fill="#ff4700"
    fill-opacity="0.11"
    d="M478.07,235.92l-1.69,21.92,9.29-17.95-7.59-4" />
  <path fill-opacity="0.16"
    d="M472.2,236.36q-1.71,0-6.89,8.61l8.35.21a49.35,49.35,0,0,0-.21-6.37c-.17-1.36-.49-2.15-.94-2.37h0a.55.55,0,0,0-.31-.08Zm16.48,7.09c-.33,0-.77.32-1.32.94a36.86,36.86,0,0,0-3.06,4.31L490,249a29.45,29.45,0,0,0-.4-3.91c-.16-.84-.39-1.35-.68-1.52h0a.45.45,0,0,0-.26-.08Zm15.45,18.74-3.73,8.47-4.58,7.25a38.08,38.08,0,0,0,4.86-6.9,53.46,53.46,0,0,0,3.44-8.8v0ZM440.84,239h0a54.34,54.34,0,0,1,3.75,7.23,48.1,48.1,0,0,1,2.36,7.49q1,4.16,1.79,10,.76,5.29,2,17.19-.3-10.08-1-15.74T447,248.58L440.85,239ZM460,340.53q.42,4.34-2.48,15.54l21.9-1.27,46.19-2.2L460,340.55l-.08,0Z" />
  <path d="M579.71,243l1.22,30.25-39.8,35.59c-.2.21-.27.25-.21.1l3.34-31.29,35.41-34.62" />
  <path fill="#fff"
    d="M578.27,245.61l1.13,27.93-36.75,32.87c-.19.2-.26.23-.2.09l3.09-28.89,32.69-32" />
  <path d="M572.76,279.84,542.54,278l-36.35,39.1c-.22.2-.25.27-.1.21l31.34-2.74,35.3-34.73" />
  <path fill="#ffb792"
    d="M556.49,295.45l-3.59,3.48a17.88,17.88,0,0,0,2.28-.6,3.17,3.17,0,0,0,1.15-.63c.49-.47.54-1.22.16-2.25" />
  <path fill="#ffb792"
    d="M549.93,303.75q-10-1.81-10.46-1.7c-1.57,0-2.64.33-3.23,1.06a2.37,2.37,0,0,0-.4,1.74,1.84,1.84,0,0,0,.87,1.35,3.79,3.79,0,0,0,1.09.38l.68.12c1.27.16,2,.26,2.18.3a13,13,0,0,1,1.37.33,29.06,29.06,0,0,1,4,1.58l3.94-5.15" />
  <path fill="#ffb792"
    d="M545.57,308.92a88.55,88.55,0,0,0-9.86-3.37,3.46,3.46,0,0,0-3.26.57q-1.61,1.23-.13,3.55a9.53,9.53,0,0,0,1.62,2c.66.66,2,1.84,4,3.54l7.59-6.28" />
  <path fill="#ffb792"
    d="M554.64,298.16a23.24,23.24,0,0,0-5.88-.68,5.31,5.31,0,0,0-3.45,1.26,2,2,0,0,0-.64,1.4,1.66,1.66,0,0,0,.61,1.29,4.17,4.17,0,0,0,1.6.77,25.36,25.36,0,0,0,3.14.62l4.61-4.65" />
</svg>
