<svg xmlns="http://www.w3.org/2000/svg"
  viewBox="0 0 745.97 745.97"
  width="745.97"
  height="745.97"
  class="link-image">
  <title>dita</title>
  <path fill="#f9d893"
    stroke="#000"
    stroke-miterlimit="10"
    stroke-width="1.38px"
    d="M385.13,274.6c-7.79-12.93-24.29-19.94-39-16.57-8.32,1.91-16.38,6.79-24.79,5.34A17.57,17.57,0,0,1,307.23,248c-.66-8,6.16-18.72,14.65-19.39a19.34,19.34,0,0,0,3.57-.31c5.11-1.33,3-8-1.17-9.11-4-1-7.24,2.18-9.75,4.63-7.3,7.12-8.39,15.52-10.08,25.14.24-1.22-1.19-3.6-1.48-4.84a19.15,19.15,0,0,1-.49-4.4c0-3.86,1.43-7.41,2-11.17A32.08,32.08,0,0,1,309,216.65c2.6-4.17,5.71-8,5.27-13.28-.27-3.33-2-6.68-4.93-8.24-3.47-1.84-8-.78-11,1.73s-4.81,6.23-6,10a47.86,47.86,0,0,0,8.34,44.33A19.92,19.92,0,0,1,286,233.8c-.24-3.07-.14-6.21-1.68-9a3.81,3.81,0,0,0-2.54-2c-4.16-.72-5.48,3.59-5.53,6.93s1.93,7.21,3.62,9.89c1,1.61,2.56,3,2.92,5a23.3,23.3,0,0,1-.52,8.19c-2.12,9.52-8.11,17.12-9.38,26.88a43.79,43.79,0,0,0,3.52,23.79c3.4,7.39,6.77,16.6,12.9,22.25a82.69,82.69,0,0,0,20.36,13.45c12.39,5.71,25.42,7.58,38.75,4,4.82-1.29,12.9-7.33,12.9-7.33s1.67-8.13,3.43-11.73a14.22,14.22,0,0,1,9.57-7.39,49.12,49.12,0,0,1,6.58-.65,10.15,10.15,0,0,0,3.28-2.74,37.53,37.53,0,0,0,5.61-24.93A35,35,0,0,0,385.13,274.6Z" />
  <path stroke="#000"
    stroke-miterlimit="10"
    stroke-width="1.38px"
    fill="#ba9fff"
    d="M386,327.31c-.19-3.06-.46-6.34-2.43-8.69-5.77-6.9-17.56,3.61-20.19,8.8-1.2,2.36-2.29,5.15-1.19,7.55.94,2.08,3.26,3.17,5.49,3.67a19,19,0,0,0,14.13-2.38c1.28.62,3.44,2.16,4.77,2C386.84,334.68,386.22,330.87,386,327.31Z" />
  <path stroke="#000"
    stroke-miterlimit="10"
    stroke-width="1.38px"
    fill="#6400ff"
    d="M295.45,278.36a32.68,32.68,0,0,1-8-5c-2.36-2.2-4.11-5.29-3.93-8.51.15-2.86,4.06-8.59,7.55-7a6.94,6.94,0,0,1,2.63,2.79c1.64,2.59,2.67,5.43,4.16,8,1.72,3,4.69,5.28,6.6,8.14a9.86,9.86,0,0,1-2-4.35c-.23-2.6,3.72-4.63,5.92-3.41,1.11.61,1.63,1.87,2.18,3a21.46,21.46,0,0,0,14.51,11.41c-5.82,3.32-11.51,7-18,9a37.73,37.73,0,0,1-21.32.32c-2.5-.72-5.16-1.92-6.21-4.3a5.32,5.32,0,0,1,3.6-7,46.06,46.06,0,0,0,21.5,9.29,35.54,35.54,0,0,1-19-7.55c-2.17-1.73-4.23-3.87-4.85-6.58s.73-6,3.42-6.7c3.67,2.79,7.68,5.41,11.1,8.48-4.28-1.57-8.26-4.81-11.3-8.16" />
  <path stroke="#000"
    stroke-miterlimit="10"
    stroke-width="1.38px"
    fill="#ba9fff"
    d="M326.64,338.45c.62-2.23-1.5-4.91-3.75-4.35a5,5,0,0,0,6-4.62c0-2-1.16-3.75-2.37-5.32a63.4,63.4,0,0,0-52-24.21c2.62,6.82,5.28,13.73,9.51,19.7,5.44,7.7,13.24,13.39,21.7,17.4C309.89,339,324.29,346.9,326.64,338.45Z" />
  <path stroke="#000"
    stroke-miterlimit="10"
    stroke-width="1.38px"
    fill="#6400ff"
    d="M265.3,284a2.67,2.67,0,0,0,.42,3.74,13.72,13.72,0,0,0-3.29-5.32c-1.6-1.36-4.16-1.85-5.79-.52a4.5,4.5,0,0,0-1.38,4.09,11.15,11.15,0,0,0,1.66,4.15,51.64,51.64,0,0,0,21.6,20.2c-1.46-.72-2.9-7-3.44-8.56q-1.59-4.59-2.71-9.32c-.52-2.18-.18-5.28-.93-7.26C270.56,282.85,267,281.94,265.3,284Z" />
  <path stroke="#000"
    stroke-miterlimit="10"
    stroke-width="1.38px"
    fill="none"
    d="M310.51,339.12a4.88,4.88,0,0,0-2.73-8.74,2.73,2.73,0,0,0,3.43-1.88,4.44,4.44,0,0,0-1.2-4.05,13.05,13.05,0,0,0-3.61-2.51l2.68,1.21a4.13,4.13,0,0,0,1.85-4.43,9.53,9.53,0,0,0-2.52-4.4,29.63,29.63,0,0,0-21.56-9.76" />
  <path stroke="#000"
    stroke-miterlimit="10"
    stroke-width="1.38px"
    fill="none"
    d="M291.31,250.36a34.36,34.36,0,0,1-8.15-5.9c-2.34-2.53-3.87-5.71-5.35-8.83" />
  <path fill="#fff"
    d="M365.67,287.5a10.92,10.92,0,0,0-11.56-8.06c-5.82.72-9.95,5.26-12.26,10.37-1.86,4.12-4.6,10.41-.36,13.77,2.67,2.1,6.5,2.18,9.7,1.05C357.94,302.26,367.62,295.81,365.67,287.5Z" />
  <path fill="#231815"
    d="M354.25,294.53c-1.86.07-3.61-2-3.94-3.86a20.65,20.65,0,0,0-4.58,4.94,7,7,0,0,0-.59,6.48c1.48,3,5.73,3.83,8.75,2.37s7.69-7.08,7.13-10.75c-.35-2.38-2.36-3.9-4.21-5.13,0,1.87.55,4.62-1.53,5.68A2.47,2.47,0,0,1,354.25,294.53Z" />
  <path stroke="#000"
    stroke-miterlimit="10"
    stroke-width="1.38px"
    fill="none"
    d="M383.49,336.89l-11.9-8" />
  <path stroke="#6400ff"
    stroke-miterlimit="10"
    stroke-width="12.02px"
    fill="#6400ff"
    d="M408.7,354.46c.52,1.26.45,3.9-.23,7.92l.71,1.72-.09,5.43,1.23,3-.05,7.32.37.91c.58,1.39,1.31,1.89,2.22,1.52l2.52-2.1a10.69,10.69,0,0,0,5.37-.31l4.07-1.67a39.84,39.84,0,0,1,7.91-4.95,57.15,57.15,0,0,1,7.45-2.44l.23.54,3.49-1,4.61,2.45-1.37,4.9-4.95,2.88-4,4.93-1.84,1.18a10.09,10.09,0,0,0-2.35,2.77l-5.87,1.67q-.21,1-4.56,3.05l-9.17,4.2a34.51,34.51,0,0,0-3.58,6.45l2.26,4.46-.41,2.6,2,6.9-1,3.92,2.91,8.1-1.74,2.2.57,2.41,3.26,4.06,5.17,17.43,9.64,12.86,3.5-3.56c.11-1.95,1.32-3.4,3.61-4.35l1.72-.7a13.1,13.1,0,0,0,4.64-7.74l3.73-3-.73-.23.6-2.15a7.19,7.19,0,0,0,1.23-3.16l2.25-2,.06-1.93a1.3,1.3,0,0,0,.8-1.91q.47-3.48,6.05-7.89a2.08,2.08,0,0,1,2,1.19,24.85,24.85,0,0,1,.9,6.82c.16,3.47-.38,6.19-1.6,8.18l-3.61,5.61-.68,2.71a5,5,0,0,1-1.34,2.67l-2.66,2.79-2.23,1.76L448.25,470l-3.1,1.71-2.78,5.06-1,2.42a6.12,6.12,0,0,1-1.48,1.78l-9.63,9.25-2.47,1.45-1.41,2.48L421,493.07l-3.53-5-2.55-2.33q-1.11-1.14-11.59-17.86a22.91,22.91,0,0,1,.32-3.84l-1.31-3.17,1.89-1.83-.41-8.72-1.95-2.16q3.49-2.28,3.67-2.78a1.32,1.32,0,0,0,0-.94,9.56,9.56,0,0,0-1.8-1.8l-.7-10.18-2.38-8.33-.44-12.62a7.68,7.68,0,0,0-4.24-2.86,10.13,10.13,0,0,0-5.38-.48l-2.64,3.63-1.08.44a8.89,8.89,0,0,1-4,.92,9.27,9.27,0,0,0-1.48-.13,4.2,4.2,0,0,0-1.7,1.76c0,1.49-.49,2.42-1.39,2.79l-.36.15a4.94,4.94,0,0,1-1.47.82,34,34,0,0,1-3.67,1.09q-3.9-4.32-4.35-5.41a14.07,14.07,0,0,1-.36-4.61c.05-2.35.56-3.72,1.53-4.12l1.34-.34,2.32-1.8a16.59,16.59,0,0,1,3.23-2.18L377,401a2.7,2.7,0,0,0,1.16-.27,3.62,3.62,0,0,0,1.44-1,3.57,3.57,0,0,1,1.43-1,3,3,0,0,1,1.78-.31l2.64-3.09,1-.41a8.33,8.33,0,0,0,2.29-1.37c.63-.54,1-2.15,1.19-4.83l2.14-.45a19.11,19.11,0,0,1,.06-6.27c1.06-.51,1.24-1.61.55-3.3l-.45-1.08-.24.95c-.07-2.73-.05-4.81.06-6.27l-2-3.3.84-9a7.12,7.12,0,0,1,3-4.74,21,21,0,0,1,3.86-7.83c2.11-2.91,3.62-4.56,4.53-4.93,2.1-.87,3.79-.47,5,1.2l-.5,6.23Z" />
  <path stroke="#000"
    stroke-miterlimit="10"
    stroke-width="9.51px"
    d="M558.38,435.72a11.71,11.71,0,0,1,3,.34c1.63.31,2.67.73,3.1,1.27l2.66-.45,1.46.24,1,2.15-.25,1.54a6.35,6.35,0,0,0-2.25,2.57l-.77,0-.91.87a12.11,12.11,0,0,1-3.32,1.12l-1,14.36.78,7.49-.31,7.65.59,9.42,4.06,13.58a13.65,13.65,0,0,1,1.64,2.43c2.66-1.28,4.33-1.91,5-1.87q3.39-3.43,4.32-3.53l0-.85,9.18-6.89.24-1.38q.85-.11,3.51-2.81l2.82.79,1.33,3.57-.8,3-1.51-.71-.87,1.66-1.47-.09a9,9,0,0,1-2.78,3.63l-.05.85-4.49,3.68-.89,2a43.86,43.86,0,0,1-5.11,2.4l-.69,1.12-.13-.39-1,1.56-2.12.5-.37,1.06-1.09-.07.4,1.19-1.38,2.32-1.18.24c0,.83-.89,2.29-2.83,4.4l-3.64-.07-.91,2.2-2.27.48a6.9,6.9,0,0,1-3.91-3.42L550.47,506l-4.27-11.35.71-4.06-.86-3.7.78-.11c-1.31-3.07-1.92-5.39-1.83-6.93l.56-2.84-2.3-1.61-1.69.91,0-.39-.8.34-2.41,5.2-1-.53L537,482l-.75-.36,0,.7-.31,0a27.45,27.45,0,0,1-2.48,3.8l-.6-.35-.66,3.3-1.68.75a4.23,4.23,0,0,0-2.21,1.88l-.71,1.51.64,1-1.81.51-1,3.12-1.35.61.35.64a14.79,14.79,0,0,1-3.13,1.68l-.77,1.11-.56-.89-1.25,2.64-.92-.05-1.59,4.4-1.42.38-.29,2.3-2.24-.13-2.55,5-1.13.71-.93-.06-.4,1.45-5.05,1.55L497,519l-1.35-14.81,1.05-1.87.32-1.54a35.3,35.3,0,0,1,2.14-4.52l-.24-1.1a27.76,27.76,0,0,1,2.08-3.67l-.6-.35,1.7-3.69.16-1.47a13.69,13.69,0,0,1,1.34-2.78c-.27-2.5-.59-3.94-1-4.33l.68-1,2,.43a10,10,0,0,1,2.4-2.41l.54-1.37.31,0-1-1.68,1.18-4,.6.34c.71-1.55,1.15-2.33,1.3-2.32l-.19-2,2.41-3.88.07-1.08-.41-1,3.58-6.6L520,447.5a17.53,17.53,0,0,0,3.39-3.44l2.77-.91,3.86-3.57,3.6-1.87,2.08.12,1.73-.36,2.4.15,1.19-1.71,2.23.29,2.24.14,0-.62a4.49,4.49,0,0,1,2,.89l2.45-.78,1.75.57.5-.59,1.81.73Zm-20.67,11-2,.19-2.38-.3-.86,1.34-.07,1.16a17.64,17.64,0,0,1-2.77.92l-1.6,3.39q-1.37,4.57-1.6,4.63l-.77,0-1.24,2.48-.67,2.13a2.51,2.51,0,0,1-1.64,1.53l-.94,2.65-1.38,2.25a6,6,0,0,0-.86,2.74l0,.61-.73-.66-.08,1.23-.46,0,.11.78-.7,1.27-1.18,4-1.82,3.22-.6,4.7-.5.67-.31,0-.39,1.37.58.65-.95,2.81h-.31l.25.94-1.16-.07L510.5,499l.53,2.74.31,0,1.8-1.52,4.86-6.06,8.68-10.09,2.55-2.41,5.86-8.33,6-7.07.56-1.6-1-1.45,2.22-3.36.63-2.6a8.43,8.43,0,0,1,1.43-1.92l.53-6.17-2.08-.29-1.69-.1-2.15-1.68-.51.74Z" />
  <path fill="#fff"
    d="M616.26,437.79c8.89,12.09,31.3,39.44,40.19,51.53-10.12,8.05-35.49,29.61-45.6,37.66" />
  <path
    d="M617.21,437.09a68.28,68.28,0,0,1,9.54,2.92c1.51.54,2.89,1.17,4.34,1.75s2.77,1.26,4.11,1.93a98.88,98.88,0,0,1,14.81,9,105.47,105.47,0,0,1,23.52,24l12.09,17.15-16,12a129.86,129.86,0,0,1-12,8.07,112.75,112.75,0,0,1-13.49,6.82c-2.38,1-4.83,1.91-7.34,2.76l-1.9.61-2,.56c-1.31.36-2.58.75-4,1s-2.68.65-4.1.88l-2.09.39-2.16.31a54.65,54.65,0,0,1-9.13.55l-1.47-1.85,11.07-9.77,11.15-9.71c3.7-3.26,7.47-6.43,11.25-9.61s7.55-6.34,11.41-9.47l-.43,3.21c-3.25-4.29-6.52-8.64-9.86-12.93s-6.71-8.56-10-12.9l-9.87-13c-3.21-4.41-6.47-8.79-9.51-13.35Z" />
  <path fill="#fff"
    d="M135.64,408.6C125.36,419.52,99.81,444,89.52,454.88c9.06,9.22,31.64,33.69,40.71,42.9" />
  <path
    d="M136.5,409.41c-3.56,4.16-7.33,8.11-11,12.1l-11.38,11.74c-3.8,3.91-7.68,7.72-11.5,11.59s-7.6,7.78-11.35,11.65l0-3.25c3.45,3.58,6.81,7.18,10.18,10.79s6.72,7.22,10,10.9l9.89,11,9.81,11-1.68,1.65a53.71,53.71,0,0,1-9-1.65c-.7-.19-1.42-.37-2.11-.57l-2-.63c-1.38-.41-2.65-.91-4-1.38s-2.55-1-3.8-1.51l-1.87-.79-1.82-.84c-2.39-1.14-4.71-2.35-6.94-3.63a112.2,112.2,0,0,1-12.57-8.4,131.43,131.43,0,0,1-10.9-9.45L60,455.91l14.08-15.56a104.54,104.54,0,0,1,12.4-11.66,105.81,105.81,0,0,1,13.86-9.36,99.22,99.22,0,0,1,15.79-7.17c1.42-.5,2.88-.94,4.32-1.41s3-.87,4.51-1.22a67.8,67.8,0,0,1,9.82-1.74Z" />
  <path stroke="#000"
    stroke-miterlimit="10"
    stroke-width="9.51px"
    d="M230.45,380.16l2.22.45.24,1.1,1.06.37-.5,3.15-.07,1.16-1.15,1-.38,2.45a6.34,6.34,0,0,1-1.77,3.62l1,.68-1.82.66-.11,1.78-1.8,1.59-.18,2.86-.52-.34-1,1.87-.58,3.15a6.39,6.39,0,0,1-1.29,2.09l.35,1.81-.81,1.88a5.09,5.09,0,0,1-1.11,1.72l-1.72,1.52-.18,2.86.76.36L220,422.4l.41,1-2.13,3.2-.18,2.86-1.47,1.3-.22,3.64-1.93,2.44-.09,1.46.65.66-.51,2.14.78,1.21a5.88,5.88,0,0,1-3.52,3l-.44,2.14,1,.76L210,449.4l.21,1.64-.43,2a23.23,23.23,0,0,0,4.82-.33l1.36.7L209,461l-2.68,8.52-1.53.84.16,2.56-.67.74.24,1.18-.35.59-.2,3.33.18,2.1-.61,0-.58,1.83-1.22.86-.61,0-.25,4,1.42.87-1.93,2.44.62,0-.39,1.37,1.07,1.53-.09,1.4,1,1.14-.62,2.52.68,1.52-.34,5.64-1.1.24.93,2.62L202,511l1.07,5.41,4,10.25-.31,0,2.33,2.39q2,3.76,3.36,5.94c1.55,1,2.43,1.77,2.65,2.41l.69,0,0,.77,1.49,1,.92.06,1.4,1.17a6.17,6.17,0,0,0,4.62-3.21,8.71,8.71,0,0,0,4.07-1.92l1.32,2.56-1.19.32-.08,1.39-1.44.68.2,1.8-.08,1.39,1.1-.24-.15,2.55-2.23,1,.42.64-1.1.24-.59.82.5.65-1.16-.07.27.79a14.75,14.75,0,0,0-4.7,2,22.07,22.07,0,0,1-3.41-3.85l-3.23.88-1.5-2-.54-1.42-.44-.42a2.09,2.09,0,0,1-.53-.84c-.16-.4-.35-.87-.57-1.4l.08-1.39-1-1.84,0-.78-1.34-1-7.28-10.29-4.27-8.86.53-1-1.68-3,1.44-.69-.53-1.51-.23-4-.53-1.42-.66-3.22-1.26-2.17a6.87,6.87,0,0,1-.39-2.43l-.29-4.28.19-3.17-.38,0,1-3.27-.36-1.73-2.07-.44.71-1.43.73.67-.8-4.62-1.49,1.61,1.66-4.47-1.08-.07,0,.31-1.14-.38-3.68,3.27-.29-.33-2.23.95-.09,1.47-1.86,1.28-.05.77-1.08-.06-1.38.92a6.82,6.82,0,0,1-2.75.61l.29,1.72-1.85,1.05a9.3,9.3,0,0,1-2.19,4.13l-.06,1.09-1.47,1.07-.1,1.7-1.37-.39-2.34,4.12-3.09,1-.7,1.36-1.49.22,0,.54-2.22.79-.31,0a7.46,7.46,0,0,0-1.56-3.58l0,.62a12.58,12.58,0,0,0-2.38-3l-.22-4,.57-1.75.07-1.08a4.83,4.83,0,0,0-1-1.85l.69-1,.06-1.08.6-2.21-1.3-1.48,1.45-.92a10.72,10.72,0,0,1-.8-4.78l.07-1.08.42-1.75-.51-1.9,1.54-2.31-.49-4.83.78,0,.84-2.43.07-1.15.78,0,.43-7.1,1.13-.71.52-3.46.08-1.47,2.55.16.86-3.9,2.51.77,2.06-4.45.08-1.39.43.65a36.29,36.29,0,0,0,2.83-5.88l1.06-.71.07-1.16.39,1.19.44-2.22,1.41-.23,1-1.72,0-.78,1.1-.24q.52-1,4.5-4l.28.64,1.24-1.32,1.36.55.65-.43,0-.7.83.36,1.27-3.1,3.42,1.22-.29-.33,2.24.14-.52-.34,1.18-.32L197,424l4.4,2.9-1.55-.09,3,1,0,.62,1.87,2.36q.72,3.38,1.26,3.57l1.1-.32.91-2.12,1.5-.53.22-3.63.38-1.14,1.1-.24-.15-2.57.68-1,1.83-.82L213,420.5l.34-.44-1.43-.71.87-14.37,1.23-1.09a6.89,6.89,0,0,1,.74-2l-.27-.56.26-4.24-1.85,1-1.37-.39a5.24,5.24,0,0,1-2,.57l-.4,1.37-2.3.95-.93-.06L204.1,399l-.83-2.92-.74-.51.83-.88-.64-2.29.84-1,1.48-.22.38-1.14,1.41-.22,1.63-2.46.77,0,.35-.75,6-3.9.34-.6,2.55.15.06-.85.72.9,1.08.07.38-1.14a5.5,5.5,0,0,0,2.61-.93Zm-42.36,56.51-.74,2-5.17,2.24-2.53,4.58-1.12.63-.31,0-.76,1-.45-.34-.72,1.66.57.89q-.86,3.82-1.67,4.48l-.08,1.39a6.9,6.9,0,0,0-2.31,3.58l-.78,0-.1,1.7-1.28,3.26.66,1.82a28.93,28.93,0,0,1-2.9,5.64l.56,1-.18,2.86.81.82-1.27,1.63.18,2.26,1.36,1.79,0-.62,1,.68,2.3-.79.6.35,4.22-4.47,1.1-.25,0-.31,2.38-2.1,2.61-.93,1.83-2,1.19-.39,3.82-3,5.09-3.33,1.18-3a12.6,12.6,0,0,1,2.16-2.27,11.62,11.62,0,0,1,2.05-4.45l-2.08-2.68,0-5.74-.2-1.87,0-.62a6,6,0,0,1-.95-2.3l-1.16-.07-.41,1.68-1.84-.43L195,441l-.72.27-.24-1.1-2.21.64-2.19-.91-.2-1.79Z" />
  <path stroke="#000"
    stroke-miterlimit="10"
    stroke-width="9.51px"
    d="M318.33,440.39l-.31,0-.86,4,.59.5-1.26,2.8-.28-.56-.07,1.16a9.46,9.46,0,0,1-3.25,6.31l.62,0-.08,1.39-.31,0-.24,9.06-.69,1,.22,1.49-1.5,5.57.39,0a18.85,18.85,0,0,1-1,4.36l-.82,2-1.56,10.22a16.89,16.89,0,0,0-.41,1.75c-.06.93.32,1.42,1.15,1.47a6.06,6.06,0,0,0,3.31-1l5.23-3.1c1.5-1.61,2.55-2.4,3.17-2.36l.46,0a7.1,7.1,0,0,0,2.6-1.94,5.54,5.54,0,0,1,1.88-1.59c.86-1.34,1.6-2,2.21-2a4.61,4.61,0,0,1,.61.19c.36.13,1.3.37,2.83.72l.48,2.2a8.69,8.69,0,0,1-1.48,4c-.92,1.47-1.65,2.69-2.2,3.66a5.5,5.5,0,0,1-3.43,2.24l0,.54-1.06-.38-.07,1.08-.7,0a2.43,2.43,0,0,1-2.3,2.27l0,.46L318,497.9l0,.31-.77,0-2.17,1.27-.62,0-1.17,1.4-3.19.27a1.55,1.55,0,0,1-1.53.84l-4.11,2.62,0,.62-1.91-.43.49.81-2.58.46,0,.39-1.08-.07-.06,1.08-1.21.7h-.31l0,.3c-.78,1.87-1.79,2.76-3,2.69l-1.06-.38a18.56,18.56,0,0,0-2.82-5.9,17.43,17.43,0,0,0,.84-3.6l-.43-3.2.11-1.7a27.22,27.22,0,0,1,.76-4.92l.58-2,0-.38h-.16a.14.14,0,0,1-.14-.17c0-.1.3-.91.88-2.42a20.6,20.6,0,0,0,1.1-6c0-.62-.17-1-.63-1.13l1.13-2,.57-9.35,1.4-2.63a20.45,20.45,0,0,0,1.53-4.79c.7-.37,1.11-.73,1.23-1.09l-.56-1,.71-1.51c-.73-1.64-1.63-2.5-2.71-2.57l-3.63-.22a1.91,1.91,0,0,0-.7,1.35l-.54,0A2.93,2.93,0,0,1,290,457.9a2.74,2.74,0,0,1-2.38,2.26l-1.53,2.15-.31,0c-.43,1.12-1.11,1.64-2,1.59s-1.83-.86-2.38-2.4a16.85,16.85,0,0,1-.81-2.53,1.15,1.15,0,0,1,.35-.67q1-3.36,5.13-5.35l0-.62a13,13,0,0,1,3.63-2.34l-.7,0q3.38-.49,4.11-3.2c.5-1.8,1.91-2.64,4.22-2.5l.91.37,2-.81-1.16-.07,1.85-1.05.44.34,1.5-1.62.36.33q1.07-2.18,4.39-2,.77,0,.81-.57l.05-.77.61,0-.29-.32,2.66-1.63a4.23,4.23,0,0,1,4.07-1.92,5,5,0,0,1,2.92,1.11,2.48,2.48,0,0,1,1.16,1.93A6.46,6.46,0,0,1,318.33,440.39Zm13.94-44.51-.46,0-3.23,5.92-.29-.32a1.82,1.82,0,0,1-.86,1.42l0,.31a10.37,10.37,0,0,1-4.49,3.68l-.6-.35,0,.62a13.86,13.86,0,0,1-4.59-1.56,5.42,5.42,0,0,1-2.29-3.09c-.46-1.39-.9-2.85-1.33-4.38a5.49,5.49,0,0,1,2.05-1.81l.75-2.05L319.5,393l1.57-2.92,2.64-1.24,0,.46L325,390a3.93,3.93,0,0,0,.76-.46c.14-.12.33-.26.57-.43a5.8,5.8,0,0,1,1.86-.51,8.44,8.44,0,0,0,2.29-.67l.87-.42.62,0,1.05,1.85-.15,2.47.18,2.26Z" />
</svg>
