<svg viewBox="0 0 400 540" width="400" height="540" class="link-image" alt="链接图片">
 <defs>
  <linearGradient id="b" x1="70.955" x2="45.188" gradientUnits="userSpaceOnUse">
   <stop stop-color="#eef4d7" offset="0"/>
   <stop stop-color="#eef4d7" stop-opacity="0" offset="1"/>
  </linearGradient>
  <linearGradient id="a" x1="6.3579" x2="31.839" gradientUnits="userSpaceOnUse">
   <stop offset="0"/>
   <stop stop-opacity="0" offset="1"/>
  </linearGradient>
 </defs>
 <g transform="translate(-11.476 -55.662)">
  <path transform="matrix(.99379,-.1113,0,1,0,0)" d="m15.545 101.94h353.28v466.25h-353.28z" fill="#216778"/>
  <path transform="matrix(.99383,-.11091,.74367,.66855,0,0)" d="m-86.02 148.68h336.36v38.008h-336.36z" fill="#eef4d7"/>
  <path transform="matrix(.99376,-.1115,0,1,0,0)" d="m57.66 129.79h353.29v467.08h-353.29z" fill="#37abc8"/>
  <path transform="matrix(.88091,.47328,0,1,0,0)" d="m16.53 92.243c21.142-10.067 36.133-6.3844 49.915 0v466.65c-16.505 1.2893-31.94 12.912-49.915 0v-466.65z" fill="#025"/>
  <path d="m32.562 103.75-0.71875 478.25c9.0362 4.4114 17.684 4.3048 26.688 8.3438v-466.66c-7.8253-8.3193-16.093-15.72-25.969-19.938z" fill="url(#b)"/>
  <path d="m14.562 100.06v466.66c8.6528 11.705 16.634 15.698 24.469 18l1.4375-476.78c-7.5302-4.8403-15.94-7.9074-25.906-7.875z" fill="url(#a)"/>
  <path d="m70.731 121.82 0.79558 466.42" fill="none" stroke="#2a7fff" stroke-width="1.9992"/>
  <path d="m70.731 121.82 0.79558 466.42" fill="#d5f6ff" fill-rule="evenodd" stroke="#d5f6ff" stroke-dasharray="1.6, 0.8" stroke-width=".8"/>
 </g>
</svg>
