<svg xmlns="http://www.w3.org/2000/svg"
  xmlns:xlink="http://www.w3.org/1999/xlink"
  viewBox="0 0 745.97 745.97"
  width="745.97"
  height="745.97"
  class="link-image">
  <defs>
    <clipPath id="clip-path">
      <rect x="82.63"
        y="88.59"
        width="1495.7"
        height="1058.72"
        style="fill:none" />
    </clipPath>
    <clipPath id="clip-path-2">
      <rect x="50.65"
        y="58.39"
        width="1495.7"
        height="1058.72"
        style="fill:none" />
    </clipPath>
    <clipPath id="clip-path-3">
      <rect x="137.69"
        y="95.7"
        width="1495.7"
        height="1058.72"
        style="fill:none" />
    </clipPath>
    <clipPath id="clip-path-4">
      <rect width="842"
        height="596"
        style="fill:none" />
    </clipPath>
    <linearGradient id="未命名的渐变_2"
      x1="98.98"
      y1="-15535.41"
      x2="134.73"
      y2="-15535.41"
      gradientTransform="matrix(1, 0, 0, -1, 0, -15190.88)"
      gradientUnits="userSpaceOnUse">
      <stop offset="0"
        stop-color="#f2f2f2" />
      <stop offset="1"
        stop-color="#a8a8a8" />
    </linearGradient>
    <linearGradient id="未命名的渐变"
      x1="98.98"
      y1="-15550.58"
      x2="134.73"
      y2="-15550.58"
      xlink:href="#未命名的渐变_2" />
    <linearGradient id="未命名的渐变_4"
      x1="79.51"
      y1="-393.86"
      x2="81.29"
      y2="-393.86"
      gradientTransform="translate(-69184.34 7892.4) rotate(72.26) scale(173.99)"
      gradientUnits="userSpaceOnUse">
      <stop offset="0"
        stop-color="#ff1f37" />
      <stop offset="1"
        stop-color="#a20022" />
    </linearGradient>
    <linearGradient id="未命名的渐变_5"
      x1="77.4"
      y1="-394.57"
      x2="79.18"
      y2="-394.57"
      gradientTransform="translate(-125661.15 -2436.1) rotate(80.04) scale(313.3)"
      xlink:href="#未命名的渐变_4" />
    <linearGradient id="未命名的渐变_6"
      x1="79.42"
      y1="-394.15"
      x2="81.2"
      y2="-394.15"
      gradientTransform="matrix(38.12, 199.69, -199.69, 38.12, -81524.03, -403.87)"
      xlink:href="#未命名的渐变_2" />
    <linearGradient id="未命名的渐变_7"
      x1="80.28"
      y1="-398.26"
      x2="82.06"
      y2="-398.26"
      gradientTransform="translate(-48047.6 -31976.78) rotate(112.33) scale(143.7)"
      gradientUnits="userSpaceOnUse">
      <stop offset="0"
        stop-color="#e0e0e0" />
      <stop offset="1"
        stop-color="#a6a6a6" />
    </linearGradient>
    <clipPath id="clip-path-6">
      <polygon points="332.32 303.69 537.76 303.69 537.76 393.2 332.32 393.2 332.32 303.69 332.32 303.69"
        style="fill:none" />
    </clipPath>
    <mask id="mask"
      x="-236.41"
      y="-1718.43"
      width="4838.23"
      height="3424.68"
      maskUnits="userSpaceOnUse">
      <g id="b">
        <g style="clip-path:url(#clip-path)">
          <path d="M82.63,88.59h1495.7V1147.31H82.63Z"
            style="fill-opacity:0.5" />
        </g>
      </g>
    </mask>
    <clipPath id="clip-path-7">
      <rect x="-236.41"
        y="-1718.43"
        width="4838.23"
        height="3424.68"
        style="fill:none" />
    </clipPath>
    <pattern id="j"
      data-name="j"
      width="842"
      height="596"
      patternTransform="translate(-1657.04 -3261.98) scale(5.75)"
      patternUnits="userSpaceOnUse"
      viewBox="0 0 842 596">
      <rect width="842"
        height="596"
        style="fill:none" />
      <g style="clip-path:url(#clip-path-4)">
        <path d="M99,356.21l6.23-4.3,29.52,10.83L127,367.48,99,356.21Z"
          style="fill:url(#未命名的渐变)" />
      </g>
    </pattern>
    <linearGradient id="未命名的渐变_8"
      x1="79.09"
      y1="-393.8"
      x2="80.86"
      y2="-393.8"
      gradientTransform="translate(-69184.24 7843.33) rotate(72.26) scale(173.99)"
      xlink:href="#未命名的渐变_4" />
    <linearGradient id="未命名的渐变_9"
      x1="77.17"
      y1="-394.51"
      x2="78.94"
      y2="-394.51"
      gradientTransform="translate(-125788.71 -2487.08) rotate(80.04) scale(313.62)"
      xlink:href="#未命名的渐变_4" />
    <linearGradient id="未命名的渐变_10"
      x1="79.06"
      y1="-394.05"
      x2="80.84"
      y2="-394.05"
      gradientTransform="translate(-81472.84 -453.34) rotate(79.19) scale(203.17)"
      xlink:href="#未命名的渐变_2" />
    <linearGradient id="未命名的渐变_11"
      x1="79.92"
      y1="-397.87"
      x2="81.7"
      y2="-397.87"
      gradientTransform="translate(-48061.08 -32035.63) rotate(112.33) scale(143.74)"
      xlink:href="#未命名的渐变_7" />
    <clipPath id="clip-path-8">
      <polygon points="300.34 186.26 505.79 186.26 505.79 275.75 300.34 275.75 300.34 186.26 300.34 186.26"
        style="fill:none" />
    </clipPath>
    <mask id="mask-2"
      x="-268.39"
      y="-1748.63"
      width="4838.23"
      height="3424.68"
      maskUnits="userSpaceOnUse">
      <g id="b-2"
        data-name="b">
        <g style="clip-path:url(#clip-path-2)">
          <path d="M50.65,58.39h1495.7V1117.11H50.65Z"
            style="fill-opacity:0.5" />
        </g>
      </g>
    </mask>
    <clipPath id="clip-path-9">
      <rect x="-268.39"
        y="-1748.63"
        width="4838.23"
        height="3424.68"
        style="fill:none" />
    </clipPath>
    <pattern id="g"
      data-name="g"
      width="842"
      height="596"
      patternTransform="translate(-1689.02 -3292.18) scale(5.75)"
      patternUnits="userSpaceOnUse"
      viewBox="0 0 842 596">
      <rect width="842"
        height="596"
        style="fill:none" />
      <g style="clip-path:url(#clip-path-4)">
        <path d="M99,341l6.23-4.3,29.52,10.83L127,352.31,99,341Z"
          style="fill:url(#未命名的渐变_2)" />
      </g>
    </pattern>
    <linearGradient id="未命名的渐变_12"
      x1="79.24"
      y1="-394.29"
      x2="81.02"
      y2="-394.29"
      gradientTransform="translate(-69184.13 7795.49) rotate(72.26) scale(174)"
      xlink:href="#未命名的渐变_4" />
    <linearGradient id="未命名的渐变_13"
      x1="77.22"
      y1="-394.79"
      x2="79"
      y2="-394.79"
      gradientTransform="translate(-125659.56 -2533.78) rotate(80.04) scale(313.3)"
      xlink:href="#未命名的渐变_4" />
    <linearGradient id="未命名的渐变_14"
      x1="79.14"
      y1="-394.49"
      x2="80.92"
      y2="-394.49"
      gradientTransform="translate(-81524.8 -501.62) rotate(79.19) scale(203.3)"
      xlink:href="#未命名的渐变_2" />
    <linearGradient id="未命名的渐变_15"
      x1="79.69"
      y1="-398.45"
      x2="81.46"
      y2="-398.45"
      gradientTransform="translate(-48043.44 -32073.72) rotate(112.33) scale(143.69)"
      xlink:href="#未命名的渐变_7" />
    <clipPath id="clip-path-10">
      <polygon points="150.51 268.21 685.4 268.21 685.4 476.8 150.51 476.8 150.51 268.21 150.51 268.21"
        style="fill:none" />
    </clipPath>
    <mask id="mask-3"
      x="-181.35"
      y="-1711.32"
      width="4838.23"
      height="3424.68"
      maskUnits="userSpaceOnUse">
      <g id="b-3"
        data-name="b">
        <g style="clip-path:url(#clip-path-3)">
          <path d="M137.69,95.7H1633.4V1154.41H137.69Z"
            style="fill-opacity:0.5" />
        </g>
      </g>
    </mask>
  </defs>
  <title>style-guides-1</title>
  <g id="图层_2"
    data-name="图层 2">
    <path d="M98.58,426.18,350.43,548.71,632.34,356,360.73,261,98.58,426.18Z"
      style="fill:url(#未命名的渐变_4)" />
    <path d="M347.47,626.89l-238.39-131s-21-14.47-1.66-60.94c0,0-5.59-4.53-9.74,3.62,0,0-20.25,37.93,7.76,65.2L350.29,638.88l275.3-199.74-8.83-6.49L347.46,626.89Z"
      style="fill:url(#未命名的渐变_5)" />
    <path d="M110.66,498.19,348.89,631.56c-14.2-37.34.83-76.74.83-76.74l-242-120.55c-21.52,40.58,2.9,63.92,2.9,63.92"
      style="fill:url(#未命名的渐变_6)" />
    <path d="M627.47,367.7l.25-.18,1-3.26c-.43,1.14-.83,2.29-1.21,3.44M349.58,555.23s-16.83,37.41-.63,76.71L617.52,437.52s-2.38-34.23,10-69.82L349.6,555.23Z"
      style="fill:url(#未命名的渐变_7)" />
    <path
      d="M632.23,355.92s5.13,4.42.74,8.1L354.1,553.1s-6,2.45-10.3-.71L106.14,433.92s-5.9-2.22-8.82,5.16a56.39,56.39,0,0,0-6,26.78c-.52,11.83,1.34,28.48,18.65,39.71L350.3,638.69,625.61,439s3,7.47-2.2,10.44L349.7,650.25,107.6,513.38a44.59,44.59,0,0,1-18.58-20s-19.29-38.54,9.06-66.82c0,0,3.39-3.12,12.46,2.2l234.8,115.75s6.58,1.66,10.22-1.7L632.23,355.92Z"
      style="fill:#7f0012" />
    <path d="M331.15,329.25l37-25.65,171.64,63-.11-.76L368.16,302.43l-37.75,26.29.74.53Z"
      style="fill:#fff" />
    <g style="clip-path:url(#clip-path-6)">
      <g style="mask:url(#mask)">
        <g style="clip-path:url(#clip-path-7)">
          <path d="M-236.41,1706.26H4601.81V-1718.43H-236.41Z"
            style="fill:url(#j)" />
        </g>
      </g>
    </g>
    <path d="M332.43,328.27l161,65,44.08-27.34,2.33.68-46.3,28.8L331.15,329.25l1.28-1Z"
      style="fill:#7f0012" />
    <path d="M66.61,308.81l251.84,122.5L600.36,238.64l-271.6-95L66.61,308.81Z"
      style="fill:url(#未命名的渐变_8)" />
    <path d="M315.49,509.52l-238.38-131s-21-14.51-1.66-61c0,0-5.6-4.51-9.74,3.64,0,0-20.25,37.93,7.76,65.2L318.32,521.5,593.61,321.76l-8.82-6.49L315.49,509.51Z"
      style="fill:url(#未命名的渐变_9)" />
    <path d="M78.68,380.8,316.92,514.17c-14.21-37.35.83-76.72.83-76.72l-242-120.58c-21.53,40.6,2.89,63.93,2.89,63.93"
      style="fill:url(#未命名的渐变_10)" />
    <path d="M595.5,250.3l.24-.18,1-3.23c-.43,1.15-.84,2.27-1.21,3.41M317.6,437.86s-16.83,37.41-.62,76.69l268.56-194.4s-2.38-34.25,10-69.85L317.62,437.86Z"
      style="fill:url(#未命名的渐变_11)" />
    <path
      d="M600.25,238.5s5.14,4.42.74,8.07L322.13,435.69s-6,2.41-10.31-.75L74.17,316.48s-5.91-2.2-8.82,5.16a56.4,56.4,0,0,0-6,26.77c-.52,11.83,1.35,28.51,18.65,39.73l240.33,133.1L593.63,321.5s3,7.5-2.2,10.44L317.73,532.81,75.62,396a44.63,44.63,0,0,1-18.58-20s-19.28-38.54,9.07-66.82c0,0,3.39-3.12,12.46,2.22l234.8,115.74s6.58,1.68,10.21-1.69Z"
      style="fill:#7f0012" />
    <path d="M299.17,211.88l37-25.66,171.64,63-.11-.76L336.19,185.06l-37.75,26.26.73.56Z"
      style="fill:#fff" />
    <g style="clip-path:url(#clip-path-8)">
      <g style="mask:url(#mask-2)">
        <g style="clip-path:url(#clip-path-9)">
          <path d="M-268.39,1676.06H4569.84V-1748.63H-268.39Z"
            style="fill:url(#g)" />
        </g>
      </g>
    </g>
    <path d="M300.45,210.89l161,65,44.09-27.36,2.33.69L461.52,278l-162.35-66.1,1.28-1Z"
      style="fill:#7f0012" />
    <path d="M159.13,260.87,411,383.4,692.9,190.72l-271.6-95L159.13,260.87Z"
      style="fill:url(#未命名的渐变_12)" />
    <path d="M408,461.57l-238.39-131s-20.94-14.48-1.64-61c0,0-5.59-4.52-9.76,3.61,0,0-20.23,38,7.76,65.23L410.86,473.55l275.3-199.74-8.82-6.48L408,461.57Z"
      style="fill:url(#未命名的渐变_13)" />
    <path d="M171.23,332.87,409.47,466.24c-14.21-37.35.81-76.72.81-76.72L168.33,268.94c-21.52,40.6,2.9,63.93,2.9,63.93"
      style="fill:url(#未命名的渐变_14)" />
    <path d="M688,202.37l.27-.18,1-3.24L688,202.37M410.12,389.92s-16.83,37.42-.63,76.7l268.56-194.4s-2.38-34.26,10-69.85Z"
      style="fill:url(#未命名的渐变_15)" />
    <path
      d="M692.81,190.58s5.14,4.43.74,8.08L414.66,387.77s-5.94,2.45-10.3-.74L166.7,268.58s-5.88-2.22-8.82,5.15a56.46,56.46,0,0,0-6,26.77c-.52,11.83,1.35,28.51,18.67,39.73l240.3,133.1L686.17,273.61s3,7.48-2.2,10.42L410.26,484.89,168.18,348.05a44.61,44.61,0,0,1-18.6-20s-19.26-38.54,9.09-66.8c0,0,3.39-3.14,12.46,2.2l234.8,115.73s6.58,1.69,10.21-1.68L692.81,190.58Z"
      style="fill:#7f0012" />
    <path d="M391.71,164l37-25.65,171.66,63-.11-.76L428.71,137.13,391,163.39Z"
      style="fill:#fff" />
    <path d="M393,163l161,64.95L598,200.58l2.33.68L554,230.05,391.71,164Z"
      style="fill:#7f0012" />
    <path
      d="M441.61,154.49a3.39,3.39,0,0,0,1.1-1.63c0-.38-.19-.66-.66-.86a5.06,5.06,0,0,0-3.13,0,6.16,6.16,0,0,0-3,1.53,2.39,2.39,0,0,0-.76,1.32,3.61,3.61,0,0,0,.84,2,4.51,4.51,0,0,1,.91,2.67,3.81,3.81,0,0,1-1.29,2.48,11.76,11.76,0,0,1-5.88,2.95,10.26,10.26,0,0,1-6.08-.06,1,1,0,0,1-.72-.94,2,2,0,0,1,.69-1.33,6,6,0,0,1,1.19-.92c.44-.25.75-.34.94-.26a.37.37,0,0,1,.23.21,1.62,1.62,0,0,0,.92,1.06,6.84,6.84,0,0,0,3.44.08,5.9,5.9,0,0,0,3.22-1.28,1.2,1.2,0,0,0,.38-.87,3.67,3.67,0,0,0-.55-1.46,16,16,0,0,1-1.09-2.21,2.49,2.49,0,0,1,.1-1.79,7,7,0,0,1,1.51-2.1,13.16,13.16,0,0,1,5.28-3.11,7.79,7.79,0,0,1,5.38-.24,1.58,1.58,0,0,1,1.19,1.5,2.79,2.79,0,0,1-.93,1.93C443.62,154.42,442.53,154.86,441.61,154.49Z" />
    <path
      d="M447.5,160.87s-1,.73-2.79,2.24-2.88,2.44-3.22,2.78a7.36,7.36,0,0,0-1.09,1.28c-.15.27-.13.44.06.52a2,2,0,0,0,1,.1,9.39,9.39,0,0,0,1.9-.54,1.91,1.91,0,0,1,1.09-.21.25.25,0,0,1,.16.31,1,1,0,0,1-.29.47,8.52,8.52,0,0,1-3.14,1.74,5,5,0,0,1-3.34.32,1,1,0,0,1-.61-1.43,7.5,7.5,0,0,1,1.89-2.62q1.44-1.46,6.48-5.51a5.13,5.13,0,0,1-.71-.19l-.15-.06a.6.6,0,0,1-.35-.59c0-.31.21-.7.68-1.18s1.13-.81,1.58-.63l1.62.54q1.59-1.19,4-3.15c1-.83,1.74-1.14,2.22-.95a.44.44,0,0,1,.25.61,2.26,2.26,0,0,1-.57.9q-.17.16-3.9,3.08,2.57.63,2.79.72c.25.1.37.23.34.37a1.89,1.89,0,0,1-.52.69,2.56,2.56,0,0,1-2.28.78Z" />
    <path
      d="M458.88,168.9q-2.72,2.57-5.44,4.92t-5.27,4.12a18.12,18.12,0,0,1-3.92,2.24,3.18,3.18,0,0,1-2.26.09,2.2,2.2,0,0,1-1.3-1.3h0a3.26,3.26,0,0,1-.06-1.82,3.13,3.13,0,0,1,.77-1.57,3.73,3.73,0,0,1,1-.74.89.89,0,0,1,.74-.12c.16.06.19.21.09.46-.56,1.43-.26,2.39.91,2.86.47.2,1.66-.36,3.57-1.67a53,53,0,0,0,6.14-5c-3.21,1.15-5.22,1.57-6,1.24-.52-.21-.62-.68-.31-1.43a8.05,8.05,0,0,1,1.76-2.41,54.9,54.9,0,0,1,4.15-3.63,37.2,37.2,0,0,1,3.74-2.8,1.72,1.72,0,0,1,1.51-.22q.34.13.09.66a4,4,0,0,1-.79,1.06c-.11.11-.88.65-2.32,1.62a27,27,0,0,0-4.09,3.23,6.47,6.47,0,0,0-1,1.21c-.17.3-.2.47-.1.51a2.52,2.52,0,0,0,1.14,0,12.66,12.66,0,0,0,2.23-.62,13.81,13.81,0,0,0,2-.82,9.77,9.77,0,0,0,1.33-.9c.49-.39,1.46-1.29,2.92-2.7.85-.83,1.4-1.34,1.64-1.55a3.16,3.16,0,0,1,.84-.48,1.11,1.11,0,0,1,.83-.05c.31.13.44.32.37.58a5.27,5.27,0,0,1-1.21,1.5Z" />
    <path
      d="M477.93,160q.78.31-.48,1.59c-.39.39-.84.79-1.35,1.21l-3.89,3.1q-2.26,1.78-4.7,4c-1.63,1.47-2.87,2.64-3.71,3.49s-1.94,2-3.09,3.31l-.59.66a4.64,4.64,0,0,1-1.42,1,1.61,1.61,0,0,1-1.14.18c-.34-.14-.34-.48,0-1a18.34,18.34,0,0,1,2.25-2.57q3.75-3.78,9.42-8.67a85.31,85.31,0,0,1,7-5.67C477,160,477.63,159.84,477.93,160Z" />
    <path
      d="M474.42,179a11.08,11.08,0,0,1-3.91,2.17q-2.79,1-4.36.4a1.37,1.37,0,0,1-.77-1.92,9.46,9.46,0,0,1,2.47-3.48,27.11,27.11,0,0,1,7-5.08q4-2.07,5.64-1.41a.94.94,0,0,1,.53,1.29,4.85,4.85,0,0,1-1.32,2A14.38,14.38,0,0,1,475,176a12.32,12.32,0,0,1-5.38,1.09.83.83,0,0,0-.6.3,2.51,2.51,0,0,0-.67,1.11.6.6,0,0,0,.34.81q1.44.58,5.07-1.07a1.48,1.48,0,0,1,1-.22C475,178.17,474.9,178.47,474.42,179Zm-2.91-3.87a7.84,7.84,0,0,0,3.43-.64,8.18,8.18,0,0,0,2.86-1.66,2,2,0,0,0,.46-.66c.07-.19,0-.32-.1-.38-.42-.17-1.33.11-2.75.82A21,21,0,0,0,471.51,175.08Z" />
    <path
      d="M497.92,186.28h0c-.7.54-1.6,1.29-2.7,2.24s-1.87,1.64-2.31,2.09l-1.71,1.71a5.24,5.24,0,0,1-.9.72,2.85,2.85,0,0,1-.78.34.93.93,0,0,1-.6,0c-.26-.11-.36-.34-.31-.7a2,2,0,0,1,.63-1.09c.12-.13.7-.62,1.75-1.5s1.74-1.44,2.39-2c-3.36,1.13-5.67,1.43-6.94.92a1.49,1.49,0,0,1-.92-2,8.13,8.13,0,0,1,2.28-3.38,33.62,33.62,0,0,1,7.09-5.41h0a34.45,34.45,0,0,1,7.71-3.4q3.47-1,5.25-.24c.62.25.94.62.95,1.1a2.12,2.12,0,0,1-.74,1.52,8.23,8.23,0,0,1-1.81,1.31c-.78.43-1.29.59-1.53.49s-.23-.16-.21-.29a2.39,2.39,0,0,1,.33-.67,2,2,0,0,0,.37-.81.41.41,0,0,0-.31-.41c-.73-.29-2.09-.1-4.09.6a31.27,31.27,0,0,0-6,2.89,26,26,0,0,0-5,3.85c-1.39,1.41-1.69,2.28-.89,2.61a4.42,4.42,0,0,0,2,.12,16.76,16.76,0,0,0,3.35-.77,10.67,10.67,0,0,0,3-1.4c.69-.52,1.41-1.1,2.15-1.76a3,3,0,0,1,1.09-.68,1.38,1.38,0,0,1,.85.07c.62.25.62.7,0,1.34a11.29,11.29,0,0,1-1.46,1.13C499.27,185.24,498.63,185.71,497.92,186.28Z" />
    <path
      d="M506.88,191.87a26.24,26.24,0,0,1-4.56,2.35,4.46,4.46,0,0,1-2.94.36c-.36-.15-.45-.59-.25-1.33a7.91,7.91,0,0,1,2.1-2.91q1.27-1.29,4.26-3.7a43,43,0,0,0,3.58-3.09q1.19-.8,1.8-.54c.27.11.36.34.25.68a2.38,2.38,0,0,1-.58.94,21.64,21.64,0,0,1-2.52,2c-.69.5-1.62,1.24-2.8,2.2s-1.9,1.58-2.18,1.87c-1,1-1.29,1.48-1,1.59.41.17,1.57-.2,3.46-1.11a26.37,26.37,0,0,0,5-3.13,29.86,29.86,0,0,1,3-2.18,1.51,1.51,0,0,1,1.27-.28c.5.2.33.72-.49,1.55a9.65,9.65,0,0,1-.85.69,42.79,42.79,0,0,0-4.68,4.13q-2.78,2.81-2.69,3.61a.64.64,0,0,1-.24.53,2.42,2.42,0,0,1-1.09.59,1.74,1.74,0,0,1-1,.06c-.37-.15-.27-.67.32-1.56A24.76,24.76,0,0,1,506.88,191.87Z" />
    <path
      d="M517.37,191.64h0c1.44-1.24,2.26-2,2.44-2.15a7.9,7.9,0,0,1,1.56-1.24,1.42,1.42,0,0,1,1.18-.27.56.56,0,0,1,.42.65,1.62,1.62,0,0,1-.5.89c-.28.29-1,.84-2,1.67l-.28.22q-2.46,1.92-3.83,3.2c-.93.86-1.65,1.56-2.19,2.09s-1,1-1.59,1.82c-.11.14-.21.25-.29.34a3.38,3.38,0,0,1-1,.54,1.61,1.61,0,0,1-1.08.15c-.63-.26-.24-1.11,1.19-2.55q1.82-1.83,4.76-4.32Zm12.23-7.45a5.07,5.07,0,0,1-1.79,1.16,2.34,2.34,0,0,1-1.37.25c-.28-.12-.36-.4-.23-.85a2.93,2.93,0,0,1,.74-1.22,5.2,5.2,0,0,1,1.57-1.12,1.79,1.79,0,0,1,1.42-.09.58.58,0,0,1,.36.74A2.52,2.52,0,0,1,529.6,184.19Z" />
    <path
      d="M525.53,200q-5.76,3.21-7.64,2.44c-.51-.21-.62-.68-.33-1.4a7.65,7.65,0,0,1,1.8-2.48,26.76,26.76,0,0,1,7.07-5c2.85-1.43,4.8-1.94,5.85-1.51a.86.86,0,0,1,.57,1.23q4-3.32,5-4.16c1.23-1,2.07-1.71,2.52-2a4.52,4.52,0,0,1,1.26-.66,1.37,1.37,0,0,1,.8-.09c.25.1.28.33.11.68a4.82,4.82,0,0,1-.93,1.23c-.2.2-.88.73-2,1.6-1.88,1.41-4.05,3.16-6.53,5.24s-4.34,3.77-5.63,5.07-1.67,1.94-1.3,2.09a1.43,1.43,0,0,0,.81,0,2,2,0,0,1,.66,0c.24.1.15.35-.26.76a5.21,5.21,0,0,1-2.18,1.19,3.4,3.4,0,0,1-2.08.19c-.45-.19-.44-.7,0-1.55A13.66,13.66,0,0,1,525.53,200Zm4.68-5.85c-.62-.26-2,.2-4.09,1.35A22,22,0,0,0,521.2,199c-.69.7-.87,1.12-.52,1.26q.87.36,4.4-1.49a21.15,21.15,0,0,0,4.87-3.2,2,2,0,0,0,.52-.86A.44.44,0,0,0,530.21,194.12Z" />
    <path
      d="M539.58,205.56a11.09,11.09,0,0,1-3.91,2.16q-2.79,1-4.36.41a1.37,1.37,0,0,1-.77-1.93,9.62,9.62,0,0,1,2.47-3.48,27.35,27.35,0,0,1,7-5.08c2.69-1.38,4.57-1.84,5.64-1.41.54.22.71.65.53,1.3a4.91,4.91,0,0,1-1.32,2,14.21,14.21,0,0,1-4.73,3.08,12.49,12.49,0,0,1-5.38,1.1.79.79,0,0,0-.6.3,2.41,2.41,0,0,0-.67,1.11.59.59,0,0,0,.34.8c1,.39,2.65,0,5.07-1.07a1.44,1.44,0,0,1,1-.21C540.15,204.78,540.05,205.07,539.58,205.56Zm-2.91-3.87a8,8,0,0,0,3.43-.65,8.18,8.18,0,0,0,2.86-1.66,2,2,0,0,0,.46-.65c.07-.2,0-.33-.1-.38-.42-.17-1.33.1-2.75.81A21.23,21.23,0,0,0,536.67,201.69Z" />
    <path
      d="M546.11,209.58a2,2,0,0,0,.18-1.92,4.58,4.58,0,0,1-.07-2.61,5.52,5.52,0,0,1,1.25-1.84,11,11,0,0,1,4.73-2.76c1.89-.56,3.24-.68,4.06-.34s.69,1-.36,2.07a2.67,2.67,0,0,1-1,.65,1.48,1.48,0,0,1-.8.14c-.05,0-.09-.11-.13-.27s-.08-.24-.16-.27a3.57,3.57,0,0,0-2,.07,4.52,4.52,0,0,0-2.26,1.2,1.93,1.93,0,0,0-.53.92,3.08,3.08,0,0,0,.13,1.44,3.88,3.88,0,0,1,0,2.26,4.61,4.61,0,0,1-1.16,1.74,7.53,7.53,0,0,1-4,2.05,7.41,7.41,0,0,1-4.22-.25c-.86-.35-.83-1,.1-1.94a3.58,3.58,0,0,1,1.15-.77,1.37,1.37,0,0,1,1-.12.76.76,0,0,1,.28.32.63.63,0,0,0,.37.38,4.27,4.27,0,0,0,1.72.26A3.85,3.85,0,0,0,546.11,209.58Z" />
  </g>
</svg>
