<svg xmlns="http://www.w3.org/2000/svg"
  viewBox="0 0 745.97 745.97"
  width="745.97"
  height="745.97"
  class="link-image icon-2em">
  <title>Markdown</title>
  <path
    d="M373.11,547.61h-240c-26.43,0-43.6-17.19-43.6-43.65V241.59c0-25.86,17.33-43.24,43.13-43.24H613.51c25.53,0,42.93,17.44,42.93,43q0,131.61,0,263.24c0,25.57-17.4,43-42.9,43Zm.07-322H133.63c-11.94,0-16.88,4.88-16.88,16.66V503.75c0,11.58,5,16.61,16.48,16.61H612.77c11.46,0,16.44-5.05,16.44-16.66q0-130.51,0-261c0-12.2-4.8-17.05-16.92-17.05Z" />
  <path
    d="M225.88,465.6H171.54V280.36c1.42-.07,3-.21,4.51-.21,15.22,0,30.43.07,45.64-.08a7.48,7.48,0,0,1,6.62,3.19q24.41,30.75,49,61.36c.9,1.13,1.84,2.23,3,3.66,1.18-1.43,2.18-2.63,3.15-3.84q24.39-30.49,48.71-61a7.83,7.83,0,0,1,7-3.33c16.51.15,33,.07,49.88.07V465.55h-54V360.68l-1-.36-53.75,67.22-54.43-68.07Z" />
  <path d="M484.64,375.76V280.51h54.54v95.13h54.65L512,465.76l-81.73-90Z" />
  <path fill="#ff5a79"
    d="M484.41,280.29c-2.68-7,6.76-21.16,18.63-13.53,13.21,8.51.2,35.39,0,38.3-2.54-.22-32,4.86-36.41-10.12C462.49,281,479.14,275.81,484.41,280.29Z" />
  <path fill="#ff5a79"
    d="M450.77,259.69c5.27-5.95,12.57.47,12,4.26,2.49-3.29,11.83-2.84,11.76,5-.09,8.71-16.42,10.2-17.82,10.94C456.09,278.61,445.1,266.08,450.77,259.69Z" />
</svg>
