<svg xmlns="http://www.w3.org/2000/svg"
  xmlns:xlink="http://www.w3.org/1999/xlink"
  viewBox="0 0 263.16 263.16"
  width="263.16"
  height="263.16"
  class="link-image">
  <defs>
    <linearGradient id="linear-gradient"
      x1="136.97"
      y1="113.27"
      x2="193.04"
      y2="113.27"
      gradientUnits="userSpaceOnUse">
      <stop offset="0"
        stop-color="#fff" />
      <stop offset="0"
        stop-color="#7fd0e8" />
    </linearGradient>
    <linearGradient id="linear-gradient-2"
      x1="76.24"
      y1="184.64"
      x2="132.31"
      y2="184.64"
      gradientUnits="userSpaceOnUse">
      <stop offset="0"
        stop-color="#fff" />
      <stop offset="0.01"
        stop-color="#7fd0e8" />
    </linearGradient>
    <linearGradient id="linear-gradient-3"
      x1="51.77"
      y1="128.3"
      x2="81.41"
      y2="128.3"
      gradientUnits="userSpaceOnUse">
      <stop offset="0"
        stop-color="#fff" />
      <stop offset="0.56"
        stop-color="#7fd0e8" />
    </linearGradient>
    <linearGradient id="linear-gradient-4"
      x1="106.39"
      y1="148.62"
      x2="162.46"
      y2="148.62"
      xlink:href="#linear-gradient-2" />
  </defs>
  <title>programming-1</title>
  <polygon points="214.56 160.61 186.61 172.81 185.68 198.51 212.7 212.01 240.65 199.81 241.58 174.11 214.56 160.61"
    style="fill:#57d4ff;stroke:#1075b2;stroke-miterlimit:10;stroke-width:0.530279903219742px" />
  <line x1="236.71"
    y1="175.46"
    x2="215.74"
    y2="164.01"
    style="fill:#57d4ff;stroke:#1075b2;stroke-miterlimit:10;stroke-width:0.530279903219742px" />
  <line x1="215.26"
    y1="208.21"
    x2="237.19"
    y2="198.01"
    style="fill:#57d4ff;stroke:#1075b2;stroke-miterlimit:10;stroke-width:0.530279903219742px" />
  <line x1="190.51"
    y1="175.45"
    x2="190.51"
    y2="198.79"
    style="fill:#57d4ff;stroke:#1075b2;stroke-miterlimit:10;stroke-width:0.530279903219742px" />
  <polygon points="50.46 157.46 22.51 169.66 21.58 195.36 48.6 208.86 76.55 196.66 77.48 170.96 50.46 157.46"
    style="fill:#89daf7;stroke:#1075b2;stroke-miterlimit:10;stroke-width:0.530279857119375px" />
  <line x1="72.61"
    y1="172.31"
    x2="51.63"
    y2="160.86"
    style="fill:#89daf7;stroke:#1075b2;stroke-miterlimit:10;stroke-width:0.530279857119375px" />
  <line x1="51.15"
    y1="205.06"
    x2="73.09"
    y2="194.86"
    style="fill:#89daf7;stroke:#1075b2;stroke-miterlimit:10;stroke-width:0.530279857119375px" />
  <line x1="26.8"
    y1="172.99"
    x2="26.8"
    y2="195.79"
    style="fill:#89daf7;stroke:#1075b2;stroke-miterlimit:10;stroke-width:0.530279857119375px" />
  <path d="M32.68,178.8h1.23V184c0,2.05-1.25,2.68-2.89,2.68a4.93,4.93,0,0,1-1.31-.18l.18-.82a3.51,3.51,0,0,0,1,.15c1.11,0,1.76-.4,1.76-1.91Z" />
  <path
    d="M40.59,185.66h0a2.61,2.61,0,0,1-2.24,1,2.77,2.77,0,0,1-2.9-2.81,2.94,2.94,0,0,1,3.1-3,2.4,2.4,0,0,1,2.11,1h0l.05-.83h1.17c0,.47,0,1,0,1.52v6.29H40.59Zm0-2.44a1.51,1.51,0,0,0-.05-.42,1.79,1.79,0,0,0-1.79-1.15,2,2,0,0,0-2.06,2.14,1.91,1.91,0,0,0,2,2.06,1.86,1.86,0,0,0,1.79-1.1,1.57,1.57,0,0,0,.09-.48Z" />
  <path
    d="M49.63,185c0,.57,0,1.08,0,1.51h-1.1l-.07-.9h0a2.7,2.7,0,0,1-2.26,1,2.18,2.18,0,0,1-2.37-2.43V181H45.1v3.07c0,1,.39,1.76,1.53,1.76a1.84,1.84,0,0,0,1.64-.91,1.27,1.27,0,0,0,.11-.52V181h1.25Z" />
  <path
    d="M52.39,183.93c0,1.37,1.1,1.93,2.35,1.93a5.47,5.47,0,0,0,1.9-.29l.21.72a6.44,6.44,0,0,1-2.28.35c-2.11,0-3.37-1.12-3.37-2.8a3,3,0,0,1,3.21-3,2.57,2.57,0,0,1,2.84,2.61,2.3,2.3,0,0,1,0,.47Zm3.65-.72a1.55,1.55,0,0,0-1.73-1.64,1.86,1.86,0,0,0-1.91,1.64Z" />
  <path d="M58.79,182.71c0-.65,0-1.22-.06-1.73h1.09l0,1.09h.06a2,2,0,0,1,1.9-1.22,1.25,1.25,0,0,1,.35,0v1a1.71,1.71,0,0,0-.42,0,1.63,1.63,0,0,0-1.67,1.3,2.23,2.23,0,0,0-.06.47v3H58.79Z" />
  <path
    d="M64.23,181l1.5,3.28c.15.36.32.8.44,1.13h0c.13-.33.27-.76.44-1.16L68,181h1.32l-1.87,4c-.89,1.9-1.5,2.88-2.35,3.47a3.77,3.77,0,0,1-1.53.66l-.31-.85a3.65,3.65,0,0,0,1.09-.49,3.31,3.31,0,0,0,1-1.13.72.72,0,0,0,.1-.24.66.66,0,0,0-.09-.26L62.87,181Z" />
  <path
    d="M195.09,182.78a11.7,11.7,0,0,1,1.63-.11,3.33,3.33,0,0,1,1.91.41,1.11,1.11,0,0,1,.58,1c0,.54-.45,1-1.18,1.23v0a1.58,1.58,0,0,1,1.43,1.41,1.4,1.4,0,0,1-.58,1.13,4.11,4.11,0,0,1-2.4.52c-.62,0-1.1,0-1.39-.06Zm.89,2.31h.82c.94,0,1.5-.4,1.5-1s-.62-.91-1.52-.91a4.3,4.3,0,0,0-.8.05Zm0,2.69a4.94,4.94,0,0,0,.75,0c.93,0,1.79-.28,1.79-1.1s-.82-1.08-1.8-1.08H196Z" />
  <path
    d="M205.19,186.28a2.23,2.23,0,0,1-2.48,2.15,2.16,2.16,0,0,1-2.39-2.08,2.22,2.22,0,0,1,2.47-2.15A2.15,2.15,0,0,1,205.19,186.28Zm-3.95,0a1.52,1.52,0,1,0,1.53-1.57A1.48,1.48,0,0,0,201.24,186.32Z" />
  <path d="M210.85,186.28a2.24,2.24,0,0,1-2.48,2.15,2.16,2.16,0,0,1-2.39-2.08,2.22,2.22,0,0,1,2.47-2.15A2.15,2.15,0,0,1,210.85,186.28Zm-4,0a1.52,1.52,0,1,0,3,0,1.52,1.52,0,1,0-3,0Z" />
  <path d="M213.09,183.13v1.16h1.3v.56h-1.3V187c0,.5.17.79.68.79a2.82,2.82,0,0,0,.52,0l0,.55a2.6,2.6,0,0,1-.8.1,1.44,1.44,0,0,1-1-.31,1.3,1.3,0,0,1-.35-1.05v-2.21h-.77v-.56h.77v-1Z" />
  <path
    d="M215.28,187.58a2.86,2.86,0,0,0,1.2.29c.66,0,1-.26,1-.6s-.26-.54-.93-.74c-.9-.26-1.32-.66-1.32-1.14,0-.65.65-1.19,1.72-1.19a3,3,0,0,1,1.23.25l-.23.54a2.3,2.3,0,0,0-1-.24c-.53,0-.83.25-.83.55s.3.49.94.69c.87.27,1.31.62,1.31,1.22s-.68,1.21-1.86,1.21a3.31,3.31,0,0,1-1.4-.28Z" />
  <path d="M220.58,183.13v1.16h1.3v.56h-1.3V187c0,.5.17.79.68.79a3,3,0,0,0,.53,0l0,.55a2.72,2.72,0,0,1-.81.1,1.44,1.44,0,0,1-1-.31,1.34,1.34,0,0,1-.35-1.05v-2.21h-.77v-.56h.77v-1Z" />
  <path d="M222.9,185.55c0-.47,0-.88,0-1.26h.79l0,.8h0a1.48,1.48,0,0,1,1.38-.89,1,1,0,0,1,.26,0v.69a1.42,1.42,0,0,0-.31,0,1.18,1.18,0,0,0-1.21.94,1.74,1.74,0,0,0-.05.34v2.15h-.89Z" />
  <path
    d="M229,188.33l-.07-.5h0a2.07,2.07,0,0,1-1.53.6c-1,0-1.52-.58-1.52-1.16,0-1,1.07-1.52,3-1.51v-.08c0-.33-.11-.93-1.13-.93a2.86,2.86,0,0,0-1.3.3l-.2-.49a3.62,3.62,0,0,1,1.64-.36c1.52,0,1.89.85,1.89,1.66v1.51a4.65,4.65,0,0,0,.08,1Zm-.14-2.06c-1,0-2.11.13-2.11.91,0,.48.39.7.86.7a1.23,1.23,0,0,0,1.2-.67.69.69,0,0,0,.05-.24Z" />
  <path
    d="M231.19,185.61c0-.51,0-.93-.05-1.32H232l0,.7h0a2.08,2.08,0,0,1,1.77-.79,2,2,0,0,1,2.11,2.06,2.11,2.11,0,0,1-2.26,2.17,1.91,1.91,0,0,1-1.54-.64h0V190h-.89Zm.89,1.08a1.36,1.36,0,0,0,0,.3,1.38,1.38,0,0,0,1.36.86,1.53,1.53,0,1,0-1.34-2.15,1,1,0,0,0-.06.3Z" />
  <polygon points="139.04 51.15 111.01 62.75 110.08 87.17 136.63 99.74 137.18 100 165.22 88.41 166.15 63.98 139.04 51.15"
    style="fill:#89daf7;stroke:#1075b2;stroke-miterlimit:10;stroke-width:0.517776478233788px" />
  <line x1="161.26"
    y1="65.26"
    x2="140.22"
    y2="54.38"
    style="fill:#89daf7;stroke:#1075b2;stroke-miterlimit:10;stroke-width:0.517776478233788px" />
  <line x1="139.74"
    y1="96.4"
    x2="161.75"
    y2="86.7"
    style="fill:#89daf7;stroke:#1075b2;stroke-miterlimit:10;stroke-width:0.517776478233788px" />
  <line x1="114.91"
    y1="65.44"
    x2="114.91"
    y2="87.61"
    style="fill:#89daf7;stroke:#1075b2;stroke-miterlimit:10;stroke-width:0.517776478233788px" />
  <polygon points="110.38 85.87 82.34 97.46 81.41 121.89 108.51 134.72 136.55 123.12 137.48 98.7 110.38 85.87"
    style="fill:#57d4ff;stroke:#1075b2;stroke-miterlimit:10;stroke-width:0.517776478233788px" />
  <line x1="132.6"
    y1="99.98"
    x2="111.55"
    y2="89.1"
    style="fill:#57d4ff;stroke:#1075b2;stroke-miterlimit:10;stroke-width:0.517776478233788px" />
  <line x1="111.07"
    y1="131.11"
    x2="133.08"
    y2="121.41"
    style="fill:#57d4ff;stroke:#1075b2;stroke-miterlimit:10;stroke-width:0.517776478233788px" />
  <line x1="86.18"
    y1="100.21"
    x2="86.18"
    y2="122.39"
    style="fill:#57d4ff;stroke:#1075b2;stroke-miterlimit:10;stroke-width:0.517776478233788px" />
  <polygon points="190.1 125.52 162.06 137.12 161.13 161.54 188.24 174.37 216.27 162.78 217.2 138.35 190.1 125.52"
    style="fill:#29abe2;stroke:#1075b2;stroke-miterlimit:10;stroke-width:0.517776478233788px" />
  <line x1="212.32"
    y1="139.63"
    x2="191.28"
    y2="128.75"
    style="fill:#29abe2;stroke:#1075b2;stroke-miterlimit:10;stroke-width:0.517776478233788px" />
  <line x1="190.79"
    y1="170.76"
    x2="212.8"
    y2="161.07"
    style="fill:#29abe2;stroke:#1075b2;stroke-miterlimit:10;stroke-width:0.517776478233788px" />
  <line x1="165.78"
    y1="140.03"
    x2="165.78"
    y2="162.2"
    style="fill:#29abe2;stroke:#1075b2;stroke-miterlimit:10;stroke-width:0.517776478233788px" />
  <polygon points="165.94 88.84 137.9 100.44 136.97 124.86 163.53 137.43 164.08 137.69 192.11 126.1 193.04 101.67 165.94 88.84"
    style="stroke:#1075b2;stroke-miterlimit:10;stroke-width:0.517776478233788px;fill:url(#linear-gradient)" />
  <polygon points="105.21 160.22 77.17 171.81 76.24 196.24 103.34 209.07 131.38 197.47 132.31 173.05 105.21 160.22"
    style="stroke:#1075b2;stroke-miterlimit:10;stroke-width:0.517776478233788px;fill:url(#linear-gradient-2)" />
  <line x1="81.41"
    y1="121.89"
    x2="51.77"
    y2="134.72"
    style="stroke:#1075b2;stroke-miterlimit:10;stroke-width:0.517776478233788px;fill:url(#linear-gradient-3)" />
  <polygon points="80.22 121.89 52.19 133.48 51.26 157.9 78.36 170.74 106.4 159.14 107.33 134.72 80.22 121.89"
    style="fill:#89daf7;stroke:#1075b2;stroke-miterlimit:10;stroke-width:0.517776478233788px" />
  <line x1="102.45"
    y1="136"
    x2="81.4"
    y2="125.12"
    style="fill:#89daf7;stroke:#1075b2;stroke-miterlimit:10;stroke-width:0.517776478233788px" />
  <line x1="80.92"
    y1="167.13"
    x2="102.93"
    y2="157.43"
    style="fill:#89daf7;stroke:#1075b2;stroke-miterlimit:10;stroke-width:0.517776478233788px" />
  <line x1="56.39"
    y1="135.99"
    x2="56.39"
    y2="158.17"
    style="fill:#89daf7;stroke:#1075b2;stroke-miterlimit:10;stroke-width:0.517776478233788px" />
  <polygon points="135.36 124.2 107.32 135.79 106.39 160.22 133.5 173.05 161.53 161.45 162.46 137.03 135.36 124.2"
    style="stroke:#1075b2;stroke-miterlimit:10;stroke-width:0.517776478233788px;fill:url(#linear-gradient-4)" />
  <polygon points="160.77 160.88 132.73 172.47 131.8 196.9 158.36 209.47 158.91 209.73 186.94 198.13 187.88 173.71 160.77 160.88"
    style="fill:#89daf7;stroke:#1075b2;stroke-miterlimit:10;stroke-width:0.517776478233788px" />
  <line x1="182.99"
    y1="174.99"
    x2="161.95"
    y2="164.11"
    style="fill:#89daf7;stroke:#1075b2;stroke-miterlimit:10;stroke-width:0.517776478233788px" />
  <line x1="161.47"
    y1="206.12"
    x2="183.47"
    y2="196.42"
    style="fill:#89daf7;stroke:#1075b2;stroke-miterlimit:10;stroke-width:0.517776478233788px" />
  <line x1="136.18"
    y1="175.3"
    x2="136.18"
    y2="196.97"
    style="fill:#89daf7;stroke:#1075b2;stroke-miterlimit:10;stroke-width:0.517776478233788px" />
  <path
    d="M79,149.44a12.28,12.28,0,0,1-3.21.44,6.42,6.42,0,0,1-3.91-1,3.67,3.67,0,0,1-1.46-3c0-2.39,2.16-4.14,5.66-4.14a8.12,8.12,0,0,1,2.61.37l-.33.84a6.86,6.86,0,0,0-2.31-.34c-2.54,0-4.2,1.21-4.2,3.22s1.6,3.24,4,3.24a5.56,5.56,0,0,0,1.8-.22v-2.39H75.6v-.83H79Z" />
  <path d="M82.57,142.42c0,.36-.32.65-.86.65s-.83-.29-.83-.65.36-.65.86-.65S82.57,142.05,82.57,142.42Zm-1.52,7.38V144h1.37v5.76Z" />
  <path d="M86.33,142.39V144h2v.8h-2V148c0,.71.26,1.11,1,1.11a3.6,3.6,0,0,0,.79-.07l.06.79a4.38,4.38,0,0,1-1.21.14,2.21,2.21,0,0,1-1.47-.44A1.79,1.79,0,0,1,85,148v-3.14H83.83V144H85v-1.38Z" />
  <path
    d="M98.88,106.92a17.55,17.55,0,0,1,2.19-.13,5.53,5.53,0,0,1,3.23.76,2.53,2.53,0,0,1,1.12,2.2,2.85,2.85,0,0,1-1.15,2.38,5.9,5.9,0,0,1-3.52.88c-.73,0-1.35,0-1.87-.07Zm1,5.41a10.12,10.12,0,0,0,1,0c2.2,0,3.39-.94,3.39-2.59,0-1.45-1-2.36-3.22-2.36a7.06,7.06,0,0,0-1.21.08Z" />
  <path d="M107.78,106.83V113h-1v-6.12Z" />
  <path d="M111.1,107.51h-2.43v-.68h5.9v.68h-2.43V113h-1Z" />
  <path d="M115.86,111,115,113H114l2.71-6.12h1.24l2.72,6.12h-1.1l-.85-1.92Zm2.61-.62-.78-1.76c-.17-.4-.29-.76-.41-1.12h0c-.12.37-.25.74-.41,1.11l-.78,1.77Z" />
  <path
    d="M146.78,115a4.65,4.65,0,0,0,1.85.4c1.05,0,1.66-.43,1.66-1.05s-.42-.9-1.5-1.21c-1.3-.36-2.1-.88-2.1-1.74s1-1.66,2.58-1.66a4.46,4.46,0,0,1,1.76.3l-.29.64a3.91,3.91,0,0,0-1.51-.29c-1.09,0-1.5.5-1.5.92s.48.85,1.58,1.18c1.35.4,2,.9,2,1.8s-.91,1.76-2.79,1.76a5.13,5.13,0,0,1-2-.39Z" />
  <path d="M154.65,110.77h0l-1.33.56-.21-.61,1.68-.69h.89v5.9h-1Z" />
  <path
    d="M163.56,112.91c0,2-1,3.12-2.67,3.12-1.5,0-2.52-1.08-2.54-3s1.11-3.07,2.67-3.07S163.56,111,163.56,112.91Zm-4.17.09c0,1.54.61,2.41,1.56,2.41s1.57-1,1.57-2.46-.48-2.41-1.56-2.41C160.05,110.54,159.39,111.4,159.39,113Z" />
  <path
    d="M169.63,112.91c0,2-1,3.12-2.68,3.12-1.5,0-2.51-1.08-2.54-3s1.11-3.07,2.67-3.07S169.63,111,169.63,112.91Zm-4.18.09c0,1.54.62,2.41,1.56,2.41s1.58-1,1.58-2.46-.49-2.41-1.56-2.41C166.11,110.54,165.45,111.4,165.45,113Z" />
  <path
    d="M175.69,112.91c0,2-1,3.12-2.67,3.12-1.5,0-2.52-1.08-2.54-3s1.11-3.07,2.67-3.07S175.69,111,175.69,112.91Zm-4.17.09c0,1.54.61,2.41,1.56,2.41s1.57-1,1.57-2.46-.48-2.41-1.56-2.41C172.18,110.54,171.52,111.4,171.52,113Z" />
  <path
    d="M177,109.89a19.52,19.52,0,0,1,2.18-.13,5.5,5.5,0,0,1,3.23.77,2.52,2.52,0,0,1,1.13,2.19,2.88,2.88,0,0,1-1.15,2.38,5.94,5.94,0,0,1-3.52.88c-.74,0-1.35,0-1.87-.07Zm1,5.41a7.59,7.59,0,0,0,1,0c2.2,0,3.39-.95,3.39-2.6,0-1.44-1-2.36-3.23-2.36a8.22,8.22,0,0,0-1.2.08Z" />
  <path
    d="M127,152.12l-1.34-1.78c-.54-.68-.88-1.12-1.21-1.58h0a19.27,19.27,0,0,1-1.13,1.59l-1.25,1.77H120.5l3.19-4.06-3.07-4h1.57l1.37,1.88c.39.53.69.93,1,1.36h0c.3-.48.56-.84,1-1.36l1.42-1.88h1.56L125.32,148l3.25,4.12Z" />
  <path
    d="M139,148.59c-.08-1.12-.17-2.46-.16-3.46h0c-.35.94-.79,1.94-1.31,3.05l-1.85,3.89h-1l-1.69-3.82a28.5,28.5,0,0,1-1.21-3.12h0c0,1-.11,2.34-.2,3.55l-.28,3.44h-1.29l.73-8h1.72l1.78,3.88a28,28,0,0,1,1.06,2.7h0c.27-.8.64-1.68,1.1-2.7l1.87-3.88h1.72l.65,8h-1.32Z" />
  <path d="M142.61,144.09H144v7.16h4.46v.87h-5.81Z" />
  <path
    d="M156.31,188.42a8.32,8.32,0,0,1-2.66.36c-2.84,0-5-1.37-5-3.91s2.13-4.05,5.25-4.05a6.75,6.75,0,0,1,2.39.34L156,182a5.78,5.78,0,0,0-2-.32c-2.36,0-3.93,1.15-3.93,3.18s1.42,3.11,3.87,3.11a6.42,6.42,0,0,0,2.12-.33Z" />
  <path
    d="M157.76,187.45a5.61,5.61,0,0,0,2.33.51c1.33,0,2.11-.54,2.11-1.32s-.54-1.14-1.9-1.54c-1.64-.44-2.66-1.1-2.66-2.19s1.3-2.09,3.26-2.09a5.57,5.57,0,0,1,2.22.38l-.35.81a4.94,4.94,0,0,0-1.92-.37c-1.37,0-1.89.63-1.89,1.16,0,.72.61,1.08,2,1.49,1.7.5,2.57,1.13,2.57,2.27s-1.15,2.22-3.53,2.22a6.59,6.59,0,0,1-2.57-.49Z" />
  <path
    d="M165.13,187.45a5.58,5.58,0,0,0,2.33.51c1.33,0,2.11-.54,2.11-1.32s-.54-1.14-1.9-1.54c-1.64-.44-2.66-1.1-2.66-2.19s1.3-2.09,3.26-2.09a5.61,5.61,0,0,1,2.22.38l-.36.81a4.88,4.88,0,0,0-1.91-.37c-1.37,0-1.89.63-1.89,1.16,0,.72.61,1.08,2,1.49,1.7.5,2.57,1.13,2.57,2.27s-1.15,2.22-3.53,2.22a6.59,6.59,0,0,1-2.57-.49Z" />
  <path d="M88.59,180.29v3.23h4.87v-3.23h1.32V188H93.46v-3.62H88.59V188h-1.3v-7.72Z" />
  <path d="M99,181.13H95.88v-.84h7.46v.84h-3.08V188H99Z" />
  <path
    d="M113,184.62c-.08-1.08-.17-2.37-.15-3.34h0c-.34.91-.76,1.87-1.27,2.94L109.71,188h-1l-1.63-3.68a26.72,26.72,0,0,1-1.16-3h0c0,1-.11,2.26-.2,3.42l-.27,3.31h-1.24l.71-7.72h1.65l1.72,3.73a27.55,27.55,0,0,1,1,2.6h0c.26-.78.62-1.62,1.06-2.6l1.8-3.73h1.65l.63,7.72H113.2Z" />
  <path d="M116.48,180.29h1.3v6.88h4.3V188h-5.6Z" />
  <path
    d="M184.16,153.44l-1.34-1.78c-.54-.67-.88-1.11-1.21-1.58h0a19.13,19.13,0,0,1-1.13,1.6l-1.25,1.76h-1.56l3.2-4.06-3.07-4h1.56l1.38,1.88c.39.52.69.93,1,1.35h0c.3-.47.56-.84.95-1.35l1.42-1.88h1.55l-3.17,3.9,3.25,4.12Z" />
  <path
    d="M187.1,152.18a6,6,0,0,0,2.42.52c1.38,0,2.19-.56,2.19-1.37s-.56-1.18-2-1.59c-1.71-.47-2.76-1.15-2.76-2.28s1.35-2.17,3.38-2.17a6,6,0,0,1,2.31.39l-.37.84a5.24,5.24,0,0,0-2-.38c-1.42,0-2,.66-2,1.2,0,.75.64,1.12,2.08,1.55,1.77.53,2.67,1.18,2.67,2.36s-1.2,2.31-3.66,2.31a6.84,6.84,0,0,1-2.67-.51Z" />
  <path d="M194.93,145.42h1.35v7.15h4.47v.87h-5.82Z" />
  <path
    d="M132,78.81a8.54,8.54,0,0,1-2.76.38c-2.94,0-5.16-1.43-5.16-4.06s2.22-4.21,5.46-4.21a7.23,7.23,0,0,1,2.48.35l-.33.85a6.18,6.18,0,0,0-2.11-.34c-2.45,0-4.07,1.21-4.07,3.31s1.47,3.23,4,3.23a6.89,6.89,0,0,0,2.2-.33Z" />
  <path
    d="M142.54,75.54c-.08-1.11-.17-2.46-.16-3.46h0c-.36.94-.79,1.94-1.32,3L139.17,79h-1l-1.69-3.82a30.69,30.69,0,0,1-1.21-3.12h0c0,1-.11,2.35-.2,3.55l-.28,3.44h-1.29l.73-8h1.72l1.79,3.88a25.93,25.93,0,0,1,1.05,2.7h0a23.72,23.72,0,0,1,1.1-2.7l1.86-3.88h1.72l.65,8H142.8Z" />
  <path
    d="M146,77.81a6,6,0,0,0,2.42.52c1.38,0,2.19-.56,2.19-1.37s-.56-1.18-2-1.59c-1.71-.47-2.76-1.15-2.76-2.28s1.35-2.17,3.38-2.17a6,6,0,0,1,2.31.39l-.37.84a5.24,5.24,0,0,0-2-.38c-1.42,0-2,.66-2,1.2,0,.75.64,1.12,2.08,1.55,1.77.53,2.67,1.18,2.67,2.36s-1.2,2.31-3.66,2.31a6.84,6.84,0,0,1-2.67-.51Z" />
</svg>
