<svg xmlns="http://www.w3.org/2000/svg"
	viewBox="0 0 745.97 745.97"
	width="745.97"
  height="745.97"
  class="link-image">
	<title>Technical illustration</title>
	<path
		d="M722.22,300.94c-7.28-7.47-15-14.5-22.54-21.72q-82.9-79.35-165.85-158.7c-9.38-9-15.49-9.34-21.52-.49-20.14,29.59-39.94,59.42-59.83,89.19-3.8,5.68-3.37,11.09,1.53,16,2.46,2.47,4.89,5,7.34,7.42,9.68,9.81,9.68,9.82-2.34,15.69-62.75,30.6-125.42,61.34-188.32,91.61-9.24,4.45-13.12,10.11-12.06,20.29.82,7.92.16,16,.15,24a459.28,459.28,0,0,1-7.1,80.95c-8.55,48-22.1,94.07-54.8,132.13-2.09,2.42-4.4,5.32-3.31,8.4,3.24,9.15-2.88,8.6-8.41,8.54-4.51,0-9-.44-13.53-.87-29.53-2.82-41.37-19.21-35.63-48.59,4.2-21.48,14.5-40.4,23.79-59.82,36-75.24,46.72-153.84,28.83-235.49C176.51,214.25,151.36,166.34,104,132.62a168.8,168.8,0,0,0-70.74-29c-7-1.19-13,.64-14.39,8.29s3.28,11.5,10.52,12.7c3.08.52,6.13,1.23,9.17,2,32.75,8,60.42,24.45,82.25,50.18,36.22,42.69,50.7,93.54,53.78,148.16,3.65,64.63-10,125.66-40.31,182.94-8.65,16.32-15.48,33.39-19.34,51.53-8.76,41.1,9.32,67.87,50.77,75,13.82,2.37,27.71,2,41.53-.2,6.72-1.05,12.75-1.25,18,4.64,4.93,5.49,10.94,4.47,16.94.55,71.39-46.64,150.41-62.95,234.51-58.18,10.54.59,16.47-2.58,21.26-12.15,30.58-61.22,61.69-122.17,92.65-183.2,7.54-14.87,7.73-15,19.59-2.77,6,6.2,11.93,9.58,19.92,3.71,30.26-22.22,60.62-44.31,90.74-66.72C729.1,314,729.33,308.22,722.22,300.94ZM579,361.25q-48.75,95.63-97,191.49c-3.09,6.16-7.16,6.3-12.56,6.1-58.7-2.24-115.7,6.18-170.74,27.08a408.09,408.09,0,0,0-53.34,25.29l-1.8-2.17q39.57-39.28,79.15-78.59c11.09-11,22.23-22,33.14-33.25,3.64-3.74,6.75-5.39,12.58-4,13.8,3.23,26.95-3.5,33.37-15.55a30.78,30.78,0,0,0-41.24-41.87c-12.47,6.43-19,19.81-16,34.15.88,4.14,1,7-2.21,10.2q-54.42,54-108.6,108.27a6.06,6.06,0,0,1-1.71.84c-1.24-1.47-.08-2.61.58-3.71,29.75-49.5,40.73-104.39,46-160.87a434.91,434.91,0,0,0,2.07-57.29c-.22-5.49,1.26-8.73,6.59-11.3q96.62-46.73,193-94c5.33-2.61,8.54-1.83,12.6,2.32q42,42.87,84.43,85.23C581.2,353.5,581.34,356.55,579,361.25Zm62.62-9.64c-17.13,14.85-17.17,14.9-33.2-1.27-42.11-42.47-84-85.16-126.45-127.31-6.31-6.27-7.31-10.74-1.35-17a20.47,20.47,0,0,0,3.45-5.2c3.4-7,6.62-6.67,12-1.28,30.28,30.21,60.92,60.06,91.44,90q26.43,25.95,52.87,51.88c1.73,1.69,3.35,3.49,4.82,5C645.18,349.38,643.1,350.29,641.57,351.61Z" />
	<path
		d="M696.46,308.1c-1.69-1.82-3.68-4.18-5.89-6.3q-57.93-55.51-115.91-111c-14.8-14.18-29.81-28.14-44.34-42.6-4.94-4.92-7.56-4.31-10.86,1.35a127.1,127.1,0,0,1-11.62,17.26c-4.94,6-3.36,9.78,1.76,14.77q74.63,72.75,148.85,145.9c1.72,1.69,3.47,3.56,5.58,4.59S696.22,311.24,696.46,308.1Z"
		style="fill:#15b3ff" />
</svg>
