<svg xmlns="http://www.w3.org/2000/svg"
  xmlns:xlink="http://www.w3.org/1999/xlink"
  viewBox="0 0 745.97 745.97"
  width="745.97"
  height="745.97"
  class="link-image">
  <defs>
    <linearGradient id="未命名的渐变_3"
      x1="601.52"
      y1="-2431.72"
      x2="541.46"
      y2="-2483.98"
      gradientTransform="matrix(0.43, 0, 0, -0.43, 53.91, -891.38)"
      gradientUnits="userSpaceOnUse">
      <stop offset="0"
        stop-color="#623620" />
      <stop offset="0.12"
        stop-color="#cc9e20" />
      <stop offset="0.24"
        stop-color="#fff" />
      <stop offset="0.52"
        stop-color="#cf9a30" />
      <stop offset="1"
        stop-color="#662d29" />
    </linearGradient>
    <linearGradient id="未命名的渐变_4"
      x1="637.55"
      y1="-2473.13"
      x2="577.49"
      y2="-2525.39"
      gradientTransform="matrix(0.43, 0, 0, -0.43, 53.91, -891.38)"
      gradientUnits="userSpaceOnUse">
      <stop offset="0"
        stop-color="#2b2a29" />
      <stop offset="0.06"
        stop-color="#626767" />
      <stop offset="0.12"
        stop-color="#b5b1b4" />
      <stop offset="0.19"
        stop-color="#e5e5e5" />
      <stop offset="0.24"
        stop-color="#fff" />
      <stop offset="0.4"
        stop-color="#c8cecb" />
      <stop offset="0.62"
        stop-color="#9f9a9e" />
      <stop offset="0.78"
        stop-color="#666467" />
      <stop offset="1"
        stop-color="#2b2a29" />
    </linearGradient>
    <linearGradient id="未命名的渐变_3-2"
      x1="870.03"
      y1="-2743.98"
      x2="813.65"
      y2="-2793.06"
      xlink:href="#未命名的渐变_3" />
    <linearGradient id="未命名的渐变_4-2"
      x1="888.04"
      y1="-2764.69"
      x2="831.66"
      y2="-2813.76"
      xlink:href="#未命名的渐变_4" />
    <linearGradient id="未命名的渐变_5"
      x1="1020.81"
      y1="-3041.23"
      x2="1091.5"
      y2="-2979.73"
      gradientTransform="matrix(0.43, 0, 0, -0.43, 53.91, -891.38)"
      gradientUnits="userSpaceOnUse">
      <stop offset="0"
        stop-color="#c90" />
      <stop offset="0.01"
        stop-color="#cf9a00" />
      <stop offset="0.26"
        stop-color="#fdffce" />
      <stop offset="0.36"
        stop-color="#cf9a00" />
      <stop offset="0.44"
        stop-color="#cf9a00" />
      <stop offset="0.66"
        stop-color="#cf9a00" />
      <stop offset="0.77"
        stop-color="#e1e8e2" />
      <stop offset="0.99"
        stop-color="#c89a00" />
      <stop offset="1"
        stop-color="#cf9a00" />
    </linearGradient>
    <linearGradient id="未命名的渐变_6"
      x1="549.56"
      y1="-2427.24"
      x2="540.02"
      y2="-2435.55"
      gradientTransform="matrix(0.43, 0, 0, -0.43, 53.91, -891.38)"
      gradientUnits="userSpaceOnUse">
      <stop offset="0"
        stop-color="#d59700" />
      <stop offset="0.12"
        stop-color="#fdffcb" />
      <stop offset="0.25"
        stop-color="#fff" />
      <stop offset="0.41"
        stop-color="#fdffcb" />
      <stop offset="0.81"
        stop-color="#c89a20" />
      <stop offset="1"
        stop-color="#9c6400" />
    </linearGradient>
  </defs>
  <title>tech-writing-1</title>
  <g id="textblocks">
    <path d="M681.65,289.63,549.2,654.56l-484.89.49L275,289.53Z"
      style="fill:#fff" />
    <path d="M681.65,289.63,549.2,654.56l-484.89.49L275,289.53Z"
      style="fill:none;stroke:#000;stroke-width:1.35154953718942px" />
    <path d="M681.66,282,549.2,646.9l-484.89.49L275,281.88Z"
      style="fill:#fff;stroke:#000;stroke-width:1.35154953718942px" />
    <path d="M681.66,274.33,549.2,639.25l-484.89.49L275,274.23Z"
      style="fill:#fff;stroke:#000;stroke-width:1.35154953718942px" />
    <path d="M681.66,266.68,549.2,631.6l-484.89.49L275,266.57Z"
      style="fill:#fff;stroke:#000;stroke-width:1.35154953718942px" />
    <path d="M681.66,259,549.2,624l-484.89.49L275,258.92Z"
      style="fill:#fff;stroke:#000;stroke-width:1.35154953718942px" />
    <path d="M681.66,251.37,549.2,616.3l-484.89.49L275,251.27Z"
      style="fill:#fff;stroke:#000;stroke-width:1.35154953718942px" />
    <path d="M681.66,243.72,549.2,608.64l-484.89.49L275,243.62Z"
      style="fill:#fff;stroke:#000;stroke-width:1.35154953718942px" />
    <path d="M681.66,236.07,549.2,601l-484.89.49L275,236Z"
      style="fill:#fff;stroke:#000;stroke-width:1.35154953718942px" />
    <path d="M681.66,228.42,549.2,593.34l-484.89.49L275,228.31Z"
      style="fill:#fff;stroke:#000;stroke-width:1.35154953718942px" />
    <path d="M681.66,220.77,549.2,585.69l-484.89.49L275,220.66Z"
      style="fill:#fff;stroke:#000;stroke-width:1.35154953718942px" />
    <path d="M681.66,213.12,549.2,578l-484.89.49L275,213Z"
      style="fill:#fff;stroke:#000;stroke-width:1.35154953718942px" />
    <path d="M681.66,205.46,549.2,570.41l-484.89.5L275,205.36Z"
      style="fill:#fff;stroke:#000;stroke-width:1.35154953718942px" />
    <path d="M681.66,197.81l-132.46,365-484.89.5L275,197.71Z"
      style="fill:#fff;stroke:#000;stroke-width:1.35154953718942px" />
    <path d="M681.66,190.16l-132.46,365-484.89.49L275,190.06Z"
      style="fill:#fff;stroke:#000;stroke-width:1.35154953718942px" />
    <path d="M681.66,182.51l-132.46,365L64.31,548,275,182.41Z"
      style="fill:#fff;stroke:#000;stroke-width:1.35154953718942px" />
    <polygon points="574.9 349.37 241.86 349.37 274.69 289.53 602.33 289.53 574.9 349.37"
      style="fill:gray" />
    <polygon points="313.83 389.45 221.88 389.45 231.1 372.65 323.05 372.65 313.83 389.45"
      style="fill:#b3b3b3" />
    <polygon points="537.39 435.73 322.4 435.73 354.49 375.32 566.77 375.32 537.39 435.73"
      style="fill:#b3b3b3" />
    <polygon points="300.64 413.15 208.69 413.15 217.9 396.35 309.86 396.35 300.64 413.15"
      style="fill:#b3b3b3" />
    <polygon points="612.05 256.59 553.82 256.59 559.65 245.95 617.88 245.95 612.05 256.59" />
    <polygon points="287.44 436.85 195.49 436.85 204.71 420.05 296.66 420.05 287.44 436.85"
      style="fill:#b3b3b3" />
    <polygon points="392.84 518.72 161.68 518.72 170.73 505.08 399.18 505.08 392.84 518.72"
      style="fill:#b3b3b3" />
    <path d="M358.39,230.57c-6.41,5.59-18.09,2.76-25.95-6.27L242,120.37c-7.85-9-9-21-2.61-26.58s18.1-2.76,25.95,6.26L355.78,204C363.64,213,364.81,225,358.39,230.57Z"
      style="stroke:#2b2a29;stroke-width:0.895154280532722px;fill-rule:evenodd;fill:url(#未命名的渐变_3)" />
    <path d="M373.84,248.32c-6.42,5.59-18.1,2.76-25.95-6.27L257.44,138.12c-7.85-9-9-21-2.61-26.58s18.1-2.76,25.95,6.26l90.45,103.94C379.08,230.76,380.26,242.73,373.84,248.32Z"
      style="stroke:#2b2a29;stroke-width:0.895154280532722px;fill-rule:evenodd;fill:url(#未命名的渐变_4)" />
    <path
      d="M480.25,358.54l-11.94,10.4c-3.13,2.71-8.83,1.34-12.68-3.05L350.56,245.16c-3.82-4.41-4.41-10.24-1.28-13l11.94-10.4c3.13-2.72,8.83-1.35,12.68,3.05L479,345.55C482.8,350,483.38,355.8,480.25,358.54Z"
      style="stroke:#2b2a29;stroke-width:0.895154280532722px;fill-rule:evenodd;fill:url(#未命名的渐变_3-2)" />
    <path
      d="M488,367.41,476,377.81c-3.13,2.72-8.83,1.35-12.68-3.05L358.29,254c-3.83-4.42-4.42-10.25-1.29-13l11.94-10.39c3.14-2.72,8.84-1.35,12.69,3L486.69,354.43C490.52,358.84,491.11,364.67,488,367.41Z"
      style="stroke:#2b2a29;stroke-width:0.895154280532722px;fill-rule:evenodd;fill:url(#未命名的渐变_4-2)" />
    <path d="M537.76,435.69c-30.3-34.71-24-58.1-53.68-75.11q-12.88.17-14.92,12.75C484.54,403.39,507.09,401.3,537.76,435.69Z"
      style="stroke:#2b2a29;stroke-width:0.895154280532722px;fill-rule:evenodd;fill:url(#未命名的渐变_5)" />
    <line x1="474.7"
      y1="363.08"
      x2="506.4"
      y2="399"
      style="fill:none;stroke:#2b2a29;stroke-width:3.58061712213088px" />
    <polygon points="332.53 199.94 329.83 202.29 242.35 101.75 245.04 99.4 332.53 199.94"
      style="stroke:#2b2a29;stroke-width:0.895154280532722px;fill-rule:evenodd;fill:url(#未命名的渐变_6)" />
    <path d="M465.68,376.92a16,16,0,0,1,22.73-20.08"
      style="fill:none;stroke:#000;stroke-width:0.895154280532722px" />
    <ellipse cx="596.6"
      cy="228.31"
      rx="30.04"
      ry="15.2"
      transform="translate(-14.4 41.93) rotate(-3.98)"
      style="fill:#e60012" />
  </g>
</svg>
