<svg id="right-arrow"
  data-name="right-arrow"
  xmlns="http://www.w3.org/2000/svg"
  viewBox="0 0 211.41 211.41"
  width="211.41"
  height="211.41"
  class="collapse-right-arrow">
  <path style="fill: #454545;"
    d="M59.1,211.17a19.8,19.8,0,0,1-11-6.78,15.08,15.08,0,0,1,.16-19.34c1-1.15,2-2.27,3-3.34q37-37,74-74c.58-.58,1.28-1,2.51-2a17.67,17.67,0,0,1-2.42-1.64Q88.14,66.76,50.85,29.46c-2.76-2.76-5.07-5.77-5.86-9.71C43.74,13.53,46.8,6.89,52.72,3s12.64-3.68,18.33.84A34.32,34.32,0,0,1,74,6.45Q117.56,50,161.13,93.54c5,5,6.9,10.73,4.6,17.41a18.1,18.1,0,0,1-4.25,6.67q-43.89,44.12-87.93,88.06a21.71,21.71,0,0,1-9.92,5.49Z" />
</svg>
