<svg id="user"
  data-name="user"
  xmlns="http://www.w3.org/2000/svg"
  viewBox="0 0 113.39 113.39">
  width="113.39"
  height="113.39"
  class="profile-image"
  <rect style="fill: #f39800;"
    width="113.39"
    height="113.39"
    rx="5.67" />
  <path style="fill: #fff;"
    d="M56.7,59.58c13.09,0,17.8-13.11,19-23.88,1.52-13.27-4.76-23.26-19-23.26s-20.57,10-19.05,23.26C38.89,46.47,43.6,59.59,56.7,59.58Z" />
  <path style="fill: #fff;"
    d="M92.12,90.81a88.67,88.67,0,0,0-1.36-12.49c-.88-5-2-12.3-6.36-15.55-2.52-1.87-5.78-2.49-8.66-3.62a38.36,38.36,0,0,1-3.84-1.72,19.92,19.92,0,0,1-15.21,6.64,20,20,0,0,1-15.21-6.64,38.15,38.15,0,0,1-3.83,1.72c-2.89,1.13-6.14,1.75-8.66,3.63C24.64,66,23.51,73.33,22.63,78.32a88.67,88.67,0,0,0-1.36,12.49c-.12,3.24,1.48,3.69,4.19,4.67a78.39,78.39,0,0,0,10.42,2.87,104.94,104.94,0,0,0,20.81,2.59,105,105,0,0,0,20.82-2.59,78.25,78.25,0,0,0,10.41-2.87c2.71-1,4.31-1.43,4.2-4.67Z" />
</svg>
