<svg xmlns="http://www.w3.org/2000/svg"
  viewBox="0 0 618.96 283.46"
  width="618.96"
	height="283.46"
  class="w-100 h-auto my-3">
  <title>正二测-</title>
  <path
    d="M25.73,201.34a.6.6,0,0,1,.1.27.2.2,0,0,1-.12.18.76.76,0,0,1-.34.1,4.58,4.58,0,0,1-.59,0,4.2,4.2,0,0,1-.55,0,1.22,1.22,0,0,1-.33-.06.43.43,0,0,1-.19-.1.58.58,0,0,1-.11-.15l-2.53-4.18-2.52,4.18a.58.58,0,0,1-.11.15.49.49,0,0,1-.19.1,1.22,1.22,0,0,1-.32.06,4,4,0,0,1-.53,0,4.28,4.28,0,0,1-.56,0,.66.66,0,0,1-.31-.1.2.2,0,0,1-.1-.18.64.64,0,0,1,.11-.27l3.29-5.15-3.11-5a.65.65,0,0,1-.1-.27.21.21,0,0,1,.11-.19.76.76,0,0,1,.34-.1l.6,0a4,4,0,0,1,.54,0,1.28,1.28,0,0,1,.33.05.34.34,0,0,1,.17.09.76.76,0,0,1,.11.14l2.4,3.93L23.66,191a1.13,1.13,0,0,1,.1-.13.62.62,0,0,1,.16-.1,1.43,1.43,0,0,1,.28-.05,3.48,3.48,0,0,1,.5,0l.56,0a1,1,0,0,1,.32.09.17.17,0,0,1,.09.18.59.59,0,0,1-.11.29l-3.09,4.9Z"
    style="fill:#231815" />
  <path
    d="M272.73,248.69v5.59a.31.31,0,0,1-.05.17.34.34,0,0,1-.16.11,1.73,1.73,0,0,1-.32.07,3.18,3.18,0,0,1-.47,0,3.28,3.28,0,0,1-.49,0,1.61,1.61,0,0,1-.31-.07.38.38,0,0,1-.17-.11.31.31,0,0,1-.05-.17v-5.59l-4.29-8.55a2.38,2.38,0,0,1-.16-.42.25.25,0,0,1,.06-.24.57.57,0,0,1,.32-.1,4.93,4.93,0,0,1,.61,0,4.24,4.24,0,0,1,.57,0,1.39,1.39,0,0,1,.35.06.44.44,0,0,1,.19.12.7.7,0,0,1,.13.19l2.09,4.36c.2.42.39.85.59,1.3s.39.91.59,1.37h0c.18-.44.37-.89.56-1.33l.57-1.3,2.11-4.39a1.24,1.24,0,0,1,.1-.2.57.57,0,0,1,.18-.12,1.06,1.06,0,0,1,.31-.06,3.43,3.43,0,0,1,.5,0,5.7,5.7,0,0,1,.67,0,.66.66,0,0,1,.33.11.25.25,0,0,1,.06.24,1.5,1.5,0,0,1-.15.41Z"
    style="fill:#231815" />
  <path
    d="M203.7,36a2.09,2.09,0,0,1,0,.38.89.89,0,0,1-.07.26.53.53,0,0,1-.13.16.34.34,0,0,1-.18,0h-9a.66.66,0,0,1-.49-.19.82.82,0,0,1-.19-.59v-.44a2.46,2.46,0,0,1,0-.28,1,1,0,0,1,.08-.27,2.45,2.45,0,0,1,.16-.33l.26-.43,7-10.94h-6.92a.42.42,0,0,1-.2,0,.32.32,0,0,1-.13-.15.73.73,0,0,1-.08-.26,3.53,3.53,0,0,1,0-.36c0-.16,0-.29,0-.4a.86.86,0,0,1,.08-.27.3.3,0,0,1,.33-.2h8.44a.68.68,0,0,1,.5.18.77.77,0,0,1,.18.56v.45a3.28,3.28,0,0,1,0,.34,2,2,0,0,1-.09.3,3,3,0,0,1-.15.32,4.73,4.73,0,0,1-.27.41l-7,10.9h7.41a.33.33,0,0,1,.3.2A1.48,1.48,0,0,1,203.7,36Z"
    style="fill:#231815" />
  <line x1="184.72"
    y1="191.19"
    x2="184.72"
    y2="187.91"
    style="fill:none;stroke:#000;stroke-miterlimit:10;stroke-width:0.5px" />
  <line x1="184.72"
    y1="181.06"
    x2="184.72"
    y2="33.79"
    style="fill:none;stroke:#000;stroke-miterlimit:10;stroke-width:0.5px;stroke-dasharray:6.8494062423706055,6.8494062423706055" />
  <line x1="184.72"
    y1="30.37"
    x2="184.72"
    y2="27.08"
    style="fill:none;stroke:#000;stroke-miterlimit:10;stroke-width:0.5px" />
  <polygon points="188.42 29.89 184.72 28.32 181.02 29.89 184.72 21.11 188.42 29.89" />
  <line x1="184.72"
    y1="191.19"
    x2="186.73"
    y2="192.97"
    style="fill:none;stroke:#000;stroke-miterlimit:10;stroke-width:0.5px" />
  <line x1="190.76"
    y1="196.52"
    x2="261.26"
    y2="258.68"
    style="fill:none;stroke:#000;stroke-miterlimit:10;stroke-width:0.5px;stroke-dasharray:5.371027946472168,5.371027946472168" />
  <line x1="263.28"
    y1="260.45"
    x2="265.29"
    y2="262.23"
    style="fill:none;stroke:#000;stroke-miterlimit:10;stroke-width:0.5px" />
  <polygon points="260.74 263.15 264.37 261.41 265.63 257.59 269.77 266.18 260.74 263.15" />
  <line x1="184.72"
    y1="191.19"
    x2="181.46"
    y2="191.6"
    style="fill:none;stroke:#000;stroke-miterlimit:10;stroke-width:0.5px" />
  <line x1="174.66"
    y1="192.46"
    x2="28.56"
    y2="210.92"
    style="fill:none;stroke:#000;stroke-miterlimit:10;stroke-width:0.5px;stroke-dasharray:6.8494062423706055,6.8494062423706055" />
  <line x1="25.16"
    y1="211.35"
    x2="21.9"
    y2="211.76"
    style="fill:none;stroke:#000;stroke-miterlimit:10;stroke-width:0.5px" />
  <polygon points="24.23 207.74 23.13 211.61 25.15 215.08 15.98 212.51 24.23 207.74" />
  <line x1="227.24"
    y1="228.68"
    x2="227.24"
    y2="115.3"
    style="fill:none;stroke:#000;stroke-linecap:round;stroke-miterlimit:10;stroke-width:2px" />
  <line x1="72.23"
    y1="205.4"
    x2="72.23"
    y2="92.02"
    style="fill:none;stroke:#000;stroke-linecap:round;stroke-miterlimit:10;stroke-width:2px" />
  <line x1="72.23"
    y1="92.02"
    x2="184.72"
    y2="77.81"
    style="fill:none;stroke:#000;stroke-linecap:round;stroke-miterlimit:10;stroke-width:2px" />
  <line x1="114.75"
    y1="242.89"
    x2="114.75"
    y2="129.51"
    style="fill:none;stroke:#000;stroke-linecap:round;stroke-miterlimit:10" />
  <line x1="72.23"
    y1="205.4"
    x2="114.75"
    y2="242.89"
    style="fill:none;stroke:#000;stroke-linecap:round;stroke-miterlimit:10;stroke-width:2.531px" />
  <line x1="72.23"
    y1="92.02"
    x2="114.75"
    y2="129.51"
    style="fill:none;stroke:#000;stroke-linecap:round;stroke-miterlimit:10" />
  <line x1="184.72"
    y1="77.81"
    x2="227.24"
    y2="115.3"
    style="fill:none;stroke:#000;stroke-linecap:round;stroke-miterlimit:10;stroke-width:2px" />
  <line x1="114.75"
    y1="129.51"
    x2="227.24"
    y2="115.3"
    style="fill:none;stroke:#000;stroke-linecap:round;stroke-miterlimit:10" />
  <line x1="114.75"
    y1="242.89"
    x2="227.24"
    y2="228.68"
    style="fill:none;stroke:#000;stroke-linecap:round;stroke-miterlimit:10;stroke-width:2px" />
  <path
    d="M341.51,225.92a.68.68,0,0,1,.1.28.21.21,0,0,1-.12.18.76.76,0,0,1-.34.1,4.68,4.68,0,0,1-.59,0l-.55,0a1.22,1.22,0,0,1-.33-.06.43.43,0,0,1-.19-.1.58.58,0,0,1-.11-.15L336.85,222l-2.52,4.18a.58.58,0,0,1-.11.15.49.49,0,0,1-.19.1,1.22,1.22,0,0,1-.32.06l-.53,0a4.28,4.28,0,0,1-.56,0,.66.66,0,0,1-.31-.1.21.21,0,0,1-.1-.18.72.72,0,0,1,.11-.28l3.29-5.14-3.11-5a.65.65,0,0,1-.1-.27.21.21,0,0,1,.11-.19.76.76,0,0,1,.34-.1,5.08,5.08,0,0,1,.6,0H334a1.8,1.8,0,0,1,.33.06.39.39,0,0,1,.17.09.76.76,0,0,1,.11.14l2.4,3.93,2.44-3.93a.64.64,0,0,1,.1-.13.49.49,0,0,1,.16-.1l.28-.06h.5a4.53,4.53,0,0,1,.56,0,.77.77,0,0,1,.32.09.17.17,0,0,1,.09.18.59.59,0,0,1-.11.29l-3.09,4.9Z"
    style="fill:#231815" />
  <path
    d="M598.16,220.55v5.59a.29.29,0,0,1,0,.16.32.32,0,0,1-.17.11,1.44,1.44,0,0,1-.31.07,3.85,3.85,0,0,1-1,0,1.94,1.94,0,0,1-.32-.07.29.29,0,0,1-.16-.11.24.24,0,0,1-.05-.16v-5.59L591.86,212a1.78,1.78,0,0,1-.16-.42.22.22,0,0,1,.06-.23.54.54,0,0,1,.32-.11,5.17,5.17,0,0,1,.61,0,4.54,4.54,0,0,1,.57,0l.35.06a.44.44,0,0,1,.19.12,1.57,1.57,0,0,1,.12.19L596,216c.19.42.39.85.58,1.3s.39.91.6,1.38h0c.18-.45.36-.89.55-1.33s.39-.88.58-1.31l2.11-4.38a.54.54,0,0,1,.1-.2.35.35,0,0,1,.18-.13l.31-.06a3.63,3.63,0,0,1,.5,0,5.62,5.62,0,0,1,.66,0,.57.57,0,0,1,.34.11.22.22,0,0,1,.06.23,1.59,1.59,0,0,1-.16.41Z"
    style="fill:#231815" />
  <path
    d="M485.74,27.13c0,.15,0,.27,0,.38a.88.88,0,0,1-.08.26.32.32,0,0,1-.13.15.27.27,0,0,1-.18,0h-8.95a.64.64,0,0,1-.49-.19.78.78,0,0,1-.19-.59v-.44a1.27,1.27,0,0,1,0-.28.9.9,0,0,1,.07-.27,2.62,2.62,0,0,1,.17-.33c.07-.12.15-.27.25-.43l7-11H476.3a.4.4,0,0,1-.2,0,.34.34,0,0,1-.14-.15.81.81,0,0,1-.07-.26,2,2,0,0,1,0-.37,2.13,2.13,0,0,1,0-.39A.88.88,0,0,1,476,13a.37.37,0,0,1,.14-.16.4.4,0,0,1,.2,0h8.43a.67.67,0,0,1,.5.18.77.77,0,0,1,.18.56V14a1.78,1.78,0,0,1,0,.34,1.82,1.82,0,0,1-.08.29,1.66,1.66,0,0,1-.16.33,4.42,4.42,0,0,1-.26.41l-7,10.9h7.4a.35.35,0,0,1,.31.2A1.51,1.51,0,0,1,485.74,27.13Z"
    style="fill:#231815" />
  <line x1="466.42"
    y1="125.11"
    x2="463.95"
    y2="127.28"
    style="fill:none;stroke:#000;stroke-miterlimit:10;stroke-width:0.5px" />
  <line x1="458.82"
    y1="131.81"
    x2="348.35"
    y2="229.2"
    style="fill:none;stroke:#000;stroke-miterlimit:10;stroke-width:0.5px;stroke-dasharray:6.8494062423706055,6.8494062423706055" />
  <line x1="345.78"
    y1="231.46"
    x2="343.32"
    y2="233.64"
    style="fill:none;stroke:#000;stroke-miterlimit:10;stroke-width:0.5px" />
  <polygon points="342.98 229 344.25 232.82 347.88 234.56 338.84 237.58 342.98 229" />
  <line x1="466.42"
    y1="125.11"
    x2="466.42"
    y2="122.43"
    style="fill:none;stroke:#000;stroke-miterlimit:10;stroke-width:0.5px" />
  <line x1="466.42"
    y1="117.06"
    x2="466.42"
    y2="23.06"
    style="fill:none;stroke:#000;stroke-miterlimit:10;stroke-width:0.5px;stroke-dasharray:5.371027946472168,5.371027946472168" />
  <line x1="466.42"
    y1="20.38"
    x2="466.42"
    y2="17.69"
    style="fill:none;stroke:#000;stroke-miterlimit:10;stroke-width:0.5px" />
  <polygon points="470.12 20.5 466.42 18.93 462.72 20.5 466.42 11.72 470.12 20.5" />
  <line x1="466.42"
    y1="125.11"
    x2="468.88"
    y2="127.28"
    style="fill:none;stroke:#000;stroke-miterlimit:10;stroke-width:0.5px" />
  <line x1="474.02"
    y1="131.81"
    x2="584.49"
    y2="229.2"
    style="fill:none;stroke:#000;stroke-miterlimit:10;stroke-width:0.5px;stroke-dasharray:6.8494062423706055,6.8494062423706055" />
  <line x1="587.05"
    y1="231.46"
    x2="589.52"
    y2="233.64"
    style="fill:none;stroke:#000;stroke-miterlimit:10;stroke-width:0.5px" />
  <polygon points="584.96 234.56 588.59 232.82 589.86 229 594 237.58 584.96 234.56" />
  <line x1="466.42"
    y1="68.42"
    x2="381.37"
    y2="143.4"
    style="fill:none;stroke:#000;stroke-linecap:round;stroke-miterlimit:10;stroke-width:2px" />
  <line x1="551.47"
    y1="200.09"
    x2="466.42"
    y2="275.08"
    style="fill:none;stroke:#000;stroke-linecap:round;stroke-miterlimit:10;stroke-width:2px" />
  <line x1="466.42"
    y1="275.08"
    x2="381.37"
    y2="200.09"
    style="fill:none;stroke:#000;stroke-linecap:round;stroke-miterlimit:10;stroke-width:2px" />
  <line x1="551.47"
    y1="143.4"
    x2="466.42"
    y2="218.38"
    style="fill:none;stroke:#000;stroke-linecap:round;stroke-miterlimit:10" />
  <line x1="551.47"
    y1="200.09"
    x2="551.47"
    y2="143.4"
    style="fill:none;stroke:#000;stroke-linecap:round;stroke-miterlimit:10;stroke-width:2.531px" />
  <line x1="466.42"
    y1="275.08"
    x2="466.42"
    y2="218.38"
    style="fill:none;stroke:#000;stroke-linecap:round;stroke-miterlimit:10" />
  <line x1="381.37"
    y1="200.09"
    x2="381.37"
    y2="143.4"
    style="fill:none;stroke:#000;stroke-linecap:round;stroke-miterlimit:10;stroke-width:2px" />
  <line x1="466.42"
    y1="218.38"
    x2="381.37"
    y2="143.4"
    style="fill:none;stroke:#000;stroke-linecap:round;stroke-miterlimit:10" />
  <line x1="551.47"
    y1="143.4"
    x2="466.42"
    y2="68.42"
    style="fill:none;stroke:#000;stroke-linecap:round;stroke-miterlimit:10;stroke-width:2px" />
  <path
    d="M81,44.07a1.11,1.11,0,0,1,.14.31.2.2,0,0,1-.06.18.5.5,0,0,1-.26.08,3,3,0,0,1-.48,0l-.44,0a.79.79,0,0,1-.25,0,.37.37,0,0,1-.14-.08.32.32,0,0,1-.08-.13l-2.53-4.52-2.56,4.52a.5.5,0,0,1-.1.14.37.37,0,0,1-.14.08,1.31,1.31,0,0,1-.25,0l-.43,0a2.64,2.64,0,0,1-.45,0,.45.45,0,0,1-.24-.08.22.22,0,0,1,0-.18,1.11,1.11,0,0,1,.14-.31l3.1-5.23-3-5.05a1.55,1.55,0,0,1-.14-.32.16.16,0,0,1,0-.18.39.39,0,0,1,.25-.08,3.18,3.18,0,0,1,.48,0H74a1.3,1.3,0,0,1,.26,0,.49.49,0,0,1,.15.09s.06.08.09.13L77,37.71l2.42-4.25.09-.13a.48.48,0,0,1,.13-.09,1,1,0,0,1,.23,0h.4l.45,0a.45.45,0,0,1,.24.08.18.18,0,0,1,.06.18,1,1,0,0,1-.12.32l-3,5Z" />
  <path
    d="M93.77,37.84a.82.82,0,0,1-.1.48.28.28,0,0,1-.24.14H86.79a.27.27,0,0,1-.23-.14.92.92,0,0,1-.09-.48,1,1,0,0,1,.08-.47.27.27,0,0,1,.24-.15h6.64a.27.27,0,0,1,.25.15A1,1,0,0,1,93.77,37.84Zm0,3.42a.82.82,0,0,1-.1.48.3.3,0,0,1-.24.13H86.79a.28.28,0,0,1-.23-.13.92.92,0,0,1-.09-.48,1,1,0,0,1,.08-.48.27.27,0,0,1,.24-.15h6.64a.27.27,0,0,1,.25.15A1,1,0,0,1,93.77,41.26Z" />
  <path
    d="M106.72,44a2.53,2.53,0,0,1,0,.29.71.71,0,0,1-.06.19.31.31,0,0,1-.1.12.28.28,0,0,1-.13,0H99.7a.49.49,0,0,1-.37-.14.62.62,0,0,1-.14-.45V43.7c0-.08,0-.15,0-.21a1,1,0,0,1,.06-.21,1.47,1.47,0,0,1,.13-.24l.19-.33,5.25-8.2H99.64a.33.33,0,0,1-.15,0,.27.27,0,0,1-.1-.11.47.47,0,0,1-.06-.19,2.16,2.16,0,0,1,0-.28,2.36,2.36,0,0,1,0-.3.52.52,0,0,1,.06-.2.27.27,0,0,1,.1-.11.24.24,0,0,1,.15,0H106a.5.5,0,0,1,.37.14.56.56,0,0,1,.14.41v.35a2,2,0,0,1,0,.25.9.9,0,0,1-.06.22,1.87,1.87,0,0,1-.12.25c0,.09-.12.19-.2.31l-5.22,8.17h5.56a.23.23,0,0,1,.22.15A1,1,0,0,1,106.72,44Z" />
  <path
    d="M119.3,37.84a.82.82,0,0,1-.1.48.28.28,0,0,1-.23.14h-6.65a.27.27,0,0,1-.23-.14.92.92,0,0,1-.09-.48,1,1,0,0,1,.09-.47.25.25,0,0,1,.23-.15H119a.27.27,0,0,1,.24.15A1,1,0,0,1,119.3,37.84Zm0,3.42a.82.82,0,0,1-.1.48.29.29,0,0,1-.23.13h-6.65a.28.28,0,0,1-.23-.13.92.92,0,0,1-.09-.48,1,1,0,0,1,.09-.48.25.25,0,0,1,.23-.15H119a.27.27,0,0,1,.24.15A1,1,0,0,1,119.3,41.26Z" />
  <path
    d="M132.35,44a2.16,2.16,0,0,1,0,.28.75.75,0,0,1-.07.18.31.31,0,0,1-.1.1.27.27,0,0,1-.12,0h-5.95a.23.23,0,0,1-.11,0,.31.31,0,0,1-.1-.1.75.75,0,0,1-.08-.18,2,2,0,0,1,0-.56.84.84,0,0,1,.07-.19.36.36,0,0,1,.1-.11.19.19,0,0,1,.12,0h2.38V34.75l-2.2,1.31a.9.9,0,0,1-.27.11.18.18,0,0,1-.16,0,.31.31,0,0,1-.08-.19,1.58,1.58,0,0,1,0-.34,1.69,1.69,0,0,1,0-.25.8.8,0,0,1,0-.18.37.37,0,0,1,.07-.12L126,35l2.62-1.68a.19.19,0,0,1,.09-.05l.13,0,.18,0h.27l.35,0a.9.9,0,0,1,.22,0c.05,0,.09,0,.1.08a.17.17,0,0,1,0,.1v10H132a.22.22,0,0,1,.13,0,.36.36,0,0,1,.1.11.53.53,0,0,1,.06.19A1.19,1.19,0,0,1,132.35,44Z" />
  <path
    d="M77.36,61.79V66a.2.2,0,0,1,0,.13.23.23,0,0,1-.12.08,1,1,0,0,1-.23,0,1.86,1.86,0,0,1-.36,0,1.73,1.73,0,0,1-.36,0,1.11,1.11,0,0,1-.24,0,.32.32,0,0,1-.13-.08.28.28,0,0,1,0-.13V61.79l-3.22-6.41a2.32,2.32,0,0,1-.12-.32.18.18,0,0,1,0-.18.46.46,0,0,1,.23-.08h.89l.26.05a.32.32,0,0,1,.15.09,1,1,0,0,1,.09.15l1.57,3.27c.15.31.29.63.44,1s.29.68.44,1h0c.14-.33.27-.67.42-1s.28-.66.43-1l1.58-3.29a.39.39,0,0,1,.08-.14.22.22,0,0,1,.13-.1l.23-.05h.38l.5,0a.46.46,0,0,1,.25.08.21.21,0,0,1,0,.18,2.3,2.3,0,0,1-.12.31Z" />
  <path
    d="M93.2,59.44a.9.9,0,0,1-.1.48.28.28,0,0,1-.24.14H86.22a.26.26,0,0,1-.23-.14.9.9,0,0,1-.1-.48A1,1,0,0,1,86,59a.27.27,0,0,1,.24-.15h6.64a.27.27,0,0,1,.25.15A1,1,0,0,1,93.2,59.44Zm0,3.42a.9.9,0,0,1-.1.48.3.3,0,0,1-.24.13H86.22a.27.27,0,0,1-.23-.13.9.9,0,0,1-.1-.48,1,1,0,0,1,.09-.48.27.27,0,0,1,.24-.15h6.64a.27.27,0,0,1,.25.15A1,1,0,0,1,93.2,62.86Z" />
  <path
    d="M106.6,60.5a12.58,12.58,0,0,1-.21,2.39,5.33,5.33,0,0,1-.68,1.86,3.34,3.34,0,0,1-1.25,1.2,3.88,3.88,0,0,1-1.91.43,3.94,3.94,0,0,1-1.81-.38,3,3,0,0,1-1.18-1.13,5.27,5.27,0,0,1-.64-1.82,15.43,15.43,0,0,1-.19-2.5A11.75,11.75,0,0,1,99,58.17a5.51,5.51,0,0,1,.68-1.87,3.34,3.34,0,0,1,1.25-1.2,4.46,4.46,0,0,1,3.71-.05,3,3,0,0,1,1.18,1.13,5.19,5.19,0,0,1,.64,1.83A14.17,14.17,0,0,1,106.6,60.5Zm-1.55.11q0-.86-.06-1.53a9,9,0,0,0-.18-1.2,3.86,3.86,0,0,0-.31-.89,2.06,2.06,0,0,0-.45-.62,1.64,1.64,0,0,0-.6-.35,2.58,2.58,0,0,0-.76-.11,2,2,0,0,0-1.21.35,2.44,2.44,0,0,0-.74,1,4.9,4.9,0,0,0-.36,1.44,14.13,14.13,0,0,0-.1,1.78,16.24,16.24,0,0,0,.13,2.16,4.89,4.89,0,0,0,.42,1.46,1.9,1.9,0,0,0,.73.82,2.16,2.16,0,0,0,1.08.25,2.1,2.1,0,0,0,.86-.16,1.62,1.62,0,0,0,.64-.45,2.53,2.53,0,0,0,.45-.71,4.62,4.62,0,0,0,.28-.91,7.2,7.2,0,0,0,.14-1.09C105,61.43,105.05,61,105.05,60.61Z" />
  <path
    d="M110.44,65.25a1.28,1.28,0,0,1-.2.84,1.12,1.12,0,0,1-.76.2,1.06,1.06,0,0,1-.73-.2,1.18,1.18,0,0,1-.2-.81,1.2,1.2,0,0,1,.21-.83,1.05,1.05,0,0,1,.75-.21,1,1,0,0,1,.73.21A1.17,1.17,0,0,1,110.44,65.25Z" />
  <path
    d="M119.84,62.56a4.1,4.1,0,0,1-.31,1.62,3.32,3.32,0,0,1-.87,1.2,3.82,3.82,0,0,1-1.34.75,5.56,5.56,0,0,1-1.73.25,6.43,6.43,0,0,1-1-.08,6.75,6.75,0,0,1-.84-.18,4.69,4.69,0,0,1-.61-.21,1.13,1.13,0,0,1-.3-.17.35.35,0,0,1-.1-.12.83.83,0,0,1,0-.12.54.54,0,0,1,0-.19,3.65,3.65,0,0,1,0-.54.53.53,0,0,1,0-.2.31.31,0,0,1,.08-.11.2.2,0,0,1,.11,0,.65.65,0,0,1,.27.11c.13.07.29.15.5.24a8,8,0,0,0,.77.24,5,5,0,0,0,1.1.11,3.71,3.71,0,0,0,1.08-.14A2.11,2.11,0,0,0,118,63.8a2.77,2.77,0,0,0,.2-1.1,2.63,2.63,0,0,0-.17-1,1.71,1.71,0,0,0-.53-.69,2.49,2.49,0,0,0-.9-.41,5.5,5.5,0,0,0-1.3-.14,8.14,8.14,0,0,0-.93,0,4.56,4.56,0,0,1-.72.06.45.45,0,0,1-.35-.12.66.66,0,0,1-.1-.44V55.41a.6.6,0,0,1,.13-.43.53.53,0,0,1,.39-.14h5a.25.25,0,0,1,.14,0,.43.43,0,0,1,.11.12.52.52,0,0,1,.06.2,1.28,1.28,0,0,1,0,.29,1.09,1.09,0,0,1-.08.49c-.06.12-.13.18-.24.18h-4.06v3.19a4,4,0,0,1,.6-.05h.72a5.36,5.36,0,0,1,1.64.23,3.31,3.31,0,0,1,1.17.66,2.78,2.78,0,0,1,.72,1A3.65,3.65,0,0,1,119.84,62.56Z" />
  <path
    d="M390.12,44.07a1.11,1.11,0,0,1,.14.31.2.2,0,0,1-.06.18.5.5,0,0,1-.26.08,3,3,0,0,1-.48,0l-.44,0a.79.79,0,0,1-.25,0,.37.37,0,0,1-.14-.08.32.32,0,0,1-.08-.13L386,39.87l-2.56,4.52a.5.5,0,0,1-.1.14.37.37,0,0,1-.14.08,1.31,1.31,0,0,1-.25,0l-.42,0a2.69,2.69,0,0,1-.46,0,.38.38,0,0,1-.23-.08.2.2,0,0,1-.05-.18,1.11,1.11,0,0,1,.14-.31l3.1-5.23-3-5.05a1.55,1.55,0,0,1-.14-.32.18.18,0,0,1,0-.18.39.39,0,0,1,.25-.08,3.25,3.25,0,0,1,.48,0h.43l.27,0a.56.56,0,0,1,.14.09l.09.13,2.45,4.25,2.42-4.25.09-.13a.48.48,0,0,1,.13-.09,1,1,0,0,1,.23,0h.4l.45,0a.49.49,0,0,1,.25.08.18.18,0,0,1,.05.18,1,1,0,0,1-.12.32l-2.95,5Z" />
  <path
    d="M402.91,37.84a.82.82,0,0,1-.1.48.28.28,0,0,1-.23.14h-6.65a.27.27,0,0,1-.23-.14.92.92,0,0,1-.09-.48,1.1,1.1,0,0,1,.08-.47.27.27,0,0,1,.24-.15h6.65a.27.27,0,0,1,.24.15A1,1,0,0,1,402.91,37.84Zm0,3.42a.82.82,0,0,1-.1.48.29.29,0,0,1-.23.13h-6.65a.28.28,0,0,1-.23-.13.92.92,0,0,1-.09-.48,1.12,1.12,0,0,1,.08-.48.27.27,0,0,1,.24-.15h6.65a.27.27,0,0,1,.24.15A1,1,0,0,1,402.91,41.26Z" />
  <path
    d="M413,40.19v4.19a.2.2,0,0,1,0,.13.23.23,0,0,1-.12.08,1.11,1.11,0,0,1-.24,0,1.75,1.75,0,0,1-.35,0,1.9,1.9,0,0,1-.37,0l-.23,0a.26.26,0,0,1-.13-.08.28.28,0,0,1,0-.13V40.19l-3.22-6.41a1.48,1.48,0,0,1-.12-.32.21.21,0,0,1,0-.18.46.46,0,0,1,.24-.07,3,3,0,0,1,.46,0,2.62,2.62,0,0,1,.43,0l.26,0a.28.28,0,0,1,.14.09.56.56,0,0,1,.1.15l1.57,3.27c.15.31.29.63.44,1s.29.68.44,1h0c.13-.33.27-.67.41-1s.29-.66.44-1l1.58-3.28a.52.52,0,0,1,.07-.15.28.28,0,0,1,.14-.1,1,1,0,0,1,.23,0,2.06,2.06,0,0,1,.38,0l.49,0a.43.43,0,0,1,.25.08.16.16,0,0,1,0,.18,1,1,0,0,1-.12.31Z" />
  <path
    d="M428.78,37.84a.82.82,0,0,1-.1.48.26.26,0,0,1-.23.14h-6.64a.26.26,0,0,1-.23-.14.82.82,0,0,1-.1-.48,1,1,0,0,1,.09-.47.27.27,0,0,1,.24-.15h6.64a.27.27,0,0,1,.25.15A1,1,0,0,1,428.78,37.84Zm0,3.42a.82.82,0,0,1-.1.48.27.27,0,0,1-.23.13h-6.64a.27.27,0,0,1-.23-.13.82.82,0,0,1-.1-.48,1,1,0,0,1,.09-.48.27.27,0,0,1,.24-.15h6.64a.27.27,0,0,1,.25.15A1,1,0,0,1,428.78,41.26Z" />
  <path
    d="M441.84,44a1.14,1.14,0,0,1,0,.28.75.75,0,0,1-.07.18.24.24,0,0,1-.1.1.27.27,0,0,1-.12,0h-5.94l-.12,0a.46.46,0,0,1-.1-.1.75.75,0,0,1-.07-.18,1.32,1.32,0,0,1,0-.56.84.84,0,0,1,.07-.19.24.24,0,0,1,.09-.11.2.2,0,0,1,.13,0H438V34.75l-2.2,1.31a1,1,0,0,1-.26.11.2.2,0,0,1-.17,0,.37.37,0,0,1-.08-.19,3,3,0,0,1,0-.34,1.85,1.85,0,0,1,0-.25.8.8,0,0,1,0-.18.42.42,0,0,1,.08-.12.63.63,0,0,1,.12-.1l2.62-1.68.09-.05.13,0,.19,0h.26l.35,0a.8.8,0,0,1,.22,0,.19.19,0,0,1,.11.08.3.3,0,0,1,0,.1v10h2.06a.2.2,0,0,1,.13,0,.27.27,0,0,1,.1.11.84.84,0,0,1,.07.19A2.16,2.16,0,0,1,441.84,44Z" />
  <path
    d="M389.42,65.58a2.33,2.33,0,0,1,0,.29.47.47,0,0,1-.06.19.23.23,0,0,1-.09.12.32.32,0,0,1-.14,0H382.4a.46.46,0,0,1-.37-.14.58.58,0,0,1-.14-.45V65.3a1.34,1.34,0,0,1,0-.21,1,1,0,0,1,.06-.21l.12-.25c.05-.08.12-.19.19-.32l5.25-8.2h-5.19a.33.33,0,0,1-.14,0,.23.23,0,0,1-.11-.11.74.74,0,0,1-.05-.19,2.16,2.16,0,0,1,0-.28,2.36,2.36,0,0,1,0-.3.83.83,0,0,1,.05-.2.23.23,0,0,1,.11-.11.23.23,0,0,1,.14,0h6.33A.52.52,0,0,1,389,55a.56.56,0,0,1,.13.41v.35a2,2,0,0,1,0,.25c0,.07,0,.14-.07.22a1.74,1.74,0,0,1-.11.25,3.11,3.11,0,0,1-.2.3l-5.22,8.18h5.55a.25.25,0,0,1,.23.15A1.14,1.14,0,0,1,389.42,65.58Z" />
  <path
    d="M402,59.44a.9.9,0,0,1-.1.48.28.28,0,0,1-.24.14H395a.26.26,0,0,1-.23-.14.82.82,0,0,1-.1-.48,1,1,0,0,1,.09-.47.27.27,0,0,1,.24-.15h6.64a.27.27,0,0,1,.25.15A1,1,0,0,1,402,59.44Zm0,3.42a.9.9,0,0,1-.1.48.3.3,0,0,1-.24.13H395a.27.27,0,0,1-.23-.13.82.82,0,0,1-.1-.48,1,1,0,0,1,.09-.48.27.27,0,0,1,.24-.15h6.64a.27.27,0,0,1,.25.15A1,1,0,0,1,402,62.86Z" />
  <path
    d="M415.4,60.5a12.58,12.58,0,0,1-.21,2.39,5.33,5.33,0,0,1-.68,1.86,3.3,3.3,0,0,1-1.26,1.2,3.81,3.81,0,0,1-1.9.43,3.94,3.94,0,0,1-1.81-.38,3,3,0,0,1-1.18-1.13,5.27,5.27,0,0,1-.64-1.82,15.43,15.43,0,0,1-.19-2.5,12.55,12.55,0,0,1,.21-2.38,5.51,5.51,0,0,1,.69-1.87,3.34,3.34,0,0,1,1.25-1.2,4.46,4.46,0,0,1,3.71-.05,3,3,0,0,1,1.18,1.13,5.4,5.4,0,0,1,.64,1.83A14.17,14.17,0,0,1,415.4,60.5Zm-1.55.11q0-.86-.06-1.53a9,9,0,0,0-.18-1.2,3.86,3.86,0,0,0-.31-.89,2.06,2.06,0,0,0-.45-.62,1.82,1.82,0,0,0-.6-.35,2.58,2.58,0,0,0-.76-.11,2,2,0,0,0-1.21.35,2.35,2.35,0,0,0-.74,1,4.9,4.9,0,0,0-.36,1.44,14.13,14.13,0,0,0-.1,1.78,14.71,14.71,0,0,0,.13,2.16,4.89,4.89,0,0,0,.42,1.46,1.9,1.9,0,0,0,.73.82,2.43,2.43,0,0,0,1.94.09,1.69,1.69,0,0,0,.64-.45,2.53,2.53,0,0,0,.45-.71,5.41,5.41,0,0,0,.28-.91,7.2,7.2,0,0,0,.14-1.09C413.84,61.43,413.85,61,413.85,60.61Z" />
  <path d="M419.24,65.25a1.22,1.22,0,0,1-.21.84,1.47,1.47,0,0,1-1.48,0,1.18,1.18,0,0,1-.2-.81,1.2,1.2,0,0,1,.21-.83,1.05,1.05,0,0,1,.75-.21,1,1,0,0,1,.73.21A1.17,1.17,0,0,1,419.24,65.25Z" />
  <path
    d="M428.64,62.56a4.1,4.1,0,0,1-.31,1.62,3.32,3.32,0,0,1-.87,1.2,3.82,3.82,0,0,1-1.34.75,5.56,5.56,0,0,1-1.73.25,6.33,6.33,0,0,1-1-.08,7.37,7.37,0,0,1-.85-.18,5.06,5.06,0,0,1-.6-.21,1.13,1.13,0,0,1-.3-.17.35.35,0,0,1-.1-.12l-.05-.12s0-.12,0-.19,0-.17,0-.27a2.13,2.13,0,0,1,0-.27.53.53,0,0,1,0-.2.31.31,0,0,1,.08-.11.2.2,0,0,1,.11,0,.65.65,0,0,1,.27.11c.13.07.29.15.5.24a8,8,0,0,0,.77.24,5,5,0,0,0,1.1.11,3.71,3.71,0,0,0,1.08-.14,2.22,2.22,0,0,0,.85-.44,2.09,2.09,0,0,0,.55-.75,2.92,2.92,0,0,0,0-2.07,1.8,1.8,0,0,0-.53-.69,2.49,2.49,0,0,0-.9-.41,5.5,5.5,0,0,0-1.3-.14,8.14,8.14,0,0,0-.93,0,4.76,4.76,0,0,1-.72.06.45.45,0,0,1-.35-.12A.65.65,0,0,1,422,60V55.41a.6.6,0,0,1,.14-.43.53.53,0,0,1,.39-.14h5a.25.25,0,0,1,.14,0,.29.29,0,0,1,.1.12.52.52,0,0,1,.07.2,1.28,1.28,0,0,1,0,.29,1.24,1.24,0,0,1-.08.49.27.27,0,0,1-.24.18h-4.06v3.19a3.94,3.94,0,0,1,.6-.05h.72a5.41,5.41,0,0,1,1.64.23,3.31,3.31,0,0,1,1.17.66,2.65,2.65,0,0,1,.71,1A3.45,3.45,0,0,1,428.64,62.56Z" />
</svg>
