<svg xmlns="http://www.w3.org/2000/svg"
  viewBox="0 0 618.96 411.02"
  width="618.96"
	height="411.02"
  class="w-100 h-auto my-3">
  <title>正等轴测投影-</title>
  <line x1="175.69"
    y1="243.03"
    x2="172.52"
    y2="243.03"
    style="fill:none;stroke:#000;stroke-linecap:round;stroke-width:0.529880717388058px" />
  <line x1="166.29"
    y1="243.03"
    x2="32.41"
    y2="243.03"
    style="fill:none;stroke:#000;stroke-linecap:round;stroke-width:0.529880717388058px;stroke-dasharray:6.22697639465332,6.22697639465332" />
  <line x1="29.29"
    y1="243.03"
    x2="26.12"
    y2="243.03"
    style="fill:none;stroke:#000;stroke-linecap:round;stroke-width:0.529880717388058px" />
  <polygon points="29.09 239.11 27.43 243.03 29.09 246.96 19.79 243.03 29.09 239.11" />
  <line x1="175.69"
    y1="202.32"
    x2="172.52"
    y2="202.32"
    style="fill:none;stroke:#000;stroke-linecap:round;stroke-width:0.529880717388058px" />
  <line x1="166.29"
    y1="202.32"
    x2="32.41"
    y2="202.32"
    style="fill:none;stroke:#000;stroke-linecap:round;stroke-width:0.529880717388058px;stroke-dasharray:6.22697639465332,6.22697639465332" />
  <line x1="29.29"
    y1="202.32"
    x2="26.12"
    y2="202.32"
    style="fill:none;stroke:#000;stroke-linecap:round;stroke-width:0.529880717388058px" />
  <polygon points="29.09 198.39 27.43 202.32 29.09 206.24 19.79 202.32 29.09 198.39" />
  <line x1="175.69"
    y1="243.03"
    x2="175.69"
    y2="246.21"
    style="fill:none;stroke:#000;stroke-linecap:round;stroke-width:0.529880717388058px" />
  <line x1="175.69"
    y1="252.44"
    x2="175.69"
    y2="386.32"
    style="fill:none;stroke:#000;stroke-linecap:round;stroke-width:0.529880717388058px;stroke-dasharray:6.22697639465332,6.22697639465332" />
  <line x1="175.69"
    y1="389.43"
    x2="175.69"
    y2="392.61"
    style="fill:none;stroke:#000;stroke-linecap:round;stroke-width:0.529880717388058px" />
  <polygon points="171.77 389.63 175.69 391.3 179.62 389.63 175.69 398.94 171.77 389.63" />
  <line x1="175.69"
    y1="202.32"
    x2="175.69"
    y2="199.14"
    style="fill:none;stroke:#000;stroke-linecap:round;stroke-width:0.529880717388058px" />
  <line x1="175.69"
    y1="192.91"
    x2="175.69"
    y2="59.03"
    style="fill:none;stroke:#000;stroke-linecap:round;stroke-width:0.529880717388058px;stroke-dasharray:6.22697639465332,6.22697639465332" />
  <line x1="175.69"
    y1="55.92"
    x2="175.69"
    y2="52.74"
    style="fill:none;stroke:#000;stroke-linecap:round;stroke-width:0.529880717388058px" />
  <polygon points="179.62 55.72 175.69 54.05 171.77 55.72 175.69 46.41 179.62 55.72" />
  <path
    d="M28.91,261.4a.6.6,0,0,1,.09.28.2.2,0,0,1-.11.18.76.76,0,0,1-.34.1,4.68,4.68,0,0,1-.59,0l-.55,0a1.22,1.22,0,0,1-.33-.06.48.48,0,0,1-.19-.1l-.11-.15-2.53-4.18-2.52,4.18-.11.15a.67.67,0,0,1-.19.1,1.22,1.22,0,0,1-.32.06l-.53,0a4.28,4.28,0,0,1-.56,0,.66.66,0,0,1-.31-.1.21.21,0,0,1-.1-.18.67.67,0,0,1,.11-.28L23,256.26l-3.1-5a.63.63,0,0,1-.1-.28.2.2,0,0,1,.11-.18.64.64,0,0,1,.33-.1,5,5,0,0,1,.61,0l.54,0a1.94,1.94,0,0,1,.33.05.55.55,0,0,1,.17.1A.53.53,0,0,1,22,251l2.4,3.92L26.84,251a.64.64,0,0,1,.1-.13.49.49,0,0,1,.16-.1.9.9,0,0,1,.28-.06l.5,0a4.28,4.28,0,0,1,.56,0,.64.64,0,0,1,.32.09.17.17,0,0,1,.09.18.82.82,0,0,1-.11.29l-3.09,4.9Z"
    style="fill:#231815" />
  <path
    d="M28.91,193.47a.6.6,0,0,1,.09.27.21.21,0,0,1-.11.19.92.92,0,0,1-.34.1l-.59,0h-.55a1.22,1.22,0,0,1-.33-.06.38.38,0,0,1-.19-.11.76.76,0,0,1-.11-.14l-2.53-4.19-2.52,4.19a.76.76,0,0,1-.11.14.5.5,0,0,1-.19.11,1.22,1.22,0,0,1-.32.06h-.53L20,194a.8.8,0,0,1-.31-.1.22.22,0,0,1-.1-.19.69.69,0,0,1,.11-.27L23,188.32l-3.1-4.95a.63.63,0,0,1-.1-.28.22.22,0,0,1,.11-.19.76.76,0,0,1,.33-.1l.61,0,.54,0a1.94,1.94,0,0,1,.33,0,.51.51,0,0,1,.28.24L24.4,187l2.44-3.92a.64.64,0,0,1,.1-.13.37.37,0,0,1,.16-.1.9.9,0,0,1,.28-.06l.5,0,.56,0a1,1,0,0,1,.32.09.18.18,0,0,1,.09.18.79.79,0,0,1-.11.3l-3.09,4.9Z"
    style="fill:#231815" />
  <path
    d="M163,393v5.59a.34.34,0,0,1-.05.17.34.34,0,0,1-.16.11l-.31.07a3.43,3.43,0,0,1-.48,0,3.28,3.28,0,0,1-.49,0l-.31-.07a.38.38,0,0,1-.17-.11.34.34,0,0,1-.05-.17V393l-4.28-8.55a1.78,1.78,0,0,1-.16-.42.24.24,0,0,1,.06-.24.51.51,0,0,1,.31-.1,5,5,0,0,1,.62,0,4.45,4.45,0,0,1,.57,0,1.31,1.31,0,0,1,.34.06.48.48,0,0,1,.2.12,1,1,0,0,1,.12.19l2.1,4.36c.19.41.39.85.58,1.3l.59,1.37h0c.18-.44.36-.89.55-1.33s.38-.88.58-1.3l2.11-4.39a.47.47,0,0,1,.1-.2.43.43,0,0,1,.17-.12,1.13,1.13,0,0,1,.31-.06,3.58,3.58,0,0,1,.51,0,5.62,5.62,0,0,1,.66,0,.66.66,0,0,1,.33.11.23.23,0,0,1,.07.24,1.59,1.59,0,0,1-.16.41Z"
    style="fill:#231815" />
  <path
    d="M166.91,60.67c0,.15,0,.27,0,.38a.88.88,0,0,1-.08.26.42.42,0,0,1-.13.16.34.34,0,0,1-.18,0h-8.95a.63.63,0,0,1-.49-.19.78.78,0,0,1-.19-.59v-.44a1.27,1.27,0,0,1,0-.28,1,1,0,0,1,.07-.27,2.62,2.62,0,0,1,.17-.33c.07-.12.15-.27.25-.43l7-10.94h-6.91a.39.39,0,0,1-.2,0,.34.34,0,0,1-.14-.15.74.74,0,0,1-.07-.26,1.86,1.86,0,0,1,0-.36,2.25,2.25,0,0,1,0-.4.88.88,0,0,1,.07-.27.44.44,0,0,1,.14-.16.4.4,0,0,1,.2,0h8.43a.68.68,0,0,1,.5.18.77.77,0,0,1,.18.56v.45a3.28,3.28,0,0,1,0,.34,1.65,1.65,0,0,1-.24.62l-.26.41-7,10.9h7.41a.35.35,0,0,1,.31.2A1.51,1.51,0,0,1,166.91,60.67Z"
    style="fill:#231815" />
  <rect x="62.31"
    y="243.03"
    width="113.39"
    height="113.39"
    style="fill:none;stroke:#000;stroke-miterlimit:10;stroke-width:2px" />
  <rect x="62.31"
    y="88.93"
    width="113.39"
    height="113.39"
    style="fill:none;stroke:#000;stroke-miterlimit:10;stroke-width:2px" />
  <line x1="62.31"
    y1="88.93"
    x2="64.43"
    y2="91.05"
    style="fill:none;stroke:#000;stroke-miterlimit:10" />
  <line x1="68.8"
    y1="95.42"
    x2="171.39"
    y2="198.01"
    style="fill:none;stroke:#000;stroke-miterlimit:10;stroke-dasharray:6.174070835113525,6.174070835113525" />
  <line x1="173.57"
    y1="200.2"
    x2="175.69"
    y2="202.32"
    style="fill:none;stroke:#000;stroke-miterlimit:10" />
  <line x1="32.15"
    y1="58.78"
    x2="55.98"
    y2="82.6"
    style="fill:none;stroke:#2eaec0;stroke-miterlimit:10;stroke-width:2px" />
  <polygon points="49.07 83.55 54.67 81.29 56.93 75.69 62.31 88.93 49.07 83.55"
    style="fill:#2eaec0" />
  <line x1="32.15"
    y1="386.57"
    x2="55.98"
    y2="362.75"
    style="fill:none;stroke:#2eaec0;stroke-miterlimit:10;stroke-width:2px" />
  <polygon points="56.93 369.65 54.67 364.06 49.07 361.8 62.31 356.42 56.93 369.65"
    style="fill:#2eaec0" />
  <line x1="175.69"
    y1="243.03"
    x2="173.57"
    y2="245.15"
    style="fill:none;stroke:#000;stroke-miterlimit:10" />
  <line x1="169.21"
    y1="249.52"
    x2="66.61"
    y2="352.11"
    style="fill:none;stroke:#000;stroke-miterlimit:10;stroke-dasharray:6.174070358276367,6.174070358276367" />
  <line x1="64.43"
    y1="354.3"
    x2="62.31"
    y2="356.42"
    style="fill:none;stroke:#000;stroke-miterlimit:10" />
  <line x1="424.61"
    y1="259.15"
    x2="421"
    y2="261.23"
    style="fill:none;stroke:#000;stroke-linecap:round;stroke-width:0.5px" />
  <line x1="413.84"
    y1="265.37"
    x2="259.87"
    y2="354.26"
    style="fill:none;stroke:#000;stroke-linecap:round;stroke-width:0.5px;stroke-dasharray:8.269393920898438,8.269393920898438" />
  <line x1="256.29"
    y1="356.33"
    x2="252.67"
    y2="358.41"
    style="fill:none;stroke:#000;stroke-linecap:round;stroke-width:0.5px" />
  <polygon points="253.25 353.8 253.74 357.79 256.96 360.21 247.5 361.4 253.25 353.8" />
  <line x1="424.61"
    y1="259.15"
    x2="428.22"
    y2="261.23"
    style="fill:none;stroke:#000;stroke-linecap:round;stroke-width:0.5px" />
  <line x1="435.39"
    y1="265.37"
    x2="589.36"
    y2="354.26"
    style="fill:none;stroke:#000;stroke-linecap:round;stroke-width:0.5px;stroke-dasharray:8.269404411315918,8.269404411315918" />
  <line x1="592.94"
    y1="356.33"
    x2="596.55"
    y2="358.42"
    style="fill:none;stroke:#000;stroke-linecap:round;stroke-width:0.5px" />
  <polygon points="592.27 360.22 595.48 357.8 595.97 353.81 601.72 361.4 592.27 360.22" />
  <line x1="424.61"
    y1="259.15"
    x2="424.61"
    y2="254.98"
    style="fill:none;stroke:#000;stroke-linecap:round;stroke-width:0.5px" />
  <line x1="424.61"
    y1="246.71"
    x2="424.62"
    y2="68.91"
    style="fill:none;stroke:#000;stroke-linecap:round;stroke-width:0.5px;stroke-dasharray:8.269404411315918,8.269404411315918" />
  <line x1="424.62"
    y1="64.78"
    x2="424.62"
    y2="60.61"
    style="fill:none;stroke:#000;stroke-linecap:round;stroke-width:0.5px" />
  <polygon points="428.32 63.42 424.62 61.84 420.91 63.42 424.62 54.64 428.32 63.42" />
  <path
    d="M255.14,349.94a.56.56,0,0,1,.1.28.22.22,0,0,1-.11.18.86.86,0,0,1-.34.1,4.8,4.8,0,0,1-.59,0l-.56,0a1.22,1.22,0,0,1-.33-.06.49.49,0,0,1-.19-.1.58.58,0,0,1-.11-.15L250.48,346,248,350.2a.58.58,0,0,1-.11.15.43.43,0,0,1-.19.1,1.22,1.22,0,0,1-.32.06l-.53,0a4.11,4.11,0,0,1-.55,0,.71.71,0,0,1-.32-.1.18.18,0,0,1-.09-.18.59.59,0,0,1,.11-.28l3.28-5.14-3.11-5a.83.83,0,0,1-.1-.27.21.21,0,0,1,.11-.19.81.81,0,0,1,.34-.1,5.08,5.08,0,0,1,.6,0h.55a1.84,1.84,0,0,1,.32.06.3.3,0,0,1,.17.09.76.76,0,0,1,.11.14l2.4,3.93,2.44-3.93a.69.69,0,0,1,.11-.13.44.44,0,0,1,.15-.1l.29-.06h.49a4.45,4.45,0,0,1,.56,0,1,1,0,0,1,.32.09.19.19,0,0,1,.1.18.74.74,0,0,1-.12.29l-3.08,4.9Z"
    style="fill:#231815" />
  <path
    d="M604.5,344.57v5.59a.3.3,0,0,1,0,.16.29.29,0,0,1-.16.11,1.73,1.73,0,0,1-.32.07,3.86,3.86,0,0,1-1,0,1.61,1.61,0,0,1-.31-.07.32.32,0,0,1-.17-.11.3.3,0,0,1,0-.16v-5.59L598.19,336a2.38,2.38,0,0,1-.16-.42.25.25,0,0,1,.06-.24.57.57,0,0,1,.32-.1,5.26,5.26,0,0,1,.61,0,4.54,4.54,0,0,1,.57,0,2.08,2.08,0,0,1,.35.06.44.44,0,0,1,.19.12.88.88,0,0,1,.12.19l2.1,4.36c.2.42.39.85.59,1.3s.39.91.59,1.38h0c.18-.45.37-.89.56-1.33s.38-.88.57-1.31l2.11-4.38a.75.75,0,0,1,.1-.2.4.4,0,0,1,.18-.13,1.54,1.54,0,0,1,.31-.06,3.63,3.63,0,0,1,.5,0l.67,0a.57.57,0,0,1,.33.12.22.22,0,0,1,.06.23,1.93,1.93,0,0,1-.15.41Z"
    style="fill:#231815" />
  <path
    d="M444.26,68.7a2,2,0,0,1,0,.38.88.88,0,0,1-.07.27.39.39,0,0,1-.13.15.35.35,0,0,1-.18,0h-9a.66.66,0,0,1-.49-.19.83.83,0,0,1-.19-.6v-.43a2.3,2.3,0,0,1,0-.28,1.09,1.09,0,0,1,.08-.28,3.2,3.2,0,0,1,.16-.33l.26-.42,7-10.95h-6.92a.33.33,0,0,1-.2,0,.35.35,0,0,1-.13-.14.8.8,0,0,1-.08-.26c0-.11,0-.23,0-.37s0-.29,0-.4a.86.86,0,0,1,.08-.27.32.32,0,0,1,.13-.15.42.42,0,0,1,.2,0h8.44a.65.65,0,0,1,.5.19.74.74,0,0,1,.18.55v.46a3.08,3.08,0,0,1,0,.33,1.71,1.71,0,0,1-.09.3q-.06.15-.15.33c-.07.12-.16.25-.27.41l-7,10.9h7.41a.32.32,0,0,1,.3.2A1.46,1.46,0,0,1,444.26,68.7Z"
    style="fill:#231815" />
  <polyline points="313.16 323.49 424.61 387.84 536.07 323.49"
    style="fill:none;stroke:#000;stroke-linecap:round;stroke-width:2px;fill-rule:evenodd" />
  <polyline points="536.07 323.49 424.61 259.15 313.16 323.49"
    style="fill:none;stroke:#000;stroke-linecap:round;stroke-width:1.39012667553833px;fill-rule:evenodd" />
  <polyline points="536.07 323.49 536.07 194.8 424.61 130.45"
    style="fill:none;stroke:#000;stroke-linecap:round;stroke-width:2px;fill-rule:evenodd" />
  <polyline points="424.61 130.45 424.61 259.15 536.07 323.49"
    style="fill:none;stroke:#000;stroke-linecap:round;fill-rule:evenodd" />
  <polyline points="424.61 130.45 313.16 194.8 313.16 323.49"
    style="fill:none;stroke:#000;stroke-linecap:round;stroke-width:2px;fill-rule:evenodd" />
  <polyline points="313.16 323.49 424.61 259.15 424.61 130.45"
    style="fill:none;stroke:#000;stroke-linecap:round;fill-rule:evenodd" />
  <path
    d="M37.46,29.17a.89.89,0,0,1,.67.27.85.85,0,0,1,.27.64V33.3a2.11,2.11,0,0,1-.18.86,2.22,2.22,0,0,1-.48.71,2.15,2.15,0,0,1-.71.47,2.27,2.27,0,0,1-.86.17H33.74a2.27,2.27,0,0,1-.86-.17,2.15,2.15,0,0,1-.71-.47,2.22,2.22,0,0,1-.48-.71,2.11,2.11,0,0,1-.18-.86V24.56H28.34a15.14,15.14,0,0,1-1.52,6.87,11,11,0,0,1-4.41,4.41A1,1,0,0,1,22,36a.92.92,0,0,1-.46-1.72,9,9,0,0,0,3.71-3.74,13.33,13.33,0,0,0,1.28-5.94H21.93a.85.85,0,0,1-.64-.27.93.93,0,0,1-.27-.66.9.9,0,0,1,.27-.64.85.85,0,0,1,.64-.27h6.82V14.08a.86.86,0,0,1,.28-.64.91.91,0,0,1,.66-.28.94.94,0,0,1,.66.28.89.89,0,0,1,.27.64v8.64h6.82a.89.89,0,0,1,.65.27.93.93,0,0,1,.26.64,1,1,0,0,1-.26.66.89.89,0,0,1-.65.27H33.31V33.3c0,.26.14.38.41.38h2.42c.26,0,.39-.12.39-.38V30.08a.85.85,0,0,1,.27-.64A.93.93,0,0,1,37.46,29.17ZM22.92,14.63a.85.85,0,0,1,.68-.05,1,1,0,0,1,.54.46l2.71,5.47a.77.77,0,0,1,.06.69.9.9,0,0,1-.46.53.86.86,0,0,1-.41.1.82.82,0,0,1-.82-.48l-2.73-5.5a.78.78,0,0,1,0-.68A1,1,0,0,1,22.92,14.63Zm12.33.43a1.08,1.08,0,0,1,.56-.47.77.77,0,0,1,.69.06,1,1,0,0,1,.46.57.9.9,0,0,1-.05.7L34.15,21.4a.84.84,0,0,1-.82.5,1,1,0,0,1-.43-.12,1,1,0,0,1-.45-.55.83.83,0,0,1,.07-.7Z"
    style="fill:#231815" />
  <path
    d="M43.05,35.08a.86.86,0,0,1-.84-.58.84.84,0,0,1,0-.71,1,1,0,0,1,.52-.49L48.19,31a.77.77,0,0,1,.68,0,1,1,0,0,1,.52.52.81.81,0,0,1,0,.68,1,1,0,0,1-.5.52L43.41,35A.81.81,0,0,1,43.05,35.08Zm-.31-5.91a.84.84,0,0,1-.13-.55.86.86,0,0,1,.23-.5,21.06,21.06,0,0,0,1.75-2.63A28.52,28.52,0,0,0,46.1,22.4c-.45.08-.94.15-1.49.21l-1.46.13h-.07a.84.84,0,0,1-.79-.48.91.91,0,0,1,.07-1,12,12,0,0,0,.85-1.37c.33-.59.64-1.22.95-1.88s.57-1.32.79-2a8.31,8.31,0,0,0,.41-1.62.87.87,0,0,1,.35-.61.91.91,0,0,1,.68-.18A.89.89,0,0,1,47,14a.85.85,0,0,1,.19.66,9,9,0,0,1-.3,1.34c-.15.51-.33,1-.55,1.59s-.45,1.08-.71,1.63-.51,1-.77,1.53l2-.26a28.35,28.35,0,0,0,.79-2.9A.84.84,0,0,1,48,17a.9.9,0,0,1,.7-.13.83.83,0,0,1,.57.38.87.87,0,0,1,.15.7,24.4,24.4,0,0,1-.6,2.38c-.26.83-.55,1.65-.89,2.46s-.7,1.62-1.1,2.4S46,26.69,45.57,27.4l2-.38.84-.15a.9.9,0,0,1,1.08.72.85.85,0,0,1-.15.69.88.88,0,0,1-.57.39l-.52.09L47,29l-1.62.29-1.65.3a.44.44,0,0,1-.17,0A.87.87,0,0,1,42.74,29.17Zm10.9-4.05c.11.92.25,1.75.41,2.48a17.12,17.12,0,0,0,.5,1.88,20.85,20.85,0,0,0,1.54-1.76,13.65,13.65,0,0,0,1.17-1.79.92.92,0,0,1,.55-.44.86.86,0,0,1,.7.08.92.92,0,0,1,.44.55.82.82,0,0,1-.08.7,15.31,15.31,0,0,1-1.5,2.27,22.5,22.5,0,0,1-2,2.19,13,13,0,0,0,1.19,2,6.05,6.05,0,0,0,.68.78,3.69,3.69,0,0,0,.19-.82,11.59,11.59,0,0,0,.1-1.82.84.84,0,0,1,.28-.63.87.87,0,0,1,.66-.28.83.83,0,0,1,.64.28.86.86,0,0,1,.27.63c0,.48,0,1,0,1.48a6.51,6.51,0,0,1-.23,1.39,3.33,3.33,0,0,1-.51,1.09,1.46,1.46,0,0,1-.92.58l-.16,0h-.17a2.36,2.36,0,0,1-1.62-.83A11.41,11.41,0,0,1,54,32.53a18.34,18.34,0,0,1-3.7,2.38,1.21,1.21,0,0,1-.4.07.9.9,0,0,1-.47-.13.86.86,0,0,1-.35-.4.85.85,0,0,1,0-.68,1,1,0,0,1,.47-.54,8.91,8.91,0,0,0,1.82-1,22.71,22.71,0,0,0,1.82-1.4,13.19,13.19,0,0,1-.78-2.35,28.47,28.47,0,0,1-.51-3l-2.23.46-.17,0a.94.94,0,0,1-.59-.2.89.89,0,0,1-.32-.54.9.9,0,0,1,.14-.7.88.88,0,0,1,.58-.38l2.37-.48-.09-1.21c0-.41-.07-.82-.1-1.24l-.91.19a.47.47,0,0,1-.17,0,.89.89,0,0,1-.58-.23.9.9,0,0,1-.31-.57,1,1,0,0,1,.16-.67.84.84,0,0,1,.59-.38l1.15-.22c0-.91-.06-1.81-.07-2.69s0-1.73,0-2.56a.89.89,0,0,1,.27-.64.86.86,0,0,1,.64-.28.91.91,0,0,1,.66.28.86.86,0,0,1,.28.64c0,.88,0,1.73,0,2.55s0,1.62.08,2.39L58,18.18a.82.82,0,0,1,.69.16A.94.94,0,0,1,59,19a1,1,0,0,1-.17.67.85.85,0,0,1-.6.38l-5,.89.09,1.24c0,.41,0,.79.08,1.16l4.94-1a.87.87,0,0,1,.69.14.93.93,0,0,1,.37.58.83.83,0,0,1-.12.69.89.89,0,0,1-.6.39Zm3.6-8.86a.91.91,0,0,1,.2.68.88.88,0,0,1-.32.62,1,1,0,0,1-.58.21,1,1,0,0,1-.74-.36L54,15.16a.86.86,0,0,1-.2-.66,1,1,0,0,1,.32-.64.91.91,0,0,1,.68-.2,1,1,0,0,1,.64.32Z"
    style="fill:#231815" />
  <path
    d="M79.7,16.84a.82.82,0,0,1,.65.26.93.93,0,0,1,.24.65.89.89,0,0,1-.26.63.86.86,0,0,1-.65.28H70.13c0,.24,0,.72,0,1.45s-.08,1.61-.18,2.63h8a.86.86,0,0,1,.65.28.89.89,0,0,1,.26.63v6.87a4.75,4.75,0,0,1-.4,1.94,4.93,4.93,0,0,1-2.66,2.65,4.84,4.84,0,0,1-2,.4.93.93,0,0,1-.66-.27.85.85,0,0,1-.27-.64.94.94,0,0,1,.93-.94A3.17,3.17,0,0,0,75,33.42a3.13,3.13,0,0,0,1-.67,3.52,3.52,0,0,0,.68-1,3,3,0,0,0,.25-1.22V24.59H69.67c-.14,1-.34,2.05-.59,3.12a22.87,22.87,0,0,1-1,3.11,15.16,15.16,0,0,1-1.4,2.79,8,8,0,0,1-2,2.16.6.6,0,0,1-.26.16,1.43,1.43,0,0,1-.29,0,.91.91,0,0,1-.39-.08.69.69,0,0,1-.33-.28.84.84,0,0,1-.19-.67.89.89,0,0,1,.36-.62,6.75,6.75,0,0,0,1.62-1.83A13.4,13.4,0,0,0,66.51,30,21.58,21.58,0,0,0,67.38,27c.23-1,.42-2,.56-3.05s.25-2,.3-2.88.09-1.72.09-2.43H64.22a.89.89,0,0,1-.65-.27.93.93,0,0,1-.26-.64,1,1,0,0,1,.26-.66.89.89,0,0,1,.65-.27h7.37l-1-2.4a.81.81,0,0,1,0-.71.93.93,0,0,1,.52-.49.81.81,0,0,1,.68,0,.91.91,0,0,1,.52.5l1.3,3.1Z"
    style="fill:#231815" />
  <path
    d="M84.84,35V18.4a1.48,1.48,0,0,1,.47-1.13,1.51,1.51,0,0,1,1.11-.46h2.21l.05-.07L91,13.57a.74.74,0,0,1,.56-.37,1,1,0,0,1,.71.16.88.88,0,0,1,.35.58.9.9,0,0,1-.16.69l-1.58,2.18h8.83a1.55,1.55,0,0,1,1.58,1.59V31.86a3.82,3.82,0,0,1-.32,1.58,4.2,4.2,0,0,1-.88,1.3,4.28,4.28,0,0,1-1.29.88,4.09,4.09,0,0,1-1.61.32,1,1,0,0,1-.94-.94.84.84,0,0,1,.28-.63.87.87,0,0,1,.66-.28,2.11,2.11,0,0,0,.86-.18,2.39,2.39,0,0,0,.72-.48,2.16,2.16,0,0,0,.68-1.57V18.66H86.66V35a1,1,0,0,1-.26.66.93.93,0,0,1-1.31,0,.94.94,0,0,1-.28-.66Zm5.64-4a1.52,1.52,0,0,1-1.13-.47,1.53,1.53,0,0,1-.46-1.12v-6a1.51,1.51,0,0,1,.46-1.11,1.48,1.48,0,0,1,1.13-.47h5.06a1.48,1.48,0,0,1,1.13.47,1.54,1.54,0,0,1,.45,1.11v6a1.37,1.37,0,0,1-.4,1.1,1.49,1.49,0,0,1-1.15.51Zm.29-1.85H95.3V23.7H90.77Z"
    style="fill:#231815" />
  <path
    d="M386.48,16.38v6.84H391a.91.91,0,0,1,.65.26,1,1,0,0,1,0,1.31.85.85,0,0,1-.65.28h-4.56v8.59h6.39a.83.83,0,0,1,.64.28.9.9,0,0,1,.27.66.92.92,0,0,1-.91.91H377.36a.9.9,0,0,1-.91-.91.93.93,0,0,1,.26-.66.86.86,0,0,1,.65-.28h1.75V21.85a.92.92,0,0,1,1.58-.63.86.86,0,0,1,.27.63V33.66h3.65V16.38h-6.36a.93.93,0,0,1-.66-.26.91.91,0,0,1,0-1.31.87.87,0,0,1,.66-.28h13.68a.87.87,0,0,1,.66.28.91.91,0,0,1,0,1.31.93.93,0,0,1-.66.26Z"
    style="fill:#231815" />
  <path
    d="M406.23,16.38a.88.88,0,0,1-.26.67.83.83,0,0,1-.6.27h-1.56l.53.84a.94.94,0,0,1-.34,1.27.82.82,0,0,1-.45.14.86.86,0,0,1-.48-.13,1.05,1.05,0,0,1-.34-.32l-1.1-1.83h-.84l-.22,0-1.27,2.3a.82.82,0,0,1-.79.46,1,1,0,0,1-.46-.1.92.92,0,0,1-.44-.55.83.83,0,0,1,.08-.7l2.71-5a1,1,0,0,1,.55-.46.86.86,0,0,1,.7.07,1,1,0,0,1,.46.56.8.8,0,0,1-.08.69l-.5.94h3.77a.93.93,0,0,1,.66.27A.9.9,0,0,1,406.23,16.38ZM414,24.11a.93.93,0,0,1,.68.27A.94.94,0,0,1,415,25a.87.87,0,0,1-.28.65A.9.9,0,0,1,414,26h-15.5a.92.92,0,0,1-.92-.92.93.93,0,0,1,.27-.66.86.86,0,0,1,.65-.27h6.84v-1.8h-5.5a.87.87,0,0,1-.64-.28.86.86,0,0,1-.27-.63.9.9,0,0,1,.27-.66.87.87,0,0,1,.64-.28h5.45v-.19a.94.94,0,0,1,.93-.94,1,1,0,0,1,.94.94v.19h5.47a.85.85,0,0,1,.65.28.89.89,0,0,1,.26.66.92.92,0,0,1-.91.91h-5.47v1.8Zm-4.11,2.76a.91.91,0,0,1,.67.25.87.87,0,0,1,.27.66v.46h2.23a.9.9,0,0,1,.66.27.94.94,0,0,1,.28.66.91.91,0,0,1-.28.64.9.9,0,0,1-.66.27h-2.23v2.28a3.52,3.52,0,0,1-.29,1.41,3.69,3.69,0,0,1-.79,1.15,3.87,3.87,0,0,1-1.17.78,3.47,3.47,0,0,1-1.4.29,1,1,0,0,1-.94-.91.91.91,0,0,1,.28-.66.87.87,0,0,1,.66-.28,1.72,1.72,0,0,0,1.27-.52,1.69,1.69,0,0,0,.53-1.26V30.08h-6.19a.87.87,0,0,1,.53.34l1.82,2.28a.73.73,0,0,1,.22.64A1,1,0,0,1,405,34a1,1,0,0,1-.58.19,1,1,0,0,1-.4-.08.72.72,0,0,1-.32-.28l-1.82-2.23a.84.84,0,0,1-.22-.68,1,1,0,0,1,.36-.64.77.77,0,0,1,.38-.17h-3.45a.9.9,0,0,1-.66-.27.87.87,0,0,1-.28-.64.94.94,0,0,1,.94-.93h10v-.46a.93.93,0,0,1,.26-.64A.89.89,0,0,1,409.88,26.87ZM414,15.47a.83.83,0,0,1,.66.3,1,1,0,0,1,.25.66.93.93,0,0,1-.27.66.85.85,0,0,1-.64.27h-2.45l.53.84a.93.93,0,0,1,.09.71.89.89,0,0,1-.43.57.89.89,0,0,1-.94,0,1,1,0,0,1-.33-.33l-1.11-1.82h-.84l-.26-.05-.74,1.37a.85.85,0,0,1-.34.36.93.93,0,0,1-.46.12,1,1,0,0,1-.45-.12,1,1,0,0,1-.46-.55.86.86,0,0,1,.07-.7l2.26-4.1a1,1,0,0,1,.55-.46.86.86,0,0,1,.7.07,1,1,0,0,1,.45.56.8.8,0,0,1-.07.69l-.5.94Z"
    style="fill:#231815" />
  <path
    d="M419.79,18.35a.83.83,0,0,1-.64-.28.93.93,0,0,1,0-1.31.88.88,0,0,1,.64-.26h1.49l.6-2.66a.81.81,0,0,1,.4-.58,1,1,0,0,1,1.27.3.88.88,0,0,1,.11.71l-.51,2.13h2a.91.91,0,0,1,.66.28.87.87,0,0,1,.28.66.85.85,0,0,1-.28.65.93.93,0,0,1-.66.26h-2.4l-1.32,5.57h.89V21a.83.83,0,0,1,.28-.65.9.9,0,0,1,.66-.27.92.92,0,0,1,.91.92v2.78h.69a.92.92,0,0,1,.64.26.91.91,0,0,1,0,1.31.86.86,0,0,1-.64.28h-.69v2.71l.79-.22a.87.87,0,0,1,.71.06,1,1,0,0,1,.44.57.84.84,0,0,1-.07.71,1,1,0,0,1-.55.44l-1.35.41V35a.89.89,0,0,1-.26.66.85.85,0,0,1-.65.28.94.94,0,0,1-.93-.94V30.92l-2,.63-.14,0-.15,0a.87.87,0,0,1-.53-.18,1,1,0,0,1-.34-.47.87.87,0,0,1,.06-.71.92.92,0,0,1,.57-.44l2.57-.8V25.74h-2a.81.81,0,0,1-.72-.36.75.75,0,0,1-.2-.77l1.52-6.26ZM431,13.21a.92.92,0,0,1,.91.91v3.63h2.28a1.54,1.54,0,0,1,1.58,1.56V33.64a1.55,1.55,0,0,1-1.58,1.58h-6.29a1.55,1.55,0,0,1-1.58-1.58V19.28a1.48,1.48,0,0,1,.5-1.12,1.38,1.38,0,0,1,1.1-.39h2.14V14.15a1,1,0,0,1,.94-.94Zm-2.84,6.41v5.83h1.9V19.62Zm0,13.75h1.9V27.28h-1.9Zm3.72-13.75v5.83h2V19.62Zm2,13.75V27.3h-2v6.07Z"
    style="fill:#231815" />
  <path
    d="M440.17,21.47a.83.83,0,0,1-.17-.69.9.9,0,0,1,.39-.58.84.84,0,0,1,.68-.18.85.85,0,0,1,.59.39l1.92,2.76a.84.84,0,0,1,.15.66.91.91,0,0,1-.39.61.75.75,0,0,1-.53.17.84.84,0,0,1-.41-.11.8.8,0,0,1-.33-.3Zm.58,14.47a.92.92,0,0,1-.6-.38.79.79,0,0,1-.12-.7l1.6-8.11a.93.93,0,0,1,1.08-.75,1,1,0,0,1,.59.4.85.85,0,0,1,.13.68l-1.6,8.14a1,1,0,0,1-.33.54.88.88,0,0,1-.59.2h-.16Zm-.15-21.67a.79.79,0,0,1,.66-.19,1,1,0,0,1,.64.38l1.75,2.35a.94.94,0,0,1,.18.71.89.89,0,0,1-.37.59.92.92,0,0,1-.55.19.86.86,0,0,1-.75-.38l-1.75-2.36a.91.91,0,0,1-.18-.7A.84.84,0,0,1,440.6,14.27Zm10.8,21.55a.87.87,0,0,1-.5-.16,1,1,0,0,1-.36-.39,6.09,6.09,0,0,0-.49-1c-.22-.36-.46-.72-.71-1.08s-.52-.71-.79-1l-.75-.95a9.37,9.37,0,0,1-1.11,2.29,14.26,14.26,0,0,1-1.7,2,.77.77,0,0,1-.6.27.8.8,0,0,1-.62-.27.77.77,0,0,1-.25-.61.92.92,0,0,1,.27-.61A11.72,11.72,0,0,0,445,32.9a6.47,6.47,0,0,0,.87-1.52,10.8,10.8,0,0,0,.57-1.93,22.19,22.19,0,0,0,.32-2.57c.07-1,.12-2.12.13-3.42s0-2.8,0-4.51a.88.88,0,0,1,.25-.63.82.82,0,0,1,.59-.26.84.84,0,0,1,.62.25.8.8,0,0,1,.27.61c.05,2.36.05,4.36,0,6a30.9,30.9,0,0,1-.37,4.28.83.83,0,0,1,.41.26l.2.27.25.29c.24.32.51.66.82,1s.6.76.89,1.16.55.81.79,1.23a7.2,7.2,0,0,1,.57,1.2.82.82,0,0,1,0,.65.92.92,0,0,1-.48.45A1.58,1.58,0,0,1,451.4,35.82Zm-1-6.62a.89.89,0,0,1-.63-.26.66.66,0,0,1-.21-.61V16.16H446V28.33a.86.86,0,0,1-.89.89.82.82,0,0,1-.62-.26.92.92,0,0,1-.24-.63V15.92a1.43,1.43,0,0,1,.45-1.06,1.51,1.51,0,0,1,1.08-.45h4a1.51,1.51,0,0,1,1.08.45,1.43,1.43,0,0,1,.45,1.06V28.31a.87.87,0,0,1-.86.89Zm3.67.93a.88.88,0,0,1-.25.63.83.83,0,0,1-.61.26.87.87,0,0,1-.64-.26.88.88,0,0,1-.25-.63V16.45a.82.82,0,0,1,.25-.61.86.86,0,0,1,.64-.25.83.83,0,0,1,.61.26.85.85,0,0,1,.25.6Zm-.34,5.62a.81.81,0,0,1-.58-.25,1,1,0,0,1-.3-.64.77.77,0,0,1,.26-.62.88.88,0,0,1,.6-.24,1.36,1.36,0,0,0,1-.56,2.24,2.24,0,0,0,.47-1.53V14.58a.84.84,0,0,1,.25-.62.88.88,0,0,1,.62-.24.82.82,0,0,1,.63.26.85.85,0,0,1,.25.6V31.93a4.28,4.28,0,0,1-.25,1.49,4,4,0,0,1-.69,1.21,3.29,3.29,0,0,1-1,.82A2.72,2.72,0,0,1,453.75,35.75Z"
    style="fill:#231815" />
  <path
    d="M477.78,15.68V33.49a1.29,1.29,0,0,1-.1.59,2.31,2.31,0,0,1-.31.52,1.61,1.61,0,0,1-1.15.5H463a1.59,1.59,0,0,1-1.59-1.58V15.68a1.47,1.47,0,0,1,.46-1.1,1.55,1.55,0,0,1,1.13-.46h13.27a1.55,1.55,0,0,1,1.11.46,1.45,1.45,0,0,1,.47,1.1ZM476,16H463.21V33.2H476ZM464.58,26.41a.9.9,0,0,1-.92-.65.89.89,0,0,1,.06-.7,1,1,0,0,1,.57-.45,14.39,14.39,0,0,0,1.88-.69,18.2,18.2,0,0,0,1.91-1c-.32-.24-.62-.48-.9-.73a9.57,9.57,0,0,1-.78-.78l-.58.91a.89.89,0,0,1-.79.43.9.9,0,0,1-.88-.73.9.9,0,0,1,.12-.68c.51-.82.94-1.58,1.3-2.29a14.14,14.14,0,0,0,.86-2.08,1,1,0,0,1,.45-.53.83.83,0,0,1,.7-.07,1,1,0,0,1,.53.46.84.84,0,0,1,.07.69.26.26,0,0,1-.07.15h5.11a.87.87,0,0,1,.74.4.86.86,0,0,1,.1.87,8.75,8.75,0,0,1-1.14,2.11,11.8,11.8,0,0,1-1.62,1.78,17.57,17.57,0,0,0,1.74.86,15.68,15.68,0,0,0,1.81.65,1.1,1.1,0,0,1,.54.44,1,1,0,0,1-.24,1.2,1,1,0,0,1-.57.18l-.23,0a15.4,15.4,0,0,1-2.38-.87,19.15,19.15,0,0,1-2.23-1.2c-.31.21-.61.4-.92.57l-.93.51c.81.23,1.64.49,2.48.8a23.2,23.2,0,0,1,2.34,1,.91.91,0,0,1,.47.53.83.83,0,0,1,0,.69.85.85,0,0,1-.85.53.79.79,0,0,1-.38-.09,20.42,20.42,0,0,0-2.36-1,22.66,22.66,0,0,0-2.49-.75.8.8,0,0,1-.53-.37,1,1,0,0,1-.14-.63l-.79.3-.79.25Zm8.64,4.2a.87.87,0,0,1,.48.53.94.94,0,0,1,0,.7.92.92,0,0,1-.84.5.72.72,0,0,1-.4-.1c-.44-.2-.92-.42-1.44-.63s-1.09-.42-1.67-.61-1.18-.38-1.78-.54-1.18-.31-1.74-.42a.92.92,0,0,1-.6-.39.89.89,0,0,1-.14-.69.92.92,0,0,1,.39-.59.87.87,0,0,1,.69-.13c.6.12,1.23.28,1.87.45s1.27.37,1.88.57,1.21.41,1.78.64S472.75,30.37,473.22,30.61Zm-5.88-10.92a10.23,10.23,0,0,0,1.08,1.11,16,16,0,0,0,1.27,1,11,11,0,0,0,1.13-1,8.69,8.69,0,0,0,.93-1.19h-4.37A.31.31,0,0,1,467.34,19.69Z"
    style="fill:#231815" />
  <path d="M140.24,202.32a35.33,35.33,0,0,1,10.38-25.06"
    style="fill:none;stroke:#000;stroke-miterlimit:10;stroke-width:0.5px" />
  <path
    d="M117.62,189.75a.61.61,0,0,1-.23.47.75.75,0,0,1-.49.2.65.65,0,0,1-.46-.2.62.62,0,0,1-.21-.47v-2.23h-5.74a.6.6,0,0,1-.33-.1.58.58,0,0,1-.23-.26.75.75,0,0,1-.09-.34.67.67,0,0,1,.07-.31l5.38-9.61a.66.66,0,0,1,.63-.36h1a.75.75,0,0,1,.49.2.59.59,0,0,1,.23.45v9h1.31a.7.7,0,0,1,.68.67.68.68,0,0,1-.2.49.66.66,0,0,1-.48.21h-1.31Zm-6-3.6h4.57v-8.08Z"
    style="fill:#231815" />
  <path
    d="M121.11,188.13a.56.56,0,0,1-.08-.3.67.67,0,0,1,.29-.58.7.7,0,0,1,.4-.12.76.76,0,0,1,.39.1.67.67,0,0,1,.24.31,2.69,2.69,0,0,0,1.08,1.26,3.12,3.12,0,0,0,1.64.41,2.7,2.7,0,0,0,1.46-.43,3.13,3.13,0,0,0,1.09-1.21,3.81,3.81,0,0,0,.42-1.81,3.33,3.33,0,0,0-.42-1.63,2.56,2.56,0,0,0-1.15-1.13,3.26,3.26,0,0,0-1.48-.36,4.41,4.41,0,0,0-2.5.94.79.79,0,0,1-.45.14.61.61,0,0,1-.48-.22.66.66,0,0,1-.18-.51l.34-5.82a.68.68,0,0,1,.21-.46.7.7,0,0,1,.47-.19h6.07a.58.58,0,0,1,.43.18.6.6,0,0,1,.18.44.56.56,0,0,1-.18.42.61.61,0,0,1-.43.17h-5.42l-.32,4.41a4,4,0,0,1,1.11-.47,5,5,0,0,1,1.28-.16,4.24,4.24,0,0,1,3.69,2,4.18,4.18,0,0,1,.61,2.23,4.9,4.9,0,0,1-.6,2.46,4.19,4.19,0,0,1-1.62,1.64,4.4,4.4,0,0,1-2.24.58,4.56,4.56,0,0,1-2.32-.57A3.74,3.74,0,0,1,121.11,188.13Z"
    style="fill:#231815" />
  <path
    d="M132.25,179.44a2.14,2.14,0,0,1,.69-1.67,2.66,2.66,0,0,1,3.44,0,2.38,2.38,0,0,1,0,3.35,2.46,2.46,0,0,1-1.72.62,2.49,2.49,0,0,1-1.73-.61A2.17,2.17,0,0,1,132.25,179.44Zm3.74,0a1.24,1.24,0,0,0-.37-1,1.29,1.29,0,0,0-1-.35,1.33,1.33,0,0,0-1,.35,1.42,1.42,0,0,0,0,1.93,1.37,1.37,0,0,0,1,.34,1.33,1.33,0,0,0,1-.34A1.24,1.24,0,0,0,136,179.44Z"
    style="fill:#231815" />
  <path d="M150.62,268.09A35.33,35.33,0,0,1,140.24,243"
    style="fill:none;stroke:#000;stroke-miterlimit:10;stroke-width:0.5px" />
  <path
    d="M117.61,268.19a.6.6,0,0,1-.22.47.76.76,0,0,1-.5.2.64.64,0,0,1-.45-.2.62.62,0,0,1-.21-.47V266h-5.74a.6.6,0,0,1-.33-.1.53.53,0,0,1-.23-.26.75.75,0,0,1-.09-.34.67.67,0,0,1,.07-.31l5.38-9.61a.66.66,0,0,1,.63-.36h1a.76.76,0,0,1,.5.2.58.58,0,0,1,.22.45v9h1.32a.7.7,0,0,1,.68.67.68.68,0,0,1-.2.49.66.66,0,0,1-.48.21h-1.32Zm-6-3.6h4.57v-8.08Z"
    style="fill:#231815" />
  <path
    d="M121.11,266.58a.62.62,0,0,1-.08-.31.68.68,0,0,1,.29-.58.7.7,0,0,1,.4-.12.76.76,0,0,1,.39.1.67.67,0,0,1,.24.31,2.69,2.69,0,0,0,1.08,1.26,3.12,3.12,0,0,0,1.64.41,2.64,2.64,0,0,0,1.45-.43,3.07,3.07,0,0,0,1.1-1.21,3.78,3.78,0,0,0,.42-1.81,3.33,3.33,0,0,0-.42-1.63,2.56,2.56,0,0,0-1.15-1.13,3.26,3.26,0,0,0-1.48-.36,4.41,4.41,0,0,0-2.5.94.79.79,0,0,1-.45.14.61.61,0,0,1-.48-.22.62.62,0,0,1-.18-.51l.34-5.82a.68.68,0,0,1,.21-.46.7.7,0,0,1,.47-.19h6.07a.58.58,0,0,1,.43.18.6.6,0,0,1,.18.44.54.54,0,0,1-.18.42.61.61,0,0,1-.43.17h-5.42l-.32,4.41a4,4,0,0,1,1.11-.47,5,5,0,0,1,1.28-.16,4.24,4.24,0,0,1,3.69,2,4.18,4.18,0,0,1,.61,2.23,4.9,4.9,0,0,1-.6,2.46,4.19,4.19,0,0,1-1.62,1.64,4.43,4.43,0,0,1-2.24.58,4.56,4.56,0,0,1-2.32-.57A3.77,3.77,0,0,1,121.11,266.58Z"
    style="fill:#231815" />
  <path
    d="M132.25,257.88a2.14,2.14,0,0,1,.69-1.67,2.66,2.66,0,0,1,3.44,0,2.38,2.38,0,0,1,0,3.35,2.46,2.46,0,0,1-1.72.62,2.49,2.49,0,0,1-1.73-.61A2.17,2.17,0,0,1,132.25,257.88Zm3.74,0a1.24,1.24,0,0,0-.37-1,1.29,1.29,0,0,0-1-.35,1.33,1.33,0,0,0-1,.35,1.42,1.42,0,0,0,0,1.93,1.37,1.37,0,0,0,1,.34,1.33,1.33,0,0,0,1-.34A1.24,1.24,0,0,0,136,257.88Z"
    style="fill:#231815" />
</svg>
