<svg xmlns="http://www.w3.org/2000/svg"
  viewBox="0 0 425.2 282.81"
  width="425.2"
	height="282.81"
  class="w-100 h-auto my-3">
  <title>正投影：三面投影图</title>
  <line x1="14.17"
    y1="191.01"
    x2="212.6"
    y2="191.01"
    style="fill:none;stroke:#000;stroke-miterlimit:10;stroke-width:0.5px;stroke-dasharray:5.805041313171387,2.9025206565856934,5.805041313171387,11.610082626342773,2.9025206565856934,11.610082626342773" />
  <rect x="240.95"
    y="18.15"
    width="147.38"
    height="56.69"
    style="fill:none;stroke:#000;stroke-miterlimit:10;stroke-width:2px" />
  <line x1="314.63"
    y1="18.15"
    x2="314.63"
    y2="74.85"
    style="fill:none;stroke:#000;stroke-miterlimit:10;stroke-width:2px" />
  <line x1="70.87"
    y1="18.15"
    x2="70.87"
    y2="74.85"
    style="fill:none;stroke:#000;stroke-miterlimit:10;stroke-width:2px" />
  <line x1="155.91"
    y1="18.15"
    x2="155.91"
    y2="74.85"
    style="fill:none;stroke:#000;stroke-miterlimit:10;stroke-width:2px" />
  <line x1="113.39"
    y1="6.76"
    x2="113.39"
    y2="276.05"
    style="fill:none;stroke:#000;stroke-miterlimit:10;stroke-width:0.5px;stroke-dasharray:5.553289890289307,2.7766449451446533,5.553289890289307,11.106579780578613,2.7766449451446533,11.106579780578613" />
  <rect x="28.35"
    y="18.15"
    width="170.08"
    height="56.69"
    style="fill:none;stroke:#000;stroke-miterlimit:10;stroke-width:2px" />
  <polygon points="155.91 117.37 70.87 117.37 28.35 191.01 70.87 264.66 155.91 264.66 198.43 191.01 155.91 117.37"
    style="fill:none;stroke:#000;stroke-miterlimit:10;stroke-width:2px" />
  <polyline points="411.02 162.08 368.5 119.56 283.46 119.56 240.94 162.08"
    style="fill:none;stroke:#000;stroke-linecap:round;stroke-linejoin:round;stroke-width:2px;fill-rule:evenodd" />
  <polyline points="240.94 162.08 283.46 204.6 368.5 204.6 411.02 162.08"
    style="fill:none;stroke:#000;stroke-linecap:round;stroke-linejoin:round;stroke-width:2px;fill-rule:evenodd" />
  <polygon points="411.02 219.94 411.02 162.08 368.5 204.6 283.46 204.6 240.94 162.08 240.94 219.94 283.46 262.46 368.5 262.46 411.02 219.94"
    style="fill:#d3d3d4;stroke:#000;stroke-linecap:round;stroke-linejoin:round;stroke-width:2px;fill-rule:evenodd" />
  <line x1="283.47"
    y1="204.6"
    x2="283.46"
    y2="262.46"
    style="fill:none;stroke:#000;stroke-linecap:round;stroke-width:2px" />
  <line x1="368.5"
    y1="204.6"
    x2="368.5"
    y2="262.46"
    style="fill:none;stroke:#000;stroke-linecap:round;stroke-width:2px" />
</svg>
