<svg xmlns="http://www.w3.org/2000/svg"
  viewBox="0 0 494.25 368.5"
  width="494.24"
	height="368.5"
  class="w-100 h-auto my-3">
  <title>平行投影</title>
  <rect width="494.25"
    height="368.5"
    style="fill:#d3d3d4" />
  <polyline points="234.25 11.49 234.25 156.05 483.81 300.13"
    style="fill:#656464;stroke:#000;stroke-linecap:round;stroke-linejoin:round;fill-rule:evenodd" />
  <polyline points="483.81 300.13 483.81 155.58 234.25 11.49"
    style="fill:#656464;stroke:#000;stroke-linecap:round;stroke-linejoin:round;fill-rule:evenodd" />
  <polygon points="49.03 368.5 0 368.5 0 296.26 332.6 104.23 419.68 154.51 49.03 368.5"
    style="fill:#fff" />
  <line x1="327.32"
    y1="185.3"
    x2="324.72"
    y2="186.8"
    style="fill:none;stroke:#000;stroke-linecap:round;stroke-width:0.5px" />
  <line x1="314.14"
    y1="192.91"
    x2="17.88"
    y2="363.95"
    style="fill:none;stroke:#000;stroke-linecap:round;stroke-width:0.5px;stroke-dasharray:6.108608722686768,12.217217445373535" />
  <line x1="12.59"
    y1="367"
    x2="10"
    y2="368.5"
    style="fill:none;stroke:#000;stroke-linecap:round;stroke-width:0.5px" />
  <polygon points="419.68 154.51 332.6 104.23 327.31 185.3 419.68 154.51"
    style="fill:#2eaec0;stroke:#000;stroke-linecap:round;stroke-linejoin:round;stroke-width:2px;fill-rule:evenodd" />
  <polygon points="233.9 261.77 146.82 211.49 141.53 292.56 233.9 261.77"
    style="fill:#2eaec0;stroke:#000;stroke-linecap:round;stroke-linejoin:round;stroke-width:2px;fill-rule:evenodd" />
  <line x1="332.6"
    y1="104.23"
    x2="330"
    y2="105.73"
    style="fill:none;stroke:#000;stroke-linecap:round;stroke-miterlimit:10;stroke-width:0.5px" />
  <line x1="319.44"
    y1="111.83"
    x2="7.88"
    y2="291.71"
    style="fill:none;stroke:#000;stroke-linecap:round;stroke-miterlimit:10;stroke-width:0.5px;stroke-dasharray:6.097597122192383,12.195194244384766" />
  <line x1="2.6"
    y1="294.76"
    y2="296.26"
    style="fill:none;stroke:#000;stroke-linecap:round;stroke-miterlimit:10;stroke-width:0.5px" />
  <line x1="419.68"
    y1="154.51"
    x2="417.08"
    y2="156.01"
    style="fill:none;stroke:#000;stroke-linecap:round;stroke-miterlimit:10;stroke-width:0.5px" />
  <line x1="406.79"
    y1="161.95"
    x2="56.78"
    y2="364.03"
    style="fill:none;stroke:#000;stroke-linecap:round;stroke-miterlimit:10;stroke-width:0.5px;stroke-dasharray:5.943477630615234,11.886955261230469" />
  <line x1="51.63"
    y1="367"
    x2="49.03"
    y2="368.5"
    style="fill:none;stroke:#000;stroke-linecap:round;stroke-miterlimit:10;stroke-width:0.5px" />
</svg>
