<svg xmlns="http://www.w3.org/2000/svg"
	xmlns:xlink="http://www.w3.org/1999/xlink"
	xmlns:ev="http://www.w3.org/2001/xml-events"
	viewBox="0 0 841.89 1133.86"
	width="11.6929in"
	height="15.748in"
	xml:space="preserve"
	color-interpolation-filters="sRGB"
	class="w-100 h-auto my-3">
	<defs id="Markers">
		<g id="lend4">
			<path d="M 2 1 L 0 0 L 2 -1 L 2 1 "
				style="stroke:none" />
		</g>
		<marker id="mrkr4-15"
			style="fill: #1998d6; fill-opacity: 1; stroke: #1998d6; stroke-opacity: 1; stroke-width: 0.16556291390728;"
			refX="-12.08"
			orient="auto"
			markerUnits="strokeWidth"
			overflow="visible">
			<use xlink:href="#lend4"
				transform="scale(-6.04,-6.04) " />
		</marker>
	</defs>
	<g>
		<title>页-1</title>
		<g id="group54-1"
			transform="translate(241.245,-991.657)">
			<title> 文档</title>
			<desc>Supabase 官方文档</desc>
			<g id="shape55-2">
				<title>工作表.55</title>
				<path d="M51.36 1076.11 L38.59 1062.52 L0 1062.52 L0 1133.86 L51.36 1133.86 L51.36 1076.11 Z"
					style="fill: #1ba1e2; stroke: #ffffff; stroke-linecap: round; stroke-linejoin: round; stroke-width: 0.5;" />
			</g>
			<g id="shape56-4"
				transform="translate(9.36279,-14.3507)">
				<title>工作表.56</title>
				<path d="M19.26 1133.86 L32.37 1133.86 L32.37 1132.05 L19.26 1132.05 L19.26 1133.86 ZM0 1125.36 L32.37 1125.36 L32.37
							 1123.55 L0 1123.55 L0 1125.36 ZM0 1116.86 L32.37 1116.86 L32.37 1115.05 L0 1115.05 L0 1116.86 ZM0 1108.36
							 L32.37 1108.36 L32.37 1106.55 L0 1106.55 L0 1108.36 ZM0 1099.86 L13.11 1099.86 L13.11 1098.05 L0 1098.05
							 L0 1099.86 ZM0 1091.36 L13.11 1091.36 L13.11 1089.55 L0 1089.55 L0 1091.36 ZM28.86 1077.35 L28.86 1090.5
							 L41.22 1090.5 L28.86 1077.35 Z"
					style="fill: #ffffff;" />
			</g>
			<g id="shape54-7">
				<text x="4.49"
					y="1044.03"
					style="fill: #0a3c54; font-family: Segoe UI; font-size: 0.833336em;">Supabase <tspan x="5.68"
						dy="1.275em"
						style="font-family: 黑体; font-size: 1em;">官方文档</tspan></text>
			</g>
		</g>
		<g id="shape57-10"
			transform="translate(259.839,-991.647)">
			<title>动态连接线.1</title>
			<path d="M7.09 1133.86 L7.09 1171.85"
				style="marker-end: url(#mrkr4-15); stroke: #1998d6; stroke-linecap: round; stroke-linejoin: round; stroke-width: 0.5;" />
		</g>
		<g id="shape62-16"
			transform="translate(259.839,-904.815)">
			<title>动态连接线.1.62</title>
			<path d="M7.09 1133.86 L7.09 1178.93"
				style="marker-end: url(#mrkr4-15); stroke: #1998d6; stroke-linecap: round; stroke-linejoin: round; stroke-width: 0.5;" />
		</g>
		<g id="shape64-21"
			transform="translate(292.616,-825.11)">
			<title>动态连接线.1.64</title>
			<path d="M0 1140.94 L49.59 1140.94"
				style="marker-end: url(#mrkr4-15); stroke: #1998d6; stroke-linecap: round; stroke-linejoin: round; stroke-width: 0.5;" />
		</g>
		<g id="shape71-26"
			transform="translate(383.916,-596.96)">
			<title>数据库</title>
			<desc>Postgres 数据库</desc>
			<path d="M5.35 1091.06 L71.34 1091.06 A45.4764 45.4764 0 0 1 71.34 1133.86 L5.35 1133.86 A45.4764 45.4764 0 0 1 5.35
						 1091.06 Z"
				style="fill: #f09609;" />
			<path d="M5.35 1091.06 L71.34 1091.06 A45.4764 45.4764 0 0 1 71.34 1133.86 L5.35 1133.86 A45.4764 45.4764 0 0 1 5.35
						 1091.06"
				style="stroke: #ffffff; stroke-linecap: round; stroke-linejoin: round; stroke-width: 0.5;" />
			<path d="M71.34 1091.06 A45.4764 45.4764 -180 0 0 71.34 1133.86"
				style="stroke: #ffffff; stroke-linecap: round; stroke-linejoin: round; stroke-width: 0.5;" />
			<text x="20.5"
				y="1109.66"
				style="fill: #ffffff; font-family: Segoe UI; font-size: 0.666664em;">Postgres <tspan x="23.67"
					dy="1.275em"
					style="font-family: 黑体; font-size: 1em;">数据库</tspan></text>
		</g>
		<g id="shape72-32"
			transform="translate(266.926,-782.346)">
			<title>动态连接线.1.72</title>
			<path d="M0 1133.86 L0 1161.06 L152.66 1161.06 L152.66 1184.88"
				style="marker-end: url(#mrkr4-15); stroke: #1998d6; stroke-linecap: round; stroke-linejoin: round; stroke-width: 0.5;" />
		</g>
		<g id="shape77-37"
			transform="translate(412.497,-682.486)">
			<title>动态连接线.1.77</title>
			<path d="M7.09 1133.86 L7.09 1170.54"
				style="marker-end: url(#mrkr4-15); stroke: #1998d6; stroke-linecap: round; stroke-linejoin: round; stroke-width: 0.5;" />
		</g>
		<g id="shape86-42"
			transform="translate(490.92,-810.937)">
			<title>动态连接线.1.86</title>
			<path d="M0 1126.77 L49.59 1126.77"
				style="marker-end: url(#mrkr4-15); stroke: #1998d6; stroke-linecap: round; stroke-linejoin: round; stroke-width: 0.5;" />
		</g>
		<g id="shape87-47"
			transform="translate(576.522,-782.346)">
			<title>动态连接线.1.87</title>
			<path d="M0 1133.86 L0 1161.06 L-156.94 1161.06 L-156.94 1184.88"
				style="marker-end: url(#mrkr4-15); stroke: #1998d6; stroke-linecap: round; stroke-linejoin: round; stroke-width: 0.5;" />
		</g>
		<g id="group80-52"
			transform="translate(546.561,-782.356)">
			<title>数据.19</title>
			<desc>数字格式的文件 (embeddings)</desc>
			<g id="shape81-53"
				transform="translate(4.28809,-0.239297)">
				<title>工作表.81</title>
				<path d="M45.73 1069.56 L45.73 1075.29 C45.73 1076.87 47.35 1078.15 49.36 1078.15 L49.96 1078.15 C49.96 1087.07 49.97
							 1124.11 49.97 1132.01 C47.06 1132.01 25.8 1131.99 23.45 1131.99 C23.45 1130.37 23.44 1129.02 23.44 1127.93
							 L26.37 1127.93 L26.37 1124.51 L42.52 1124.51 C43.69 1124.51 44.63 1123.57 44.63 1122.41 L44.63 1064.86
							 C44.63 1063.7 43.69 1062.76 42.53 1062.76 L2.11 1062.76 C0.95 1062.76 0 1063.7 0 1064.86 L0 1092.59
							 A6.18611 5.94778 178.41 0 1 1.64 1092.33 L5.61 1092.32 A6.12396 5.88802 174.03 0 1 12.12 1097.59 L12.12
							 1124.51 L18.52 1124.51 L18.52 1127.93 L21.59 1127.93 C21.6 1129.07 21.6 1130.51 21.6 1132.25 C21.6 1132.71
							 21.6 1133.14 21.95 1133.49 C22.31 1133.84 22.73 1133.85 23.23 1133.84 C25.41 1133.84 47.32 1133.86 50.17
							 1133.86 C50.66 1133.86 51.08 1133.86 51.43 1133.53 C51.82 1133.17 51.82 1132.71 51.82 1132.23 C51.82
							 1124.94 51.8 1087.17 51.8 1078.15 L52 1078.15 C54.01 1078.15 55.63 1076.87 55.63 1075.29 L55.63 1069.56
							 L45.73 1069.56 ZM47.58 1063.44 L47.58 1068.35 L53.78 1068.35 L53.78 1063.44 L47.58 1063.44 Z"
					style="fill: #1ba1e2;" />
				<path d="M45.73 1069.56 L45.73 1075.29 C45.73 1076.87 47.35 1078.15 49.36 1078.15 L49.96 1078.15 C49.96 1087.07 49.97
							 1124.11 49.97 1132.01 C47.06 1132.01 25.8 1131.99 23.45 1131.99 C23.45 1130.37 23.44 1129.02 23.44 1127.93
							 L26.37 1127.93 L26.37 1124.51 L42.52 1124.51 C43.69 1124.51 44.63 1123.57 44.63 1122.41 L44.63 1064.86
							 C44.63 1063.7 43.69 1062.76 42.53 1062.76 L2.11 1062.76 C0.95 1062.76 0 1063.7 0 1064.86 L0 1092.59
							 A6.18611 5.94778 178.41 0 1 1.64 1092.33 L5.61 1092.32 A6.12396 5.88802 174.03 0 1 12.12 1097.59 L12.12
							 1124.51 L18.52 1124.51 L18.52 1127.93 L21.59 1127.93 C21.6 1129.07 21.6 1130.51 21.6 1132.25 C21.6 1132.71
							 21.6 1133.14 21.95 1133.49 C22.31 1133.84 22.73 1133.85 23.23 1133.84 C25.41 1133.84 47.32 1133.86 50.17
							 1133.86 C50.66 1133.86 51.08 1133.86 51.43 1133.53 C51.82 1133.17 51.82 1132.71 51.82 1132.23 C51.82
							 1124.94 51.8 1087.17 51.8 1078.15 L52 1078.15 C54.01 1078.15 55.63 1076.87 55.63 1075.29 L55.63 1069.56
							 L45.73 1069.56"
					style="stroke: #ffffff; stroke-linecap: round; stroke-linejoin: round; stroke-width: 0.5;" />
				<path d="M47.58 1063.44 L47.58 1068.35 L53.78 1068.35 L53.78 1063.44 L47.58 1063.44"
					style="stroke: #ffffff; stroke-linecap: round; stroke-linejoin: round; stroke-width: 0.5;" />
				<path d="M35.95 1111.19 L28.91 1111.19 L28.91 1117.57 L35.95 1117.57 C37.73 1117.57 39.17 1116.14 39.17 1114.38 C39.18
							 1112.62 37.73 1111.19 35.95 1111.19"
					style="stroke: #ffffff; stroke-linecap: round; stroke-linejoin: round; stroke-width: 0.5;" />
				<path d="M17.53 1117.57 L27.13 1117.57 L27.13 1111.19 L17.53 1111.19 L17.53 1117.57"
					style="stroke: #ffffff; stroke-linecap: round; stroke-linejoin: round; stroke-width: 0.5;" />
				<path d="M12.12 1117.57 L15.76 1117.57 L15.76 1111.19 L12.12 1111.19 L12.12 1117.57"
					style="stroke: #ffffff; stroke-linecap: round; stroke-linejoin: round; stroke-width: 0.5;" />
			</g>
			<g id="shape82-60"
				transform="translate(9.32754,-26.8276)">
				<title>工作表.82</title>
				<path d="M0 1096.8 L0.03 1118.92 L0.84 1118.92 A6.19312 6.19312 0 0 1 7.08 1125.3 L7.08 1133.66 L34.56 1133.86 L34.56
							 1096.8 L0 1096.8 Z"
					style="fill: #d80073; stroke: #ffffff; stroke-linecap: round; stroke-linejoin: round; stroke-width: 0.5;" />
			</g>
			<g id="shape83-62"
				transform="translate(53.2467,-66.4584)">
				<title>工作表.83</title>
				<path d="M3.53 1133.34 L3.53 1130.89 C3.53 1130.6 3.3 1130.37 3 1130.37 C2.71 1130.37 2.48 1130.6 2.48 1130.89 L2.48
							 1133.34 C2.48 1133.62 2.71 1133.86 3 1133.86 C3.3 1133.86 3.53 1133.62 3.53 1133.34 ZM1.05 1133.34 L1.05
							 1130.89 C1.05 1130.6 0.82 1130.37 0.53 1130.37 C0.24 1130.37 0 1130.6 0 1130.89 L0 1133.34 C0 1133.62
							 0.24 1133.86 0.53 1133.86 C0.82 1133.86 1.05 1133.62 1.05 1133.34 Z"
					style="fill: #ffffff;" />
			</g>
			<g id="shape84-65">
				<title>工作表.84</title>
				<path d="M10.14 1092.09 L6.27 1092.09 C2.81 1092.09 0 1094.39 0 1097.23 L0 1126.38 L16.41 1126.38 L16.41 1097.23
							 C16.41 1094.39 13.6 1092.09 10.14 1092.09 ZM3.5 1127.92 L3.5 1133.86 L12.6 1133.86 L12.6 1127.92 L3.5
							 1127.92 Z"
					style="fill: #d80073; stroke: #ffffff; stroke-linecap: round; stroke-linejoin: round; stroke-width: 0.5;" />
			</g>
			<g id="shape85-67"
				transform="translate(5.38874,-0.890243)">
				<title>工作表.85</title>
				<path d="M1.55 1133.2 L1.55 1130.13 C1.55 1129.76 1.2 1129.47 0.77 1129.47 C0.35 1129.47 0 1129.76 0 1130.13 L0 1133.2
							 C0 1133.56 0.35 1133.86 0.77 1133.86 C1.2 1133.86 1.55 1133.56 1.55 1133.2 ZM5.19 1133.2 L5.19 1130.13
							 C5.19 1129.76 4.84 1129.47 4.41 1129.47 C3.99 1129.47 3.64 1129.76 3.64 1130.13 L3.64 1133.2 C3.64 1133.56
							 3.99 1133.86 4.41 1133.86 C4.84 1133.86 5.19 1133.56 5.19 1133.2 Z"
					style="fill: #feffff;" />
			</g>
			<g id="shape80-70">
				<text x="-5.04"
					y="1043.61"
					style="fill: #0a3c54; font-family: 黑体; font-size: 0.833336em;">数字格式的文件 <tspan x="-0.53"
						dy="1.225em"
						style="font-family: Segoe UI; font-size: 1em;">(embeddings)</tspan></text>
			</g>
		</g>
		<g id="group58-73"
			transform="translate(241.245,-782.356)">
			<title>文档集</title>
			<desc>多个文本格式文件</desc>
			<g id="shape59-74"
				transform="translate(3.60221,-3.96308)">
				<title>工作表.59</title>
				<path d="M1.8 1070.45 L0 1070.45 L0 1133.86 L44.16 1133.86 L44.16 1131.88 L1.8 1131.88 L1.8 1070.45 Z"
					style="fill: #d80073;" />
			</g>
			<g id="shape60-77">
				<title>工作表.60</title>
				<path d="M1.8 1070.45 L0 1070.45 L0 1133.86 L44.16 1133.86 L44.16 1131.88 L1.8 1131.88 L1.8 1070.45 ZM51.36 1074.6
							 L40.38 1062.52 L7.2 1062.52 L7.2 1125.93 L51.36 1125.93 L51.36 1074.6 Z"
					style="fill: #1ba1e2;" />
				<path d="M51.36 1074.6 L40.38 1062.52 L7.2 1062.52 L7.2 1125.93 L51.36 1125.93 L51.36 1074.6"
					style="stroke: #ffffff; stroke-linecap: round; stroke-linejoin: round; stroke-width: 0.5;" />
			</g>
			<g id="shape61-80"
				transform="translate(14.64,-19.6165)">
				<title>工作表.61</title>
				<path d="M17 1133.86 L28.57 1133.86 L28.57 1132.21 L17 1132.21 L17 1133.86 ZM0 1126.14 L28.57 1126.14 L28.57 1124.5
							 L0 1124.5 L0 1126.14 ZM0 1118.42 L28.57 1118.42 L28.57 1116.78 L0 1116.78 L0 1118.42 ZM0 1110.71 L28.57
							 1110.71 L28.57 1109.06 L0 1109.06 L0 1110.71 ZM0 1102.99 L11.57 1102.99 L11.57 1101.34 L0 1101.34 L0
							 1102.99 ZM0 1095.27 L11.57 1095.27 L11.57 1093.63 L0 1093.63 L0 1095.27 ZM25.47 1082.54 L25.47 1094.48
							 L36.38 1094.48 L25.47 1082.54 Z"
					style="fill: #ffffff;" />
			</g>
			<g id="shape58-83">
				<text x="-14.32"
					y="1055.28"
					style="fill: #0a3c54; font-family: 黑体; font-size: 0.833336em;">多个文本格式文件</text>
			</g>
		</g>
		<g id="group100-85"
			transform="translate(211.313,-57.6735)">
			<title>用户</title>
			<desc>用户提问</desc>
			<g id="shape101-86"
				transform="translate(41.1154,-4.54747E-13)">
				<title>工作表.101</title>
				<path d="M64.04 1075.09 A8.1258 9.04701 -180 1 0 47.79 1075.09 A8.1258 9.04701 -180 1 0 64.04 1075.09 ZM64.62 1086.58
							 L47.02 1086.58 C45.76 1086.58 44.59 1087.06 43.66 1087.87 C43.02 1088.43 42.48 1089.15 42.11 1089.97
							 C41.74 1090.79 41.53 1091.72 41.53 1092.7 L41.53 1115.92 L46.35 1115.92 L46.35 1133.86 L65.11 1133.86
							 L65.11 1115.92 L70.11 1115.92 L70.11 1092.7 C70.11 1091.28 69.68 1089.99 68.95 1088.95 C68.45 1088.23
							 67.81 1087.64 67.07 1087.23 C66.33 1086.81 65.5 1086.58 64.62 1086.58 Z"
					style="fill: #ffffff;" />
				<path d="M64.04 1075.09 A8.1258 9.04701 -180 1 0 47.79 1075.09 A8.1258 9.04701 -180 1 0 64.04 1075.09"
					style="stroke: #d80073; stroke-linecap: round; stroke-linejoin: round; stroke-width: 0.5;" />
				<path d="M64.62 1086.58 L47.02 1086.58 C45.76 1086.58 44.59 1087.06 43.66 1087.87 C43.02 1088.43 42.48 1089.15 42.11
							 1089.97 C41.74 1090.79 41.53 1091.72 41.53 1092.7 L41.53 1115.92 L46.35 1115.92 L46.35 1133.86 L65.11
							 1133.86 L65.11 1115.92 L70.11 1115.92 L70.11 1092.7 C70.11 1091.28 69.68 1089.99 68.95 1088.95 C68.45
							 1088.23 67.81 1087.64 67.07 1087.23 C66.33 1086.81 65.5 1086.58 64.62 1086.58"
					style="stroke: #d80073; stroke-linecap: round; stroke-linejoin: round; stroke-width: 0.5;" />
				<path d="M55.82 1133.86 L55.82 1119.52"
					style="stroke: #d80073; stroke-linecap: round; stroke-linejoin: round; stroke-width: 0.5;" />
				<path d="M46.35 1115.92 L46.35 1103.55"
					style="stroke: #d80073; stroke-linecap: round; stroke-linejoin: round; stroke-width: 0.5;" />
				<path d="M65.11 1115.92 L65.11 1103.55"
					style="stroke: #d80073; stroke-linecap: round; stroke-linejoin: round; stroke-width: 0.5;" />
				<path d="M0 1115.92 L41.53 1115.92"
					style="stroke: #d80073; stroke-linecap: round; stroke-linejoin: round; stroke-width: 0.5;" />
			</g>
			<g id="shape102-94"
				transform="translate(0,-28.8207)">
				<title>工作表.102</title>
				<path d="M65.03 1075.41 C65.03 1074.1 64.63 1072.91 63.96 1071.96 C63.5 1071.31 62.91 1070.77 62.24 1070.4 C61.57
							 1070.03 60.81 1069.82 60.01 1069.82 L10.93 1069.82 C9.76 1069.82 8.69 1070.26 7.83 1071.01 C7.25 1071.52
							 6.77 1072.18 6.43 1072.93 C6.1 1073.67 5.91 1074.51 5.91 1075.41 L5.91 1111.54 L65.03 1111.54 L65.03
							 1075.41 ZM65.31 1115.96 L5.45 1115.96 L0 1126.86 L0 1133.86 L71.11 1133.86 L71.11 1126.88 L65.31 1115.96
							 Z"
					style="fill: #1ba1e2; stroke: #1ba1e2; stroke-linecap: round; stroke-linejoin: round; stroke-width: 0.5;" />
			</g>
			<g id="shape103-96"
				transform="translate(9.84291,-55.5141)">
				<title>工作表.103</title>
				<path d="M51.25 1133.86 L51.25 1102.1 C51.25 1101.89 51.21 1101.7 51.12 1101.53 C51.02 1101.33 50.86 1101.15 50.68
							 1101.04 C50.53 1100.94 50.36 1100.89 50.16 1100.89 L1.09 1100.89 C0.9 1100.89 0.73 1100.94 0.57 1101.04
							 C0.39 1101.15 0.23 1101.32 0.13 1101.53 C0.05 1101.7 0 1101.89 0 1102.1 L0 1133.86 L51.25 1133.86 Z"
					style="fill: #d80073; stroke: #ffffff; stroke-linecap: round; stroke-linejoin: round; stroke-width: 0.5;" />
			</g>
			<g id="shape104-98"
				transform="translate(6.10294,-37.1007)">
				<title>工作表.104</title>
				<path d="M2.96 1127.96 L0 1133.86 L58.77 1133.86 L55.81 1127.96 L2.96 1127.96 Z"
					style="fill: #ffffff;" />
			</g>
			<g id="shape100-101">
				<text x="35.61"
					y="1150.46"
					style="fill: #0a3c54; font-family: 黑体; font-size: 0.833336em;">用户提问</text>
			</g>
		</g>
		<g id="shape105-103"
			transform="translate(195.591,-362.674)">
			<title>判定.105</title>
			<desc>嵌入模型 text-embedding-ada-002</desc>
			<path d="M0 1098.19 L71.34 1062.52 L142.67 1098.19 L71.34 1133.86 L0 1098.19 Z"
				style="fill: #d80073; stroke: #ffffff; stroke-linecap: round; stroke-linejoin: round; stroke-width: 0.5;" />
			<text x="55.34"
				y="1095.99"
				style="fill: #ffffff; font-family: 黑体; font-size: 0.666664em;">嵌入模型 <tspan x="26.72"
					dy="1.225em"
					style="font-family: Segoe UI; font-size: 1em;">t</tspan>
				<tspan style="font-family: Segoe UI; font-size: 1em;">ext</tspan>
				<tspan style="font-family: Segoe UI; font-size: 1em;">-</tspan>
				<tspan style="font-family: Segoe UI; font-size: 1em;">embedding</tspan>
				<tspan style="font-family: Segoe UI; font-size: 1em;">-</tspan>
				<tspan style="font-family: Segoe UI; font-size: 1em;">ada</tspan>
				<tspan style="font-family: Segoe UI; font-size: 1em;">-</tspan>
				<tspan style="font-family: Segoe UI; font-size: 1em;">002</tspan>
			</text>
		</g>
		<g id="group107-114"
			transform="translate(250.669,-515.452)">
			<title>数据.107</title>
			<desc>数字格式的 提问内容 (embeddings)</desc>
			<g id="shape108-115"
				transform="translate(2.32675,-0.129844)">
				<title>工作表.108</title>
				<path d="M24.81 1098.97 L24.81 1102.08 C24.81 1102.94 25.69 1103.63 26.78 1103.63 L27.11 1103.63 C27.11 1108.47 27.12
							 1128.57 27.12 1132.85 C25.54 1132.85 14 1132.85 12.72 1132.85 C12.72 1131.97 12.72 1131.23 12.72 1130.64
							 L14.31 1130.64 L14.31 1128.79 L23.07 1128.79 C23.71 1128.79 24.22 1128.27 24.22 1127.65 L24.22 1096.42
							 C24.22 1095.79 23.71 1095.28 23.07 1095.28 L1.15 1095.28 C0.52 1095.28 0 1095.79 0 1096.42 L0 1111.47
							 A3.35663 3.2273 178.41 0 1 0.89 1111.33 L3.04 1111.32 A3.3229 3.19488 174.03 0 1 6.58 1114.18 L6.58
							 1128.79 L10.05 1128.79 L10.05 1130.64 L11.71 1130.64 C11.72 1131.26 11.72 1132.04 11.72 1132.99 C11.72
							 1133.23 11.72 1133.47 11.91 1133.66 C12.1 1133.85 12.34 1133.85 12.61 1133.85 C13.79 1133.85 25.68 1133.86
							 27.22 1133.86 C27.49 1133.86 27.71 1133.86 27.91 1133.68 C28.12 1133.48 28.12 1133.23 28.12 1132.97
							 C28.12 1129.02 28.11 1108.52 28.11 1103.63 L28.21 1103.63 C29.3 1103.63 30.19 1102.93 30.19 1102.08
							 L30.19 1098.97 L24.81 1098.97 ZM25.82 1095.65 L25.82 1098.31 L29.18 1098.31 L29.18 1095.65 L25.82 1095.65
							 Z"
					style="fill: #1ba1e2;" />
				<path d="M24.81 1098.97 L24.81 1102.08 C24.81 1102.94 25.69 1103.63 26.78 1103.63 L27.11 1103.63 C27.11 1108.47 27.12
							 1128.57 27.12 1132.85 C25.54 1132.85 14 1132.85 12.72 1132.85 C12.72 1131.97 12.72 1131.23 12.72 1130.64
							 L14.31 1130.64 L14.31 1128.79 L23.07 1128.79 C23.71 1128.79 24.22 1128.27 24.22 1127.65 L24.22 1096.42
							 C24.22 1095.79 23.71 1095.28 23.07 1095.28 L1.15 1095.28 C0.52 1095.28 0 1095.79 0 1096.42 L0 1111.47
							 A3.35663 3.2273 178.41 0 1 0.89 1111.33 L3.04 1111.32 A3.3229 3.19488 174.03 0 1 6.58 1114.18 L6.58
							 1128.79 L10.05 1128.79 L10.05 1130.64 L11.71 1130.64 C11.72 1131.26 11.72 1132.04 11.72 1132.99 C11.72
							 1133.23 11.72 1133.47 11.91 1133.66 C12.1 1133.85 12.34 1133.85 12.61 1133.85 C13.79 1133.85 25.68 1133.86
							 27.22 1133.86 C27.49 1133.86 27.71 1133.86 27.91 1133.68 C28.12 1133.48 28.12 1133.23 28.12 1132.97
							 C28.12 1129.02 28.11 1108.52 28.11 1103.63 L28.21 1103.63 C29.3 1103.63 30.19 1102.93 30.19 1102.08
							 L30.19 1098.97 L24.81 1098.97"
					style="stroke: #ffffff; stroke-linecap: round; stroke-linejoin: round; stroke-width: 0.5;" />
				<path d="M25.82 1095.65 L25.82 1098.31 L29.18 1098.31 L29.18 1095.65 L25.82 1095.65"
					style="stroke: #ffffff; stroke-linecap: round; stroke-linejoin: round; stroke-width: 0.5;" />
				<path d="M19.51 1121.56 L15.69 1121.56 L15.69 1125.02 L19.51 1125.02 C20.47 1125.02 21.26 1124.24 21.26 1123.29 C21.26
							 1122.33 20.47 1121.56 19.51 1121.56"
					style="stroke: #ffffff; stroke-linecap: round; stroke-linejoin: round; stroke-width: 0.5;" />
				<path d="M9.51 1125.02 L14.72 1125.02 L14.72 1121.56 L9.51 1121.56 L9.51 1125.02"
					style="stroke: #ffffff; stroke-linecap: round; stroke-linejoin: round; stroke-width: 0.5;" />
				<path d="M6.58 1125.02 L8.55 1125.02 L8.55 1121.56 L6.58 1121.56 L6.58 1125.02"
					style="stroke: #ffffff; stroke-linecap: round; stroke-linejoin: round; stroke-width: 0.5;" />
			</g>
			<g id="shape109-122"
				transform="translate(5.06118,-14.5569)">
				<title>工作表.109</title>
				<path d="M0 1113.75 L0.02 1125.75 L0.45 1125.75 A3.36043 3.36043 0 0 1 3.84 1129.21 L3.84 1133.75 L18.75 1133.86
							 L18.75 1113.75 L0 1113.75 Z"
					style="fill: #d80073; stroke: #ffffff; stroke-linecap: round; stroke-linejoin: round; stroke-width: 0.5;" />
			</g>
			<g id="shape110-124"
				transform="translate(28.892,-36.0608)">
				<title>工作表.110</title>
				<path d="M1.92 1133.58 L1.92 1132.25 C1.92 1132.09 1.79 1131.96 1.63 1131.96 C1.47 1131.96 1.34 1132.09 1.34 1132.25
							 L1.34 1133.58 C1.34 1133.73 1.47 1133.86 1.63 1133.86 C1.79 1133.86 1.92 1133.73 1.92 1133.58 ZM0.57
							 1133.58 L0.57 1132.25 C0.57 1132.09 0.44 1131.96 0.29 1131.96 C0.13 1131.96 0 1132.09 0 1132.25 L0 1133.58
							 C0 1133.73 0.13 1133.86 0.29 1133.86 C0.44 1133.86 0.57 1133.73 0.57 1133.58 Z"
					style="fill: #ffffff;" />
			</g>
			<g id="shape111-127">
				<title>工作表.111</title>
				<path d="M5.5 1111.19 L3.4 1111.19 C1.53 1111.19 0 1112.44 0 1113.98 L0 1129.8 L8.9 1129.8 L8.9 1113.98 C8.9 1112.44
							 7.38 1111.19 5.5 1111.19 ZM1.9 1130.64 L1.9 1133.86 L6.84 1133.86 L6.84 1130.64 L1.9 1130.64 Z"
					style="fill: #d80073; stroke: #ffffff; stroke-linecap: round; stroke-linejoin: round; stroke-width: 0.5;" />
			</g>
			<g id="shape112-129"
				transform="translate(2.92397,-0.483052)">
				<title>工作表.112</title>
				<path d="M0.84 1133.5 L0.84 1131.83 C0.84 1131.64 0.65 1131.48 0.42 1131.48 C0.19 1131.48 0 1131.64 0 1131.83 L0
							 1133.5 C0 1133.7 0.19 1133.86 0.42 1133.86 C0.65 1133.86 0.84 1133.7 0.84 1133.5 ZM2.82 1133.5 L2.82
							 1131.83 C2.82 1131.64 2.63 1131.48 2.4 1131.48 C2.16 1131.48 1.98 1131.64 1.98 1131.83 L1.98 1133.5
							 C1.98 1133.7 2.16 1133.86 2.4 1133.86 C2.63 1133.86 2.82 1133.7 2.82 1133.5 Z"
					style="fill: #feffff;" />
			</g>
			<g id="shape107-132">
				<text x="-8.74"
					y="1061.06"
					style="fill: #0a3c54; font-family: 黑体; font-size: 0.833336em;">数字格式的 <tspan x="-3.74"
						dy="1.3em"
						style="font-size: 1em;">提问内容 </tspan>
					<tspan x="-14.23"
						dy="1.225em"
						style="font-family: Segoe UI; font-size: 1em;">(embeddings)</tspan>
				</text>
			</g>
		</g>
		<g id="shape120-136"
			transform="translate(259.839,-434.01)">
			<title>动态连接线.1.120</title>
			<path d="M7.09 1133.86 L7.09 1058.47"
				style="marker-end: url(#mrkr4-15); stroke: #1998d6; stroke-linecap: round; stroke-linejoin: round; stroke-width: 0.5;" />
		</g>
		<g id="shape121-141"
			transform="translate(363.755,-513.405)">
			<title>判定.121</title>
			<desc>pgvector 搜索相关文件</desc>
			<path d="M0 1112.46 L55.83 1091.06 L111.66 1112.46 L55.83 1133.86 L0 1112.46 Z"
				style="fill: #d80073; stroke: #ffffff; stroke-linecap: round; stroke-linejoin: round; stroke-width: 0.5;" />
			<text x="40.18"
				y="1109.66"
				style="fill: #ffffff; font-family: Segoe UI; font-size: 0.666664em;">pgvector <tspan x="23.83"
					dy="1.275em"
					style="font-family: 黑体; font-size: 1em;">（</tspan>
				<tspan style="font-family: 黑体; font-size: 1em;">搜索相关文件</tspan>
				<tspan style="font-family: 黑体; font-size: 1em;">）</tspan>
			</text>
		</g>
		<g id="shape122-147"
			transform="translate(283.192,-527.719)">
			<title>动态连接线.1.122</title>
			<path d="M0 1126.77 L74.52 1126.77"
				style="marker-end: url(#mrkr4-15); stroke: #1998d6; stroke-linecap: round; stroke-linejoin: round; stroke-width: 0.5;" />
		</g>
		<g id="shape130-152"
			transform="translate(475.413,-541.892)">
			<title>动态连接线.1.130</title>
			<path d="M0 1140.94 L33.27 1140.94"
				style="marker-end: url(#mrkr4-15); stroke: #1998d6; stroke-linecap: round; stroke-linejoin: round; stroke-width: 0.5;" />
		</g>
		<g id="shape134-157"
			transform="translate(259.839,-150.541)">
			<title>动态连接线.1.134</title>
			<path d="M7.09 1133.86 L7.09 1053.07"
				style="marker-end: url(#mrkr4-15); stroke: #1998d6; stroke-linecap: round; stroke-linejoin: round; stroke-width: 0.5;" />
		</g>
		<g id="shape162-162"
			transform="translate(234.825,-237.374)">
			<title>自定义 3</title>
			<desc>提问的内容 字符串</desc>
			<path d="M0 1133.86 L64.2 1133.86 L64.2 1095.34 L17.01 1095.34 L0 1112.34 L0 1133.86 Z"
				style="fill: #1ba1e2; stroke: #ffffff; stroke-linecap: round; stroke-linejoin: round; stroke-width: 0.5;" />
			<text x="12.1"
				y="1112"
				style="fill: #ffffff; font-family: 黑体; font-size: 0.666664em;">提问的内容 <tspan x="12.1"
					dy="1.3em"
					style="font-size: 1em;">（</tspan>字符串）</text>
		</g>
		<g id="shape163-166"
			transform="translate(259.839,-275.895)">
			<title>动态连接线.1.163</title>
			<path d="M7.09 1133.86 L7.09 1053.12"
				style="marker-end: url(#mrkr4-15); stroke: #1998d6; stroke-linecap: round; stroke-linejoin: round; stroke-width: 0.5;" />
		</g>
		<g id="shape164-171"
			transform="translate(514.723,-506.271)">
			<title>自定义 3.164</title>
			<desc>与提问内容有关的文档内容 字符串</desc>
			<path d="M0 1133.86 L123.6 1133.86 L123.6 1076.79 L17.01 1076.79 L0 1093.8 L0 1133.86 Z"
				style="fill: #1ba1e2; stroke: #ffffff; stroke-linecap: round; stroke-linejoin: round; stroke-width: 0.5;" />
			<text x="13.8"
				y="1102.72"
				style="fill: #ffffff; font-family: 黑体; font-size: 0.666664em;">与提问内容有关的文档内容 <tspan x="41.8"
					dy="1.3em"
					style="font-size: 1em;">（</tspan>字符串）</text>
		</g>
		<g id="shape170-175"
			transform="translate(514.723,-346.919)">
			<title>自定义 3.170</title>
			<desc>提示(prompt): 角色引导 提问的内容 相关的文档内容</desc>
			<path d="M0 1133.86 L123.6 1133.86 L123.6 1076.79 L17.01 1076.79 L0 1093.8 L0 1133.86 Z"
				style="fill: #1ba1e2; stroke: #ffffff; stroke-linecap: round; stroke-linejoin: round; stroke-width: 0.5;" />
			<text x="37.28"
				y="1092.32"
				style="fill: #ffffff; font-family: 黑体; font-size: 0.666664em;">提示<tspan style="font-family: Segoe UI; font-size: 1em;">(prompt)</tspan>
				<tspan style="font-family: Segoe UI; font-size: 1em;">: </tspan>
				<tspan x="45.8"
					dy="1.3em"
					style="font-size: 1em;">角色引导 </tspan>
				<tspan x="41.8"
					dy="1.3em"
					style="font-size: 1em;">提问的内容 </tspan>
				<tspan x="33.8"
					dy="1.3em"
					style="font-size: 1em;">相关的文档内容</tspan>
			</text>
		</g>
		<g id="shape175-183"
			transform="translate(569.436,-506.271)">
			<title>动态连接线.1.175</title>
			<path d="M7.09 1133.86 L7.09 1230.1"
				style="marker-end: url(#mrkr4-15); stroke: #1998d6; stroke-linecap: round; stroke-linejoin: round; stroke-width: 0.5;" />
		</g>
		<g id="shape176-188"
			transform="translate(299.027,-256.635)">
			<title>动态连接线.1.176</title>
			<path d="M0 1133.86 L120.95 1133.86 L120.95 1015.04 L209.66 1015.04"
				style="marker-end: url(#mrkr4-15); stroke: #1998d6; stroke-linecap: round; stroke-linejoin: round; stroke-width: 0.5;" />
		</g>
		<g id="shape201-193"
			transform="translate(1553.44,536.898) rotate(90)">
			<title>单箭头</title>
			<path d="M4.25 1131.73 L4.25 1135.98 L0 1133.86 L4.25 1131.73 ZM36.5 1131.73 L36.5 1135.98 L40.75 1133.86 L36.5 1131.73
						 Z"
				style="fill: #1998d6;" />
			<path d="M4.25 1131.73 L4.25 1135.98 L0 1133.86 L4.25 1131.73"
				style="stroke: #1998d6; stroke-linecap: round; stroke-linejoin: round; stroke-width: 0.5;" />
			<path d="M36.5 1131.73 L36.5 1135.98 L40.75 1133.86 L36.5 1131.73"
				style="stroke: #1998d6; stroke-linecap: round; stroke-linejoin: round; stroke-width: 0.5;" />
			<path d="M4.25 1133.86 L36.5 1133.86"
				style="stroke: #1998d6; stroke-linecap: round; stroke-linejoin: round; stroke-width: 0.5;" />
		</g>
		<g id="shape207-198"
			transform="translate(505.187,-197.053)">
			<title>判定.207</title>
			<desc>达芬奇模型 text-davinci-003</desc>
			<path d="M0 1098.19 L71.34 1062.52 L142.67 1098.19 L71.34 1133.86 L0 1098.19 Z"
				style="fill: #d80073; stroke: #ffffff; stroke-linecap: round; stroke-linejoin: round; stroke-width: 0.5;" />
			<text x="51.34"
				y="1095.99"
				style="fill: #ffffff; font-family: 黑体; font-size: 0.666664em;">达芬奇模型 <tspan x="42.67"
					dy="1.225em"
					style="font-family: Segoe UI; font-size: 1em;">text</tspan>
				<tspan style="font-family: Segoe UI; font-size: 1em;">-</tspan>
				<tspan style="font-family: Segoe UI; font-size: 1em;">davinci</tspan>
				<tspan style="font-family: Segoe UI; font-size: 1em;">-</tspan>
				<tspan style="font-family: Segoe UI; font-size: 1em;">00</tspan>
				<tspan style="font-family: Segoe UI; font-size: 1em;">3</tspan>
			</text>
		</g>
		<g id="shape208-207"
			transform="translate(569.436,-346.919)">
			<title>动态连接线</title>
			<path d="M7.09 1133.86 L7.09 1206.35"
				style="marker-end: url(#mrkr4-15); stroke: #1998d6; stroke-linecap: round; stroke-linejoin: round; stroke-width: 0.5;" />
		</g>
		<g id="shape209-212"
			transform="translate(569.436,-197.053)">
			<title>动态连接线.209</title>
			<path d="M7.09 1133.86 L7.09 1201.51"
				style="marker-end: url(#mrkr4-15); stroke: #1998d6; stroke-linecap: round; stroke-linejoin: round; stroke-width: 0.5;" />
		</g>
		<g id="shape210-217"
			transform="translate(544.421,-84.8423)">
			<title>自定义 3.210</title>
			<desc>返回的回答</desc>
			<path d="M0 1133.86 L64.2 1133.86 L64.2 1095.34 L17.01 1095.34 L0 1112.34 L0 1133.86 Z"
				style="fill: #1ba1e2; stroke: #ffffff; stroke-linecap: round; stroke-linejoin: round; stroke-width: 0.5;" />
			<text x="12.1"
				y="1117.2"
				style="fill: #ffffff; font-family: 黑体; font-size: 0.666664em;">返回的回答</text>
		</g>
		<g id="shape211-220"
			transform="translate(544.421,-97.0162)">
			<title>动态连接线.211</title>
			<path d="M0 1126.77 L-215.83 1126.77"
				style="marker-end: url(#mrkr4-15); stroke: #1998d6; stroke-linecap: round; stroke-linejoin: round; stroke-width: 0.5;" />
		</g>
		<g id="shape212-225"
			transform="translate(336.591,-385.418)">
			<title>工作表.212</title>
			<desc>❹</desc>
			<rect x="0"
				y="1108.01"
				width="32.514"
				height="25.8478"
				style="fill: none; stroke: none; stroke-linecap: round; stroke-linejoin: round; stroke-width: 0.5;" />
			<text x="4.3"
				y="1126.33"
				style="fill: #1ba1e2; font-family: Segoe UI; font-size: 1.5em;">❹</text>
		</g>
		<g id="shape213-228"
			transform="translate(409.026,-486.277)">
			<title>工作表.213</title>
			<desc>❺</desc>
			<rect x="0"
				y="1121.78"
				width="21.1153"
				height="12.0795"
				style="fill: none; stroke: none; stroke-linecap: round; stroke-linejoin: round; stroke-width: 0.5;" />
			<text x="2"
				y="1133.22"
				style="fill: #1ba1e2; font-family: Segoe UI; font-size: 1.5em;">❺</text>
		</g>
		<g id="shape214-231"
			transform="translate(495.698,-397.737)">
			<title>工作表.214</title>
			<desc>❻</desc>
			<rect x="0"
				y="1121.78"
				width="23.8056"
				height="12.0795"
				style="fill: none; stroke: none; stroke-linecap: round; stroke-linejoin: round; stroke-width: 0.5;" />
			<text x="2"
				y="1133.22"
				style="fill: #1ba1e2; font-family: Segoe UI; font-size: 1.5em;">❻</text>
		</g>
		<g id="shape217-234"
			transform="translate(474.97,-226.681)">
			<title>工作表.217</title>
			<desc>❼</desc>
			<rect x="0"
				y="1121.78"
				width="32.514"
				height="12.0795"
				style="fill: none; stroke: none; stroke-linecap: round; stroke-linejoin: round; stroke-width: 0.5;" />
			<text x="4.3"
				y="1133.22"
				style="fill: #1ba1e2; font-family: Segoe UI; font-size: 1.5em;">❼</text>
		</g>
		<g id="shape34-237"
			transform="translate(231.258,-904.815)">
			<title>判定</title>
			<desc>拆分</desc>
			<path d="M0 1112.46 L35.67 1091.06 L71.34 1112.46 L35.67 1133.86 L0 1112.46 Z"
				style="fill: #d80073; stroke: #ffffff; stroke-linecap: round; stroke-linejoin: round; stroke-width: 0.5;" />
			<text x="27.67"
				y="1115.06"
				style="fill: #ffffff; font-family: 黑体; font-size: 0.666664em;">拆分</text>
		</g>
		<g id="shape93-240"
			transform="translate(307.127,-910.561)">
			<title>工作表.93</title>
			<desc>❶</desc>
			<rect x="0"
				y="1121.78"
				width="21.1153"
				height="12.0795"
				style="fill: none; stroke: none; stroke-linecap: round; stroke-linejoin: round; stroke-width: 0.5;" />
			<text x="2"
				y="1122.42"
				style="fill: #1ba1e2; font-family: Segoe UI; font-size: 1.5em;">❶</text>
		</g>
		<g id="shape63-243"
			transform="translate(348.249,-782.356)">
			<title>判定.63</title>
			<desc>嵌入模型 text-embedding-ada-002</desc>
			<path d="M0 1098.19 L71.34 1062.52 L142.67 1098.19 L71.34 1133.86 L0 1098.19 Z"
				style="fill: #d80073; stroke: #ffffff; stroke-linecap: round; stroke-linejoin: round; stroke-width: 0.5;" />
			<text x="55.34"
				y="1095.99"
				style="fill: #ffffff; font-family: 黑体; font-size: 0.666664em;">嵌入模型 <tspan x="26.72"
					dy="1.225em"
					style="font-family: Segoe UI; font-size: 1em;">text</tspan>
				<tspan style="font-family: Segoe UI; font-size: 1em;">-</tspan>
				<tspan style="font-family: Segoe UI; font-size: 1em;">embedding</tspan>
				<tspan style="font-family: Segoe UI; font-size: 1em;">-</tspan>
				<tspan style="font-family: Segoe UI; font-size: 1em;">ada</tspan>
				<tspan style="font-family: Segoe UI; font-size: 1em;">-</tspan>
				<tspan style="font-family: Segoe UI; font-size: 1em;">002</tspan>
			</text>
		</g>
		<g id="shape95-253"
			transform="translate(402.641,-863.418)">
			<title>工作表.95</title>
			<desc>❷</desc>
			<rect x="0"
				y="1121.78"
				width="23.2988"
				height="12.0795"
				style="fill: none; stroke: none; stroke-linecap: round; stroke-linejoin: round; stroke-width: 0.5;" />
			<text x="2"
				y="1133.22"
				style="fill: #1ba1e2; font-family: Segoe UI; font-size: 1.5em;">❷</text>
		</g>
		<g id="shape76-256"
			transform="translate(376.783,-682.486)">
			<title>判定.76</title>
			<desc>pgvector 存储</desc>
			<path d="M0 1112.46 L42.8 1091.06 L85.6 1112.46 L42.8 1133.86 L0 1112.46 Z"
				style="fill: #d80073; stroke: #ffffff; stroke-linecap: round; stroke-linejoin: round; stroke-width: 0.5;" />
			<text x="27.15"
				y="1109.66"
				style="fill: #ffffff; font-family: Segoe UI; font-size: 0.666664em;">pgvector <tspan x="26.8"
					dy="1.275em"
					style="font-family: 黑体; font-size: 1em;">（</tspan>
				<tspan style="font-family: 黑体; font-size: 1em;">存储</tspan>
				<tspan style="font-family: 黑体; font-size: 1em;">）</tspan>
			</text>
		</g>
		<g id="shape96-262"
			transform="translate(344.051,-697.847)">
			<title>工作表.96</title>
			<desc>❸</desc>
			<rect x="0"
				y="1121.78"
				width="21.1153"
				height="12.0795"
				style="fill: none; stroke: none; stroke-linecap: round; stroke-linejoin: round; stroke-width: 0.5;" />
			<text x="2"
				y="1133.22"
				style="fill: #1ba1e2; font-family: Segoe UI; font-size: 1.5em;">❸</text>
		</g>
	</g>
</svg>
