<svg xmlns="http://www.w3.org/2000/svg"
  viewBox="0 0 618.96 255.12"
  width="618.96"
	height="255.12"
  class="w-100 h-auto my-3">
  <title>正三测</title>
  <path
    d="M118.76,51.74a1.25,1.25,0,0,1,.14.31.18.18,0,0,1-.06.18.42.42,0,0,1-.26.09l-.48,0h-.44a1.09,1.09,0,0,1-.25,0,.37.37,0,0,1-.14-.08.41.41,0,0,1-.08-.13l-2.54-4.53-2.55,4.53a.45.45,0,0,1-.1.13.28.28,0,0,1-.14.09l-.26,0h-.42l-.45,0a.36.36,0,0,1-.24-.09.18.18,0,0,1,0-.18,1,1,0,0,1,.14-.31l3.1-5.22-3-5.06a1.52,1.52,0,0,1-.14-.31.16.16,0,0,1,0-.18.39.39,0,0,1,.25-.09l.48,0,.43,0a1.3,1.3,0,0,1,.26,0,.24.24,0,0,1,.14.09,1.47,1.47,0,0,1,.1.13l2.44,4.25,2.43-4.25.09-.13a.27.27,0,0,1,.12-.09,1.19,1.19,0,0,1,.24,0l.4,0a2.81,2.81,0,0,1,.45,0,.45.45,0,0,1,.24.08.18.18,0,0,1,.06.18,1,1,0,0,1-.12.31l-3,5Z" />
  <path
    d="M131.55,45.51a.92.92,0,0,1-.1.49.31.31,0,0,1-.24.14h-6.64a.28.28,0,0,1-.23-.14.92.92,0,0,1-.1-.49.91.91,0,0,1,.09-.46.27.27,0,0,1,.24-.15h6.64a.27.27,0,0,1,.25.15A.91.91,0,0,1,131.55,45.51Zm0,3.42a.92.92,0,0,1-.1.49.33.33,0,0,1-.24.13h-6.64a.29.29,0,0,1-.23-.13.92.92,0,0,1-.1-.49,1,1,0,0,1,.09-.47.27.27,0,0,1,.24-.15h6.64a.27.27,0,0,1,.25.15A1,1,0,0,1,131.55,48.93Z" />
  <path
    d="M144.74,41.57a2.44,2.44,0,0,1,0,.28,1.87,1.87,0,0,1,0,.25,1,1,0,0,1-.06.23l-.09.23L140.44,52a.48.48,0,0,1-.28.28l-.25,0h-.39l-.47,0a.55.55,0,0,1-.24-.09.13.13,0,0,1-.06-.14.49.49,0,0,1,.06-.2l4.3-9.65h-5.45a.25.25,0,0,1-.25-.17,1.1,1.1,0,0,1-.09-.49,2.19,2.19,0,0,1,0-.29.86.86,0,0,1,.07-.21.25.25,0,0,1,.1-.12.26.26,0,0,1,.15,0h6.62l.22,0a.26.26,0,0,1,.14.11.52.52,0,0,1,.07.2A1.39,1.39,0,0,1,144.74,41.57Z" />
  <path
    d="M147.05,54.41a.51.51,0,0,1-.09.18.4.4,0,0,1-.15.1l-.21.05-.31,0a1.9,1.9,0,0,1-.37,0,.5.5,0,0,1-.22-.09.2.2,0,0,1-.1-.14.31.31,0,0,1,0-.2L151,39.72a.61.61,0,0,1,.1-.18.3.3,0,0,1,.14-.1.53.53,0,0,1,.21-.06h.32a1.86,1.86,0,0,1,.36,0,.79.79,0,0,1,.22.08.24.24,0,0,1,.09.14.32.32,0,0,1,0,.21Z" />
  <path
    d="M160.91,49.37a3.27,3.27,0,0,1-.26,1.32,2.76,2.76,0,0,1-.76,1,3.36,3.36,0,0,1-1.23.59,6,6,0,0,1-1.67.21,5.82,5.82,0,0,1-1.57-.19,3.38,3.38,0,0,1-1.18-.54,2.44,2.44,0,0,1-.74-.89,2.71,2.71,0,0,1-.25-1.2,2.86,2.86,0,0,1,.17-1,3,3,0,0,1,.51-.83,4.35,4.35,0,0,1,.81-.7,9.21,9.21,0,0,1,1.09-.63,5.91,5.91,0,0,1-.93-.58,3.62,3.62,0,0,1-.69-.66,2.58,2.58,0,0,1-.42-.76,2.5,2.5,0,0,1-.15-.88,2.83,2.83,0,0,1,.22-1.12,2.5,2.5,0,0,1,.65-.91,3.27,3.27,0,0,1,1.11-.61,4.9,4.9,0,0,1,1.56-.22,4.65,4.65,0,0,1,1.49.21,2.79,2.79,0,0,1,1,.56,2.24,2.24,0,0,1,.6.84,2.75,2.75,0,0,1,.2,1,2.55,2.55,0,0,1-.15.86,3,3,0,0,1-.42.78,4.09,4.09,0,0,1-.69.69,7.61,7.61,0,0,1-.94.6,11,11,0,0,1,1.11.63,4.12,4.12,0,0,1,.82.7,2.83,2.83,0,0,1,.5.79A2.51,2.51,0,0,1,160.91,49.37Zm-1.53.16a1.73,1.73,0,0,0-.15-.73,2,2,0,0,0-.45-.62,4,4,0,0,0-.76-.55c-.3-.18-.65-.37-1.05-.56a9.37,9.37,0,0,0-1,.54,3.65,3.65,0,0,0-.68.57,2,2,0,0,0-.41.61,1.78,1.78,0,0,0-.13.7,1.59,1.59,0,0,0,.58,1.32,2.77,2.77,0,0,0,1.75.47,2.67,2.67,0,0,0,1.7-.47A1.57,1.57,0,0,0,159.38,49.53Zm-.37-6a1.78,1.78,0,0,0-.12-.67,1.37,1.37,0,0,0-.38-.51,1.61,1.61,0,0,0-.61-.32,2.65,2.65,0,0,0-.83-.11,2.12,2.12,0,0,0-1.44.43,1.51,1.51,0,0,0-.48,1.18,1.85,1.85,0,0,0,.11.63,1.82,1.82,0,0,0,.37.56,3.12,3.12,0,0,0,.64.51,7.88,7.88,0,0,0,.91.53,4.58,4.58,0,0,0,1.36-1A1.87,1.87,0,0,0,159,43.54Z" />
  <path
    d="M115.14,69.47v4.19a.16.16,0,0,1,0,.12.19.19,0,0,1-.12.09l-.24,0-.35,0-.37,0-.23,0a.22.22,0,0,1-.13-.09.21.21,0,0,1,0-.12V69.47l-3.22-6.42a1.44,1.44,0,0,1-.12-.31.21.21,0,0,1,0-.18.45.45,0,0,1,.24-.08l.46,0,.43,0a1.33,1.33,0,0,1,.26.05.28.28,0,0,1,.14.09.5.5,0,0,1,.1.14L113.53,66c.15.31.29.64.44,1s.29.68.44,1h0c.13-.34.27-.67.41-1s.29-.66.44-1l1.58-3.29a.36.36,0,0,1,.08-.15.25.25,0,0,1,.13-.09.89.89,0,0,1,.23-.05l.38,0a3.1,3.1,0,0,1,.49,0,.5.5,0,0,1,.26.08.17.17,0,0,1,0,.17,1,1,0,0,1-.12.31Z" />
  <path
    d="M131,67.11a.82.82,0,0,1-.11.49.28.28,0,0,1-.23.14H124a.28.28,0,0,1-.23-.14.83.83,0,0,1-.1-.49.91.91,0,0,1,.09-.46.27.27,0,0,1,.24-.15h6.64a.27.27,0,0,1,.25.15A.91.91,0,0,1,131,67.11Zm0,3.42a.82.82,0,0,1-.11.49.29.29,0,0,1-.23.13H124a.29.29,0,0,1-.23-.13.83.83,0,0,1-.1-.49,1,1,0,0,1,.09-.47.27.27,0,0,1,.24-.15h6.64a.27.27,0,0,1,.25.15A1,1,0,0,1,131,70.53Z" />
  <path
    d="M144,73.24a2.3,2.3,0,0,1,0,.28q0,.12-.06.21a.32.32,0,0,1-.11.12.23.23,0,0,1-.14,0h-6.29a.66.66,0,0,1-.21,0,.44.44,0,0,1-.16-.1.54.54,0,0,1-.1-.2,1.55,1.55,0,0,1,0-.33,2.69,2.69,0,0,1,0-.31.56.56,0,0,1,0-.23,1.06,1.06,0,0,1,.12-.2,1.46,1.46,0,0,1,.17-.22l2.28-2.34a14.33,14.33,0,0,0,1.26-1.45,7,7,0,0,0,.73-1.16,3.6,3.6,0,0,0,.34-1,4,4,0,0,0,.09-.81,2.18,2.18,0,0,0-.13-.72,1.9,1.9,0,0,0-.37-.59,1.73,1.73,0,0,0-.6-.41,2.38,2.38,0,0,0-.84-.14,3.38,3.38,0,0,0-1,.14,5.09,5.09,0,0,0-.77.33c-.22.12-.4.23-.55.33a.8.8,0,0,1-.33.14.24.24,0,0,1-.12,0,.24.24,0,0,1-.08-.11,1,1,0,0,1,0-.22,2.54,2.54,0,0,1,0-.31c0-.09,0-.17,0-.23s0-.12,0-.17l.06-.13a.6.6,0,0,1,.14-.15,2.26,2.26,0,0,1,.37-.25,3.94,3.94,0,0,1,.65-.32,7.36,7.36,0,0,1,.86-.26,4.49,4.49,0,0,1,1-.1,4.18,4.18,0,0,1,1.44.23,3,3,0,0,1,1,.64,2.55,2.55,0,0,1,.61.94,3.11,3.11,0,0,1,.2,1.14,6.59,6.59,0,0,1-.09,1.09,4.57,4.57,0,0,1-.41,1.17,8.91,8.91,0,0,1-.9,1.39,21.13,21.13,0,0,1-1.57,1.78l-1.8,1.88h4.95a.2.2,0,0,1,.13,0,.25.25,0,0,1,.12.11.93.93,0,0,1,.07.2A2.16,2.16,0,0,1,144,73.24Z" />
  <path
    d="M146.48,76a.51.51,0,0,1-.09.18.4.4,0,0,1-.15.1l-.21,0-.31,0a1.9,1.9,0,0,1-.37,0,.5.5,0,0,1-.22-.09.22.22,0,0,1-.1-.14.38.38,0,0,1,0-.2l5.32-14.58a.74.74,0,0,1,.09-.18.4.4,0,0,1,.15-.1.53.53,0,0,1,.21-.06h.32a1.86,1.86,0,0,1,.36,0,.93.93,0,0,1,.22.08.24.24,0,0,1,.09.14.32.32,0,0,1,0,.21Z" />
  <path
    d="M160,70.64a3.55,3.55,0,0,1-.27,1.41,3,3,0,0,1-.79,1.07,3.6,3.6,0,0,1-1.25.7,5.52,5.52,0,0,1-1.69.24,5.19,5.19,0,0,1-1.07-.1,6,6,0,0,1-.88-.22,3.67,3.67,0,0,1-.64-.26,1.66,1.66,0,0,1-.32-.2.6.6,0,0,1-.11-.12,1.16,1.16,0,0,1-.06-.15c0-.06,0-.13,0-.21s0-.19,0-.32a1.15,1.15,0,0,1,.06-.44.21.21,0,0,1,.18-.12.9.9,0,0,1,.32.14,5.2,5.2,0,0,0,.62.3,7.82,7.82,0,0,0,.87.31,4.35,4.35,0,0,0,1.12.14,3.3,3.3,0,0,0,1-.15,2.23,2.23,0,0,0,.76-.42,1.75,1.75,0,0,0,.46-.65,2.16,2.16,0,0,0,.15-.81,1.92,1.92,0,0,0-.19-.87,1.84,1.84,0,0,0-.58-.67,2.62,2.62,0,0,0-.92-.43,4.76,4.76,0,0,0-1.25-.15h-1.12l-.14,0a.35.35,0,0,1-.11-.1.48.48,0,0,1-.09-.19,1.15,1.15,0,0,1,0-.3,1,1,0,0,1,0-.27.75.75,0,0,1,.07-.18l.11-.1a.58.58,0,0,1,.14,0h1a3.74,3.74,0,0,0,1-.14,2.12,2.12,0,0,0,.78-.44,1.82,1.82,0,0,0,.49-.67,2,2,0,0,0,.17-.87,1.94,1.94,0,0,0-.11-.68,1.53,1.53,0,0,0-.93-.93,2.28,2.28,0,0,0-.82-.13,2.85,2.85,0,0,0-.94.15,6,6,0,0,0-.76.33c-.22.12-.4.23-.55.33a.73.73,0,0,1-.31.15.22.22,0,0,1-.11,0,.15.15,0,0,1-.08-.09.6.6,0,0,1,0-.18,2.73,2.73,0,0,1,0-.31,1.55,1.55,0,0,1,0-.23.48.48,0,0,1,0-.18l.06-.14.12-.14a1.81,1.81,0,0,1,.34-.24,4.57,4.57,0,0,1,.63-.32,6.35,6.35,0,0,1,.86-.26,4.93,4.93,0,0,1,1.05-.1,4.48,4.48,0,0,1,1.39.2,2.94,2.94,0,0,1,1,.57,2.35,2.35,0,0,1,.59.89,3,3,0,0,1,.2,1.13,3.55,3.55,0,0,1-.14,1,2.53,2.53,0,0,1-.41.82,2.48,2.48,0,0,1-1.58,1v0a3.09,3.09,0,0,1,1.07.3,2.68,2.68,0,0,1,.84.58,2.42,2.42,0,0,1,.55.82A2.64,2.64,0,0,1,160,70.64Z" />
  <path
    d="M118.06,94.86a2.16,2.16,0,0,1,0,.28.52.52,0,0,1-.06.2.27.27,0,0,1-.1.11.18.18,0,0,1-.13,0H111a.53.53,0,0,1-.37-.14.62.62,0,0,1-.14-.45v-.32a1.5,1.5,0,0,1,0-.22.84.84,0,0,1,0-.2,1.51,1.51,0,0,1,.13-.25c0-.09.11-.2.19-.32l5.25-8.21H111a.33.33,0,0,1-.15,0,.36.36,0,0,1-.1-.11,1.67,1.67,0,0,1-.06-.2,2.26,2.26,0,0,1,0-.27,2.63,2.63,0,0,1,0-.3,1.67,1.67,0,0,1,.06-.2.31.31,0,0,1,.1-.12.33.33,0,0,1,.15,0h6.33a.49.49,0,0,1,.37.13.57.57,0,0,1,.14.42V85a1.69,1.69,0,0,1,0,.25,1,1,0,0,1-.06.23,1.79,1.79,0,0,1-.12.24,2.59,2.59,0,0,1-.2.31l-5.22,8.18h5.56a.27.27,0,0,1,.23.14A1.2,1.2,0,0,1,118.06,94.86Z" />
  <path
    d="M130.63,88.71a.83.83,0,0,1-.1.49.29.29,0,0,1-.23.14h-6.65a.28.28,0,0,1-.22-.14.83.83,0,0,1-.1-.49.91.91,0,0,1,.09-.46.26.26,0,0,1,.23-.15h6.65a.29.29,0,0,1,.25.15A1.05,1.05,0,0,1,130.63,88.71Zm0,3.42a.83.83,0,0,1-.1.49.31.31,0,0,1-.23.13h-6.65a.29.29,0,0,1-.22-.13.83.83,0,0,1-.1-.49,1,1,0,0,1,.09-.47.26.26,0,0,1,.23-.15h6.65a.29.29,0,0,1,.25.15A1.1,1.1,0,0,1,130.63,92.13Z" />
  <path
    d="M143.68,94.89a1.14,1.14,0,0,1,0,.28.69.69,0,0,1-.07.19.32.32,0,0,1-.1.1.27.27,0,0,1-.12,0h-5.94a.27.27,0,0,1-.12,0,.4.4,0,0,1-.17-.29,1.09,1.09,0,0,1,0-.28,1.12,1.12,0,0,1,0-.27.71.71,0,0,1,.06-.19.27.27,0,0,1,.1-.11.2.2,0,0,1,.13,0h2.37V85.63l-2.2,1.31a.83.83,0,0,1-.27.1.16.16,0,0,1-.16,0,.28.28,0,0,1-.08-.18,1.67,1.67,0,0,1,0-.34,1.85,1.85,0,0,1,0-.25.8.8,0,0,1,0-.18.35.35,0,0,1,.07-.12l.13-.11,2.62-1.68.09,0,.13,0,.18,0h.27a1.78,1.78,0,0,1,.35,0,1,1,0,0,1,.22,0,.24.24,0,0,1,.11.08.44.44,0,0,1,0,.1v10h2.06a.2.2,0,0,1,.13,0,.27.27,0,0,1,.1.11.47.47,0,0,1,.06.19A1.14,1.14,0,0,1,143.68,94.89Z" />
  <path
    d="M195.35,204.28a.64.64,0,0,1,.09.28.21.21,0,0,1-.11.18.81.81,0,0,1-.34.1,4.68,4.68,0,0,1-.59,0l-.56,0a1.3,1.3,0,0,1-.33-.06.39.39,0,0,1-.18-.1.61.61,0,0,1-.12-.15l-2.53-4.18-2.52,4.18a.42.42,0,0,1-.11.15.39.39,0,0,1-.18.1,1.3,1.3,0,0,1-.33.06l-.52,0a4.17,4.17,0,0,1-.56,0,.71.71,0,0,1-.32-.1.19.19,0,0,1-.09-.18.59.59,0,0,1,.11-.28l3.28-5.14-3.1-5a.53.53,0,0,1-.1-.27.2.2,0,0,1,.1-.19.86.86,0,0,1,.34-.1l.6,0h.55a1.67,1.67,0,0,1,.32.06.38.38,0,0,1,.18.09.71.71,0,0,1,.1.14l2.41,3.93,2.43-3.93.11-.13a.49.49,0,0,1,.16-.1l.28-.06h.5l.55,0a1,1,0,0,1,.33.09.17.17,0,0,1,.09.18.74.74,0,0,1-.12.29l-3.08,4.9Z"
    style="fill:#231815" />
  <path
    d="M504.11,227.91v5.59a.28.28,0,0,1-.05.16.34.34,0,0,1-.16.12l-.32.07-.48,0-.48,0-.32-.07a.3.3,0,0,1-.16-.12.28.28,0,0,1-.05-.16v-5.59l-4.29-8.55a1.82,1.82,0,0,1-.16-.43.22.22,0,0,1,.06-.23.57.57,0,0,1,.32-.11l.61,0,.57,0a1.94,1.94,0,0,1,.35.07.37.37,0,0,1,.19.12,1,1,0,0,1,.12.19l2.1,4.36c.2.41.39.85.58,1.3l.6,1.37h0c.18-.45.36-.89.55-1.33s.39-.88.58-1.31L506.4,219a.93.93,0,0,1,.1-.2.41.41,0,0,1,.18-.12,1.44,1.44,0,0,1,.31-.07l.5,0a5.62,5.62,0,0,1,.66,0,.71.71,0,0,1,.34.11.24.24,0,0,1,.06.24,1.74,1.74,0,0,1-.16.41Z"
    style="fill:#231815" />
  <path
    d="M371.3,26.19a2.18,2.18,0,0,1,0,.38.66.66,0,0,1-.08.26.31.31,0,0,1-.12.15.3.3,0,0,1-.19.05h-8.95a.64.64,0,0,1-.49-.19.78.78,0,0,1-.19-.59v-.44a2.46,2.46,0,0,1,0-.28,1,1,0,0,1,.08-.27,1.64,1.64,0,0,1,.16-.33l.26-.43,7-10.95h-6.91a.4.4,0,0,1-.2,0,.32.32,0,0,1-.13-.15.61.61,0,0,1-.08-.26,2.06,2.06,0,0,1,0-.37,2.3,2.3,0,0,1,0-.39.66.66,0,0,1,.08-.27.42.42,0,0,1,.13-.16.4.4,0,0,1,.2,0h8.44a.66.66,0,0,1,.49.18.73.73,0,0,1,.19.56v.45a1.72,1.72,0,0,1,0,.34,1.35,1.35,0,0,1-.08.3,1.91,1.91,0,0,1-.16.32,3,3,0,0,1-.26.41l-7,10.9h7.4a.34.34,0,0,1,.31.2A1.51,1.51,0,0,1,371.3,26.19Z"
    style="fill:#231815" />
  <line x1="352.39"
    y1="180.39"
    x2="352.39"
    y2="16.29"
    style="fill:none;stroke:#000;stroke-miterlimit:10;stroke-width:0.5px;stroke-dasharray:6,6" />
  <polygon points="356.09 19.09 352.39 17.52 348.68 19.09 352.39 10.31 356.09 19.09" />
  <line x1="352.39"
    y1="180.39"
    x2="503.11"
    y2="245.31"
    style="fill:none;stroke:#000;stroke-miterlimit:10;stroke-width:0.5px;stroke-dasharray:6,6" />
  <polygon points="499.07 247.6 501.98 244.82 502 240.79 508.59 247.67 499.07 247.6" />
  <line x1="352.39"
    y1="180.39"
    x2="192.17"
    y2="215.91"
    style="fill:none;stroke:#000;stroke-miterlimit:10;stroke-width:0.5px;stroke-dasharray:6,6" />
  <polygon points="194.11 211.69 193.37 215.65 195.71 218.92 186.34 217.21 194.11 211.69" />
  <line x1="325.04"
    y1="231.8"
    x2="325.04"
    y2="118.42"
    style="fill:none;stroke:#000;stroke-linecap:round;stroke-miterlimit:10" />
  <line x1="421.9"
    y1="210.33"
    x2="421.9"
    y2="96.95"
    style="fill:none;stroke:#000;stroke-linecap:round;stroke-miterlimit:10;stroke-width:2px" />
  <line x1="255.52"
    y1="201.87"
    x2="255.52"
    y2="88.48"
    style="fill:none;stroke:#000;stroke-linecap:round;stroke-miterlimit:10;stroke-width:2px" />
  <line x1="421.9"
    y1="210.33"
    x2="325.04"
    y2="231.8"
    style="fill:none;stroke:#000;stroke-linecap:round;stroke-miterlimit:10;stroke-width:2px" />
  <line x1="352.39"
    y1="67.01"
    x2="255.52"
    y2="88.48"
    style="fill:none;stroke:#000;stroke-linecap:round;stroke-miterlimit:10;stroke-width:2px" />
  <line x1="255.52"
    y1="201.87"
    x2="325.04"
    y2="231.8"
    style="fill:none;stroke:#000;stroke-linecap:round;stroke-miterlimit:10;stroke-width:2px" />
  <line x1="352.39"
    y1="67.01"
    x2="421.9"
    y2="96.95"
    style="fill:none;stroke:#000;stroke-linecap:round;stroke-miterlimit:10;stroke-width:2px" />
  <line x1="255.52"
    y1="88.48"
    x2="325.04"
    y2="118.42"
    style="fill:none;stroke:#000;stroke-linecap:round;stroke-miterlimit:10" />
  <line x1="421.9"
    y1="96.95"
    x2="325.04"
    y2="118.42"
    style="fill:none;stroke:#000;stroke-linecap:round;stroke-miterlimit:10" />
</svg>
