<svg xmlns="http://www.w3.org/2000/svg"
  viewBox="0 0 494.24 368.5"
  width="494.24"
	height="368.5"
  class="w-100 h-auto my-3">
  <title>中心投影</title>
  <rect width="494.24"
    height="368.5"
    style="fill:#d3d3d4" />
  <polyline points="229.68 12.43 229.68 156.97 479.24 301.05"
    style="fill:#666464;stroke:#000;stroke-linecap:round;fill-rule:evenodd" />
  <polyline points="479.24 301.05 479.24 156.51 229.68 12.43"
    style="fill:#666464;stroke:#000;stroke-linecap:round;fill-rule:evenodd" />
  <polygon points="20.63 347.64 332.59 108.37 419.68 158.65 20.63 347.64"
    style="fill:#fff;fill-rule:evenodd" />
  <line x1="419.68"
    y1="158.65"
    x2="416.96"
    y2="159.93"
    style="fill:none;stroke:#000;stroke-linecap:round;stroke-width:0.5px" />
  <line x1="406.33"
    y1="164.97"
    x2="28.66"
    y2="343.84"
    style="fill:none;stroke:#000;stroke-linecap:round;stroke-width:0.5px;stroke-dasharray:5.885692119598389,11.771384239196777" />
  <line x1="23.34"
    y1="346.36"
    x2="20.63"
    y2="347.64"
    style="fill:none;stroke:#000;stroke-linecap:round;stroke-width:0.5px" />
  <polyline points="23.29 346.27 20.63 347.64 23.01 345.81"
    style="fill:none;stroke:#000;stroke-linecap:round;stroke-width:0.5px" />
  <line x1="32.46"
    y1="338.57"
    x2="325.48"
    y2="113.82"
    style="fill:none;stroke:#000;stroke-linecap:round;stroke-width:0.5px;stroke-dasharray:5.956277370452881,11.912554740905762" />
  <polyline points="330.21 110.2 332.59 108.37 330.21 110.2"
    style="fill:none;stroke:#000;stroke-linecap:round;stroke-width:0.5px" />
  <line x1="320.76"
    y1="117.45"
    x2="27.73"
    y2="342.19"
    style="fill:none;stroke:#000;stroke-linecap:round;stroke-width:0.5px;stroke-dasharray:5.956277370452881,11.912554740905762" />
  <polyline points="23.01 345.81 20.63 347.64 23.29 346.27"
    style="fill:none;stroke:#000;stroke-linecap:round;stroke-width:0.5px" />
  <line x1="34.05"
    y1="340.71"
    x2="319.26"
    y2="193.59"
    style="fill:none;stroke:#000;stroke-linecap:round;stroke-width:0.5px;stroke-dasharray:6.055090427398682,12.110180854797363" />
  <polyline points="324.64 190.81 327.31 189.44 324.64 190.81"
    style="fill:none;stroke:#000;stroke-linecap:round;stroke-width:0.5px" />
  <line x1="313.88"
    y1="196.36"
    x2="28.67"
    y2="343.49"
    style="fill:none;stroke:#000;stroke-linecap:round;stroke-width:0.5px;stroke-dasharray:6.055090427398682,12.110180854797363" />
  <polygon points="220.15 253.14 176.61 228 173.97 268.54 220.15 253.14"
    style="fill:#29b9cb;stroke:#221714;stroke-linecap:round;stroke-linejoin:round;stroke-width:2px;fill-rule:evenodd" />
  <polygon points="419.68 158.65 332.59 108.37 327.31 189.44 419.68 158.65"
    style="fill:#29b9cb;stroke:#000;stroke-linecap:round;stroke-linejoin:round;stroke-width:4px;fill-rule:evenodd" />
  <path d="M19.5,355a1.13,1.13,0,1,0,2.25,0Z"
    style="fill:#616465" />
  <path d="M18.64,352.14h4a11.4,11.4,0,0,1,1.78-3.63c.91-1.43,1.86-2.92,1.86-4.36,0-2.73-2.52-4.95-5.62-4.95S15,341.42,15,344.15c0,1.44.95,2.93,1.86,4.36A11.4,11.4,0,0,1,18.64,352.14Z"
    style="fill:#f5c839" />
  <path
    d="M18.56,347.32c0-.07,0-.1.07-.11h0l.06,0a1.22,1.22,0,0,1,.21.41.84.84,0,0,1,0,.17.64.64,0,0,1-.3-.14A.42.42,0,0,1,18.56,347.32Zm1.9-1a.2.2,0,0,1,.17-.11.22.22,0,0,1,.17.11.36.36,0,0,1,0,.32,1.4,1.4,0,0,1-.15.24,1.25,1.25,0,0,1-.16-.24A.33.33,0,0,1,20.46,346.33Zm1.85,1.33a1.22,1.22,0,0,1,.21-.41l.06,0h0s.07,0,.08.11a.46.46,0,0,1-.14.37.6.6,0,0,1-.3.14A.84.84,0,0,1,22.31,347.66Zm-3.25.43c.05.17.08.34.12.5.08.31.15.6.22.89.26,1.06.49,2,.67,2.66h.17c-.15-.71-.35-1.63-.6-2.71-.06-.28-.13-.58-.2-.89,0-.15-.07-.3-.1-.46a2.63,2.63,0,0,0,1.29-.81,2.55,2.55,0,0,0,1.29.81c0,.16-.07.31-.11.46-.07.31-.13.61-.2.89-.24,1.08-.44,2-.59,2.71h.16c.19-.7.41-1.6.67-2.66.07-.29.14-.58.22-.89l.12-.5a.88.88,0,0,0,.57-.23.67.67,0,0,0,.21-.59.38.38,0,0,0-.25-.29.44.44,0,0,0-.23,0,.45.45,0,0,0-.17.11,1.45,1.45,0,0,0-.27.5c0,.09-.05.17-.07.25a1.38,1.38,0,0,1-.75-.33,1.68,1.68,0,0,1-.45-.42,1.65,1.65,0,0,0,.24-.33,1,1,0,0,0,.07-.25.47.47,0,0,0-.05-.28.59.59,0,0,0-.25-.21.45.45,0,0,0-.16,0,.47.47,0,0,0-.17,0,.5.5,0,0,0-.24.21.48.48,0,0,0-.06.28,1,1,0,0,0,.07.25,1.68,1.68,0,0,0,.25.33,2.1,2.1,0,0,1-.45.42,1.38,1.38,0,0,1-.75.33c0-.08-.05-.16-.08-.25a1.42,1.42,0,0,0-.26-.5.56.56,0,0,0-.17-.11.48.48,0,0,0-.24,0,.38.38,0,0,0-.25.29.67.67,0,0,0,.21.59A.88.88,0,0,0,19.06,348.09Z"
    style="fill:#c18d2a" />
  <rect x="18.62"
    y="352.69"
    width="4.03"
    height="0.52"
    style="fill:#93979a" />
  <rect x="18.9"
    y="353.73"
    width="3.47"
    height="0.52"
    style="fill:#93979a" />
  <rect x="18.9"
    y="353.21"
    width="3.47"
    height="0.52"
    style="fill:#616465" />
  <polygon points="22.65 352.69 18.9 353.73 18.9 354.25 22.65 353.21 22.65 352.69"
    style="fill:#93979a" />
  <rect x="19.18"
    y="354.76"
    width="2.91"
    height="0.52"
    style="fill:#93979a" />
  <rect x="19.18"
    y="354.24"
    width="2.91"
    height="0.52"
    style="fill:#616465" />
  <polygon points="22.37 353.73 19.18 354.76 19.18 355.28 22.37 354.25 22.37 353.73"
    style="fill:#93979a" />
</svg>
