<?xml version="1.0" encoding="utf-8"?>
<!-- Generator: Adobe Illustrator 23.0.0, SVG Export Plug-In . SVG Version: 6.00 Build 0)  -->
<svg version="1.1" id="Layer_1" xmlns="http://www.w3.org/2000/svg" xmlns:xlink="http://www.w3.org/1999/xlink" x="0px" y="0px"
	 viewBox="0 0 208 128" style="enable-background:new 0 0 208 128;" xml:space="preserve">
<style type="text/css">
	.st0{fill:#9E90C4;}
	.st1{fill:#FFFFFF;}
</style>
<path class="st0" d="M15,5h178c5.5,0,10,4.5,10,10v98c0,5.5-4.5,10-10,10H15c-5.5,0-10-4.5-10-10V15C5,9.5,9.5,5,15,5z"/>
<path class="st1" d="M30,98V30h20l20,25l20-25h20v68H90V59L70,84L50,59v39H30z M155,98l-30-33h20V30h20v35h20L155,98z"/>
</svg>
